<svg width="24.000000" height="24.000000" viewBox="0 0 24 24" fill="none" xmlns="http://www.w3.org/2000/svg" xmlns:xlink="http://www.w3.org/1999/xlink">
	<g opacity="0.200000">
		<path id="Vector 333" d="M13 3L4 14L12 14L11 21L20 10L12 10L13 3Z" fill="currentColor" fill-opacity="1.000000" fill-rule="evenodd"/>
	</g>
	<path id="vector" d="M13.15 9L13.99 3.14C14.01 2.96 13.99 2.8 13.93 2.63C13.86 2.47 13.76 2.33 13.63 2.22C13.41 2.05 13.17 1.97 12.9 2C12.62 2.03 12.4 2.15 12.22 2.36L3.22 13.36C3.15 13.45 3.09 13.55 3.05 13.66C3.01 13.77 3 13.88 3 14C3 14.27 3.09 14.51 3.29 14.7C3.48 14.9 3.72 15 4 15L10.84 15L10.01 20.85C9.98 21.03 10 21.2 10.06 21.36C10.13 21.52 10.23 21.66 10.36 21.77C10.58 21.94 10.82 22.02 11.09 21.99C11.37 21.96 11.59 21.84 11.77 21.63L20.77 10.63C20.84 10.54 20.9 10.44 20.94 10.33C20.98 10.22 21 10.11 21 10C21 9.72 20.9 9.48 20.7 9.29C20.51 9.09 20.27 9 20 9L13.15 9ZM11.5 6.4L6.11 13L12 13C12.02 13 12.11 13 12.14 13.01C12.41 13.04 12.63 13.17 12.8 13.4C12.96 13.62 13.02 13.86 12.99 14.14L12.49 17.59L17.88 11L12 11C11.97 10.99 11.88 10.99 11.85 10.99C11.58 10.95 11.36 10.82 11.2 10.6C11.03 10.37 10.97 10.13 11.01 9.85L11.5 6.4Z" fill="currentColor" fill-opacity="1.000000" fill-rule="evenodd"/>
</svg>
