<svg width="24.000000" height="24.000000" viewBox="0 0 24 24" fill="none" xmlns="http://www.w3.org/2000/svg" xmlns:xlink="http://www.w3.org/1999/xlink">
	<g opacity="0.200000">
		<path id="Vector 331" d="M19 9L19 17C19 18.1 18.1 19 17 19L7 19C5.89 19 5 18.1 5 17L5 9L4 9L10.8 3.9C11.51 3.36 12.48 3.36 13.2 3.9L20 9L19 9Z" fill="currentColor" fill-opacity="1.000000" fill-rule="evenodd"/>
	</g>
	<path id="Union" d="M3.39 8.2L10.2 3.09C10.46 2.9 10.75 2.75 11.06 2.65C11.36 2.54 11.67 2.5 12 2.5C12.32 2.5 12.63 2.54 12.93 2.65C13.08 2.69 13.22 2.75 13.36 2.82C13.51 2.9 13.66 2.99 13.79 3.09L20.6 8.2C21.04 8.53 21.13 9.15 20.79 9.59C20.6 9.86 20.3 10 20 10L20 17C20 17.21 19.97 17.43 19.93 17.63C19.89 17.81 19.83 17.99 19.76 18.16C19.69 18.34 19.6 18.5 19.5 18.65C19.39 18.82 19.26 18.97 19.12 19.12C18.97 19.26 18.82 19.39 18.65 19.5C18.5 19.6 18.34 19.69 18.16 19.76C17.99 19.83 17.81 19.89 17.63 19.93C17.43 19.97 17.21 20 17 20L7 20C6.78 20 6.56 19.97 6.36 19.93C6.18 19.89 6 19.83 5.83 19.76C5.65 19.69 5.49 19.6 5.34 19.5C5.17 19.39 5.02 19.26 4.87 19.12C4.73 18.97 4.6 18.82 4.49 18.65C4.39 18.5 4.3 18.34 4.23 18.16C4.16 17.99 4.1 17.81 4.06 17.63C4.02 17.43 4 17.21 4 17L4 10C3.69 10 3.39 9.86 3.19 9.59C2.86 9.15 2.95 8.53 3.39 8.2ZM12.6 4.7L18.02 8.76C18 8.84 18 8.92 18 9L18 17C18 17.08 17.99 17.16 17.97 17.24C17.95 17.29 17.94 17.34 17.92 17.38C17.89 17.44 17.87 17.49 17.84 17.53C17.8 17.59 17.75 17.65 17.7 17.7C17.65 17.75 17.59 17.8 17.53 17.84C17.49 17.87 17.44 17.89 17.38 17.92C17.34 17.94 17.29 17.95 17.24 17.97C17.16 17.99 17.08 18 17 18L7 18C6.91 18 6.83 17.99 6.75 17.97C6.7 17.95 6.65 17.94 6.61 17.92C6.55 17.89 6.5 17.87 6.46 17.84C6.4 17.8 6.34 17.75 6.29 17.7C6.24 17.65 6.19 17.59 6.15 17.53C6.12 17.49 6.1 17.44 6.07 17.38C6.05 17.34 6.04 17.29 6.02 17.24C6 17.16 6 17.08 6 17L6 9C6 8.92 5.99 8.84 5.97 8.76L11.39 4.7C11.57 4.56 11.77 4.5 12 4.5C12.22 4.5 12.42 4.56 12.6 4.7ZM10 11L14 11C14.55 11 15 11.44 15 12C15 12.56 14.55 13 14 13L10 13C9.43 13 9 12.56 9 12C9 11.44 9.43 11 10 11Z" fill="currentColor" fill-opacity="1.000000" fill-rule="evenodd"/>
</svg>
