<svg width="24.000000" height="24.000000" viewBox="0 0 24 24" fill="none" xmlns="http://www.w3.org/2000/svg" xmlns:xlink="http://www.w3.org/1999/xlink">
	<g opacity="0.200000">
		<path id="Union" d="M6 5L14 5C15.1 5 16 5.89 16 7L16 10L19 10C19.55 10 20 10.44 20 11L20 17C20 18.1 19.1 19 18 19L6 19C4.89 19 4 18.1 4 17L4 7C4 5.89 4.89 5 6 5Z" fill="currentColor" fill-opacity="1.000000" fill-rule="evenodd"/>
	</g>
	<path id="Union" d="M6 4L14 4C14.21 4 14.43 4.02 14.63 4.06C14.81 4.1 14.99 4.16 15.16 4.23C15.34 4.3 15.5 4.39 15.65 4.49C15.82 4.6 15.97 4.73 16.12 4.87C16.26 5.02 16.39 5.17 16.5 5.34C16.6 5.49 16.69 5.65 16.76 5.83C16.83 6 16.89 6.18 16.93 6.36C16.97 6.56 17 6.78 17 7L17 9L19 9C19.14 9 19.28 9.01 19.41 9.04C19.54 9.06 19.66 9.1 19.77 9.15C19.89 9.2 20 9.26 20.1 9.33C20.21 9.4 20.31 9.49 20.41 9.58C20.5 9.68 20.59 9.78 20.66 9.89C20.73 9.99 20.79 10.1 20.84 10.22C20.89 10.33 20.93 10.45 20.95 10.58C20.98 10.71 21 10.85 21 11L21 17C21 17.21 20.97 17.43 20.93 17.63C20.89 17.81 20.83 17.99 20.76 18.16C20.69 18.34 20.6 18.5 20.5 18.65C20.39 18.82 20.26 18.97 20.12 19.12C19.97 19.26 19.82 19.39 19.65 19.5C19.5 19.6 19.34 19.69 19.16 19.76C18.99 19.83 18.81 19.89 18.63 19.93C18.43 19.97 18.21 20 18 20L6 20C5.78 20 5.56 19.97 5.36 19.93C5.18 19.89 5 19.83 4.83 19.76C4.47 19.61 4.15 19.39 3.87 19.12C3.73 18.97 3.6 18.82 3.49 18.65C3.39 18.5 3.3 18.34 3.23 18.16C3.16 17.99 3.1 17.81 3.06 17.63C3.02 17.43 3 17.21 3 17L3 7C3 6.78 3.02 6.56 3.06 6.36C3.1 6.18 3.16 6 3.23 5.83C3.3 5.65 3.39 5.49 3.49 5.34C3.6 5.17 3.73 5.02 3.87 4.87C4.02 4.73 4.17 4.6 4.34 4.49C4.49 4.39 4.65 4.3 4.83 4.23C5 4.16 5.18 4.1 5.36 4.06C5.56 4.02 5.78 4 6 4ZM18 18C18.08 18 18.16 17.99 18.24 17.97C18.29 17.95 18.34 17.94 18.38 17.92C18.44 17.89 18.49 17.87 18.53 17.84C18.59 17.8 18.65 17.75 18.7 17.7C18.75 17.65 18.8 17.59 18.84 17.53C18.87 17.49 18.89 17.44 18.92 17.38C18.94 17.34 18.95 17.29 18.97 17.24C18.99 17.16 19 17.08 19 17L19 11L17 11L17 17C17 17.13 17.02 17.26 17.07 17.38C17.1 17.44 17.12 17.49 17.15 17.53C17.19 17.59 17.24 17.65 17.29 17.7C17.38 17.79 17.49 17.87 17.61 17.92C17.73 17.97 17.86 18 18 18ZM15 17C15 17.34 15.05 17.67 15.17 18L6 18C5.86 18 5.73 17.97 5.61 17.92C5.55 17.89 5.5 17.87 5.46 17.84C5.4 17.8 5.34 17.75 5.29 17.7C5.24 17.65 5.19 17.59 5.15 17.53C5.12 17.49 5.1 17.44 5.07 17.38C5.02 17.26 5 17.13 5 17L5 7C5 6.86 5.02 6.73 5.07 6.61C5.12 6.49 5.2 6.38 5.29 6.29C5.38 6.2 5.49 6.12 5.61 6.07C5.73 6.02 5.86 6 6 6L14 6C14.13 6 14.26 6.02 14.38 6.07C14.44 6.1 14.49 6.12 14.53 6.15C14.59 6.19 14.65 6.24 14.7 6.29C14.79 6.38 14.87 6.49 14.92 6.61C14.94 6.65 14.95 6.7 14.97 6.75C14.99 6.83 15 6.91 15 7L15 17ZM8 8L12 8C12.56 8 13 8.43 13 9C13 9.56 12.56 10 12 10L8 10C7.43 10 7 9.56 7 9C7 8.43 7.43 8 8 8ZM12 11L8 11C7.43 11 7 11.43 7 12C7 12.56 7.43 13 8 13L12 13C12.56 13 13 12.56 13 12C13 11.43 12.56 11 12 11Z" fill="currentColor" fill-opacity="1.000000" fill-rule="evenodd"/>
</svg>
