<svg width="24.000000" height="24.000000" viewBox="0 0 24 24" fill="none" xmlns="http://www.w3.org/2000/svg" xmlns:xlink="http://www.w3.org/1999/xlink">
	<g opacity="0.200000">
		<rect id="Rectangle 2302" x="5.000000" y="5.000000" rx="2.000000" width="14.000000" height="14.000000" fill="currentColor" fill-opacity="1.000000"/>
	</g>
	<path id="Union" d="M17.85 3.09C17.57 3.03 17.29 3 17 3L7 3C6.7 3 6.42 3.03 6.14 3.09C5.9 3.14 5.67 3.21 5.44 3.31C5.21 3.41 4.99 3.52 4.79 3.66C4.57 3.8 4.36 3.97 4.17 4.17C3.97 4.36 3.8 4.57 3.66 4.79C3.52 4.99 3.41 5.21 3.31 5.44C3.21 5.67 3.14 5.9 3.09 6.14C3.03 6.42 3 6.7 3 7L3 17C3 17.29 3.03 17.57 3.09 17.85C3.14 18.09 3.21 18.32 3.31 18.55C3.41 18.78 3.52 19 3.66 19.2C3.8 19.42 3.97 19.63 4.17 19.82C4.36 20.02 4.57 20.19 4.79 20.33C4.99 20.47 5.21 20.58 5.44 20.68C5.67 20.78 5.9 20.85 6.14 20.9C6.42 20.96 6.7 21 7 21L17 21C17.29 21 17.57 20.96 17.85 20.9C18.09 20.85 18.32 20.78 18.55 20.68C18.78 20.58 19 20.47 19.2 20.33C19.42 20.19 19.63 20.02 19.82 19.82C20.02 19.63 20.19 19.42 20.33 19.2C20.47 19 20.58 18.78 20.68 18.55C20.78 18.32 20.85 18.09 20.9 17.85C20.96 17.57 21 17.29 21 17L21 7C21 6.7 20.96 6.42 20.9 6.14C20.85 5.9 20.78 5.67 20.68 5.44C20.58 5.21 20.47 4.99 20.33 4.79C20.19 4.57 20.02 4.36 19.82 4.17C19.63 3.97 19.42 3.8 19.2 3.66C19 3.52 18.78 3.41 18.55 3.31C18.32 3.21 18.09 3.14 17.85 3.09ZM7 5L17 5C17.15 5 17.31 5.01 17.46 5.05C17.56 5.07 17.67 5.11 17.77 5.15C17.88 5.2 17.98 5.25 18.08 5.32C18.2 5.39 18.31 5.48 18.41 5.58C18.51 5.68 18.6 5.79 18.67 5.91C18.74 6.01 18.79 6.11 18.84 6.22C18.88 6.32 18.92 6.43 18.94 6.53C18.98 6.68 19 6.84 19 7L19 17C19 17.15 18.98 17.31 18.94 17.46C18.92 17.56 18.88 17.67 18.84 17.77C18.79 17.88 18.74 17.98 18.67 18.08C18.6 18.2 18.51 18.31 18.41 18.41C18.31 18.51 18.2 18.6 18.08 18.67C17.98 18.74 17.88 18.79 17.77 18.84C17.67 18.88 17.56 18.92 17.46 18.94C17.31 18.98 17.15 19 17 19L7 19C6.84 19 6.68 18.98 6.53 18.94C6.43 18.92 6.32 18.88 6.22 18.84C6.11 18.79 6.01 18.74 5.91 18.67C5.79 18.6 5.68 18.51 5.58 18.41C5.48 18.31 5.39 18.2 5.32 18.08C5.25 17.98 5.2 17.88 5.15 17.77C5.11 17.67 5.07 17.56 5.05 17.46C5.01 17.31 5 17.15 5 17L5 7C5 6.84 5.01 6.68 5.05 6.53C5.07 6.43 5.11 6.32 5.15 6.22C5.2 6.11 5.25 6.01 5.32 5.91C5.39 5.79 5.48 5.68 5.58 5.58C5.68 5.48 5.79 5.39 5.91 5.32C6.01 5.25 6.11 5.2 6.22 5.15C6.32 5.11 6.43 5.07 6.53 5.05C6.68 5.01 6.84 5 7 5ZM8.32 11L7 11C6.43 11 6 11.43 6 12C6 12.56 6.43 13 7 13L9 13C9.2 13 9.39 12.94 9.56 12.82C9.72 12.71 9.85 12.56 9.92 12.37L10.67 10.49L12.01 17.19C12.07 17.46 12.21 17.67 12.44 17.83C12.67 17.98 12.92 18.03 13.19 17.98C13.36 17.94 13.5 17.87 13.63 17.76C13.76 17.66 13.86 17.52 13.92 17.37L15.67 13L17 13C17.56 13 18 12.56 18 12C18 11.43 17.56 11 17 11L15 11C14.79 11 14.6 11.05 14.43 11.17C14.27 11.28 14.14 11.43 14.07 11.62L13.32 13.5L11.98 6.8C11.94 6.63 11.87 6.49 11.76 6.36C11.66 6.23 11.52 6.13 11.37 6.07C11.11 5.96 10.85 5.97 10.6 6.08C10.35 6.18 10.17 6.37 10.07 6.62L8.32 11Z" fill="currentColor" fill-opacity="1.000000" fill-rule="evenodd"/>
</svg>
