<svg width="24.000000" height="24.000000" viewBox="0 0 24 24" fill="none" xmlns="http://www.w3.org/2000/svg" xmlns:xlink="http://www.w3.org/1999/xlink">
	<g opacity="0.200000">
		<path id="Vector 330" d="M19.5 12C19.5 16.41 16.14 20 12 20C7.85 20 4.5 16.41 4.5 12L4.5 11.75C4.5 11.25 4.58 10.75 4.73 10.28C4.91 9.76 5.17 9.28 5.51 8.85L5.97 8.27L6.23 9.69C6.4 10.5 6.98 11.16 7.75 11.41L7.85 11.45C8.81 11.77 9.87 11.38 10.39 10.51C10.77 9.88 10.8 9.1 10.47 8.44L10.42 8.34C9.31 6.13 9.98 3.43 12 2L12.31 2.62C13.09 4.18 14.26 5.5 15.7 6.47L17 7.33C18.56 8.37 19.5 10.12 19.5 12Z" fill="currentColor" fill-opacity="1.000000" fill-rule="evenodd"/>
	</g>
	<path id="Union" d="M13.2 2.17L12.91 1.59C12.89 1.55 12.87 1.51 12.85 1.48C12.71 1.24 12.49 1.08 12.24 1.02C11.99 0.96 11.72 0.99 11.48 1.14C11.44 1.16 11.41 1.18 11.38 1.21C11.07 1.43 10.79 1.67 10.54 1.94C10.31 2.18 10.1 2.44 9.91 2.72C9.72 3.01 9.56 3.3 9.42 3.6C9.27 3.93 9.15 4.28 9.07 4.64C8.98 4.99 8.92 5.35 8.9 5.72C8.88 6.05 8.88 6.39 8.92 6.72C8.95 7.06 9.02 7.39 9.11 7.71C9.21 8.08 9.35 8.44 9.52 8.79C9.57 8.88 9.65 9.06 9.67 9.16C9.69 9.25 9.7 9.35 9.69 9.44C9.69 9.54 9.67 9.64 9.65 9.73C9.62 9.82 9.58 9.91 9.53 10C9.46 10.11 9.37 10.21 9.28 10.29C9.18 10.37 9.06 10.44 8.94 10.49C8.81 10.53 8.68 10.56 8.55 10.56C8.43 10.56 8.3 10.54 8.17 10.5C8.06 10.46 7.86 10.38 7.77 10.32C7.67 10.26 7.59 10.18 7.51 10.1C7.44 10.01 7.37 9.92 7.32 9.82C7.27 9.72 7.24 9.61 7.22 9.5L6.99 8.37C7.03 8.04 6.91 7.69 6.62 7.46C6.18 7.11 5.56 7.18 5.21 7.62L4.73 8.22C4.52 8.49 4.34 8.76 4.18 9.05C4.02 9.34 3.89 9.65 3.78 9.96C3.69 10.25 3.62 10.55 3.57 10.84C3.52 11.14 3.5 11.44 3.5 11.75L3.5 11.99C3.5 12.74 3.58 13.46 3.74 14.16C3.85 14.61 3.98 15.05 4.15 15.48C4.42 16.13 4.74 16.75 5.13 17.31C5.38 17.67 5.66 18.01 5.96 18.34C6.48 18.89 7.04 19.35 7.66 19.74C7.98 19.94 8.32 20.12 8.66 20.28C9.2 20.52 9.76 20.7 10.32 20.82C10.87 20.94 11.43 20.99 12 20.99C12.56 20.99 13.12 20.94 13.67 20.82C14.23 20.7 14.79 20.52 15.33 20.28C15.67 20.12 16.01 19.94 16.33 19.74C16.95 19.35 17.51 18.89 18.03 18.34C18.33 18.01 18.61 17.67 18.86 17.31C19.25 16.75 19.57 16.13 19.84 15.48C20.01 15.05 20.14 14.61 20.25 14.17C20.41 13.46 20.5 12.74 20.5 11.99C20.5 11.71 20.48 11.43 20.44 11.15C20.41 10.89 20.36 10.63 20.29 10.38C20.23 10.12 20.15 9.87 20.06 9.62C19.96 9.37 19.84 9.12 19.71 8.88C19.58 8.64 19.44 8.4 19.28 8.18C19.13 7.97 18.97 7.76 18.79 7.56C18.61 7.37 18.42 7.18 18.23 7.01C18.01 6.83 17.79 6.66 17.55 6.5L16.26 5.64C15.93 5.42 15.62 5.18 15.33 4.93C15.04 4.67 14.76 4.4 14.5 4.1C14.25 3.81 14.01 3.5 13.79 3.18C13.57 2.86 13.38 2.52 13.2 2.17ZM5.5 11.99C5.5 12.61 5.57 13.21 5.71 13.79C5.79 14.11 5.89 14.43 6.01 14.74C6.23 15.28 6.5 15.78 6.82 16.24C7.01 16.49 7.2 16.74 7.42 16.97C7.85 17.42 8.31 17.8 8.82 18.11C9.04 18.24 9.26 18.35 9.49 18.45C9.9 18.64 10.31 18.78 10.74 18.87C11.15 18.95 11.57 18.99 12 18.99C12.42 18.99 12.84 18.95 13.25 18.87C13.67 18.78 14.09 18.64 14.5 18.45C14.73 18.35 14.95 18.24 15.16 18.11C15.68 17.8 16.14 17.42 16.57 16.97C16.79 16.74 16.98 16.49 17.17 16.24C17.49 15.78 17.76 15.28 17.98 14.74C18.1 14.43 18.2 14.11 18.28 13.79C18.42 13.21 18.5 12.61 18.5 11.99C18.5 11.61 18.45 11.24 18.36 10.87C18.27 10.51 18.13 10.16 17.95 9.82C17.77 9.48 17.55 9.17 17.3 8.9C17.05 8.62 16.76 8.38 16.44 8.16L15.15 7.3C14.75 7.03 14.37 6.75 14.02 6.43C13.66 6.12 13.32 5.79 13.01 5.43C12.69 5.07 12.4 4.69 12.13 4.3C11.99 4.08 11.85 3.86 11.72 3.64C11.67 3.7 11.62 3.77 11.57 3.84C11.45 4.02 11.34 4.22 11.25 4.41C11.15 4.64 11.07 4.87 11.01 5.12C10.95 5.36 10.91 5.61 10.89 5.86C10.88 6.07 10.89 6.29 10.91 6.51C10.93 6.73 10.97 6.94 11.03 7.15C11.1 7.4 11.19 7.65 11.31 7.89C11.43 8.14 11.57 8.48 11.62 8.73C11.68 8.99 11.7 9.25 11.69 9.52C11.68 9.79 11.64 10.05 11.56 10.3C11.49 10.55 11.38 10.79 11.24 11.03C11.14 11.19 11.03 11.34 10.91 11.49C10.8 11.61 10.67 11.73 10.54 11.84C10.41 11.95 10.27 12.05 10.12 12.13C9.97 12.22 9.8 12.3 9.63 12.36C9.46 12.43 9.29 12.47 9.11 12.51C8.94 12.54 8.77 12.55 8.6 12.56C8.43 12.56 8.26 12.55 8.09 12.53C7.9 12.5 7.72 12.46 7.54 12.4C7.26 12.3 6.9 12.14 6.66 11.99C6.42 11.83 6.21 11.64 6.01 11.42C5.86 11.24 5.72 11.05 5.61 10.85C5.58 10.95 5.56 11.06 5.54 11.16C5.51 11.36 5.5 11.55 5.5 11.75L5.5 11.99Z" fill="currentColor" fill-opacity="1.000000" fill-rule="evenodd"/>
</svg>
