<svg width="24.000000" height="24.000000" viewBox="0 0 24 24" fill="none" xmlns="http://www.w3.org/2000/svg" xmlns:xlink="http://www.w3.org/1999/xlink">
	<rect id="sidebar / AI" width="24.000000" height="24.000000" fill="currentColor" fill-opacity="0"/>
	<g opacity="0.200000">
		<path id="vector" d="M20 12C20 16.41 16.41 20 12 20C7.58 20 4 16.41 4 12C4 7.58 7.58 4 12 4C16.41 4 20 7.58 20 12Z" fill="currentColor" fill-opacity="1.000000" fill-rule="evenodd"/>
	</g>
	<path id="Rectangle 2315" d="M14 9C14 8.44 14.44 8 15 8C15.55 8 16 8.44 16 9L16 15C16 15.55 15.55 16 15 16C14.44 16 14 15.55 14 15L14 9Z" fill="currentColor" fill-opacity="1.000000" fill-rule="evenodd"/>
	<path id="path32" d="M10.5 8C9.12 8 8 9.25 8 10.8L8 15.28C8 15.68 8.31 16 8.71 16C9.1 16 9.42 15.68 9.42 15.28L9.42 13.72C9.42 13.45 9.65 13.22 9.92 13.22L11.07 13.22C11.34 13.22 11.57 13.45 11.57 13.72L11.57 15.28C11.57 15.68 11.89 16 12.28 16C12.68 16 13 15.68 13 15.28L13 10.8C13 9.25 11.87 8 10.5 8ZM9.42 11.12L9.42 10.8C9.42 10.13 9.9 9.6 10.5 9.6C11.09 9.6 11.57 10.13 11.57 10.8L11.57 11.12C11.57 11.4 11.34 11.62 11.07 11.62L9.92 11.62C9.65 11.62 9.42 11.4 9.42 11.12Z" fill="currentColor" fill-opacity="1.000000" fill-rule="nonzero"/>
	<g opacity="0.200000">
		<circle id="Oval 26" cx="19.316895" cy="5.042114" r="1.500000" fill="currentColor" fill-opacity="1.000000"/>
	</g>
	<path id="Exclude (Border)" d="M19 1.68C18.96 1.72 18.93 1.77 18.9 1.84C18.84 2 18.77 2.16 18.69 2.32C18.62 2.47 18.54 2.61 18.45 2.75C18.36 2.89 18.26 3.02 18.16 3.15C18.05 3.29 17.93 3.42 17.81 3.54C17.69 3.66 17.56 3.77 17.43 3.88C17.3 3.99 17.16 4.08 17.03 4.17C16.89 4.26 16.74 4.34 16.6 4.42C16.44 4.5 16.28 4.57 16.11 4.63C15.97 4.68 15.88 4.75 15.84 4.84C15.8 4.94 15.8 5.05 15.85 5.19C15.9 5.31 15.98 5.4 16.11 5.45C16.28 5.51 16.44 5.58 16.6 5.66C16.74 5.73 16.89 5.81 17.03 5.9C17.31 6.09 17.57 6.3 17.81 6.54C18.05 6.78 18.26 7.04 18.45 7.32C18.54 7.46 18.62 7.61 18.69 7.75C18.77 7.91 18.84 8.07 18.9 8.24C19 8.51 19.19 8.6 19.46 8.5C19.59 8.45 19.67 8.36 19.72 8.24C19.84 7.92 19.99 7.61 20.18 7.32C20.36 7.04 20.57 6.78 20.81 6.54C21.05 6.3 21.31 6.09 21.6 5.9C21.74 5.81 21.88 5.73 22.03 5.66C22.18 5.58 22.35 5.51 22.51 5.45C22.79 5.34 22.87 5.16 22.77 4.89C22.72 4.76 22.64 4.67 22.51 4.63C22.35 4.57 22.18 4.5 22.03 4.42C21.88 4.34 21.74 4.26 21.6 4.17C21.31 3.99 21.05 3.78 20.81 3.54C20.57 3.3 20.36 3.04 20.18 2.75C20.09 2.61 20.01 2.47 19.93 2.32C19.85 2.16 19.78 2 19.72 1.84C19.62 1.56 19.43 1.48 19.16 1.58C19.1 1.6 19.05 1.63 19 1.68ZM18.96 4.05C19.05 3.94 19.14 3.82 19.21 3.7C19.26 3.63 19.36 3.63 19.41 3.7C19.49 3.82 19.57 3.94 19.66 4.05C19.76 4.17 19.86 4.28 19.96 4.38C20.17 4.59 20.4 4.78 20.65 4.94C20.72 4.98 20.72 5.09 20.65 5.13C20.4 5.29 20.17 5.48 19.96 5.69C19.75 5.9 19.57 6.13 19.41 6.38C19.36 6.45 19.26 6.45 19.21 6.38C19.14 6.26 19.05 6.14 18.96 6.02C18.87 5.91 18.77 5.8 18.66 5.69C18.45 5.48 18.22 5.29 17.97 5.13C17.9 5.09 17.9 4.98 17.97 4.94C18.09 4.86 18.21 4.78 18.32 4.69C18.44 4.59 18.55 4.49 18.66 4.38C18.77 4.28 18.87 4.17 18.96 4.05Z" fill="currentColor" fill-opacity="1.000000" fill-rule="evenodd"/>
	<path id="Union" d="M20.78 13.95C20.92 13.32 21 12.66 21 12C21 11.66 20.98 11.33 20.94 11C20.88 10.46 20.36 10.12 19.82 10.23C19.27 10.34 18.93 10.89 18.97 11.44C18.99 11.63 19 11.81 19 12C19 12.53 18.94 13.05 18.82 13.56C18.73 13.95 18.61 14.34 18.45 14.72C18.28 15.11 18.08 15.48 17.86 15.83C17.59 16.23 17.29 16.6 16.94 16.94C16.6 17.29 16.23 17.59 15.83 17.86C15.48 18.08 15.11 18.28 14.72 18.45C14.34 18.61 13.95 18.73 13.56 18.82C13.05 18.94 12.53 19 12 19C11.46 19 10.94 18.94 10.43 18.82C10.04 18.73 9.65 18.61 9.27 18.45C8.88 18.28 8.51 18.08 8.17 17.86C7.76 17.59 7.39 17.29 7.05 16.94C6.7 16.6 6.4 16.23 6.13 15.83C5.91 15.48 5.71 15.11 5.54 14.72C5.38 14.34 5.26 13.95 5.17 13.56C5.05 13.05 5 12.53 5 12C5 11.46 5.05 10.94 5.17 10.43C5.26 10.04 5.38 9.65 5.54 9.27C5.71 8.88 5.91 8.51 6.13 8.17C6.4 7.76 6.7 7.39 7.05 7.05C7.69 6.4 8.43 5.9 9.27 5.54C9.65 5.38 10.04 5.26 10.43 5.17C10.94 5.05 11.46 5 12 5C12.18 5 12.36 5 12.55 5.02C13.1 5.06 13.65 4.72 13.76 4.17C13.87 3.63 13.53 3.11 12.99 3.05C12.66 3.01 12.33 3 12 3C11.33 3 10.67 3.07 10.04 3.21C9.51 3.32 9 3.49 8.49 3.7C7.98 3.92 7.5 4.17 7.05 4.47C6.54 4.81 6.07 5.19 5.63 5.63C5.19 6.07 4.81 6.54 4.47 7.05C4.18 7.5 3.92 7.98 3.7 8.49C3.49 9 3.32 9.51 3.21 10.04C3.07 10.67 3 11.33 3 12C3 12.66 3.07 13.32 3.21 13.95C3.32 14.48 3.49 14.99 3.7 15.5C3.92 16.01 4.18 16.49 4.47 16.94C4.81 17.45 5.19 17.92 5.63 18.36C6.07 18.8 6.54 19.18 7.05 19.52C7.5 19.81 7.98 20.07 8.49 20.29C9 20.5 9.51 20.67 10.04 20.78C10.67 20.92 11.33 21 12 21C12.66 21 13.32 20.92 13.95 20.78C14.48 20.67 14.99 20.5 15.5 20.29C16.01 20.07 16.49 19.81 16.94 19.52C17.45 19.18 17.92 18.8 18.36 18.36C19.19 17.53 19.83 16.58 20.29 15.5C20.5 14.99 20.67 14.48 20.78 13.95Z" fill="currentColor" fill-opacity="1.000000" fill-rule="evenodd"/>
</svg>
