<svg width="24.000000" height="24.000000" viewBox="0 0 24 24" fill="none" xmlns="http://www.w3.org/2000/svg" xmlns:xlink="http://www.w3.org/1999/xlink">
	<g opacity="0.200000">
		<path id="vector" d="M16 12C16 14.2 14.2 16 12 16C9.79 16 8 14.2 8 12C8 9.79 9.79 8 12 8C14.2 8 16 9.79 16 12Z" fill="currentColor" fill-opacity="1.000000" fill-rule="evenodd"/>
	</g>
	<path id="Union" d="M12 21C11.33 21 10.67 20.92 10.04 20.78C9.51 20.67 9 20.5 8.49 20.29C7.41 19.83 6.46 19.19 5.63 18.36C5.19 17.92 4.81 17.45 4.47 16.94C4.18 16.49 3.92 16.01 3.7 15.5C3.49 14.99 3.32 14.48 3.21 13.95C3.07 13.32 3 12.66 3 12C3 11.33 3.07 10.67 3.21 10.04C3.32 9.51 3.49 9 3.7 8.49C3.92 7.98 4.18 7.5 4.47 7.05C4.81 6.54 5.19 6.07 5.63 5.63C6.07 5.19 6.54 4.81 7.05 4.47C7.5 4.18 7.98 3.92 8.49 3.7C9 3.49 9.51 3.32 10.04 3.21C10.67 3.07 11.33 3 12 3C12.66 3 13.32 3.07 13.95 3.21C14.48 3.32 14.99 3.49 15.5 3.7C16.01 3.92 16.49 4.18 16.94 4.47C17.45 4.81 17.92 5.19 18.36 5.63C18.8 6.07 19.18 6.54 19.52 7.05C19.82 7.5 20.07 7.98 20.29 8.49C20.5 9 20.67 9.51 20.78 10.04C20.92 10.67 21 11.33 21 12C21 12.66 20.92 13.32 20.78 13.95C20.67 14.48 20.5 14.99 20.29 15.5C19.83 16.58 19.19 17.53 18.36 18.36C17.53 19.19 16.58 19.83 15.5 20.29C14.99 20.5 14.48 20.67 13.95 20.78C13.32 20.92 12.66 21 12 21ZM12 19C12.53 19 13.05 18.94 13.56 18.82C13.95 18.73 14.34 18.61 14.72 18.45C15.11 18.28 15.48 18.08 15.83 17.86C16.23 17.59 16.6 17.29 16.94 16.94C17.29 16.6 17.59 16.23 17.86 15.83C18.08 15.48 18.28 15.11 18.45 14.72C18.61 14.34 18.73 13.95 18.82 13.56C18.94 13.05 19 12.53 19 12C19 11.46 18.94 10.94 18.82 10.43C18.73 10.04 18.61 9.65 18.45 9.27C18.09 8.43 17.59 7.69 16.94 7.05C16.6 6.7 16.23 6.4 15.83 6.13C15.48 5.91 15.11 5.71 14.72 5.54C14.34 5.38 13.95 5.26 13.56 5.17C13.05 5.05 12.53 5 12 5C11.46 5 10.94 5.05 10.43 5.17C10.04 5.26 9.65 5.38 9.27 5.54C8.88 5.71 8.51 5.91 8.17 6.13C7.76 6.4 7.39 6.7 7.05 7.05C6.7 7.39 6.4 7.76 6.13 8.17C5.91 8.51 5.71 8.88 5.54 9.27C5.38 9.65 5.26 10.04 5.17 10.43C5.05 10.94 5 11.46 5 12C5 12.53 5.05 13.05 5.17 13.56C5.26 13.95 5.38 14.34 5.54 14.72C5.71 15.11 5.91 15.48 6.13 15.83C6.4 16.23 6.7 16.6 7.05 16.94C7.39 17.29 7.76 17.59 8.17 17.86C8.51 18.08 8.88 18.28 9.27 18.45C9.65 18.61 10.04 18.73 10.43 18.82C10.94 18.94 11.46 19 12 19ZM10.92 16.88C11.27 16.96 11.63 17 12 17C12.36 17 12.72 16.96 13.07 16.88C13.37 16.81 13.66 16.72 13.94 16.6C14.23 16.48 14.49 16.34 14.75 16.17C15.03 15.99 15.29 15.77 15.53 15.53C15.77 15.29 15.99 15.03 16.17 14.75C16.34 14.49 16.48 14.23 16.6 13.94C16.72 13.66 16.81 13.37 16.88 13.07C16.96 12.72 17 12.36 17 12C17 11.63 16.96 11.27 16.88 10.92C16.81 10.62 16.72 10.33 16.6 10.05C16.48 9.76 16.34 9.5 16.17 9.24C15.99 8.96 15.77 8.7 15.53 8.46C15.29 8.22 15.03 8 14.75 7.82C14.49 7.65 14.23 7.51 13.94 7.39C13.66 7.27 13.37 7.18 13.07 7.11C12.72 7.03 12.36 7 12 7C11.63 7 11.27 7.03 10.92 7.11C10.62 7.18 10.33 7.27 10.05 7.39C9.76 7.51 9.5 7.65 9.24 7.82C8.96 8 8.7 8.22 8.46 8.46C8.22 8.7 8 8.96 7.82 9.24C7.65 9.5 7.51 9.76 7.39 10.05C7.27 10.33 7.18 10.62 7.11 10.92C7.03 11.27 7 11.63 7 12C7 12.36 7.03 12.72 7.11 13.07C7.18 13.37 7.27 13.66 7.39 13.94C7.51 14.23 7.65 14.49 7.82 14.75C8 15.03 8.22 15.29 8.46 15.53C8.7 15.77 8.96 15.99 9.24 16.17C9.5 16.34 9.76 16.48 10.05 16.6C10.33 16.72 10.62 16.81 10.92 16.88ZM12.68 14.92C12.45 14.97 12.23 15 12 15C11.76 15 11.54 14.97 11.31 14.92C11.15 14.88 10.99 14.83 10.83 14.76C10.66 14.69 10.51 14.61 10.36 14.51C10.19 14.4 10.02 14.27 9.87 14.12C9.72 13.97 9.59 13.8 9.48 13.63C9.38 13.48 9.3 13.33 9.23 13.16C9.16 13 9.11 12.84 9.07 12.68C9.02 12.45 9 12.23 9 12C9 11.76 9.02 11.54 9.07 11.31C9.11 11.15 9.16 10.99 9.23 10.83C9.3 10.66 9.38 10.51 9.48 10.36C9.59 10.19 9.72 10.02 9.87 9.87C10.02 9.72 10.19 9.59 10.36 9.48C10.51 9.38 10.66 9.3 10.83 9.23C10.99 9.16 11.15 9.11 11.31 9.07C11.54 9.02 11.76 9 12 9C12.23 9 12.45 9.02 12.68 9.07C12.84 9.11 13 9.16 13.16 9.23C13.33 9.3 13.48 9.38 13.63 9.48C13.8 9.59 13.97 9.72 14.12 9.87C14.27 10.02 14.4 10.19 14.51 10.36C14.61 10.51 14.69 10.66 14.76 10.83C14.83 10.99 14.88 11.15 14.92 11.31C14.97 11.54 15 11.76 15 12C15 12.23 14.97 12.45 14.92 12.68C14.88 12.84 14.83 13 14.76 13.16C14.69 13.33 14.61 13.48 14.51 13.63C14.4 13.8 14.27 13.97 14.12 14.12C13.97 14.27 13.8 14.4 13.63 14.51C13.48 14.61 13.33 14.69 13.16 14.76C13 14.83 12.84 14.88 12.68 14.92Z" fill="currentColor" fill-opacity="1.000000" fill-rule="evenodd"/>
</svg>
