<svg width="24.000000" height="24.000000" viewBox="0 0 24 24" fill="none" xmlns="http://www.w3.org/2000/svg" xmlns:xlink="http://www.w3.org/1999/xlink">
	<g opacity="0.200000">
		<path id="Union" d="M16.02 17.58L15.08 18.14C13.18 19.28 10.81 19.28 8.91 18.14L7.97 17.58C7.36 17.22 7 16.57 7 15.86L7 11.22L5.51 10.39C4.69 9.94 4.28 9.71 4.14 9.41C4.02 9.15 4.02 8.84 4.14 8.58C4.28 8.28 4.69 8.05 5.51 7.6L8.89 5.72C10.02 5.09 10.59 4.78 11.19 4.65C11.72 4.54 12.27 4.54 12.8 4.65C13.4 4.78 13.97 5.09 15.1 5.72L18.48 7.6C19.3 8.05 19.71 8.28 19.85 8.58C19.97 8.84 19.97 9.15 19.85 9.41C19.71 9.71 19.3 9.94 18.48 10.39L17 11.22L17 15.86C17 16.57 16.63 17.22 16.02 17.58Z" fill="currentColor" fill-opacity="1.000000" fill-rule="evenodd"/>
	</g>
	<path id="Union" d="M8.69 4.53L4.41 6.67C3.85 6.95 3.47 7.15 3.28 7.27C3.09 7.38 2.94 7.5 2.82 7.61C2.65 7.77 2.52 7.95 2.42 8.14C2.36 8.27 2.31 8.41 2.28 8.56C2.25 8.7 2.23 8.84 2.23 9C2.23 9.15 2.25 9.29 2.28 9.43C2.31 9.58 2.36 9.72 2.42 9.85C2.52 10.04 2.65 10.22 2.82 10.38C2.94 10.49 3.09 10.61 3.28 10.72C3.47 10.84 3.85 11.04 4.41 11.32L6 12.11L6 15.86C6 16.13 6.03 16.38 6.09 16.63C6.16 16.87 6.25 17.11 6.38 17.34C6.64 17.8 7 18.16 7.45 18.44L8.39 19C8.94 19.33 9.53 19.58 10.14 19.75C10.44 19.83 10.74 19.89 11.04 19.93C11.35 19.98 11.67 20 12 20C12.32 20 12.64 19.98 12.95 19.93C13.25 19.89 13.55 19.83 13.85 19.75C14.46 19.58 15.05 19.33 15.6 19L16.54 18.44C16.99 18.16 17.35 17.8 17.61 17.34C17.87 16.88 18 16.39 18 15.86L18 12.11L19.58 11.32C20.14 11.04 20.52 10.84 20.71 10.72C20.9 10.61 21.05 10.49 21.17 10.38C21.34 10.22 21.47 10.04 21.57 9.85C21.63 9.72 21.68 9.58 21.71 9.43C21.74 9.29 21.76 9.15 21.76 9C21.76 8.84 21.74 8.7 21.71 8.56C21.68 8.41 21.63 8.27 21.57 8.14C21.47 7.95 21.34 7.77 21.17 7.61C21.05 7.5 20.9 7.38 20.71 7.27C20.52 7.15 20.14 6.95 19.58 6.67L15.3 4.53C14.68 4.22 14.24 4.01 14.01 3.91C13.61 3.73 13.24 3.61 12.92 3.55C12.61 3.5 12.3 3.47 12 3.47C11.69 3.47 11.38 3.5 11.07 3.55C10.75 3.61 10.38 3.73 9.98 3.91C9.75 4.01 9.31 4.22 8.69 4.53ZM16 13.11L15.3 13.46C14.68 13.77 14.24 13.98 14.01 14.08C13.61 14.26 13.24 14.38 12.92 14.44C12.61 14.49 12.3 14.52 12 14.52C11.69 14.52 11.38 14.49 11.07 14.44C10.75 14.38 10.38 14.26 9.98 14.08C9.75 13.98 9.31 13.77 8.69 13.46L8 13.11L8 15.86C8 16.04 8.04 16.2 8.12 16.36C8.21 16.51 8.33 16.63 8.48 16.72L9.42 17.29C9.81 17.52 10.23 17.7 10.67 17.82C10.88 17.88 11.09 17.92 11.3 17.95C11.53 17.98 11.76 18 12 18C12.44 18 12.89 17.94 13.32 17.82C13.76 17.7 14.18 17.52 14.57 17.29L15.51 16.72C15.66 16.63 15.78 16.51 15.87 16.36C15.95 16.2 16 16.04 16 15.86L16 13.11ZM4.33 8.97C4.47 8.88 4.79 8.71 5.3 8.46L9.58 6.32C10.18 6.02 10.58 5.83 10.78 5.74C11.04 5.63 11.26 5.55 11.44 5.52C11.63 5.48 11.81 5.47 12 5.47C12.18 5.47 12.36 5.48 12.55 5.52C12.73 5.55 12.95 5.63 13.21 5.74C13.41 5.83 13.81 6.02 14.41 6.32L18.69 8.46C19.2 8.71 19.52 8.88 19.66 8.97C19.52 9.06 19.2 9.28 18.69 9.53L14.41 11.67C13.81 11.97 13.41 12.16 13.21 12.25C12.95 12.36 12.73 12.44 12.55 12.47C12.36 12.51 12.18 12.52 12 12.52C11.81 12.52 11.63 12.51 11.44 12.47C11.26 12.44 11.04 12.36 10.78 12.25C10.58 12.16 10.18 11.97 9.58 11.67L5.3 9.53C4.79 9.28 4.47 9.06 4.33 8.97Z" fill="currentColor" fill-opacity="1.000000" fill-rule="evenodd"/>
</svg>
