<svg width="24.000000" height="24.000000" viewBox="0 0 24 24" fill="none" xmlns="http://www.w3.org/2000/svg" xmlns:xlink="http://www.w3.org/1999/xlink">
	<g opacity="0.200000">
		<path id="vector" d="M20 5L20 15C20 16.1 19.1 17 18 17L6 17C4.89 17 4 16.1 4 15L4 5L20 5Z" fill="currentColor" fill-opacity="1.000000" fill-rule="evenodd"/>
	</g>
	<path id="Union" d="M20.93 15.63C20.97 15.43 21 15.21 21 15L21 5C21 4.86 20.97 4.73 20.92 4.61C20.87 4.49 20.8 4.39 20.7 4.29C20.6 4.19 20.5 4.12 20.38 4.07C20.26 4.02 20.13 4 20 4L4 4C3.86 4 3.73 4.02 3.61 4.07C3.49 4.12 3.39 4.19 3.29 4.29C3.19 4.39 3.12 4.49 3.07 4.61C3.02 4.73 3 4.86 3 5L3 15C3 15.21 3.02 15.43 3.06 15.63C3.1 15.81 3.16 15.99 3.23 16.16C3.3 16.34 3.39 16.5 3.49 16.65C3.6 16.82 3.73 16.97 3.87 17.12C4.02 17.26 4.17 17.39 4.34 17.5C4.49 17.6 4.65 17.69 4.83 17.76C5 17.83 5.18 17.89 5.36 17.93C5.56 17.97 5.78 18 6 18L9.61 18L9.05 19.68C8.87 20.21 9.15 20.77 9.68 20.94C10.21 21.12 10.77 20.84 10.94 20.31L11.72 18L12.27 18L13.05 20.31C13.22 20.84 13.78 21.12 14.31 20.94C14.84 20.77 15.12 20.21 14.94 19.68L14.38 18L18 18C18.21 18 18.43 17.97 18.63 17.93C18.81 17.89 18.99 17.83 19.16 17.76C19.34 17.69 19.5 17.6 19.65 17.5C19.82 17.39 19.97 17.26 20.12 17.12C20.26 16.97 20.39 16.82 20.5 16.65C20.6 16.5 20.69 16.34 20.76 16.16C20.83 15.99 20.89 15.81 20.93 15.63ZM13.07 16L18 16C18.08 16 18.16 15.99 18.24 15.97C18.29 15.95 18.34 15.94 18.38 15.92C18.44 15.89 18.49 15.87 18.53 15.84C18.59 15.8 18.65 15.75 18.7 15.7C18.75 15.65 18.8 15.59 18.84 15.53C18.87 15.49 18.89 15.44 18.92 15.38C18.94 15.34 18.95 15.29 18.97 15.24C18.99 15.16 19 15.08 19 15L19 6L5 6L5 15C5 15.08 5 15.16 5.02 15.24C5.04 15.29 5.05 15.34 5.07 15.38C5.1 15.44 5.12 15.49 5.15 15.53C5.19 15.59 5.24 15.65 5.29 15.7C5.34 15.75 5.4 15.8 5.46 15.84C5.5 15.87 5.55 15.89 5.61 15.92C5.65 15.94 5.7 15.95 5.75 15.97C5.83 15.99 5.91 16 6 16L10.93 16C10.97 15.99 11.01 15.99 11.05 16L12.94 16C12.98 15.99 13.02 15.99 13.07 16ZM8.7 10.29L10 11.58L13.29 8.29C13.48 8.09 13.72 8 14 8C14.27 8 14.51 8.09 14.7 8.29L16.7 10.29C17.1 10.68 17.1 11.31 16.7 11.7C16.31 12.1 15.68 12.1 15.29 11.7L14 10.41L10.7 13.7C10.6 13.8 10.5 13.87 10.38 13.92C10.26 13.97 10.13 14 10 14C9.86 14 9.73 13.97 9.61 13.92C9.49 13.87 9.39 13.8 9.29 13.7L7.29 11.7C6.89 11.31 6.89 10.68 7.29 10.29C7.68 9.89 8.31 9.89 8.7 10.29Z" fill="currentColor" fill-opacity="1.000000" fill-rule="evenodd"/>
</svg>
