<svg width="24.000000" height="24.000000" viewBox="0 0 24 24" fill="none" xmlns="http://www.w3.org/2000/svg" xmlns:xlink="http://www.w3.org/1999/xlink">
	<g opacity="0.200000">
		<path id="Union" d="M14 18C14 18.55 13.55 19 13 19L11 19C10.44 19 10 18.55 10 18C10 18.55 9.55 19 9 19L7 19C6.44 19 6 18.55 6 18L6 8C6 7.44 6.44 7 7 7L9 7C9.55 7 10 7.44 10 8L10 5C10 4.44 10.44 4 11 4L13 4C13.55 4 14 4.44 14 5L14 11C14 10.44 14.44 10 15 10L17 10C17.55 10 18 10.44 18 11L18 18C18 18.55 17.55 19 17 19L15 19C14.44 19 14 18.55 14 18Z" fill="currentColor" fill-opacity="1.000000" fill-rule="evenodd"/>
	</g>
	<path id="Union" d="M14 19.73C13.92 19.77 13.85 19.81 13.77 19.84C13.66 19.89 13.54 19.93 13.41 19.95C13.28 19.98 13.14 20 13 20L11 20C10.85 20 10.71 19.98 10.58 19.95C10.45 19.93 10.33 19.89 10.22 19.84C10.14 19.81 10.07 19.77 10 19.73C9.92 19.77 9.85 19.81 9.77 19.84C9.66 19.89 9.54 19.93 9.41 19.95C9.28 19.98 9.14 20 9 20L7 20C6.85 20 6.71 19.98 6.58 19.95C6.45 19.93 6.33 19.89 6.22 19.84C6.1 19.79 5.99 19.73 5.89 19.66C5.78 19.59 5.68 19.5 5.58 19.41C5.49 19.31 5.4 19.21 5.33 19.1C5.26 19 5.2 18.89 5.15 18.77C5.1 18.66 5.06 18.54 5.04 18.41C5.01 18.28 5 18.14 5 18L5 8C5 7.85 5.01 7.71 5.04 7.58C5.06 7.45 5.1 7.33 5.15 7.22C5.2 7.1 5.26 6.99 5.33 6.89C5.4 6.78 5.49 6.68 5.58 6.58C5.68 6.49 5.78 6.4 5.89 6.33C5.99 6.26 6.1 6.2 6.22 6.15C6.33 6.1 6.45 6.06 6.58 6.04C6.71 6.01 6.85 6 7 6L9 6L9 5C9 4.85 9.01 4.71 9.04 4.58C9.06 4.45 9.1 4.33 9.15 4.22C9.2 4.1 9.26 3.99 9.33 3.89C9.4 3.78 9.49 3.68 9.58 3.58C9.68 3.49 9.78 3.4 9.89 3.33C9.99 3.26 10.1 3.2 10.22 3.15C10.33 3.1 10.45 3.06 10.58 3.04C10.71 3.01 10.85 3 11 3L13 3C13.14 3 13.28 3.01 13.41 3.04C13.54 3.06 13.66 3.1 13.77 3.15C13.89 3.2 14 3.26 14.1 3.33C14.21 3.4 14.31 3.49 14.41 3.58C14.5 3.68 14.59 3.78 14.66 3.89C14.73 3.99 14.79 4.1 14.84 4.22C14.89 4.33 14.93 4.45 14.95 4.58C14.98 4.71 15 4.85 15 5L15 9L17 9C17.14 9 17.28 9.01 17.41 9.04C17.54 9.06 17.66 9.1 17.77 9.15C17.89 9.2 18 9.26 18.1 9.33C18.21 9.4 18.31 9.49 18.41 9.58C18.5 9.68 18.59 9.78 18.66 9.89C18.73 9.99 18.79 10.1 18.84 10.22C18.89 10.33 18.93 10.45 18.95 10.58C18.98 10.71 19 10.85 19 11L19 18C19 18.14 18.98 18.28 18.95 18.41C18.93 18.54 18.89 18.66 18.84 18.77C18.79 18.89 18.73 19 18.66 19.1C18.59 19.21 18.5 19.31 18.41 19.41C18.31 19.5 18.21 19.59 18.1 19.66C18 19.73 17.89 19.79 17.77 19.84C17.66 19.89 17.54 19.93 17.41 19.95C17.28 19.98 17.14 20 17 20L15 20C14.85 20 14.71 19.98 14.58 19.95C14.45 19.93 14.33 19.89 14.22 19.84C14.14 19.81 14.07 19.77 14 19.73ZM15 11L15 18L17 18L17 11L15 11ZM13 11L13 5L11 5L11 18L13 18L13 11ZM7 8L9 8L9 18L7 18L7 8Z" fill="currentColor" fill-opacity="1.000000" fill-rule="evenodd"/>
	<path id="vector" d="M4 19L20 19" stroke="currentColor" stroke-opacity="1.000000" stroke-width="2.000000" stroke-linejoin="round" stroke-linecap="round"/>
</svg>
