<svg width="24.000000" height="24.000000" viewBox="0 0 24 24" fill="none" xmlns="http://www.w3.org/2000/svg" xmlns:xlink="http://www.w3.org/1999/xlink">
	<g opacity="0.200000">
		<circle id="Oval 30" cx="17.500000" cy="7.500000" r="2.500000" fill="currentColor" fill-opacity="1.000000"/>
		<circle id="Oval 31" cx="6.500000" cy="7.500000" r="2.500000" fill="currentColor" fill-opacity="1.000000"/>
		<circle id="Oval 32" cx="12.500000" cy="16.500000" r="2.500000" fill="currentColor" fill-opacity="1.000000"/>
	</g>

	<path id="vector" d="M3 7.5C3 5.56 4.56 4 6.5 4C8.43 4 10 5.56 10 7.5C10 8.4 9.65 9.23 9.08 9.85L10.85 12.72L11.09 13.11C11.38 13.04 11.68 13 12 13C12.31 13 12.61 13.04 12.9 13.11L13.14 12.72L14.91 9.85C14.34 9.23 14 8.4 14 7.5C14 5.56 15.56 4 17.5 4C19.43 4 21 5.56 21 7.5C21 9.43 19.43 11 17.5 11C17.19 11 16.9 10.96 16.62 10.89L14.85 13.77L14.6 14.16C15.16 14.78 15.5 15.6 15.5 16.5C15.5 18.43 13.93 20 12 20C10.06 20 8.5 18.43 8.5 16.5C8.5 15.6 8.83 14.78 9.39 14.16L9.14 13.77L7.37 10.89C7.09 10.96 6.8 11 6.5 11C4.56 11 3 9.43 3 7.5ZM5 7.5C5 6.67 5.67 6 6.5 6C7.32 6 8 6.67 8 7.5C8 8.32 7.32 9 6.5 9C5.67 9 5 8.32 5 7.5ZM17.5 6C16.67 6 16 6.67 16 7.5C16 8.32 16.67 9 17.5 9C18.32 9 19 8.32 19 7.5C19 6.67 18.32 6 17.5 6ZM12 15C11.17 15 10.5 15.67 10.5 16.5C10.5 17.32 11.17 18 12 18C12.82 18 13.5 17.32 13.5 16.5C13.5 15.67 12.82 15 12 15Z" fill="currentColor" fill-opacity="1.000000" fill-rule="evenodd"/>
</svg>