<svg width="24" height="24" viewBox="0 0 32 32" xmlns="http://www.w3.org/2000/svg">
<path fill-rule="evenodd" clip-rule="evenodd" d="M15.4962 1.45178C15.6415 2.38734 15.0009 3.26355 14.0653 3.40887C8.04869 4.3434 3.42857 9.58214 3.42857 15.9161C3.42857 22.9153 9.06651 28.572 16 28.572C22.9335 28.572 28.5714 22.9153 28.5714 15.9161C28.5714 14.9693 29.3389 14.2018 30.2857 14.2018C31.2325 14.2018 32 14.9693 32 15.9161C32 24.7898 24.8461 32.0006 16 32.0006C7.15393 32.0006 0 24.7898 0 15.9161C0 7.88079 5.863 1.21321 13.5391 0.020923C14.4746 -0.124392 15.3509 0.516225 15.4962 1.45178Z" fill="currentColor"/>
</svg>
