<svg width="130" height="33" viewBox="0 0 130 33" fill="none" xmlns="http://www.w3.org/2000/svg">
<g clip-path="url(#clip0_40705_74834)">
<path d="M6.62689 6.62855C11.0454 2.21007 13.2555 -7.62939e-06 15.9992 -7.62939e-06C18.7429 -7.62939e-06 20.9546 2.21007 25.3731 6.62855C29.7916 11.047 32 13.2554 32 16.0008C32 18.7462 29.7899 20.9546 25.3731 25.3731C20.9563 29.7916 18.7446 32.0033 15.9992 32.0033C13.2538 32.0033 11.0454 29.7949 6.62689 25.3765C2.20841 20.958 7.62939e-06 18.7462 7.62939e-06 16.0008C7.62939e-06 13.2554 2.21009 11.0454 6.62689 6.62855Z" fill="url(#paint0_linear_40705_74834)"/>
<path d="M6.62742 6.62742C2.20915 11.0457 0 13.2548 0 16C0 16.0651 0.00124108 16.1298 0.00372325 16.1943C0.105964 13.5375 2.31386 11.3296 6.62741 7.01609C11.0457 2.59782 13.2548 0.388665 16 0.388665C18.7452 0.388665 20.9543 2.5978 25.3726 7.01608C29.6861 11.3296 31.894 13.5375 31.9963 16.1943C31.9988 16.1298 32 16.0651 32 16C32 13.2548 29.7909 11.0457 25.3726 6.62742C20.9543 2.20914 18.7452 0 16 0C13.2548 0 11.0457 2.20915 6.62742 6.62742Z" fill="#D1FAEF"/>
<path d="M6.62742 25.3726C2.20915 20.9543 0 18.7452 0 16C0 15.924 0.00169159 15.8485 0.00507477 15.7733C0.123953 18.4157 2.3314 20.6231 6.62741 24.9191C11.0457 29.3374 13.2548 31.5466 16 31.5466C18.7452 31.5466 20.9543 29.3374 25.3726 24.9191C29.6686 20.6231 31.8761 18.4157 31.9949 15.7733C31.9983 15.8485 32 15.924 32 16C32 18.7452 29.7909 20.9543 25.3726 25.3726C20.9543 29.7909 18.7452 32 16 32C13.2548 32 11.0457 29.7909 6.62742 25.3726Z" fill="#29A35D"/>
<path d="M15.0544 24.4971C15.1719 24.6326 15.3171 24.7412 15.4803 24.8157C15.6434 24.8901 15.8207 24.9287 16 24.9287C16.1793 24.9287 16.3566 24.8901 16.5197 24.8157C16.6829 24.7412 16.8281 24.6326 16.9456 24.4971C20.0743 20.8965 22.6149 16.8245 24.4736 12.4315C24.5457 12.2573 24.5761 12.0687 24.5624 11.8807C24.5488 11.6927 24.4914 11.5104 24.395 11.3485C24.2985 11.1865 24.1656 11.0493 24.0068 10.9477C23.848 10.8462 23.6677 10.7831 23.4802 10.7634C18.512 10.1548 13.488 10.1548 8.51979 10.7634C8.33231 10.7831 8.152 10.8462 7.99319 10.9477C7.83439 11.0493 7.70147 11.1865 7.60501 11.3485C7.50855 11.5104 7.45122 11.6927 7.43756 11.8807C7.42391 12.0687 7.45431 12.2573 7.52635 12.4315C9.38512 16.8245 11.9257 20.8965 15.0544 24.4971Z" fill="white"/>
</g>
<path d="M48.8696 10.0017C50.2498 10.0172 51.6003 10.4103 52.7791 11.1396L50.9547 12.5051C50.2777 12.1931 49.762 12.0666 48.8541 12.0666C48.1983 12.0666 46.6753 12.202 46.6753 13.4595C46.6753 14.4003 47.8188 14.671 49.1439 14.9888L49.1429 14.9937C49.1977 15.0067 49.2527 15.0197 49.3078 15.0329L49.4737 15.0726C51.2741 15.5071 53.1751 16.0975 53.1751 18.4271C53.1751 20.596 51.3401 22.0017 48.4862 22.0017C46.7661 22.0017 45.0112 21.4857 44 20.6843L44.8325 18.7459C45.8273 19.4816 47.2258 19.9368 48.5026 19.9368C50.4226 19.9368 50.7123 19.1177 50.7123 18.6272C50.7123 17.6747 49.5669 17.3961 48.2399 17.0734C48.2125 17.0667 48.1851 17.0601 48.1576 17.0534L47.9924 17.013C47.9371 16.9994 47.8818 16.9857 47.8263 16.9719L47.6599 16.9297L47.4935 16.8863C45.8298 16.4447 44.2115 15.7673 44.2115 13.5929C44.2115 11.8567 45.4352 10.0017 48.8696 10.0017ZM83.538 10.2028C86.5378 10.2028 88.4018 11.7929 88.4018 14.3532C88.4018 16.0477 87.584 17.3222 86.162 17.9901L86.0684 18.0327L88.5795 21.8006L85.939 21.8035L83.7495 18.5154H81.3041V21.8006H78.8403V10.2028H83.538ZM60.8755 10.2028C63.4928 10.2028 65.0545 11.3201 65.0545 13.1917C65.0545 14.3041 64.5407 15.2007 63.601 15.7197L63.4918 15.7795L63.6106 15.8197L63.6067 15.8168C64.8816 16.2474 65.6137 17.2882 65.6137 18.6615C65.6137 20.6862 64.0443 21.8006 61.1951 21.8006H55.467V10.2028H60.8755ZM76.5466 10.2018L73.9659 12.1333H70.3761V14.9692H75.6387V16.9007H70.3761V19.8701H76.5466V21.8006H67.9123V10.2018H76.5466ZM61.0078 16.9007H57.9346V19.874H61.0078V19.8701C62.4304 19.8701 63.1219 19.3786 63.1219 18.3849C63.1219 17.3912 62.4101 16.9007 61.0078 16.9007ZM83.4887 12.1333H81.3041V16.5839H83.4887C85.0678 16.5839 85.937 15.7942 85.937 14.3591C85.937 12.9239 85.0669 12.1333 83.4887 12.1333ZM60.5606 12.1333H57.9346V14.9692H60.5606C61.8702 14.9692 62.5627 14.4846 62.5627 13.5517C62.5627 12.9082 62.215 12.1333 60.5606 12.1333Z" fill="#24292E"/>
<path fill-rule="evenodd" clip-rule="evenodd" d="M98.7969 10.0642C96.966 10.0642 95.4527 10.6705 94.3965 11.7137C93.3403 12.757 92.7485 14.2301 92.7485 15.9497C92.7485 17.7968 93.3516 19.2791 94.4154 20.2992C95.4785 21.3186 96.9921 21.8673 98.7969 21.8673C100.628 21.8673 102.141 21.261 103.197 20.2178C104.253 19.1745 104.845 17.7014 104.845 15.9818C104.845 14.1425 104.242 12.6644 103.178 11.6444C102.115 10.625 100.602 10.0723 98.7969 10.0642ZM96.0358 13.1809C96.678 12.509 97.6122 12.1149 98.781 12.1069C100.028 12.1149 100.97 12.5445 101.6 13.2336C102.232 13.9239 102.559 14.8837 102.559 15.9657C102.559 17.1271 102.197 18.0902 101.552 18.7625C100.908 19.4345 99.9738 19.8246 98.813 19.8246C97.5657 19.8167 96.624 19.387 95.9936 18.6979C95.3622 18.0076 95.0348 17.0478 95.0348 15.9657C95.0348 14.8124 95.3933 13.8532 96.0358 13.1809Z" fill="#24292E"/>
<path d="M120.275 10.2411H117.617V21.6904H119.793V13.5525L123.296 19.2141H124.402L127.825 13.4824V21.6904H130V10.2411H127.501L123.904 16.2777L120.275 10.2411Z" fill="#24292E"/>
<path fill-rule="evenodd" clip-rule="evenodd" d="M116.121 14.3532C116.121 11.7929 114.257 10.2028 111.258 10.2028H106.56V21.8006H109.024V18.5154H111.469L113.659 21.8035L116.299 21.8006L113.788 18.0327L113.882 17.9901C115.303 17.3223 116.121 16.0477 116.121 14.3532ZM109.024 12.1333H111.208C112.786 12.1333 113.657 12.9239 113.657 14.3591C113.657 15.7942 112.787 16.5839 111.208 16.5839H109.024V12.1333Z" fill="#24292E"/>
<defs>
<linearGradient id="paint0_linear_40705_74834" x1="15.9992" y1="32.0319" x2="15.9992" y2="-0.374227" gradientUnits="userSpaceOnUse">
<stop stop-color="#32C671"/>
<stop offset="0.03" stop-color="#32C673"/>
<stop offset="1" stop-color="#3AD3AE"/>
</linearGradient>
<clipPath id="clip0_40705_74834">
<rect width="32" height="32.0033" fill="#24292E"/>
</clipPath>
</defs>
</svg>
