<svg width="24.000000" height="24.000000" viewBox="0 0 24 24" fill="none" xmlns="http://www.w3.org/2000/svg" xmlns:xlink="http://www.w3.org/1999/xlink">
	<path id="Exclude" d="M18.6318 6.92572L17.0733 5.36719C14.847 3.14093 13.1447 2.01849 11.9662 2C10.8541 2.01746 9.15302 3.13983 6.92572 5.36719L5.36716 6.92572C3.1409 9.15198 2.01849 10.8543 2 12.0328C2.01746 13.1449 3.13986 14.846 5.36716 17.0733L6.92572 18.6318C9.15198 20.8581 10.8543 21.9805 12.0327 21.999C13.0268 21.9833 14.3151 21.2669 15.8348 19.8496L19.7248 20.961C19.9903 21.0369 20.2437 21.0078 20.4851 20.8737C20.7265 20.7395 20.8851 20.5397 20.961 20.2742C20.9738 20.2295 20.9835 20.1838 20.9899 20.1382C20.9963 20.0924 20.9995 20.0461 20.9995 19.9995C20.9995 19.9528 20.9962 19.9065 20.9898 19.8607C20.9834 19.8149 20.9738 19.7696 20.961 19.7247L19.8472 15.8264C21.2655 14.2844 21.9828 12.9977 21.999 11.9662C21.9815 10.8541 20.8589 9.15283 18.6318 6.92572ZM9.49948 8.99945C8.67105 8.99945 7.99948 9.67108 7.99948 10.4995C7.99948 11.3279 8.67105 11.9995 9.49948 11.9995C10.3279 11.9995 10.9995 11.3279 10.9995 10.4995C10.9995 9.67108 10.3279 8.99945 9.49948 8.99945ZM12.9995 10.4995C12.9995 9.67108 13.6711 8.99945 14.4995 8.99945C15.3279 8.99945 15.9995 9.67108 15.9995 10.4995C15.9995 11.3279 15.3279 11.9995 14.4995 11.9995C13.6711 11.9995 12.9995 11.3279 12.9995 10.4995Z" clip-rule="evenodd" fill="currentColor" fill-opacity="1.000000" fill-rule="evenodd"/>
</svg>
