<svg width="24.000000" height="24.000000" viewBox="0 0 24 24" fill="none" xmlns="http://www.w3.org/2000/svg" xmlns:xlink="http://www.w3.org/1999/xlink">
	<defs>
		<clipPath id="clip1184_1569">
			<rect id="Frame 7552" width="12.000000" height="11.997657" transform="translate(6.000000 6.001221)" fill="white" fill-opacity="0"/>
		</clipPath>
		<linearGradient x1="20.999998" y1="2.999999" x2="3.000002" y2="21.000000" id="paint_linear_1184_1567_0" gradientUnits="userSpaceOnUse">
			<stop stop-color="#53B1FD"/>
			<stop offset="1.000000" stop-color="#1570EF"/>
		</linearGradient>
	</defs>
	<path id="vector" d="M12 21C7.02 21 3 16.97 3 12C3 7.02 7.02 3 12 3C16.97 3 21 7.02 21 12C21 16.97 16.97 21 12 21Z" fill="url(#paint_linear_1184_1567_0)" fill-opacity="1.000000" fill-rule="evenodd"/>
	<g clip-path="url(#clip1184_1569)">
		<path id="Bank" d="M16.83 9.41L12.31 7.13C12.14 7.05 11.94 7.04 11.77 7.13L7.18 9.41C6.89 9.55 6.99 10 7.32 10L16.69 10C17.02 10 17.12 9.56 16.83 9.41ZM8 12C8 11.44 8.44 11 9 11C9.55 11 10 11.44 10 12L10 14C10 14.55 9.55 15 9 15C8.44 15 8 14.55 8 14L8 12ZM12 11C11.44 11 11 11.44 11 12L11 14C11 14.55 11.44 15 12 15C12.55 15 13 14.55 13 14L13 12C13 11.44 12.55 11 12 11ZM14 12C14 11.44 14.44 11 15 11C15.55 11 16 11.44 16 12L16 14C16 14.55 15.55 15 15 15C14.44 15 14 14.55 14 14L14 12ZM7.5 16L16.5 16C16.77 16 17 16.22 17 16.5C17 16.77 16.77 17 16.5 17L7.5 17C7.22 17 7 16.77 7 16.5C7 16.22 7.22 16 7.5 16Z" fill="#FFFFFF" fill-opacity="1.000000" fill-rule="evenodd"/>
	</g>
</svg>
