<svg width="24.000000" height="24.000000" viewBox="0 0 24 24" fill="none" xmlns="http://www.w3.org/2000/svg" xmlns:xlink="http://www.w3.org/1999/xlink">
	<path id="vector" d="M12 21C7.02 21 3 16.97 3 12C3 7.02 7.02 3 12 3C16.97 3 21 7.02 21 12C21 16.97 16.97 21 12 21Z" fill="#11AD81" fill-opacity="1.000000" fill-rule="evenodd"/>
	<path id="vector" d="M12.99 8.66L12.99 12.92L13.96 11.96C14.02 11.9 14.08 11.85 14.15 11.81C14.19 11.78 14.24 11.76 14.29 11.74C14.35 11.71 14.41 11.69 14.48 11.68C14.54 11.67 14.6 11.66 14.66 11.66C14.73 11.66 14.79 11.67 14.85 11.68C14.91 11.69 14.98 11.71 15.04 11.74C15.09 11.76 15.13 11.78 15.18 11.81C15.24 11.85 15.31 11.9 15.37 11.96C15.42 12.02 15.47 12.08 15.52 12.15C15.54 12.19 15.57 12.24 15.59 12.29C15.61 12.35 15.63 12.41 15.64 12.48C15.66 12.54 15.66 12.6 15.66 12.66C15.66 12.73 15.66 12.79 15.64 12.85C15.63 12.91 15.61 12.98 15.59 13.04C15.57 13.09 15.54 13.13 15.52 13.18C15.47 13.24 15.42 13.31 15.37 13.37L12.7 16.03C12.6 16.13 12.5 16.2 12.38 16.25C12.26 16.3 12.13 16.33 12 16.33C11.86 16.33 11.73 16.3 11.61 16.25C11.5 16.2 11.39 16.13 11.29 16.03L8.62 13.37C8.57 13.31 8.52 13.24 8.47 13.18C8.45 13.13 8.42 13.09 8.4 13.04C8.38 12.98 8.36 12.91 8.35 12.85C8.33 12.79 8.33 12.73 8.33 12.66C8.33 12.6 8.33 12.54 8.35 12.48C8.36 12.41 8.38 12.35 8.4 12.29C8.42 12.24 8.45 12.19 8.47 12.15C8.52 12.08 8.57 12.02 8.62 11.96C8.68 11.9 8.75 11.85 8.81 11.81C8.86 11.78 8.9 11.76 8.95 11.74C9.01 11.71 9.08 11.69 9.14 11.68C9.2 11.67 9.27 11.66 9.33 11.66C9.39 11.66 9.45 11.67 9.52 11.68C9.58 11.69 9.64 11.71 9.7 11.74C9.75 11.76 9.8 11.78 9.84 11.81C9.91 11.85 9.97 11.9 10.03 11.96L11 12.92L11 8.66C11 8.58 11.01 8.5 11.03 8.42C11.04 8.37 11.06 8.32 11.08 8.27C11.1 8.21 11.13 8.15 11.17 8.1C11.2 8.05 11.24 8 11.29 7.95C11.33 7.91 11.38 7.87 11.43 7.84C11.49 7.8 11.54 7.77 11.61 7.74C11.65 7.72 11.7 7.71 11.75 7.69C11.83 7.67 11.91 7.66 12 7.66C12.08 7.66 12.16 7.67 12.24 7.69C12.29 7.71 12.34 7.72 12.38 7.74C12.45 7.77 12.5 7.8 12.56 7.84C12.61 7.87 12.66 7.91 12.7 7.95C12.75 8 12.79 8.05 12.82 8.1C12.86 8.15 12.89 8.21 12.91 8.27C12.93 8.32 12.95 8.37 12.96 8.42C12.98 8.5 12.99 8.58 12.99 8.66Z" fill="#FFFFFF" fill-opacity="1.000000" fill-rule="evenodd"/>
</svg>
