<svg width="24.000000" height="24.000000" viewBox="0 0 24 24" fill="none" xmlns="http://www.w3.org/2000/svg" xmlns:xlink="http://www.w3.org/1999/xlink">

    <path id="vector" d="M16.36 6.07L17.92 7.63C19.96 9.66 20.97 10.68 20.99 11.95C20.98 13.21 19.96 14.33 17.92 16.36L16.36 17.92C14.33 19.96 13.31 20.97 12.04 20.99C10.78 20.97 9.66 19.96 7.63 17.92L6.07 16.36C4.03 14.33 3.02 13.31 3 12.04C3.02 10.78 4.03 9.66 6.07 7.63L7.63 6.07C9.66 4.03 10.68 3.02 11.95 3C13.21 3.02 14.33 4.03 16.36 6.07ZM13 8C13 7.44 12.56 7 12 7C11.44 7 11 7.44 11 8L11 11.5C11 12.06 11.44 12.5 12 12.5C12.56 12.5 13 12.06 13 11.5L13 8ZM11.99 16.5C11.29 16.5 10.75 15.95 10.75 15.25C10.75 14.55 11.29 14 11.99 14C12.69 14 13.25 14.55 13.25 15.25C13.25 15.95 12.69 16.5 11.99 16.5Z" fill="currentColor" fill-opacity="1.000000" fill-rule="evenodd"/>

    <path id="vector" d="M13 8C13 7.44 12.56 7 12 7C11.43 7 11 7.44 11 8L11 11.5C11 12.06 11.43 12.5 12 12.5C12.56 12.5 13 12.06 13 11.5L13 8ZM11.99 16.5C11.29 16.5 10.75 15.95 10.75 15.25C10.75 14.55 11.29 14 11.99 14C12.69 14 13.25 14.55 13.25 15.25C13.25 15.95 12.69 16.5 11.99 16.5Z" fill="transparent" fill-opacity="1.000000" fill-rule="evenodd"/>

</svg>
