<svg xmlns="http://www.w3.org/2000/svg" xmlns:xlink="http://www.w3.org/1999/xlink" width="24.000000" height="24.000000" viewBox="0 0 24 24" fill="none">
	<defs>
		<linearGradient x1="20.999998" y1="2.999999" x2="2.999998" y2="21.000000" id="paint_linear_755_1580_0" gradientUnits="userSpaceOnUse">
			<stop stop-color="#7B61FF"/>
			<stop offset="1.000000" stop-color="#1BD0EE"/>
		</linearGradient>
	</defs>
	<path id="vector" d="M18.5 3C18.07 4.15 17.15 5.07 16 5.5C17.15 5.92 18.07 6.84 18.5 8C18.92 6.84 19.84 5.92 21 5.5C19.84 5.07 18.92 4.15 18.5 3ZM4 12C7.7 10.62 10.62 7.7 12 4C13.37 7.7 16.29 10.62 20 12C16.29 13.37 13.37 16.29 12 20C10.62 16.29 7.7 13.37 4 12ZM3 18.5C4.15 18.07 5.07 17.15 5.5 16C5.92 17.15 6.84 18.07 8 18.5C6.84 18.92 5.92 19.84 5.5 21C5.07 19.84 4.15 18.92 3 18.5Z" fill="url(#paint_linear_755_1580_0)" fill-opacity="1.000000" fill-rule="evenodd"/>
</svg>