<svg width="24.000000" height="24.000000" viewBox="0 0 24 24" fill="none" xmlns="http://www.w3.org/2000/svg" xmlns:xlink="http://www.w3.org/1999/xlink">
	<path id="vector" d="M12 21C11.33 21 10.67 20.92 10.04 20.78C9.51 20.67 9 20.5 8.49 20.29C7.98 20.07 7.5 19.82 7.05 19.52C6.54 19.18 6.07 18.8 5.63 18.36C5.19 17.92 4.81 17.45 4.47 16.94C4.18 16.49 3.92 16.01 3.7 15.5C3.49 14.99 3.32 14.48 3.21 13.95C3.07 13.32 3 12.66 3 12C3 11.33 3.07 10.67 3.21 10.04C3.32 9.51 3.49 9 3.7 8.49C3.92 7.98 4.18 7.5 4.47 7.05C4.81 6.54 5.19 6.07 5.63 5.63C6.07 5.19 6.54 4.81 7.05 4.47C7.5 4.18 7.98 3.92 8.49 3.7C9 3.49 9.51 3.32 10.04 3.21C10.67 3.07 11.33 3 12 3C12.66 3 13.32 3.07 13.95 3.21C14.48 3.32 14.99 3.49 15.5 3.7C16.01 3.92 16.49 4.18 16.94 4.47C17.45 4.81 17.92 5.19 18.36 5.63C18.8 6.07 19.18 6.54 19.52 7.05C19.81 7.5 20.07 7.98 20.29 8.49C20.5 9 20.67 9.51 20.78 10.04C20.92 10.67 21 11.33 21 12C21 12.66 20.92 13.32 20.78 13.95C20.67 14.48 20.5 14.99 20.29 15.5C20.07 16.01 19.81 16.49 19.52 16.94C19.18 17.45 18.8 17.92 18.36 18.36C17.92 18.8 17.45 19.18 16.94 19.52C16.49 19.81 16.01 20.07 15.5 20.29C14.99 20.5 14.48 20.67 13.95 20.78C13.32 20.92 12.66 21 12 21ZM12 19C12.53 19 13.05 18.94 13.55 18.82C13.95 18.73 14.34 18.61 14.72 18.45C15.11 18.28 15.48 18.08 15.83 17.86C16.23 17.59 16.6 17.29 16.94 16.94C17.29 16.6 17.59 16.23 17.86 15.83C18.08 15.48 18.28 15.11 18.45 14.72C18.61 14.34 18.73 13.95 18.82 13.56C18.94 13.05 19 12.53 19 12C19 11.46 18.94 10.94 18.82 10.43C18.73 10.04 18.61 9.65 18.45 9.27C18.28 8.88 18.08 8.51 17.86 8.17C17.59 7.76 17.29 7.39 16.94 7.05C16.6 6.7 16.23 6.4 15.83 6.13C15.48 5.91 15.11 5.71 14.72 5.54C14.34 5.38 13.95 5.26 13.56 5.17C13.05 5.05 12.53 5 12 5C11.46 5 10.94 5.05 10.43 5.17C10.04 5.26 9.65 5.38 9.27 5.54C8.88 5.71 8.51 5.91 8.16 6.13C7.76 6.4 7.39 6.7 7.05 7.05C6.7 7.39 6.4 7.76 6.13 8.17C5.91 8.51 5.71 8.88 5.54 9.27C5.38 9.65 5.26 10.04 5.17 10.43C5.05 10.94 5 11.46 5 12C5 12.53 5.05 13.05 5.17 13.56C5.26 13.95 5.38 14.34 5.54 14.72C5.71 15.11 5.91 15.48 6.13 15.83C6.4 16.23 6.7 16.6 7.05 16.94C7.39 17.29 7.76 17.59 8.16 17.86C8.51 18.08 8.88 18.28 9.27 18.45C9.65 18.61 10.04 18.73 10.43 18.82C10.94 18.94 11.46 19 12 19ZM13 7.75C13 7.05 12.45 6.5 11.75 6.5C11.05 6.5 10.5 7.05 10.5 7.75C10.5 8.44 11.05 9 11.75 9C12.45 9 13 8.44 13 7.75ZM11 12C10.43 12 10 11.56 10 11C10 10.43 10.43 10 11 10L12 10C12.13 10 12.26 10.02 12.38 10.07C12.5 10.12 12.6 10.19 12.7 10.29C12.8 10.39 12.87 10.49 12.92 10.61C12.97 10.73 13 10.86 13 11L13 15C13.56 15 14 15.43 14 16C14 16.56 13.56 17 13 17L11 17C10.43 17 10 16.56 10 16C10 15.43 10.43 15 11 15L11 12Z" fill="currentColor" fill-opacity="1.000000" fill-rule="evenodd"/>
</svg>
