<svg width="24.000000" height="24.000000" viewBox="0 0 24 24" fill="none" xmlns="http://www.w3.org/2000/svg" xmlns:xlink="http://www.w3.org/1999/xlink">
	<path id="vector" d="M12 21C11.33 21 10.67 20.92 10.04 20.78C9.51 20.67 9 20.5 8.49 20.29C7.98 20.07 7.5 19.82 7.05 19.52C6.54 19.18 6.07 18.8 5.63 18.36C5.19 17.92 4.81 17.45 4.47 16.94C4.17 16.49 3.92 16.01 3.7 15.5C3.49 14.99 3.32 14.48 3.21 13.95C3.07 13.32 3 12.66 3 12C3 11.33 3.07 10.67 3.21 10.04C3.32 9.51 3.49 9 3.7 8.49C3.92 7.98 4.17 7.5 4.47 7.05C4.81 6.54 5.19 6.07 5.63 5.63C6.07 5.19 6.54 4.81 7.05 4.47C7.5 4.18 7.98 3.92 8.49 3.7C9 3.49 9.51 3.32 10.04 3.21C10.67 3.07 11.33 3 12 3C12.66 3 13.32 3.07 13.95 3.21C14.48 3.32 14.99 3.49 15.5 3.7C16.01 3.92 16.49 4.17 16.94 4.47C17.45 4.81 17.92 5.19 18.36 5.63C18.8 6.07 19.18 6.54 19.52 7.05C19.82 7.5 20.07 7.98 20.29 8.49C20.5 9 20.67 9.51 20.78 10.04C20.92 10.67 21 11.33 21 12C21 12.66 20.92 13.32 20.78 13.95C20.67 14.48 20.5 14.99 20.29 15.5C20.07 16.01 19.82 16.49 19.52 16.94C19.18 17.45 18.8 17.92 18.36 18.36C17.92 18.8 17.45 19.18 16.94 19.52C16.49 19.82 16.01 20.07 15.5 20.29C14.99 20.5 14.48 20.67 13.95 20.78C13.32 20.92 12.66 21 12 21ZM11.75 6.5C12.45 6.5 13 7.04 13 7.75C13 8.45 12.45 9 11.75 9C11.05 9 10.5 8.45 10.5 7.75C10.5 7.04 11.05 6.5 11.75 6.5ZM11 10L12 10C12.13 10 12.26 10.02 12.38 10.07C12.5 10.12 12.6 10.19 12.7 10.29C12.8 10.39 12.87 10.49 12.92 10.61C12.97 10.73 13 10.86 13 11L13 15C13.56 15 14 15.44 14 16C14 16.56 13.56 17 13 17L11 17C10.43 17 10 16.56 10 16C10 15.44 10.43 15 11 15L11 12C10.43 12 10 11.56 10 11C10 10.44 10.43 10 11 10Z" fill="currentColor" fill-opacity="1.000000" fill-rule="evenodd"/>
</svg>
