<svg width="24.000000" height="24.000000" viewBox="0 0 24 24" fill="none" xmlns="http://www.w3.org/2000/svg" xmlns:xlink="http://www.w3.org/1999/xlink">
	<rect width="24.000000" height="24.000000" fill="currentColor" fill-opacity="0"/>
	<path d="M2 12C2 17.52 6.47 22 12 22C17.52 22 22 17.52 22 12C22 6.47 17.52 2 12 2C6.47 2 2 6.47 2 12ZM16.7 10.7C17.09 10.31 17.09 9.68 16.7 9.29C16.31 8.9 15.68 8.9 15.29 9.29L11 13.58L8.7 11.29C8.31 10.9 7.68 10.9 7.29 11.29C6.9 11.68 6.9 12.31 7.29 12.7L10.29 15.7C10.68 16.09 11.31 16.09 11.7 15.7L16.7 10.7Z" fill="currentColor" fill-opacity="1.000000" fill-rule="evenodd"/>
</svg>
