<svg width="20.000000" height="20.000000" viewBox="0 0 20 20" fill="none" xmlns="http://www.w3.org/2000/svg" xmlns:xlink="http://www.w3.org/1999/xlink">
	<defs>
		<clipPath id="clip1448_33984">
			<rect id="interface / tag" width="10.000000" height="10.000000" transform="translate(5.000000 5.000000)" fill="white" fill-opacity="0"/>
		</clipPath>
		<linearGradient x1="17.500000" y1="2.500000" x2="2.500002" y2="17.500004" id="paint_linear_1448_33982_0" gradientUnits="userSpaceOnUse">
			<stop stop-color="#2E90FA"/>
			<stop offset="1.000000" stop-color="#194185"/>
		</linearGradient>
	</defs>
	<path id="vector" d="M10 17.5C5.85 17.5 2.5 14.14 2.5 10C2.5 5.85 5.85 2.5 10 2.5C14.14 2.5 17.5 5.85 17.5 10C17.5 14.14 14.14 17.5 10 17.5Z" fill="url(#paint_linear_1448_33982_0)" fill-opacity="1.000000" fill-rule="evenodd"/>
	<g clip-path="url(#clip1448_33984)">
		<path id="Vector 338" d="M13.03 11.67L11.25 13.45C11.19 13.51 11.12 13.57 11.04 13.62C10.98 13.66 10.91 13.7 10.84 13.72C10.76 13.75 10.69 13.78 10.61 13.79C10.53 13.81 10.45 13.82 10.37 13.82C10.28 13.82 10.2 13.81 10.12 13.79C10.04 13.78 9.97 13.75 9.89 13.72C9.82 13.7 9.75 13.66 9.69 13.62C9.62 13.57 9.55 13.51 9.48 13.45L6.61 10.58C6.55 10.52 6.5 10.46 6.46 10.39C6.41 10.32 6.37 10.25 6.34 10.17C6.31 10.1 6.28 10.02 6.27 9.94C6.25 9.86 6.25 9.78 6.25 9.7L6.25 7.91C6.25 7.82 6.25 7.73 6.27 7.65C6.29 7.57 6.31 7.5 6.34 7.42C6.37 7.35 6.41 7.29 6.45 7.22C6.5 7.15 6.55 7.09 6.61 7.03C6.67 6.97 6.74 6.91 6.81 6.87C6.87 6.83 6.94 6.79 7.01 6.76C7.08 6.73 7.15 6.71 7.23 6.69C7.32 6.67 7.4 6.66 7.5 6.66L9.28 6.66C9.36 6.66 9.44 6.67 9.52 6.69C9.6 6.7 9.68 6.72 9.76 6.76C9.83 6.79 9.91 6.83 9.97 6.87C10.04 6.92 10.1 6.97 10.16 7.03L13.03 9.9C13.1 9.96 13.15 10.03 13.2 10.11C13.24 10.17 13.28 10.24 13.31 10.31C13.34 10.38 13.36 10.46 13.37 10.53C13.39 10.61 13.4 10.7 13.4 10.78C13.4 10.87 13.39 10.95 13.37 11.03C13.36 11.11 13.34 11.18 13.31 11.25C13.28 11.32 13.24 11.39 13.2 11.46C13.15 11.53 13.1 11.6 13.03 11.67ZM8.75 8.54C8.75 8.88 8.46 9.16 8.12 9.16C7.77 9.16 7.5 8.88 7.5 8.54C7.5 8.19 7.77 7.91 8.12 7.91C8.46 7.91 8.75 8.19 8.75 8.54Z" fill="#FFFFFF" fill-opacity="1.000000" fill-rule="evenodd"/>
	</g>
</svg>
