<svg width="24.000000" height="24.000000" viewBox="0 0 24 24" fill="none" xmlns="http://www.w3.org/2000/svg" xmlns:xlink="http://www.w3.org/1999/xlink">
	<path id="vector" d="M12 21C7.02 21 3 16.97 3 12C3 7.02 7.02 3 12 3C16.97 3 21 7.02 21 12C21 16.97 16.97 21 12 21Z" fill="#F79009" fill-opacity="1.000000" fill-rule="evenodd"/>
	<path id="vector" d="M8.62 10.62L11.29 7.96C11.39 7.86 11.5 7.79 11.61 7.74C11.73 7.69 11.86 7.66 12 7.66C12.13 7.66 12.26 7.69 12.38 7.74C12.5 7.79 12.6 7.86 12.7 7.96L15.37 10.62C15.42 10.68 15.47 10.75 15.52 10.81C15.54 10.86 15.57 10.9 15.59 10.95C15.61 11.01 15.63 11.08 15.64 11.14C15.66 11.2 15.66 11.27 15.66 11.33C15.66 11.39 15.66 11.45 15.64 11.52C15.63 11.58 15.61 11.64 15.59 11.7C15.57 11.75 15.54 11.8 15.52 11.84C15.47 11.91 15.42 11.97 15.37 12.03C15.31 12.09 15.24 12.14 15.18 12.18C15.13 12.21 15.09 12.23 15.04 12.25C14.98 12.28 14.91 12.3 14.85 12.31C14.79 12.32 14.73 12.33 14.66 12.33C14.6 12.33 14.54 12.32 14.48 12.31C14.41 12.3 14.35 12.28 14.29 12.25C14.24 12.23 14.19 12.21 14.15 12.18C14.08 12.14 14.02 12.09 13.96 12.03L12.99 11.07L12.99 15.33C12.99 15.41 12.98 15.49 12.96 15.57C12.95 15.62 12.93 15.67 12.91 15.72C12.89 15.78 12.86 15.84 12.82 15.89C12.79 15.94 12.75 15.99 12.7 16.04C12.66 16.08 12.61 16.12 12.56 16.15C12.5 16.19 12.45 16.22 12.38 16.25C12.34 16.27 12.29 16.28 12.24 16.3C12.16 16.32 12.08 16.33 12 16.33C11.91 16.33 11.83 16.32 11.75 16.3C11.7 16.28 11.65 16.27 11.61 16.25C11.54 16.22 11.49 16.19 11.43 16.15C11.38 16.12 11.33 16.08 11.29 16.04C11.24 15.99 11.2 15.94 11.17 15.89C11.13 15.84 11.1 15.78 11.08 15.72C11.06 15.67 11.04 15.62 11.03 15.57C11.01 15.49 11 15.41 11 15.33L11 11.07L10.03 12.03C9.97 12.09 9.91 12.14 9.84 12.18C9.8 12.21 9.75 12.23 9.7 12.25C9.64 12.28 9.58 12.3 9.52 12.31C9.45 12.32 9.39 12.33 9.33 12.33C9.27 12.33 9.2 12.32 9.14 12.31C9.08 12.3 9.01 12.28 8.95 12.25C8.9 12.23 8.86 12.21 8.81 12.18C8.75 12.14 8.68 12.09 8.62 12.03C8.57 11.97 8.52 11.91 8.47 11.84C8.45 11.8 8.42 11.75 8.4 11.7C8.38 11.64 8.36 11.58 8.35 11.52C8.33 11.45 8.33 11.39 8.33 11.33C8.33 11.27 8.33 11.2 8.35 11.14C8.36 11.08 8.38 11.01 8.4 10.95C8.42 10.9 8.45 10.86 8.47 10.81C8.52 10.75 8.57 10.68 8.62 10.62Z" fill="#FFFFFF" fill-opacity="1.000000" fill-rule="evenodd"/>
</svg>
