<svg width="512" height="512" viewBox="0 0 512 512" fill="none" xmlns="http://www.w3.org/2000/svg">
<path d="M115.403 115.428C181.68 49.1512 214.832 16 255.987 16C297.143 16 330.32 49.1512 396.597 115.428C462.874 181.706 496 214.832 496 256.013C496 297.194 462.849 330.319 396.597 396.597C330.345 462.874 297.168 496.05 255.987 496.05C214.806 496.05 181.68 462.924 115.403 396.647C49.126 330.37 16 297.194 16 256.013C16 214.832 49.1512 181.68 115.403 115.428Z" fill="url(#paint0_linear_23191_65341)"/>
<path d="M241.816 383.457C243.578 385.489 245.757 387.119 248.204 388.235C250.651 389.352 253.31 389.93 256 389.93C258.69 389.93 261.348 389.352 263.796 388.235C266.243 387.119 268.421 385.489 270.184 383.457C317.114 329.447 355.223 268.367 383.105 202.472C384.185 199.86 384.641 197.03 384.436 194.21C384.232 191.39 383.371 188.657 381.925 186.227C380.478 183.798 378.484 181.74 376.102 180.216C373.72 178.693 371.015 177.746 368.203 177.452C293.679 168.323 218.32 168.323 143.797 177.452C140.985 177.746 138.28 178.693 135.898 180.216C133.516 181.74 131.522 183.798 130.075 186.227C128.628 188.657 127.768 191.39 127.563 194.21C127.359 197.03 127.815 199.86 128.895 202.472C156.777 268.367 194.886 329.447 241.816 383.457V383.457Z" fill="white"/>
<defs>
<linearGradient id="paint0_linear_23191_65341" x1="255.987" y1="496.478" x2="255.987" y2="10.3867" gradientUnits="userSpaceOnUse">
<stop stop-color="#32C671"/>
<stop offset="0.03" stop-color="#32C673"/>
<stop offset="1" stop-color="#3AD3AE"/>
</linearGradient>
</defs>
</svg>
