<svg width="24.000000" height="24.000000" viewBox="0 0 24 24" fill="none"
  xmlns="http://www.w3.org/2000/svg" xmlns:xlink="http://www.w3.org/1999/xlink">
  <defs>
    <clipPath id="clip633_31770">
      <rect id="Icon" width="16.000000" height="16.000000" transform="translate(4.000000 4.000000)"
        fill="white" fill-opacity="0" />
    </clipPath>
    <clipPath id="clip633_31772">
      <rect id="Ico" rx="12.000000" width="24.000000" height="24.000000" fill="white"
        fill-opacity="0" />
    </clipPath>
  </defs>
  <rect id="Ico" rx="12.000000" width="24.000000" height="24.000000" fill="#FFFAEB"
    fill-opacity="1.000000" />
  <g clip-path="url(#clip633_31772)">
    <g clip-path="url(#clip633_31770)">
      <path id="vector"
        d="M12.76 10L13.32 6.09C13.34 5.97 13.33 5.86 13.28 5.75C13.24 5.64 13.17 5.55 13.08 5.48C12.94 5.36 12.78 5.31 12.6 5.33C12.41 5.35 12.26 5.43 12.15 5.57L6.15 12.91C6.1 12.97 6.06 13.03 6.03 13.1C6.01 13.18 6 13.25 6 13.33C6 13.51 6.06 13.67 6.19 13.8C6.32 13.93 6.48 14 6.66 14L11.23 14L10.67 17.9C10.65 18.02 10.66 18.13 10.71 18.24C10.75 18.35 10.82 18.44 10.91 18.51C11.05 18.63 11.21 18.68 11.39 18.66C11.58 18.64 11.73 18.56 11.84 18.42L17.84 11.08C17.89 11.02 17.93 10.96 17.96 10.89C17.98 10.81 18 10.74 18 10.66C18 10.48 17.93 10.32 17.8 10.19C17.67 10.06 17.51 10 17.33 10L12.76 10ZM11.66 8.27L8.07 12.66L12 12.66C12.01 12.66 12.07 12.67 12.09 12.67C12.27 12.69 12.42 12.78 12.53 12.93C12.64 13.08 12.68 13.24 12.66 13.42L12.33 15.72L15.92 11.33L12 11.33C11.98 11.33 11.92 11.32 11.9 11.32C11.72 11.3 11.57 11.21 11.46 11.06C11.35 10.91 11.31 10.75 11.33 10.57L11.66 8.27Z"
        fill="#F79009" fill-opacity="1.000000" fill-rule="evenodd" />
    </g>
  </g>
</svg>