<svg width="24.000000" height="24.000000" viewBox="0 0 24 24" fill="none"
  xmlns="http://www.w3.org/2000/svg" xmlns:xlink="http://www.w3.org/1999/xlink">
  <defs>
    <clipPath id="clip633_31788">
      <rect id="Ico" rx="12.000000" width="24.000000" height="24.000000" fill="white"
        fill-opacity="0" />
    </clipPath>
  </defs>
  <rect id="Ico" rx="12.000000" width="24.000000" height="24.000000" fill="#FEF3F2"
    fill-opacity="1.000000" />
  <g clip-path="url(#clip633_31788)">
    <path id="vector"
      d="M12.8 5.45L12.6 5.06C12.59 5.03 12.58 5.01 12.57 4.98C12.47 4.83 12.32 4.72 12.16 4.68C11.99 4.64 11.81 4.66 11.65 4.76C11.63 4.77 11.6 4.79 11.58 4.8C11.38 4.95 11.19 5.11 11.02 5.29C10.87 5.45 10.73 5.63 10.61 5.81C10.48 6 10.37 6.2 10.28 6.4C10.18 6.62 10.1 6.85 10.04 7.09C9.93 7.55 9.9 8.01 9.94 8.48C10 8.96 10.13 9.42 10.35 9.86C10.41 9.98 10.46 10.16 10.46 10.3C10.45 10.43 10.42 10.55 10.35 10.66C10.26 10.82 10.13 10.93 9.96 10.99C9.79 11.05 9.62 11.05 9.44 11C9.3 10.95 9.11 10.84 9.01 10.73C8.9 10.61 8.84 10.48 8.81 10.33L8.66 9.58C8.69 9.36 8.6 9.13 8.41 8.97C8.12 8.74 7.71 8.79 7.47 9.08L7.15 9.48C7.01 9.66 6.89 9.84 6.79 10.03C6.68 10.23 6.59 10.43 6.52 10.64C6.46 10.83 6.41 11.03 6.38 11.23C6.34 11.43 6.33 11.63 6.33 11.83L6.33 12C6.33 12.49 6.38 12.97 6.49 13.44C6.56 13.74 6.65 14.03 6.77 14.32C6.94 14.75 7.16 15.16 7.42 15.54C7.59 15.78 7.77 16.01 7.97 16.22C8.32 16.59 8.69 16.9 9.1 17.16C9.32 17.29 9.54 17.41 9.77 17.52C10.13 17.68 10.5 17.8 10.88 17.88C11.24 17.96 11.62 18 12 18C12.37 18 12.75 17.96 13.11 17.88C13.49 17.8 13.86 17.68 14.21 17.52C14.45 17.41 14.67 17.29 14.88 17.16C15.3 16.9 15.67 16.59 16.02 16.22C16.22 16.01 16.4 15.78 16.57 15.54C16.83 15.16 17.05 14.75 17.22 14.32C17.33 14.03 17.43 13.74 17.5 13.44C17.61 12.97 17.66 12.49 17.66 12C17.66 11.81 17.65 11.62 17.62 11.43C17.6 11.26 17.57 11.09 17.53 10.92C17.48 10.75 17.43 10.58 17.37 10.41C17.3 10.24 17.23 10.08 17.14 9.92C17.05 9.76 16.96 9.6 16.85 9.45C16.75 9.31 16.64 9.17 16.52 9.04C16.41 8.91 16.28 8.79 16.15 8.67C16.01 8.55 15.86 8.44 15.7 8.33L14.84 7.76C14.62 7.61 14.41 7.45 14.22 7.28C14.02 7.11 13.84 6.93 13.67 6.73C13.5 6.54 13.34 6.33 13.19 6.12C13.05 5.9 12.92 5.68 12.8 5.45ZM7.66 12C7.66 12.41 7.71 12.8 7.8 13.19C7.86 13.41 7.92 13.62 8.01 13.83C8.15 14.18 8.33 14.52 8.55 14.82C8.67 14.99 8.8 15.16 8.95 15.31C9.23 15.61 9.54 15.87 9.88 16.07C10.02 16.16 10.17 16.23 10.32 16.3C10.6 16.42 10.87 16.52 11.16 16.58C11.43 16.63 11.71 16.66 12 16.66C12.28 16.66 12.56 16.63 12.83 16.58C13.12 16.52 13.39 16.42 13.67 16.3C13.82 16.23 13.97 16.16 14.11 16.07C14.45 15.87 14.76 15.61 15.04 15.31C15.19 15.16 15.32 14.99 15.44 14.82C15.66 14.52 15.84 14.18 15.98 13.83C16.06 13.62 16.13 13.41 16.19 13.19C16.28 12.8 16.33 12.41 16.33 12C16.33 11.74 16.3 11.49 16.24 11.25C16.18 11.01 16.09 10.77 15.96 10.55C15.84 10.32 15.7 10.11 15.53 9.93C15.37 9.75 15.17 9.58 14.96 9.44L14.1 8.87C13.83 8.69 13.58 8.5 13.34 8.29C13.1 8.08 12.88 7.86 12.67 7.62C12.46 7.38 12.26 7.13 12.09 6.86C11.99 6.72 11.9 6.57 11.81 6.42C11.78 6.47 11.74 6.51 11.71 6.56C11.63 6.68 11.56 6.81 11.5 6.94C11.43 7.09 11.38 7.25 11.34 7.41C11.26 7.72 11.24 8.03 11.27 8.34C11.29 8.48 11.31 8.62 11.35 8.76C11.4 8.93 11.46 9.1 11.54 9.26C11.7 9.58 11.81 9.99 11.79 10.35C11.78 10.71 11.68 11.04 11.49 11.35C11.43 11.46 11.35 11.56 11.27 11.66C11.19 11.74 11.11 11.82 11.02 11.89C10.84 12.04 10.64 12.16 10.42 12.24C10.3 12.28 10.19 12.31 10.07 12.34C9.96 12.36 9.85 12.37 9.73 12.37C9.49 12.38 9.25 12.34 9.02 12.26C8.84 12.2 8.6 12.1 8.44 11.99C8.28 11.89 8.14 11.76 8.01 11.61C7.9 11.49 7.81 11.37 7.74 11.23C7.72 11.3 7.7 11.37 7.69 11.44C7.67 11.57 7.66 11.7 7.66 11.83L7.66 12Z"
      fill="#F04438" fill-opacity="1.000000" fill-rule="evenodd" />
  </g>
</svg>