<svg width="20.000000" height="20.000000" viewBox="0 0 20 20" fill="none"
  xmlns="http://www.w3.org/2000/svg" xmlns:xlink="http://www.w3.org/1999/xlink">
  <defs />
  <path id="vector"
    d="M10 17.5C5.85 17.5 2.5 14.14 2.5 10C2.5 5.85 5.85 2.5 10 2.5C14.14 2.5 17.5 5.85 17.5 10C17.5 14.14 14.14 17.5 10 17.5Z"
    fill="#2E90FA" fill-opacity="1.000000" fill-rule="evenodd" />
  <path id="vector"
    d="M10.76 14.5L14.09 7C14.28 6.57 14.09 6.09 13.67 5.9C13.53 5.84 13.4 5.82 13.26 5.83L5.83 5.83L7.5 8.75L5.83 11.66L10.19 11.66L9.23 13.82C9.04 14.25 9.23 14.73 9.66 14.92C10.08 15.11 10.57 14.93 10.76 14.5Z"
    fill="#FFFFFF" fill-opacity="1.000000" fill-rule="evenodd" />
</svg>