<svg width="20.000000" height="20.000000" viewBox="0 0 20 20" fill="none"
  xmlns="http://www.w3.org/2000/svg" xmlns:xlink="http://www.w3.org/1999/xlink">
  <defs>
    <clipPath id="clip633_31724">
      <rect id="Frame 7552" width="8.333334" height="8.333334"
        transform="translate(5.833008 5.833344)" fill="white" fill-opacity="0" />
    </clipPath>
    <linearGradient x1="17.500000" y1="2.500000" x2="2.500002" y2="17.500004"
      id="paint_linear_633_31720_0" gradientUnits="userSpaceOnUse">
      <stop stop-color="#EE46BC" />
      <stop offset="1.000000" stop-color="#FDB022" />
    </linearGradient>
  </defs>
  <path id="vector"
    d="M10 17.5C5.85 17.5 2.5 14.14 2.5 10C2.5 5.85 5.85 2.5 10 2.5C14.14 2.5 17.5 5.85 17.5 10C17.5 14.14 14.14 17.5 10 17.5Z"
    fill="url(#paint_linear_633_31720_0)" fill-opacity="1.000000" fill-rule="evenodd" />
  <g clip-path="url(#clip633_31724)">
    <path id="Rectangle 2313"
      d="M6.89 6.89L7.9 7.9C8.12 8.12 8.49 8.08 8.67 7.82L9.58 6.45C9.78 6.16 10.21 6.16 10.41 6.45L11.32 7.82C11.5 8.08 11.87 8.12 12.09 7.9L13.1 6.89C13.44 6.55 14.02 6.84 13.95 7.31L13.39 11.23C13.35 11.48 13.14 11.66 12.89 11.66L7.09 11.66C6.85 11.66 6.64 11.48 6.6 11.23L6.04 7.31C5.97 6.84 6.55 6.55 6.89 6.89Z"
      fill="#FFFFFF" fill-opacity="1.000000" fill-rule="evenodd" />
    <rect id="Rectangle 2314" x="6.666992" y="12.500000" rx="0.416667" width="6.666667"
      height="0.833333" fill="#FFFFFF" fill-opacity="1.000000" />
  </g>
</svg>