<svg width="24.000000" height="24.000000" viewBox="0 0 24 24" fill="none"
  xmlns="http://www.w3.org/2000/svg" xmlns:xlink="http://www.w3.org/1999/xlink">
  <defs>
    <clipPath id="clip633_31798">
      <rect id="Ico" rx="12.000000" width="24.000000" height="24.000000" fill="white"
        fill-opacity="0" />
    </clipPath>
  </defs>
  <rect id="Ico" rx="12.000000" width="24.000000" height="24.000000" fill="#F7F8F9"
    fill-opacity="1.000000" />
  <g clip-path="url(#clip633_31798)">
    <path id="vector"
      d="M10.69 17.85C11.11 17.95 11.55 18 12 18C12.44 18 12.88 17.95 13.3 17.85C13.65 17.78 13.99 17.67 14.33 17.52C14.67 17.38 14.99 17.21 15.29 17.01C15.63 16.79 15.95 16.53 16.24 16.24C16.53 15.95 16.79 15.63 17.01 15.29C17.21 14.99 17.38 14.67 17.52 14.33C17.67 13.99 17.78 13.65 17.85 13.3C17.95 12.88 18 12.44 18 12C18 11.55 17.95 11.11 17.85 10.69C17.78 10.34 17.67 10 17.52 9.66C17.38 9.32 17.21 9 17.01 8.7C16.79 8.36 16.53 8.04 16.24 7.75C15.95 7.46 15.63 7.2 15.29 6.98C14.99 6.78 14.67 6.61 14.33 6.47C13.99 6.32 13.65 6.21 13.3 6.14C12.88 6.04 12.44 6 12 6C11.55 6 11.11 6.04 10.69 6.14C10.34 6.21 10 6.32 9.66 6.47C9.32 6.61 9 6.78 8.7 6.98C8.36 7.2 8.04 7.46 7.75 7.75C7.46 8.04 7.2 8.36 6.98 8.7C6.78 9 6.61 9.32 6.47 9.66C6.32 10 6.21 10.34 6.14 10.69C6.04 11.11 6 11.55 6 12C6 12.44 6.04 12.88 6.14 13.3C6.21 13.65 6.32 13.99 6.47 14.33C6.61 14.67 6.78 14.99 6.98 15.29C7.2 15.63 7.46 15.95 7.75 16.24C8.04 16.53 8.36 16.79 8.7 17.01C9 17.21 9.32 17.38 9.66 17.52C10 17.67 10.34 17.78 10.69 17.85ZM13.04 16.55C12.7 16.62 12.35 16.66 12 16.66C11.64 16.66 11.29 16.62 10.96 16.55C10.69 16.49 10.43 16.4 10.18 16.3C9.92 16.19 9.67 16.05 9.44 15.9C9.17 15.73 8.93 15.53 8.7 15.29C8.46 15.06 8.26 14.82 8.09 14.55C7.94 14.32 7.8 14.07 7.7 13.81C7.59 13.56 7.5 13.3 7.44 13.04C7.37 12.7 7.33 12.35 7.33 12C7.33 11.64 7.37 11.29 7.44 10.96C7.5 10.69 7.59 10.43 7.7 10.18C7.8 9.92 7.94 9.67 8.09 9.44C8.26 9.17 8.46 8.93 8.7 8.7C8.93 8.46 9.17 8.26 9.44 8.09C9.67 7.94 9.92 7.8 10.18 7.69C10.43 7.59 10.69 7.5 10.96 7.44C11.29 7.37 11.64 7.33 12 7.33C12.35 7.33 12.7 7.37 13.04 7.44C13.3 7.5 13.56 7.59 13.81 7.69C14.07 7.8 14.32 7.94 14.55 8.09C14.82 8.26 15.06 8.46 15.29 8.7C15.53 8.93 15.73 9.17 15.9 9.44C16.05 9.67 16.19 9.92 16.29 10.18C16.4 10.43 16.49 10.69 16.55 10.95C16.62 11.29 16.66 11.64 16.66 12C16.66 12.35 16.62 12.7 16.55 13.04C16.49 13.3 16.4 13.56 16.29 13.81C16.19 14.07 16.05 14.32 15.9 14.55C15.73 14.82 15.53 15.06 15.29 15.29C15.06 15.53 14.82 15.73 14.55 15.9C14.32 16.05 14.07 16.19 13.81 16.3C13.56 16.4 13.3 16.49 13.04 16.55ZM11.33 9.33C11.33 8.95 11.62 8.66 12 8.66C12.37 8.66 12.66 8.95 12.66 9.33L12.66 12C12.66 12.37 12.37 12.66 12 12.66C11.62 12.66 11.33 12.37 11.33 12L11.33 9.33ZM11.16 14.16C11.16 14.63 11.53 15 11.99 15C12.46 15 12.83 14.63 12.83 14.16C12.83 13.7 12.46 13.33 11.99 13.33C11.53 13.33 11.16 13.7 11.16 14.16Z"
      fill="#6A737D" fill-opacity="1.000000" fill-rule="evenodd" />
  </g>
</svg>