<svg width="24.000000" height="24.000000" viewBox="0 0 24 24" fill="none" xmlns="http://www.w3.org/2000/svg" xmlns:xlink="http://www.w3.org/1999/xlink">
	<defs/>
	<path id="vector" d="M17 21L7 21C5.89 21 5 20.1 5 19L5 5C5 3.89 5.89 3 7 3L14.17 3C14.7 3 15.21 3.21 15.58 3.58L18.41 6.41C18.78 6.78 19 7.29 19 7.82L19 19C19 20.1 18.1 21 17 21Z" fill="currentColor" fill-opacity="1.000000" fill-rule="nonzero"/>
	<mask id="mask254_1982" mask-type="alpha" maskUnits="userSpaceOnUse" x="5.000000" y="3.000000" width="14.000000" height="18.000000">
		<path id="Vector" d="M17 21L7 21C5.89 21 5 20.1 5 19L5 5C5 3.89 5.89 3 7 3L14.17 3C14.7 3 15.21 3.21 15.58 3.58L18.41 6.41C18.78 6.78 19 7.29 19 7.82L19 19C19 20.1 18.1 21 17 21Z" fill="#57B15B" fill-opacity="1.000000" fill-rule="nonzero"/>
	</mask>
	<g mask="url(#mask254_1982)">
		<g opacity="0.500000">
			<path id="Vector 7" d="M14 1.82L14 6C14 7.1 14.89 8 16 8L20.17 8C21.95 8 22.84 5.84 21.58 4.58L17.41 0.41C16.15 -0.85 14 0.04 14 1.82Z" fill="#FFFFFF" fill-opacity="1.000000" fill-rule="evenodd"/>
		</g>
	</g>
	<path id="vector" d="M11.99 12.32L13.09 10L14.94 10L13.06 13.47L15 17L13.12 17L11.99 14.62L10.86 17L9 17L10.92 13.47L9.05 10L10.89 10L11.99 12.32Z" fill="#FFFFFF" fill-opacity="1.000000" fill-rule="nonzero"/>
</svg>
