<svg width="24" height="24" viewBox="0 0 24 24" fill="none" xmlns="http://www.w3.org/2000/svg">
    <path fill-rule="evenodd" clip-rule="evenodd" d="M7 2C5.34272 2 4 3.34272 4 5V19C4 20.6573 5.34272 22 7 22H17C18.6573 22 20 20.6573 20 19V8V7.828C20 7.03249 19.6834 6.26922 19.1211 5.70689L16.2931 2.87889C15.7308 2.31657 14.9675 2 14.172 2H14H7ZM13 4H7C6.44728 4 6 4.44728 6 5V19C6 19.5527 6.44728 20 7 20H17C17.5527 20 18 19.5527 18 19V9H15C13.8957 9 13 8.10428 13 7V4ZM17.5858 7H15V4.41421L17.5858 7Z" fill="currentColor"/>
</svg>
