<svg width="18.000000" height="18.000000" viewBox="0 0 18 18" fill="none" xmlns="http://www.w3.org/2000/svg" xmlns:xlink="http://www.w3.org/1999/xlink">
	<path id="vector" d="M9 3.75L9 6C9 6.1 9.01 6.21 9.03 6.31C9.05 6.4 9.08 6.49 9.11 6.58C9.15 6.67 9.19 6.75 9.25 6.83C9.3 6.91 9.36 6.98 9.43 7.06C9.51 7.13 9.58 7.19 9.66 7.24C9.74 7.3 9.82 7.34 9.91 7.38C10 7.41 10.09 7.44 10.18 7.46C10.28 7.48 10.39 7.5 10.5 7.5L12.75 7.5L12.75 9.75C12.75 10.16 13.08 10.5 13.5 10.5C13.92 10.5 14.25 10.16 14.25 9.75L14.25 6.62C14.25 6.47 14.23 6.32 14.2 6.18C14.17 6.03 14.13 5.89 14.07 5.76C14.02 5.62 13.95 5.49 13.87 5.37C13.78 5.24 13.69 5.13 13.59 5.03L11.46 2.9C11.36 2.8 11.25 2.7 11.12 2.62C11 2.54 10.87 2.47 10.73 2.42C10.6 2.36 10.46 2.32 10.31 2.29C10.17 2.26 10.02 2.25 9.87 2.25L6 2.25C5.83 2.25 5.67 2.26 5.52 2.3C5.38 2.33 5.25 2.37 5.12 2.42C4.99 2.48 4.87 2.54 4.75 2.62C4.63 2.7 4.51 2.8 4.4 2.9C4.3 3.01 4.2 3.13 4.12 3.25C4.04 3.37 3.98 3.49 3.92 3.62C3.87 3.75 3.83 3.88 3.8 4.02C3.76 4.17 3.75 4.33 3.75 4.5L3.75 13.5C3.75 13.66 3.76 13.82 3.8 13.97C3.83 14.11 3.87 14.24 3.92 14.37C3.98 14.5 4.04 14.62 4.12 14.74C4.2 14.86 4.3 14.98 4.4 15.09C4.51 15.19 4.63 15.29 4.75 15.37C4.87 15.45 4.99 15.51 5.12 15.57C5.25 15.62 5.38 15.66 5.52 15.69C5.67 15.73 5.83 15.75 6 15.75L8.25 15.75C8.67 15.75 9 15.41 9 15C9 14.58 8.67 14.25 8.25 14.25L6 14.25C5.93 14.25 5.87 14.24 5.81 14.22C5.78 14.21 5.74 14.2 5.7 14.19C5.66 14.17 5.63 14.15 5.59 14.13C5.55 14.1 5.5 14.06 5.46 14.03C5.43 13.99 5.39 13.94 5.36 13.9C5.34 13.86 5.32 13.83 5.3 13.79C5.29 13.75 5.28 13.71 5.27 13.68C5.25 13.62 5.25 13.56 5.25 13.5L5.25 4.5C5.25 4.43 5.25 4.37 5.27 4.31C5.28 4.28 5.29 4.24 5.3 4.2C5.32 4.16 5.34 4.13 5.36 4.09C5.39 4.05 5.43 4 5.46 3.96C5.5 3.93 5.55 3.89 5.59 3.86C5.63 3.84 5.66 3.82 5.7 3.8C5.74 3.79 5.78 3.78 5.81 3.77C5.87 3.75 5.93 3.75 6 3.75L9 3.75ZM12.43 6L10.5 6L10.5 4.06L12.43 6ZM14.25 17.25L14.25 15.75L15.75 15.75C16.17 15.75 16.5 15.41 16.5 15C16.5 14.58 16.17 14.25 15.75 14.25L14.25 14.25L14.25 12.75C14.25 12.33 13.92 12 13.5 12C13.08 12 12.75 12.33 12.75 12.75L12.75 14.25L11.25 14.25C10.83 14.25 10.5 14.58 10.5 15C10.5 15.41 10.83 15.75 11.25 15.75L12.75 15.75L12.75 17.25C12.75 17.66 13.08 18 13.5 18C13.92 18 14.25 17.66 14.25 17.25Z" fill="currentColor" fill-opacity="1.000000" fill-rule="evenodd"/>
</svg>
