<svg width="24.000000" height="24.000000" viewBox="0 0 24 24" fill="none" xmlns="http://www.w3.org/2000/svg" xmlns:xlink="http://www.w3.org/1999/xlink">
	<defs>
		<clipPath id="clip240_1631">
			<rect id="files / fill / folder_color" width="24.000000" height="24.000000" fill="white" fill-opacity="0"/>
		</clipPath>
	</defs>
	<g clip-path="url(#clip240_1631)">
		<path id="vector" d="M5 4L9.88 4C10.56 4 11.19 4.38 11.5 5C11.8 5.61 12.43 6 13.11 6L19 6C20.1 6 21 6.89 21 8L21 9L21.2 9C22.13 9 22.84 9.84 22.67 10.76L21.29 18.35C21.12 19.3 20.29 20 19.33 20L5 20C3.89 20 3 19.1 3 18L3 6C3 4.89 3.89 4 5 4Z" fill="currentColor" fill-opacity="1.000000" fill-rule="nonzero"/>
		<g opacity="0.500000">
			<path id="vector" d="M8.66 9L21.2 9C22.13 9 22.84 9.84 22.67 10.76L21.29 18.35C21.12 19.3 20.29 20 19.33 20L5 20L6.7 10.64C6.87 9.69 7.7 9 8.66 9Z" fill="#FFFFFF" fill-opacity="1.000000" fill-rule="nonzero"/>
		</g>
	</g>
</svg>
