<svg width="24.000000" height="24.000000" viewBox="0 0 24 24" fill="none" xmlns="http://www.w3.org/2000/svg" xmlns:xlink="http://www.w3.org/1999/xlink">
	<defs/>
	<path id="vector" d="M17 21L7 21C5.89 21 5 20.1 5 19L5 5C5 3.89 5.89 3 7 3L14.17 3C14.7 3 15.21 3.21 15.58 3.58L18.41 6.41C18.78 6.78 19 7.29 19 7.82L19 19C19 20.1 18.1 21 17 21Z" fill="currentColor" fill-opacity="1.000000" fill-rule="nonzero"/>
	<mask id="mask254_1981" mask-type="alpha" maskUnits="userSpaceOnUse" x="5.000000" y="3.000000" width="14.000000" height="18.000000">
		<path id="Vector" d="M17 21L7 21C5.89 21 5 20.1 5 19L5 5C5 3.89 5.89 3 7 3L14.17 3C14.7 3 15.21 3.21 15.58 3.58L18.41 6.41C18.78 6.78 19 7.29 19 7.82L19 19C19 20.1 18.1 21 17 21Z" fill="#57B15B" fill-opacity="1.000000" fill-rule="nonzero"/>
	</mask>
	<g mask="url(#mask254_1981)">
		<g opacity="0.500000">
			<path id="Vector 7" d="M14 1.82L14 6C14 7.1 14.89 8 16 8L20.17 8C21.95 8 22.84 5.84 21.58 4.58L17.41 0.41C16.15 -0.85 14 0.04 14 1.82Z" fill="#FFFFFF" fill-opacity="1.000000" fill-rule="evenodd"/>
		</g>
	</g>
	<path id="vector" d="M16.78 14.27C16.03 13.47 13.99 13.79 13.51 13.85C12.79 13.14 12.3 12.28 12.13 11.99C12.38 11.19 12.56 10.39 12.59 9.53C12.59 8.79 12.3 8 11.49 8C11.21 8 10.95 8.17 10.8 8.41C10.46 9.03 10.6 10.27 11.15 11.55C10.83 12.46 10.55 13.35 9.74 14.92C8.91 15.27 7.16 16.1 7.01 16.99C6.95 17.26 7.04 17.52 7.24 17.73C7.44 17.91 7.7 18 7.96 18C9.02 18 10.06 16.49 10.78 15.21C11.38 15.01 12.33 14.71 13.28 14.53C14.4 15.54 15.37 15.69 15.89 15.69C16.58 15.69 16.84 15.39 16.92 15.13C17.07 14.83 16.98 14.5 16.78 14.27ZM16.06 14.77C16.03 14.98 15.77 15.18 15.31 15.07C14.77 14.92 14.28 14.65 13.85 14.3C14.22 14.24 15.06 14.15 15.66 14.27C15.89 14.33 16.12 14.47 16.06 14.77ZM11.26 8.68C11.32 8.59 11.41 8.53 11.49 8.53C11.75 8.53 11.81 8.85 11.81 9.12C11.78 9.74 11.67 10.36 11.47 10.95C11.03 9.77 11.12 8.94 11.26 8.68ZM11.21 14.42C11.44 13.94 11.75 13.11 11.87 12.76C12.13 13.2 12.56 13.73 12.79 13.97C12.79 14 11.9 14.18 11.21 14.42ZM9.51 15.6C8.85 16.72 8.16 17.43 7.79 17.43C7.73 17.43 7.67 17.4 7.62 17.37C7.53 17.31 7.5 17.23 7.53 17.11C7.62 16.69 8.36 16.13 9.51 15.6Z" fill="#FFFFFF" fill-opacity="1.000000" fill-rule="nonzero"/>
</svg>
