<svg width="24.000000" height="24.000000" viewBox="0 0 24 24" fill="none" xmlns="http://www.w3.org/2000/svg" xmlns:xlink="http://www.w3.org/1999/xlink">
	<defs/>
	<path id="vector" d="M13.17 3L8 3C7.78 3 7.56 3.02 7.36 3.06C7.18 3.1 7 3.16 6.83 3.23C6.65 3.3 6.49 3.39 6.34 3.49C6.17 3.6 6.02 3.73 5.87 3.87C5.73 4.02 5.6 4.17 5.49 4.34C5.39 4.49 5.3 4.65 5.23 4.83C5.16 5 5.1 5.18 5.06 5.36C5.02 5.56 5 5.78 5 6L5 18C5 18.21 5.02 18.43 5.06 18.63C5.1 18.81 5.16 18.99 5.23 19.16C5.3 19.34 5.39 19.5 5.49 19.65C5.6 19.82 5.73 19.97 5.87 20.12C6.02 20.26 6.17 20.39 6.34 20.5C6.49 20.6 6.65 20.69 6.83 20.76C7 20.83 7.18 20.89 7.36 20.93C7.56 20.97 7.78 21 8 21L16 21C16.21 21 16.43 20.97 16.63 20.93C16.81 20.89 16.99 20.83 17.16 20.76C17.34 20.69 17.5 20.6 17.65 20.5C17.82 20.39 17.97 20.26 18.12 20.12C18.26 19.97 18.39 19.82 18.5 19.65C18.6 19.5 18.69 19.34 18.76 19.16C18.83 18.99 18.89 18.81 18.93 18.63C18.97 18.43 19 18.21 19 18L19 8.82C19 8.62 18.98 8.43 18.94 8.24C18.9 8.05 18.84 7.86 18.77 7.68C18.69 7.49 18.6 7.32 18.49 7.16C18.38 6.99 18.26 6.84 18.12 6.7L15.29 3.87C15.15 3.73 15 3.61 14.83 3.5C14.67 3.39 14.5 3.3 14.31 3.22C14.13 3.15 13.94 3.09 13.75 3.05C13.56 3.01 13.37 3 13.17 3ZM12 8L12 5L8 5C7.91 5 7.83 5 7.75 5.02C7.7 5.04 7.65 5.05 7.61 5.07C7.55 5.1 7.5 5.12 7.46 5.15C7.4 5.19 7.34 5.24 7.29 5.29C7.24 5.34 7.19 5.4 7.15 5.46C7.12 5.5 7.1 5.55 7.07 5.61C7.05 5.65 7.04 5.7 7.02 5.75C7 5.83 7 5.91 7 6L7 18C7 18.08 7 18.16 7.02 18.24C7.04 18.29 7.05 18.34 7.07 18.38C7.1 18.44 7.12 18.49 7.15 18.53C7.19 18.59 7.24 18.65 7.29 18.7C7.34 18.75 7.4 18.8 7.46 18.84C7.5 18.87 7.55 18.89 7.61 18.92C7.65 18.94 7.7 18.95 7.75 18.97C7.83 18.99 7.91 19 8 19L16 19C16.08 19 16.16 18.99 16.24 18.97C16.29 18.95 16.34 18.94 16.38 18.92C16.44 18.89 16.49 18.87 16.53 18.84C16.59 18.8 16.65 18.75 16.7 18.7C16.75 18.65 16.8 18.59 16.84 18.53C16.87 18.49 16.89 18.44 16.92 18.38C16.94 18.34 16.95 18.29 16.97 18.24C16.99 18.16 17 18.08 17 18L17 10L14 10C13.85 10 13.71 9.98 13.58 9.95C13.45 9.93 13.33 9.89 13.22 9.84C13.1 9.79 12.99 9.73 12.89 9.66C12.78 9.59 12.68 9.5 12.58 9.41C12.49 9.31 12.4 9.21 12.33 9.1C12.26 9 12.2 8.89 12.15 8.77C12.1 8.66 12.06 8.54 12.04 8.41C12.01 8.28 12 8.14 12 8ZM14 8L16.58 8L14 5.41L14 8ZM13.29 14.67C13.8 14.6 15.26 14.41 15.82 15.01C15.98 15.2 16.05 15.46 15.94 15.7C15.87 15.91 15.66 16.15 15.11 16.15C14.7 16.15 13.92 16.03 13.02 15.23C12.26 15.37 11.5 15.6 11.02 15.77C10.45 16.79 9.62 18 8.77 18C8.56 18 8.35 17.92 8.19 17.78C8.03 17.62 7.96 17.4 8.01 17.19C8.12 16.48 9.53 15.82 10.19 15.53C10.84 14.28 11.07 13.57 11.32 12.84C10.88 11.82 10.77 10.82 11.04 10.33C11.16 10.14 11.36 10 11.59 10C12.24 10 12.47 10.63 12.47 11.23C12.44 11.91 12.31 12.55 12.1 13.19C12.24 13.43 12.72 14.1 13.29 14.67Z" fill="currentColor" fill-opacity="1.000000" fill-rule="evenodd"/>
</svg>
