<svg width="24.000000" height="24.000000" viewBox="0 0 24 24" fill="none" xmlns="http://www.w3.org/2000/svg" xmlns:xlink="http://www.w3.org/1999/xlink">
	<defs/>
	<path id="vector" d="M17 21L7 21C5.89 21 5 20.1 5 19L5 5C5 3.89 5.89 3 7 3L14.17 3C14.7 3 15.21 3.21 15.58 3.58L18.41 6.41C18.78 6.78 19 7.29 19 7.82L19 19C19 20.1 18.1 21 17 21Z" fill="currentColor" fill-opacity="1.000000" fill-rule="nonzero"/>
	<mask id="mask254_1979" mask-type="alpha" maskUnits="userSpaceOnUse" x="5.000000" y="3.000000" width="14.000000" height="18.000000">
		<path id="Vector" d="M17 21L7 21C5.89 21 5 20.1 5 19L5 5C5 3.89 5.89 3 7 3L14.17 3C14.7 3 15.21 3.21 15.58 3.58L18.41 6.41C18.78 6.78 19 7.29 19 7.82L19 19C19 20.1 18.1 21 17 21Z" fill="#57B15B" fill-opacity="1.000000" fill-rule="nonzero"/>
	</mask>
	<g mask="url(#mask254_1979)">
		<g opacity="0.500000">
			<path id="Vector 7" d="M14 1.82L14 6C14 7.1 14.89 8 16 8L20.17 8C21.95 8 22.84 5.84 21.58 4.58L17.41 0.41C16.15 -0.85 14 0.04 14 1.82Z" fill="#FFFFFF" fill-opacity="1.000000" fill-rule="evenodd"/>
		</g>
	</g>
	<path id="vector" d="M9 10L9 17L10.5 17L10.5 15L13 15C14.38 15 15.5 13.88 15.5 12.5C15.5 11.11 14.38 10 13 10L9 10ZM10.5 11.5L10.5 13.5L13 13.5C13.55 13.5 14 13.05 14 12.5C14 11.94 13.55 11.5 13 11.5L10.5 11.5Z" fill="#FFFFFF" fill-opacity="1.000000" fill-rule="evenodd"/>
</svg>
