<svg width="24.000000" height="24.000000" viewBox="0 0 24 24" fill="none" xmlns="http://www.w3.org/2000/svg" xmlns:xlink="http://www.w3.org/1999/xlink">
	<defs/>
	<path id="vector" d="M7 6L6 6C5.78 6 5.56 6.02 5.36 6.06C5.18 6.1 5 6.16 4.83 6.23C4.65 6.3 4.49 6.39 4.34 6.49C4.17 6.6 4.02 6.73 3.87 6.87C3.73 7.02 3.6 7.17 3.49 7.34C3.39 7.49 3.3 7.65 3.23 7.83C3.16 8 3.1 8.18 3.06 8.36C3.02 8.56 3 8.78 3 9L3 15C3 15.21 3.02 15.43 3.06 15.63C3.1 15.81 3.16 15.99 3.23 16.16C3.3 16.34 3.39 16.5 3.49 16.65C3.6 16.82 3.73 16.97 3.87 17.12C4.02 17.26 4.17 17.39 4.34 17.5C4.49 17.6 4.65 17.69 4.83 17.76C5 17.83 5.18 17.89 5.36 17.93C5.56 17.97 5.78 18 6 18L7 18C7 18.21 7.02 18.43 7.06 18.63C7.1 18.81 7.16 18.99 7.23 19.16C7.3 19.34 7.39 19.5 7.49 19.65C7.6 19.82 7.73 19.97 7.87 20.12C8.02 20.26 8.17 20.39 8.34 20.5C8.49 20.6 8.65 20.69 8.83 20.76C9 20.83 9.18 20.89 9.36 20.93C9.56 20.97 9.78 21 10 21L18 21C18.21 21 18.43 20.97 18.63 20.93C18.81 20.89 18.99 20.83 19.16 20.76C19.34 20.69 19.5 20.6 19.65 20.5C19.82 20.39 19.97 20.26 20.12 20.12C20.26 19.97 20.39 19.82 20.5 19.65C20.6 19.5 20.69 19.34 20.76 19.16C20.83 18.99 20.89 18.81 20.93 18.63C20.97 18.43 21 18.21 21 18L21 6C21 5.78 20.97 5.56 20.93 5.36C20.89 5.18 20.83 5 20.76 4.83C20.69 4.65 20.6 4.49 20.5 4.34C20.39 4.17 20.26 4.02 20.12 3.87C19.97 3.73 19.82 3.6 19.65 3.49C19.5 3.39 19.34 3.3 19.16 3.23C18.99 3.16 18.81 3.1 18.63 3.06C18.43 3.02 18.21 3 18 3L10 3C9.78 3 9.56 3.02 9.36 3.06C9.18 3.1 9 3.16 8.83 3.23C8.65 3.3 8.49 3.39 8.34 3.49C8.17 3.6 8.02 3.73 7.87 3.87C7.73 4.02 7.6 4.17 7.49 4.34C7.39 4.49 7.3 4.65 7.23 4.83C7.16 5 7.1 5.18 7.06 5.36C7.02 5.56 7 5.78 7 6ZM9 6L12 6C12.21 6 12.43 6.02 12.63 6.06C12.81 6.1 12.99 6.16 13.16 6.23C13.34 6.3 13.5 6.39 13.65 6.49C13.82 6.6 13.97 6.73 14.12 6.87C14.26 7.02 14.39 7.17 14.5 7.34C14.6 7.49 14.69 7.66 14.76 7.83C14.83 8 14.89 8.18 14.93 8.36C14.97 8.56 15 8.78 15 9L15 11L19 11L19 6C19 5.91 18.99 5.83 18.97 5.75C18.95 5.7 18.94 5.65 18.92 5.61C18.89 5.55 18.87 5.5 18.84 5.46C18.8 5.4 18.75 5.34 18.7 5.29C18.65 5.24 18.59 5.19 18.53 5.15C18.49 5.12 18.44 5.1 18.38 5.07C18.34 5.05 18.29 5.04 18.24 5.02C18.16 5 18.08 5 18 5L10 5C9.91 5 9.83 5 9.75 5.02C9.7 5.04 9.65 5.05 9.61 5.07C9.55 5.1 9.5 5.12 9.46 5.15C9.4 5.19 9.34 5.24 9.29 5.29C9.24 5.34 9.19 5.4 9.15 5.46C9.12 5.5 9.1 5.55 9.07 5.61C9.05 5.65 9.04 5.7 9.02 5.75C9 5.83 9 5.91 9 6ZM19 13L15 13L15 15C15 15.21 14.97 15.43 14.93 15.63C14.89 15.81 14.83 15.99 14.76 16.16C14.69 16.34 14.6 16.5 14.5 16.65C14.39 16.82 14.26 16.97 14.12 17.12C13.97 17.26 13.82 17.39 13.65 17.5C13.5 17.6 13.34 17.69 13.16 17.76C12.99 17.83 12.81 17.89 12.63 17.93C12.43 17.97 12.21 18 12 18L9 18C9 18.08 9 18.16 9.02 18.24C9.04 18.29 9.05 18.34 9.07 18.38C9.1 18.44 9.12 18.49 9.15 18.53C9.19 18.59 9.24 18.65 9.29 18.7C9.34 18.75 9.4 18.8 9.46 18.84C9.5 18.87 9.55 18.89 9.61 18.92C9.65 18.94 9.7 18.95 9.75 18.97C9.83 18.99 9.91 19 10 19L18 19C18.08 19 18.16 18.99 18.24 18.97C18.29 18.95 18.34 18.94 18.38 18.92C18.44 18.89 18.49 18.87 18.53 18.84C18.59 18.8 18.65 18.75 18.7 18.7C18.75 18.65 18.8 18.59 18.84 18.53C18.87 18.49 18.89 18.44 18.92 18.38C18.94 18.34 18.95 18.29 18.97 18.24C18.99 18.16 19 18.08 19 18L19 13ZM12 16C12.08 16 12.16 15.99 12.24 15.97C12.29 15.95 12.34 15.94 12.38 15.92C12.44 15.89 12.49 15.87 12.53 15.84C12.59 15.8 12.65 15.75 12.7 15.7C12.75 15.65 12.8 15.59 12.84 15.53C12.87 15.49 12.89 15.44 12.92 15.38C12.94 15.34 12.95 15.29 12.97 15.24C12.99 15.16 13 15.08 13 15L13 9C13 8.91 12.99 8.83 12.97 8.75C12.95 8.7 12.94 8.65 12.92 8.61C12.89 8.55 12.87 8.5 12.84 8.46C12.8 8.4 12.75 8.34 12.7 8.29C12.65 8.24 12.59 8.19 12.53 8.15C12.49 8.12 12.44 8.1 12.38 8.07C12.34 8.05 12.29 8.04 12.24 8.02C12.16 8 12.08 8 12 8L6 8C5.91 8 5.83 8 5.75 8.02C5.7 8.04 5.65 8.05 5.61 8.07C5.55 8.1 5.5 8.12 5.46 8.15C5.4 8.19 5.34 8.24 5.29 8.29C5.24 8.34 5.19 8.4 5.15 8.46C5.12 8.5 5.1 8.55 5.07 8.61C5.05 8.65 5.04 8.7 5.02 8.75C5 8.83 5 8.91 5 9L5 15C5 15.08 5 15.16 5.02 15.24C5.04 15.29 5.05 15.34 5.07 15.38C5.1 15.44 5.12 15.49 5.15 15.53C5.19 15.59 5.24 15.65 5.29 15.7C5.34 15.75 5.4 15.8 5.46 15.84C5.5 15.87 5.55 15.89 5.61 15.92C5.65 15.94 5.7 15.95 5.75 15.97C5.83 15.99 5.91 16 6 16L12 16ZM6.49 9.99C6.49 9.58 6.83 9.24 7.24 9.24L9.75 9.24C10.71 9.24 11.5 10.03 11.5 10.99L11.5 11.49C11.5 12.46 10.71 13.25 9.75 13.25L7.99 13.25L7.99 14C7.99 14.41 7.66 14.75 7.24 14.75C6.83 14.75 6.49 14.41 6.49 14L6.49 9.99ZM7.99 10.74L7.99 11.75L9.75 11.75C9.88 11.75 10 11.63 10 11.49L10 10.99C10 10.86 9.88 10.74 9.75 10.74L7.99 10.74Z" fill="currentColor" fill-opacity="1.000000" fill-rule="evenodd"/>
</svg>
