<svg width="24.000000" height="24.000000" viewBox="0 0 24 24" fill="none" xmlns="http://www.w3.org/2000/svg" xmlns:xlink="http://www.w3.org/1999/xlink">
	<defs/>
	<path id="vector" d="M6 6L7 6C7 5.78 7.02 5.56 7.06 5.36C7.1 5.18 7.16 5 7.23 4.83C7.3 4.65 7.39 4.49 7.49 4.34C7.6 4.17 7.73 4.02 7.87 3.87C8.02 3.73 8.17 3.6 8.34 3.49C8.49 3.39 8.65 3.3 8.83 3.23C9 3.16 9.18 3.1 9.36 3.06C9.56 3.02 9.78 3 10 3L18 3C18.21 3 18.43 3.02 18.63 3.06C18.81 3.1 18.99 3.16 19.16 3.23C19.34 3.3 19.5 3.39 19.65 3.49C19.82 3.6 19.97 3.73 20.12 3.87C20.26 4.02 20.39 4.17 20.5 4.34C20.6 4.49 20.69 4.65 20.76 4.83C20.83 5 20.89 5.18 20.93 5.36C20.97 5.56 21 5.78 21 6L21 18C21 18.21 20.97 18.43 20.93 18.63C20.89 18.81 20.83 18.99 20.76 19.16C20.69 19.34 20.6 19.5 20.5 19.65C20.39 19.82 20.26 19.97 20.12 20.12C19.97 20.26 19.82 20.39 19.65 20.5C19.5 20.6 19.34 20.69 19.16 20.76C18.99 20.83 18.81 20.89 18.63 20.93C18.43 20.97 18.21 21 18 21L10 21C9.78 21 9.56 20.97 9.36 20.93C9.18 20.89 9 20.83 8.83 20.76C8.65 20.69 8.49 20.6 8.34 20.5C8.17 20.39 8.02 20.26 7.87 20.12C7.73 19.97 7.6 19.82 7.49 19.65C7.39 19.5 7.3 19.34 7.23 19.16C7.16 18.99 7.1 18.81 7.06 18.63C7.02 18.43 7 18.21 7 18L6 18C5.78 18 5.56 17.97 5.36 17.93C5.18 17.89 5 17.83 4.83 17.76C4.65 17.69 4.49 17.6 4.34 17.5C4.17 17.39 4.02 17.26 3.87 17.12C3.73 16.97 3.6 16.82 3.49 16.65C3.39 16.5 3.3 16.34 3.23 16.16C3.16 15.99 3.1 15.81 3.06 15.63C3.02 15.43 3 15.21 3 15L3 9C3 8.78 3.02 8.56 3.06 8.36C3.1 8.18 3.16 8 3.23 7.83C3.3 7.65 3.39 7.49 3.49 7.34C3.6 7.17 3.73 7.02 3.87 6.87C4.02 6.73 4.17 6.6 4.34 6.49C4.49 6.39 4.65 6.3 4.83 6.23C5 6.16 5.18 6.1 5.36 6.06C5.56 6.02 5.78 6 6 6ZM12 6L9 6C9 5.91 9 5.83 9.02 5.75C9.04 5.7 9.05 5.65 9.07 5.61C9.1 5.55 9.12 5.5 9.15 5.46C9.19 5.4 9.24 5.34 9.29 5.29C9.34 5.24 9.4 5.19 9.46 5.15C9.5 5.12 9.55 5.1 9.61 5.07C9.65 5.05 9.7 5.04 9.75 5.02C9.83 5 9.91 5 10 5L18 5C18.08 5 18.16 5 18.24 5.02C18.29 5.04 18.34 5.05 18.38 5.07C18.44 5.1 18.49 5.12 18.53 5.15C18.59 5.19 18.65 5.24 18.7 5.29C18.75 5.34 18.8 5.4 18.84 5.46C18.87 5.5 18.89 5.55 18.92 5.61C18.94 5.65 18.95 5.7 18.97 5.75C18.99 5.83 19 5.91 19 6L19 8L14.82 8C14.8 7.94 14.78 7.88 14.76 7.83C14.69 7.66 14.6 7.49 14.5 7.34C14.39 7.17 14.26 7.02 14.12 6.87C13.97 6.73 13.82 6.6 13.65 6.49C13.5 6.39 13.34 6.3 13.16 6.23C12.99 6.16 12.81 6.1 12.63 6.06C12.43 6.02 12.21 6 12 6ZM12.24 15.97C12.16 15.99 12.08 16 12 16L6 16C5.91 16 5.83 15.99 5.75 15.97C5.7 15.95 5.65 15.94 5.61 15.92C5.55 15.89 5.5 15.87 5.46 15.84C5.4 15.8 5.34 15.75 5.29 15.7C5.24 15.65 5.19 15.59 5.15 15.53C5.12 15.49 5.1 15.44 5.07 15.38C5.05 15.34 5.04 15.29 5.02 15.24C5 15.16 5 15.08 5 15L5 9C5 8.91 5 8.83 5.02 8.75C5.04 8.7 5.05 8.65 5.07 8.61C5.1 8.55 5.12 8.5 5.15 8.46C5.19 8.4 5.24 8.34 5.29 8.29C5.34 8.24 5.4 8.19 5.46 8.15C5.5 8.12 5.55 8.1 5.61 8.07C5.65 8.05 5.7 8.04 5.75 8.02C5.83 8 5.91 8 6 8L12 8C12.08 8 12.16 8 12.24 8.02C12.29 8.04 12.34 8.05 12.38 8.07C12.44 8.1 12.49 8.12 12.53 8.15C12.59 8.19 12.65 8.24 12.7 8.29C12.75 8.34 12.8 8.4 12.84 8.46C12.87 8.5 12.89 8.55 12.92 8.61C12.94 8.65 12.95 8.7 12.97 8.75C12.99 8.83 13 8.91 13 9L13 15C13 15.08 12.99 15.16 12.97 15.24C12.95 15.29 12.94 15.34 12.92 15.38C12.89 15.44 12.87 15.49 12.84 15.53C12.8 15.59 12.75 15.65 12.7 15.7C12.65 15.75 12.59 15.8 12.53 15.84C12.49 15.87 12.44 15.89 12.38 15.92C12.34 15.94 12.29 15.95 12.24 15.97ZM6.64 9.5C7.05 9.44 7.43 9.73 7.49 10.14L7.71 11.7L8.32 10.42C8.44 10.16 8.71 9.99 9 9.99C9.28 9.99 9.55 10.16 9.67 10.42L10.28 11.7L10.5 10.14C10.56 9.73 10.94 9.44 11.35 9.5C11.76 9.56 12.05 9.94 11.99 10.35L11.49 13.85C11.44 14.22 11.12 14.5 10.75 14.5L10.42 14.5C10.13 14.5 9.86 14.33 9.74 14.07L9 12.5L8.25 14.07C8.13 14.33 7.86 14.5 7.57 14.5L7.24 14.5C6.87 14.5 6.55 14.22 6.5 13.85L6 10.35C5.94 9.94 6.23 9.56 6.64 9.5ZM15 10L19 10L19 14L15 14L15 10ZM14.82 16C14.8 16.05 14.78 16.11 14.76 16.16C14.69 16.34 14.6 16.5 14.5 16.65C14.39 16.82 14.26 16.97 14.12 17.12C13.97 17.26 13.82 17.39 13.65 17.5C13.5 17.6 13.34 17.69 13.16 17.76C12.99 17.83 12.81 17.89 12.63 17.93C12.43 17.97 12.21 18 12 18L9 18C9 18.08 9 18.16 9.02 18.24C9.04 18.29 9.05 18.34 9.07 18.38C9.1 18.44 9.12 18.49 9.15 18.53C9.19 18.59 9.24 18.65 9.29 18.7C9.34 18.75 9.4 18.8 9.46 18.84C9.5 18.87 9.55 18.89 9.61 18.92C9.65 18.94 9.7 18.95 9.75 18.97C9.83 18.99 9.91 19 10 19L18 19C18.08 19 18.16 18.99 18.24 18.97C18.29 18.95 18.34 18.94 18.38 18.92C18.44 18.89 18.49 18.87 18.53 18.84C18.59 18.8 18.65 18.75 18.7 18.7C18.75 18.65 18.8 18.59 18.84 18.53C18.87 18.49 18.89 18.44 18.92 18.38C18.94 18.34 18.95 18.29 18.97 18.24C18.99 18.16 19 18.08 19 18L19 16L14.82 16Z" fill="currentColor" fill-opacity="1.000000" fill-rule="evenodd"/>
</svg>
