<svg xmlns="http://www.w3.org/2000/svg" xmlns:xlink="http://www.w3.org/1999/xlink" width="24.000000" height="24.000000" viewBox="0 0 24 24" fill="none">
	<path id="vector" d="M12 13L20 13C20.27 13 20.51 12.9 20.7 12.7C20.9 12.51 21 12.27 21 12C21 11.33 20.92 10.67 20.78 10.04C20.67 9.51 20.5 9 20.29 8.49C20.07 7.98 19.82 7.5 19.52 7.05C19.18 6.54 18.8 6.07 18.36 5.63C17.92 5.19 17.45 4.81 16.94 4.47C16.49 4.17 16.01 3.92 15.5 3.7C14.99 3.49 14.48 3.32 13.95 3.21C13.32 3.07 12.66 3 12 3C11.72 3 11.48 3.09 11.29 3.29C11.09 3.48 11 3.72 11 4L11 12C11 12.27 11.09 12.51 11.29 12.7C11.48 12.9 11.72 13 12 13ZM8.55 5.9C8.81 5.75 9.09 5.62 9.37 5.5C9.89 5.29 10.13 4.72 9.92 4.2C9.71 3.68 9.14 3.44 8.62 3.65C8.24 3.8 7.88 3.98 7.53 4.18C7.12 4.41 6.72 4.68 6.35 4.99C6 5.27 5.67 5.57 5.37 5.9C5.08 6.21 4.82 6.55 4.57 6.91C4.3 7.3 4.06 7.71 3.86 8.14C3.68 8.51 3.53 8.89 3.41 9.29C3.3 9.64 3.21 10.01 3.14 10.37C3.04 10.91 3 11.45 3 12C3 12.66 3.07 13.32 3.21 13.95C3.32 14.48 3.49 14.99 3.7 15.5C3.92 16.01 4.17 16.49 4.47 16.94C4.81 17.45 5.19 17.92 5.63 18.36C6.07 18.8 6.54 19.18 7.05 19.52C7.5 19.82 7.98 20.07 8.49 20.29C9 20.5 9.51 20.67 10.04 20.78C10.67 20.92 11.33 21 12 21C12.54 21 13.08 20.95 13.62 20.85C13.98 20.78 14.35 20.69 14.7 20.58C15.1 20.46 15.48 20.31 15.85 20.13C16.28 19.93 16.69 19.69 17.08 19.42C17.44 19.17 17.78 18.91 18.09 18.62C18.42 18.32 18.72 17.99 19 17.64C19.31 17.27 19.58 16.87 19.81 16.46C20.01 16.11 20.19 15.75 20.34 15.37C20.55 14.85 20.31 14.28 19.79 14.07C19.27 13.86 18.7 14.1 18.49 14.62C18.37 14.9 18.24 15.18 18.09 15.44C17.9 15.77 17.69 16.09 17.45 16.39C17.23 16.66 16.99 16.91 16.73 17.15C16.49 17.37 16.23 17.58 15.95 17.77C15.64 17.99 15.31 18.17 14.97 18.33C14.69 18.47 14.4 18.58 14.1 18.67C13.84 18.75 13.58 18.82 13.31 18.87C12.88 18.95 12.44 19 12 19C11.46 19 10.94 18.94 10.43 18.82C10.04 18.73 9.65 18.61 9.27 18.45C8.88 18.28 8.51 18.08 8.17 17.86C7.76 17.59 7.39 17.29 7.05 16.94C6.7 16.6 6.4 16.23 6.13 15.83C5.91 15.48 5.71 15.11 5.54 14.72C5.38 14.34 5.26 13.95 5.17 13.56C5.05 13.05 5 12.53 5 12C5 11.55 5.04 11.11 5.12 10.68C5.17 10.41 5.24 10.15 5.32 9.89C5.41 9.59 5.52 9.3 5.66 9.02C5.82 8.68 6 8.35 6.22 8.04C6.41 7.76 6.62 7.5 6.84 7.26C7.08 7 7.33 6.76 7.6 6.54C7.9 6.3 8.22 6.09 8.55 5.9ZM18.93 11C18.9 10.81 18.86 10.62 18.82 10.43C18.73 10.04 18.61 9.65 18.45 9.27C18.28 8.88 18.08 8.51 17.86 8.17C17.59 7.76 17.29 7.39 16.94 7.05C16.6 6.7 16.23 6.4 15.83 6.13C15.48 5.91 15.11 5.71 14.72 5.54C14.34 5.38 13.95 5.26 13.56 5.17C13.37 5.13 13.18 5.09 13 5.06L13 11L18.93 11Z" fill="currentColor" fill-opacity="1.000000" fill-rule="evenodd"/>
</svg>