<svg xmlns="http://www.w3.org/2000/svg" xmlns:xlink="http://www.w3.org/1999/xlink" width="24.000000" height="24.000000" viewBox="0 0 24 24" fill="none">
	<g>
		<path id="vector" d="M19.41 4.04C19.54 4.06 19.66 4.1 19.77 4.15C19.89 4.2 20 4.26 20.1 4.33C20.21 4.4 20.31 4.49 20.41 4.58C20.5 4.68 20.59 4.78 20.66 4.89C20.73 4.99 20.79 5.1 20.84 5.22C20.89 5.33 20.93 5.45 20.95 5.58C20.98 5.71 21 5.85 21 6L21 8C21 8.14 20.98 8.28 20.95 8.41C20.93 8.54 20.89 8.66 20.84 8.77C20.79 8.89 20.73 9 20.66 9.1C20.59 9.21 20.5 9.31 20.41 9.41C20.31 9.5 20.21 9.59 20.1 9.66C20.07 9.68 20.03 9.71 20 9.73L20 17C20 17.21 19.97 17.43 19.93 17.63C19.89 17.81 19.83 17.99 19.76 18.16C19.69 18.34 19.6 18.5 19.5 18.65C19.39 18.82 19.26 18.97 19.12 19.12C18.97 19.26 18.82 19.39 18.65 19.5C18.5 19.6 18.34 19.69 18.16 19.76C17.99 19.83 17.81 19.89 17.63 19.93C17.43 19.97 17.21 20 17 20L7 20C6.78 20 6.56 19.97 6.36 19.93C6.18 19.89 6 19.83 5.83 19.76C5.66 19.69 5.49 19.6 5.34 19.5C5.17 19.39 5.02 19.26 4.87 19.12C4.73 18.97 4.6 18.82 4.49 18.65C4.39 18.5 4.3 18.34 4.23 18.16C4.16 17.99 4.1 17.81 4.06 17.63C4.02 17.43 4 17.21 4 17L4 9.73C3.96 9.71 3.92 9.68 3.89 9.66C3.78 9.59 3.68 9.5 3.58 9.41C3.49 9.31 3.4 9.21 3.33 9.1C3.26 9 3.2 8.89 3.15 8.77C3.1 8.66 3.06 8.54 3.04 8.41C3.01 8.28 3 8.14 3 8L3 6C3 5.85 3.01 5.71 3.04 5.58C3.06 5.45 3.1 5.33 3.15 5.22C3.2 5.1 3.26 4.99 3.33 4.89C3.4 4.78 3.49 4.68 3.58 4.58C3.68 4.49 3.78 4.4 3.89 4.33C3.99 4.26 4.1 4.2 4.22 4.15C4.33 4.1 4.45 4.06 4.58 4.04C4.71 4.01 4.85 4 5 4L19 4C19.14 4 19.28 4.01 19.41 4.04ZM19 6L19 8L5 8L5 6L19 6ZM18 10L6 10L6 17C6 17.08 6 17.16 6.02 17.24C6.04 17.29 6.05 17.34 6.07 17.38C6.1 17.44 6.12 17.49 6.15 17.53C6.19 17.59 6.24 17.65 6.29 17.7C6.34 17.75 6.4 17.8 6.46 17.84C6.5 17.87 6.55 17.89 6.61 17.92C6.65 17.94 6.7 17.95 6.75 17.97C6.83 17.99 6.91 18 7 18L17 18C17.08 18 17.16 17.99 17.24 17.97C17.29 17.95 17.34 17.94 17.38 17.92C17.44 17.89 17.49 17.87 17.53 17.84C17.59 17.8 17.65 17.75 17.7 17.7C17.75 17.65 17.8 17.59 17.84 17.53C17.87 17.49 17.89 17.44 17.92 17.38C17.94 17.34 17.95 17.29 17.97 17.24C17.99 17.16 18 17.08 18 17L18 10ZM10 13L14 13C14.56 13 15 13.43 15 14C15 14.56 14.56 15 14 15L10 15C9.43 15 9 14.56 9 14C9 13.43 9.43 13 10 13Z" fill="currentColor" fill-opacity="1.000000" fill-rule="evenodd"/>
	</g>
</svg>