<svg xmlns="http://www.w3.org/2000/svg" xmlns:xlink="http://www.w3.org/1999/xlink" width="24.000000" height="24.000000" viewBox="0 0 24 24" fill="none">
	<g>
		<path id="vector" d="M20 5C20 4.44 19.55 4 19 4L5 4C4.44 4 4 4.44 4 5C4 5.55 4.44 6 5 6L19 6C19.55 6 20 5.55 20 5ZM17.7 12.7L12.7 17.7C12.31 18.09 11.68 18.09 11.29 17.7L6.29 12.7C5.9 12.31 5.9 11.68 6.29 11.29C6.68 10.9 7.31 10.9 7.7 11.29L11 14.58L11 9C11 8.43 11.44 8 12 8C12.56 8 13 8.43 13 9L13 14.58L16.29 11.29C16.68 10.9 17.31 10.9 17.7 11.29C18.09 11.68 18.09 12.31 17.7 12.7Z" fill="currentColor" fill-opacity="1.000000" fill-rule="evenodd"/>
	</g>
</svg>