<svg xmlns="http://www.w3.org/2000/svg" xmlns:xlink="http://www.w3.org/1999/xlink" width="24.000000" height="24.000000" viewBox="0 0 24 24" fill="none">
	<g>
		<path id="vector" d="M12.99 5C12.99 4.44 12.55 4 11.99 4C11.43 4 10.99 4.44 10.99 5L10.99 19C10.99 19.56 11.43 20 11.99 20C12.55 20 12.99 19.56 12.99 19L12.99 5ZM6.79 9.7L5.38 11.12L9.09 11.12C9.58 11.12 9.96 11.51 9.96 12C9.96 12.49 9.58 12.87 9.09 12.87L5.38 12.87L6.79 14.29C7.19 14.68 7.19 15.31 6.79 15.7C6.4 16.1 5.78 16.1 5.38 15.7L2.38 12.7C2.14 12.47 2.03 12.23 2.03 12C2.03 11.76 2.14 11.52 2.38 11.29L5.38 8.29C5.78 7.89 6.4 7.89 6.79 8.29C7.19 8.68 7.19 9.31 6.79 9.7ZM18.58 11.12L17.16 9.7C16.77 9.31 16.77 8.68 17.16 8.29C17.56 7.89 18.18 7.89 18.58 8.29L21.58 11.29C21.81 11.52 21.93 11.76 21.93 12C21.93 12.23 21.81 12.47 21.58 12.7L18.58 15.7C18.18 16.1 17.56 16.1 17.16 15.7C16.77 15.31 16.77 14.68 17.16 14.29L18.58 12.87L14.87 12.87C14.38 12.87 13.99 12.49 13.99 12C13.99 11.51 14.38 11.12 14.87 11.12L18.58 11.12Z" fill="currentColor" fill-opacity="1.000000" fill-rule="evenodd"/>
	</g>
</svg>