<svg xmlns="http://www.w3.org/2000/svg" xmlns:xlink="http://www.w3.org/1999/xlink" width="24.000000" height="24.000000" viewBox="0 0 24 24" fill="none">
	<g>
		<path id="vector" d="M19 20C19.55 20 20 19.55 20 19L20 5C20 4.44 19.55 4 19 4C18.44 4 18 4.44 18 5L18 19C18 19.55 18.44 20 19 20ZM9.7 17.7L14.7 12.7C15.09 12.31 15.09 11.68 14.7 11.29L9.7 6.29C9.31 5.9 8.68 5.9 8.29 6.29C7.9 6.68 7.9 7.31 8.29 7.7L11.58 11L6 11C5.44 11 5 11.44 5 12C5 12.56 5.44 13 6 13L11.58 13L8.29 16.29C7.9 16.68 7.9 17.31 8.29 17.7C8.68 18.09 9.31 18.09 9.7 17.7Z" fill="currentColor" fill-opacity="1.000000" fill-rule="evenodd"/>
	</g>
</svg>