<svg xmlns="http://www.w3.org/2000/svg" xmlns:xlink="http://www.w3.org/1999/xlink" width="24.000000" height="24.000000" viewBox="0 0 24 24" fill="none">
	<g>
		<path id="vector" d="M13 5C13 4.44 12.56 4 12 4C11.44 4 11 4.44 11 5L11 19C11 19.56 11.44 20 12 20C12.56 20 13 19.56 13 19L13 5ZM5.16 9.7L6.58 11.12L2.87 11.12C2.38 11.12 2 11.51 2 12C2 12.49 2.38 12.87 2.87 12.87L6.58 12.87L5.16 14.29C4.77 14.68 4.77 15.31 5.16 15.7C5.56 16.1 6.18 16.1 6.58 15.7L9.58 12.7C9.81 12.47 9.93 12.23 9.93 12C9.93 11.76 9.81 11.52 9.58 11.29L6.58 8.29C6.18 7.89 5.56 7.89 5.16 8.29C4.77 8.68 4.77 9.31 5.16 9.7ZM17.38 11.12L18.79 9.7C19.19 9.31 19.19 8.68 18.79 8.29C18.4 7.89 17.78 7.89 17.38 8.29L14.38 11.29C14.15 11.52 14.03 11.76 14.03 12C14.03 12.23 14.15 12.47 14.38 12.7L17.38 15.7C17.78 16.1 18.4 16.1 18.79 15.7C19.19 15.31 19.19 14.68 18.79 14.29L17.38 12.87L21.09 12.87C21.58 12.87 21.96 12.49 21.96 12C21.96 11.51 21.58 11.12 21.09 11.12L17.38 11.12Z" fill="currentColor" fill-opacity="1.000000" fill-rule="evenodd"/>
	</g>
</svg>