
<svg width="24.000000" height="24.000000" viewBox="0 0 24 24" fill="none" xmlns="http://www.w3.org/2000/svg" xmlns:xlink="http://www.w3.org/1999/xlink">
	<g>
		<path id="vector" d="M20 19C20 19.55 19.55 20 19 20C18.44 20 18 19.55 18 19L18 5C18 4.44 18.44 4 19 4C19.55 4 20 4.44 20 5L20 19ZM6.29 11.29C5.9 11.68 5.9 12.31 6.29 12.7L11.29 17.7C11.68 18.09 12.31 18.09 12.7 17.7C13.09 17.31 13.09 16.68 12.7 16.29L9.41 13L15 13C15.56 13 16 12.56 16 12C16 11.44 15.56 11 15 11L9.41 11L12.7 7.7C13.09 7.31 13.09 6.68 12.7 6.29C12.31 5.9 11.68 5.9 11.29 6.29L6.29 11.29Z" fill="currentColor" fill-opacity="1.000000" fill-rule="evenodd"/>
	</g>
</svg>
