<svg xmlns="http://www.w3.org/2000/svg" xmlns:xlink="http://www.w3.org/1999/xlink" width="24.000000" height="24.000000" viewBox="0 0 24 24" fill="none">
	<path id="vector" d="M19 4C19.55 4 20 4.44 20 5C20 5.55 19.55 6 19 6L5 6C4.44 6 4 5.55 4 5C4 4.44 4.44 4 5 4L19 4ZM12.7 9.29L17.7 14.29C18.09 14.68 18.09 15.31 17.7 15.7C17.31 16.09 16.68 16.09 16.29 15.7L13 12.41L13 18C13 18.56 12.56 19 12 19C11.44 19 11 18.56 11 18L11 12.41L7.7 15.7C7.31 16.09 6.68 16.09 6.29 15.7C5.9 15.31 5.9 14.68 6.29 14.29L11.29 9.29C11.68 8.9 12.31 8.9 12.7 9.29Z" fill="currentColor" fill-opacity="1.000000" fill-rule="evenodd"/>
</svg>