<svg width="24.000000" height="24.000000" viewBox="0 0 24 24" fill="none" xmlns="http://www.w3.org/2000/svg" xmlns:xlink="http://www.w3.org/1999/xlink">
	<path id="vector" d="M11 11C10.44 11 10 11.44 10 12C10 12.55 10.44 13 11 13L14.58 13L12.29 15.29C11.9 15.68 11.9 16.31 12.29 16.7C12.68 17.09 13.31 17.09 13.7 16.7L17.7 12.7C17.88 12.52 18 12.27 18 12C18 11.72 17.88 11.47 17.7 11.29L13.7 7.29C13.31 6.9 12.68 6.9 12.29 7.29C11.9 7.68 11.9 8.31 12.29 8.7L14.58 11L11 11ZM8 12C8 12.55 7.55 13 7 13C6.44 13 6 12.55 6 12C6 11.44 6.44 11 7 11C7.55 11 8 11.44 8 12Z" fill="currentColor" fill-opacity="1.000000" fill-rule="evenodd"/>
</svg>
