<svg width="24.000000" height="24.000000" viewBox="0 0 24 24" fill="none" xmlns="http://www.w3.org/2000/svg" xmlns:xlink="http://www.w3.org/1999/xlink">
	<path id="vector" d="M17.07 5.36L18.63 6.92C20.85 9.15 21.98 10.85 21.99 11.96C21.98 12.99 21.26 14.28 19.84 15.82L20.96 19.72C20.97 19.77 20.98 19.81 20.99 19.86C20.99 19.9 21 19.95 21 20C21 20.04 20.99 20.09 20.99 20.13C20.98 20.18 20.97 20.23 20.96 20.27C20.88 20.54 20.72 20.74 20.48 20.87C20.24 21 19.99 21.03 19.72 20.96L15.83 19.85C14.31 21.26 13.02 21.98 12.03 21.99C10.85 21.98 9.15 20.85 6.92 18.63L5.36 17.07C3.14 14.84 2.01 13.14 2 12.03C2.01 10.85 3.14 9.15 5.36 6.92L6.92 5.36C9.15 3.14 10.85 2.01 11.96 2C13.14 2.01 14.84 3.14 17.07 5.36ZM17.21 8.34L15.65 6.78C13.83 4.95 12.59 4.02 11.95 4C11.37 4.02 10.16 4.95 8.34 6.78L6.78 8.34C4.95 10.16 4.02 11.4 4 12.04C4.02 12.62 4.95 13.83 6.78 15.65L8.34 17.21C10.16 19.04 11.4 19.97 12.04 19.99C12.6 19.97 13.53 19.31 14.85 18.01C14.98 17.89 15.13 17.8 15.31 17.76C15.48 17.71 15.65 17.71 15.83 17.76L18.54 18.54L17.76 15.82C17.71 15.65 17.71 15.48 17.75 15.3C17.8 15.13 17.88 14.98 18.01 14.85C19.31 13.51 19.97 12.54 19.99 11.95C19.97 11.37 19.04 10.17 17.21 8.34ZM8 10.5C8 9.67 8.67 9 9.5 9C10.32 9 11 9.67 11 10.5C11 11.32 10.32 12 9.5 12C8.67 12 8 11.32 8 10.5ZM14.5 9C13.67 9 13 9.67 13 10.5C13 11.32 13.67 12 14.5 12C15.32 12 16 11.32 16 10.5C16 9.67 15.32 9 14.5 9Z" fill="currentColor" fill-opacity="1.000000" fill-rule="evenodd"/>
</svg>
