<svg xmlns="http://www.w3.org/2000/svg" xmlns:xlink="http://www.w3.org/1999/xlink" width="24.000000" height="24.000000" viewBox="0 0 24 24" fill="none">
	<g>
		<path id="vector" d="M13.7 18.7L20.7 11.7C21.1 11.31 21.1 10.68 20.7 10.29C20.31 9.89 19.68 9.89 19.29 10.29L12.29 17.29C12.11 17.47 11.92 17.62 11.71 17.75C11.55 17.85 11.39 17.93 11.22 18C11.04 18.07 10.85 18.13 10.67 18.17C10.45 18.21 10.22 18.24 10 18.24C9.77 18.24 9.54 18.21 9.32 18.17C9.14 18.13 8.95 18.07 8.77 18C8.6 17.93 8.44 17.85 8.28 17.75C8.07 17.62 7.88 17.47 7.7 17.29C7.52 17.11 7.37 16.92 7.24 16.71C7.14 16.55 7.06 16.39 6.99 16.22C6.92 16.04 6.86 15.85 6.82 15.67C6.78 15.45 6.75 15.22 6.75 15C6.75 14.77 6.78 14.54 6.82 14.32C6.86 14.14 6.92 13.95 6.99 13.77C7.06 13.6 7.14 13.44 7.24 13.28C7.37 13.07 7.52 12.88 7.7 12.7L15.2 5.2C15.27 5.14 15.34 5.08 15.41 5.04C15.46 5 15.52 4.98 15.57 4.96C15.63 4.93 15.69 4.91 15.75 4.9C15.83 4.88 15.91 4.87 16 4.87C16.08 4.87 16.16 4.88 16.24 4.9C16.3 4.91 16.36 4.93 16.42 4.96C16.47 4.98 16.53 5 16.58 5.04C16.65 5.08 16.72 5.14 16.79 5.2C16.85 5.27 16.91 5.34 16.95 5.41C16.99 5.46 17.01 5.52 17.03 5.57C17.06 5.63 17.08 5.69 17.09 5.75C17.11 5.83 17.12 5.91 17.12 6C17.12 6.08 17.11 6.16 17.09 6.24C17.08 6.3 17.06 6.36 17.03 6.42C17.01 6.47 16.99 6.53 16.95 6.58C16.91 6.65 16.85 6.72 16.79 6.79L9.29 14.29C8.89 14.68 8.89 15.31 9.29 15.7C9.68 16.1 10.31 16.1 10.7 15.7L18.2 8.2C18.36 8.04 18.5 7.87 18.62 7.68C18.73 7.52 18.81 7.35 18.89 7.17C18.96 6.99 19.02 6.81 19.05 6.62C19.1 6.41 19.12 6.21 19.12 6C19.12 5.78 19.1 5.58 19.05 5.37C19.02 5.18 18.96 5 18.89 4.82C18.81 4.64 18.73 4.47 18.62 4.31C18.5 4.12 18.36 3.95 18.2 3.79C18.04 3.63 17.87 3.49 17.68 3.37C17.52 3.26 17.35 3.18 17.17 3.1C16.99 3.03 16.81 2.97 16.62 2.94C16.41 2.89 16.21 2.87 16 2.87C15.78 2.87 15.58 2.89 15.37 2.94C15.18 2.97 15 3.03 14.82 3.1C14.64 3.18 14.47 3.26 14.31 3.37C14.12 3.49 13.95 3.63 13.79 3.79L6.29 11.29C6.01 11.56 5.78 11.86 5.57 12.17C5.4 12.44 5.26 12.72 5.14 13.02C5.01 13.32 4.92 13.63 4.86 13.94C4.79 14.28 4.75 14.64 4.75 15C4.75 15.35 4.79 15.71 4.86 16.05C4.92 16.36 5.01 16.67 5.14 16.97C5.26 17.27 5.4 17.55 5.57 17.82C5.78 18.13 6.01 18.43 6.29 18.7C6.56 18.98 6.86 19.21 7.17 19.42C7.44 19.59 7.72 19.73 8.02 19.85C8.32 19.98 8.63 20.07 8.94 20.13C9.28 20.2 9.64 20.24 10 20.24C10.35 20.24 10.71 20.2 11.05 20.13C11.36 20.07 11.67 19.98 11.97 19.85C12.27 19.73 12.55 19.59 12.82 19.42C13.13 19.21 13.43 18.98 13.7 18.7Z" fill="currentColor" fill-opacity="1.000000" fill-rule="evenodd"/>
	</g>
</svg>