<svg xmlns="http://www.w3.org/2000/svg" xmlns:xlink="http://www.w3.org/1999/xlink" width="24.000000" height="24.000000" viewBox="0 0 24 24" fill="none">
	<path id="vector" d="M19 5C19.21 5 19.43 5.02 19.63 5.06C19.81 5.1 19.99 5.16 20.16 5.23C20.34 5.3 20.5 5.39 20.65 5.49C20.82 5.6 20.97 5.73 21.12 5.87C21.26 6.02 21.39 6.17 21.5 6.34C21.6 6.49 21.69 6.66 21.76 6.83C21.83 7 21.89 7.18 21.93 7.36C21.97 7.56 22 7.78 22 8L22 16C22 16.21 21.97 16.43 21.93 16.63C21.89 16.81 21.83 16.99 21.76 17.16C21.69 17.34 21.6 17.5 21.5 17.65C21.39 17.82 21.26 17.97 21.12 18.12C20.97 18.26 20.82 18.39 20.65 18.5C20.5 18.6 20.34 18.69 20.16 18.76C19.99 18.83 19.81 18.89 19.63 18.93C19.43 18.97 19.21 19 19 19L5 19C4.78 19 4.56 18.97 4.36 18.93C4.18 18.89 4 18.83 3.83 18.76C3.65 18.69 3.49 18.6 3.34 18.5C3.17 18.39 3.02 18.26 2.87 18.12C2.73 17.97 2.6 17.82 2.49 17.65C2.39 17.5 2.3 17.34 2.23 17.16C2.16 16.99 2.1 16.81 2.06 16.63C2.02 16.43 2 16.21 2 16L2 8C2 7.78 2.02 7.56 2.06 7.36C2.1 7.18 2.16 7 2.23 6.83C2.3 6.65 2.39 6.49 2.49 6.34C2.6 6.17 2.73 6.02 2.87 5.87C3.02 5.73 3.17 5.6 3.34 5.49C3.49 5.39 3.65 5.3 3.83 5.23C4 5.16 4.18 5.1 4.36 5.06C4.56 5.02 4.78 5 5 5L19 5ZM19 7L8 7C8 7.26 7.97 7.52 7.92 7.78C7.87 8.03 7.79 8.28 7.69 8.53C7.59 8.77 7.47 9 7.32 9.22C7.18 9.43 7.01 9.64 6.82 9.82C6.64 10.01 6.43 10.18 6.22 10.32C6 10.47 5.77 10.59 5.53 10.69C5.28 10.79 5.03 10.87 4.78 10.92C4.52 10.97 4.26 11 4 11L4 16C4 16.08 4 16.16 4.02 16.24C4.04 16.29 4.05 16.34 4.07 16.38C4.1 16.44 4.12 16.49 4.15 16.53C4.19 16.59 4.24 16.65 4.29 16.7C4.34 16.75 4.4 16.8 4.46 16.84C4.5 16.87 4.55 16.89 4.61 16.92C4.65 16.94 4.7 16.95 4.75 16.97C4.83 16.99 4.91 17 5 17L16 17C16 16.73 16.02 16.47 16.07 16.21C16.12 15.96 16.2 15.71 16.3 15.46C16.4 15.22 16.52 14.99 16.67 14.77C16.81 14.56 16.98 14.35 17.17 14.17C17.35 13.98 17.56 13.81 17.77 13.67C17.99 13.52 18.22 13.4 18.46 13.3C18.71 13.2 18.96 13.12 19.21 13.07C19.47 13.02 19.73 13 20 13L20 8C20 7.91 19.99 7.83 19.97 7.75C19.95 7.7 19.94 7.65 19.92 7.61C19.89 7.55 19.87 7.5 19.84 7.46C19.8 7.4 19.75 7.34 19.7 7.29C19.65 7.24 19.59 7.19 19.53 7.15C19.49 7.12 19.44 7.1 19.38 7.07C19.34 7.05 19.29 7.04 19.24 7.02C19.16 7 19.08 7 19 7ZM20 15C19.86 15 19.73 15.01 19.6 15.03C19.48 15.06 19.35 15.1 19.23 15.15C19.11 15.2 18.99 15.26 18.88 15.33C18.78 15.4 18.67 15.49 18.58 15.58C18.49 15.67 18.4 15.78 18.33 15.88C18.26 15.99 18.2 16.11 18.15 16.23C18.1 16.35 18.06 16.48 18.03 16.6C18.01 16.73 18 16.86 18 17L19 17C19.08 17 19.16 16.99 19.24 16.97C19.29 16.95 19.34 16.94 19.38 16.92C19.44 16.89 19.49 16.87 19.53 16.84C19.59 16.8 19.65 16.75 19.7 16.7C19.75 16.65 19.8 16.59 19.84 16.53C19.87 16.49 19.89 16.44 19.92 16.38C19.94 16.34 19.95 16.29 19.97 16.24C19.98 16.16 20 16.08 20 16L20 15ZM4.39 8.96C4.26 8.98 4.13 9 4 9L4 8C4 7.91 4 7.83 4.02 7.75C4.04 7.7 4.05 7.65 4.07 7.61C4.1 7.55 4.12 7.5 4.15 7.46C4.19 7.4 4.24 7.34 4.29 7.29C4.34 7.24 4.4 7.19 4.46 7.15C4.5 7.12 4.55 7.1 4.61 7.07C4.65 7.05 4.7 7.04 4.75 7.02C4.83 7 4.91 7 5 7L6 7C6 7.13 5.98 7.26 5.96 7.39C5.93 7.51 5.89 7.64 5.84 7.76C5.79 7.88 5.73 8 5.66 8.11C5.59 8.21 5.5 8.32 5.41 8.41C5.32 8.5 5.21 8.59 5.11 8.66C5 8.73 4.88 8.79 4.76 8.84C4.64 8.89 4.51 8.93 4.39 8.96ZM11.14 15.9C11.42 15.96 11.7 16 12 16C12.29 16 12.57 15.96 12.85 15.9C13.09 15.85 13.32 15.78 13.55 15.68C13.78 15.58 14 15.47 14.2 15.33C14.42 15.19 14.63 15.02 14.82 14.82C15.02 14.63 15.19 14.42 15.33 14.2C15.47 14 15.58 13.78 15.68 13.55C15.78 13.32 15.85 13.09 15.9 12.85C15.96 12.57 16 12.29 16 12C16 11.7 15.96 11.42 15.9 11.14C15.85 10.9 15.78 10.67 15.68 10.44C15.58 10.21 15.47 9.99 15.33 9.79C15.19 9.57 15.02 9.36 14.82 9.17C14.63 8.97 14.42 8.8 14.2 8.66C14 8.52 13.78 8.41 13.55 8.31C13.32 8.21 13.09 8.14 12.85 8.09C12.57 8.03 12.29 8 12 8C11.7 8 11.42 8.03 11.14 8.09C10.9 8.14 10.67 8.21 10.44 8.31C10.21 8.41 9.99 8.52 9.79 8.66C9.57 8.8 9.36 8.97 9.17 9.17C8.97 9.36 8.8 9.57 8.66 9.79C8.52 9.99 8.41 10.21 8.31 10.44C8.21 10.67 8.14 10.9 8.09 11.14C8.03 11.42 8 11.7 8 12C8 12.29 8.03 12.57 8.09 12.85C8.14 13.09 8.21 13.32 8.31 13.55C8.41 13.78 8.52 14 8.66 14.2C8.8 14.42 8.97 14.63 9.17 14.82C9.36 15.02 9.57 15.19 9.79 15.33C9.99 15.47 10.21 15.58 10.44 15.68C10.67 15.78 10.9 15.85 11.14 15.9ZM12.46 13.94C12.31 13.98 12.15 14 12 14C11.84 14 11.68 13.98 11.53 13.94C11.43 13.92 11.32 13.88 11.22 13.84C11.11 13.79 11.01 13.74 10.91 13.67C10.79 13.6 10.68 13.51 10.58 13.41C10.48 13.31 10.39 13.2 10.32 13.08C10.25 12.98 10.2 12.88 10.15 12.77C10.11 12.67 10.07 12.56 10.05 12.46C10.01 12.31 10 12.15 10 12C10 11.84 10.01 11.68 10.05 11.53C10.07 11.43 10.11 11.32 10.15 11.22C10.2 11.11 10.25 11.01 10.32 10.91C10.39 10.79 10.48 10.68 10.58 10.58C10.68 10.48 10.79 10.39 10.91 10.32C11.01 10.25 11.11 10.2 11.22 10.15C11.32 10.11 11.43 10.07 11.53 10.05C11.68 10.01 11.84 10 12 10C12.15 10 12.31 10.01 12.46 10.05C12.56 10.07 12.67 10.11 12.77 10.15C12.88 10.2 12.98 10.25 13.08 10.32C13.2 10.39 13.31 10.48 13.41 10.58C13.51 10.68 13.6 10.79 13.67 10.91C13.74 11.01 13.79 11.11 13.84 11.22C13.88 11.32 13.92 11.43 13.94 11.53C13.98 11.68 14 11.84 14 12C14 12.15 13.98 12.31 13.94 12.46C13.92 12.56 13.88 12.67 13.84 12.77C13.79 12.88 13.74 12.98 13.67 13.08C13.6 13.2 13.51 13.31 13.41 13.41C13.31 13.51 13.2 13.6 13.08 13.67C12.98 13.74 12.88 13.79 12.77 13.84C12.67 13.88 12.56 13.92 12.46 13.94Z" fill="currentColor" fill-opacity="1.000000" fill-rule="evenodd"/>
</svg>