<svg xmlns="http://www.w3.org/2000/svg" xmlns:xlink="http://www.w3.org/1999/xlink" width="24.000000" height="24.000000" viewBox="0 0 24 24" fill="none">
	<path id="vector" d="M9 5.99L14 5.99C14.21 5.99 14.43 6.02 14.63 6.06C14.81 6.1 14.99 6.16 15.16 6.23C15.34 6.3 15.5 6.39 15.65 6.49C15.82 6.6 15.97 6.73 16.12 6.87C16.26 7.02 16.39 7.17 16.5 7.34C16.6 7.49 16.69 7.65 16.76 7.83C16.83 8 16.89 8.18 16.93 8.36C16.97 8.56 17 8.78 17 8.99L17 16L18 16C18.08 16 18.16 15.99 18.24 15.97C18.29 15.95 18.34 15.94 18.38 15.92C18.44 15.89 18.49 15.87 18.53 15.84C18.59 15.8 18.65 15.75 18.7 15.7C18.75 15.65 18.8 15.59 18.84 15.53C18.87 15.49 18.89 15.44 18.92 15.38C18.94 15.34 18.95 15.29 18.97 15.24C18.99 15.16 19 15.08 19 15L19 5C19 4.91 18.99 4.83 18.97 4.75C18.95 4.7 18.94 4.65 18.92 4.61C18.89 4.55 18.87 4.5 18.84 4.46C18.8 4.4 18.75 4.34 18.7 4.29C18.65 4.24 18.59 4.19 18.53 4.15C18.49 4.12 18.44 4.1 18.38 4.07C18.34 4.05 18.29 4.04 18.24 4.02C18.16 4 18.08 4 18 4L10 4C9.91 4 9.83 4 9.75 4.02C9.7 4.04 9.65 4.05 9.61 4.07C9.55 4.1 9.5 4.12 9.46 4.15C9.4 4.19 9.34 4.24 9.29 4.29C9.24 4.34 9.19 4.4 9.15 4.46C9.12 4.5 9.1 4.55 9.07 4.61C9.05 4.65 9.04 4.7 9.02 4.75C9 4.83 9 4.91 9 5L9 5.99ZM17 18L17 19.38C17 19.57 16.97 19.76 16.92 19.94C16.87 20.09 16.81 20.24 16.73 20.38C16.65 20.51 16.56 20.64 16.45 20.75C16.33 20.88 16.2 20.98 16.05 21.08C15.9 21.17 15.74 21.24 15.57 21.29C15.43 21.34 15.27 21.36 15.12 21.37C14.95 21.38 14.79 21.38 14.64 21.35C14.45 21.31 14.28 21.25 14.1 21.17L10 19.11L5.89 21.17C5.71 21.25 5.54 21.31 5.35 21.35C5.2 21.38 5.04 21.38 4.87 21.37C4.72 21.36 4.56 21.34 4.42 21.29C4.25 21.24 4.09 21.17 3.94 21.08C3.79 20.98 3.66 20.88 3.54 20.75C3.43 20.64 3.34 20.51 3.26 20.38C3.18 20.24 3.12 20.09 3.07 19.94C3.02 19.76 3 19.57 3 19.38L3 8.99C3 8.78 3.02 8.56 3.06 8.36C3.1 8.18 3.16 8 3.23 7.83C3.3 7.65 3.39 7.49 3.49 7.34C3.6 7.17 3.73 7.02 3.87 6.87C4.02 6.73 4.17 6.6 4.34 6.49C4.49 6.39 4.65 6.3 4.83 6.23C5 6.16 5.18 6.1 5.36 6.06C5.56 6.02 5.78 5.99 6 5.99L7 5.99L7 5C7 4.78 7.02 4.56 7.06 4.36C7.1 4.18 7.16 4 7.23 3.83C7.3 3.65 7.39 3.49 7.49 3.34C7.6 3.17 7.73 3.02 7.87 2.87C8.02 2.73 8.17 2.6 8.34 2.49C8.49 2.39 8.65 2.3 8.83 2.23C9 2.16 9.18 2.1 9.36 2.06C9.56 2.02 9.78 2 10 2L18 2C18.21 2 18.43 2.02 18.63 2.06C18.81 2.1 18.99 2.16 19.16 2.23C19.34 2.3 19.5 2.39 19.65 2.49C19.82 2.6 19.97 2.73 20.12 2.87C20.26 3.02 20.39 3.17 20.5 3.34C20.6 3.49 20.69 3.65 20.76 3.83C20.83 4 20.89 4.18 20.93 4.36C20.97 4.56 21 4.78 21 5L21 15C21 15.21 20.97 15.43 20.93 15.63C20.89 15.81 20.83 15.99 20.76 16.16C20.69 16.34 20.6 16.5 20.5 16.65C20.39 16.82 20.26 16.97 20.12 17.12C19.97 17.26 19.82 17.39 19.65 17.5C19.5 17.6 19.34 17.69 19.16 17.76C18.99 17.83 18.81 17.89 18.63 17.93C18.43 17.97 18.21 18 18 18L17 18Z" fill="currentColor" fill-opacity="1.000000" fill-rule="evenodd"/>
</svg>