<svg xmlns="http://www.w3.org/2000/svg" xmlns:xlink="http://www.w3.org/1999/xlink" width="24.000000" height="24.000000" viewBox="0 0 24 24" fill="none">
	<path id="vector" d="M16.63 4.06C16.43 4.02 16.21 4 16 4L8 4C7.78 4 7.56 4.02 7.36 4.06C7.18 4.1 7 4.16 6.83 4.23C6.65 4.3 6.49 4.39 6.34 4.49C6.17 4.6 6.02 4.73 5.87 4.87C5.73 5.02 5.6 5.17 5.49 5.34C5.39 5.49 5.3 5.65 5.23 5.83C5.16 6 5.1 6.18 5.06 6.36C5.02 6.56 5 6.78 5 7L5 17.38C5 17.57 5.02 17.76 5.07 17.94C5.12 18.09 5.18 18.24 5.26 18.38C5.34 18.52 5.43 18.64 5.54 18.75C5.66 18.88 5.79 18.98 5.94 19.08C6.09 19.17 6.25 19.24 6.42 19.29C6.56 19.34 6.72 19.36 6.87 19.37C7.04 19.38 7.2 19.38 7.35 19.35C7.54 19.31 7.71 19.25 7.89 19.17L12 17.11L16.1 19.17C16.28 19.25 16.45 19.31 16.64 19.35C16.79 19.38 16.95 19.38 17.12 19.37C17.27 19.36 17.43 19.34 17.57 19.29C17.74 19.24 17.9 19.17 18.05 19.08C18.2 18.98 18.33 18.88 18.45 18.75C18.56 18.64 18.65 18.52 18.73 18.38C18.81 18.24 18.87 18.09 18.92 17.94C18.97 17.76 19 17.57 19 17.38L19 7C19 6.78 18.97 6.56 18.93 6.36C18.89 6.18 18.83 6 18.76 5.83C18.69 5.65 18.6 5.49 18.5 5.34C18.39 5.17 18.26 5.02 18.12 4.87C17.97 4.73 17.82 4.6 17.65 4.49C17.5 4.39 17.34 4.3 17.16 4.23C16.99 4.16 16.81 4.1 16.63 4.06ZM8 6L16 6C16.08 6 16.16 6 16.24 6.02C16.29 6.04 16.34 6.05 16.38 6.07C16.44 6.1 16.49 6.12 16.53 6.15C16.59 6.19 16.65 6.24 16.7 6.29C16.75 6.34 16.8 6.4 16.84 6.46C16.87 6.5 16.89 6.55 16.92 6.61C16.94 6.65 16.95 6.7 16.97 6.75C16.99 6.83 17 6.91 17 7L17 17.38L12.89 15.32C12.75 15.25 12.6 15.2 12.45 15.17C12.31 15.13 12.15 15.11 12 15.11C11.84 15.11 11.68 15.13 11.54 15.17C11.39 15.2 11.24 15.25 11.1 15.32L7 17.38L7 7C7 6.91 7 6.83 7.02 6.75C7.04 6.7 7.05 6.65 7.07 6.61C7.1 6.55 7.12 6.5 7.15 6.46C7.19 6.4 7.24 6.34 7.29 6.29C7.34 6.24 7.4 6.19 7.46 6.15C7.5 6.12 7.55 6.1 7.61 6.07C7.65 6.05 7.7 6.04 7.75 6.02C7.83 6 7.91 6 8 6Z" fill="currentColor" fill-opacity="1.000000" fill-rule="evenodd"/>
</svg>