<svg xmlns="http://www.w3.org/2000/svg" xmlns:xlink="http://www.w3.org/1999/xlink" width="24.000000" height="24.000000" viewBox="0 0 24 24" fill="none">
	<path id="vector" d="M16 4C17 4 17.75 4.25 18.25 4.75C18.75 5.25 19 6 19 7L19 17.38C19 17.75 18.92 18.08 18.76 18.36C18.6 18.64 18.36 18.88 18.05 19.08C17.73 19.27 17.41 19.38 17.09 19.39C16.76 19.41 16.43 19.33 16.1 19.17L12 17.11L7.89 19.17C7.56 19.33 7.23 19.41 6.9 19.39C6.58 19.38 6.26 19.27 5.94 19.08C5.63 18.88 5.39 18.64 5.23 18.36C5.07 18.08 5 17.75 5 17.38L5 7C5 6 5.25 5.25 5.75 4.75C6.25 4.25 7 4 8 4L16 4Z" fill="currentColor" fill-opacity="1.000000" fill-rule="evenodd"/>
</svg>