<svg xmlns="http://www.w3.org/2000/svg" xmlns:xlink="http://www.w3.org/1999/xlink" width="24.000000" height="24.000000" viewBox="0 0 24 24" fill="none">
	<path id="vector" d="M21 8.66L21 15.33C21 15.6 20.96 15.86 20.89 16.11C20.82 16.36 20.72 16.61 20.58 16.84C20.45 17.07 20.29 17.28 20.1 17.47C19.91 17.65 19.7 17.81 19.47 17.94L13.47 21.32C13.24 21.44 13 21.54 12.76 21.6C12.51 21.67 12.26 21.7 12 21.7C11.73 21.7 11.48 21.67 11.23 21.6C10.99 21.54 10.75 21.44 10.52 21.32L4.52 17.94C4.29 17.81 4.08 17.65 3.89 17.47C3.7 17.28 3.54 17.07 3.41 16.84C3.27 16.61 3.17 16.36 3.1 16.11C3.03 15.86 3 15.6 3 15.33L3 8.66C3 8.39 3.03 8.13 3.1 7.88C3.17 7.63 3.27 7.38 3.41 7.15C3.54 6.92 3.7 6.71 3.89 6.52C4.08 6.34 4.29 6.18 4.52 6.05L10.52 2.67C10.75 2.55 10.99 2.45 11.23 2.39C11.48 2.32 11.73 2.29 12 2.29C12.26 2.29 12.51 2.32 12.76 2.39C13 2.45 13.24 2.55 13.47 2.67L19.47 6.05C19.7 6.18 19.91 6.34 20.1 6.52C20.29 6.71 20.45 6.92 20.58 7.15C20.72 7.38 20.82 7.63 20.89 7.88C20.96 8.13 21 8.39 21 8.66ZM17.96 7.5L16.22 8.47L10.26 5.12L11.5 4.42C11.58 4.38 11.66 4.34 11.74 4.32C11.82 4.3 11.91 4.29 12 4.29C12.08 4.29 12.17 4.3 12.25 4.32C12.33 4.34 12.41 4.38 12.49 4.42L17.96 7.5ZM6.03 7.5L8.22 6.27L14.18 9.62L12 10.85L6.03 7.5ZM19 9.2L19 15.33C19 15.42 18.98 15.5 18.96 15.59C18.94 15.67 18.9 15.75 18.86 15.83C18.81 15.91 18.76 15.98 18.7 16.04C18.63 16.1 18.56 16.15 18.49 16.2L13 19.29L13 12.58L19 9.2ZM11 12.58L5 9.2L5 15.33C5 15.42 5.01 15.5 5.03 15.59C5.05 15.67 5.09 15.75 5.13 15.83C5.18 15.91 5.23 15.98 5.29 16.04C5.36 16.1 5.43 16.15 5.5 16.2L11 19.29L11 12.58Z" fill="currentColor" fill-opacity="1.000000" fill-rule="evenodd"/>
</svg>