<svg xmlns="http://www.w3.org/2000/svg" xmlns:xlink="http://www.w3.org/1999/xlink" width="24.000000" height="24.000000" viewBox="0 0 24 24" fill="none">
	<g>
		<path id="vector" d="M16.24 2.07C16 2.02 15.75 2 15.5 2L12 2C11.86 2 11.73 2.02 11.61 2.07C11.49 2.12 11.39 2.19 11.29 2.29C11.19 2.39 11.12 2.49 11.07 2.61C11.02 2.73 11 2.86 11 3L11 7L10 7C9.43 7 9 7.44 9 8C9 8.56 9.43 9 10 9L11 9L11 10L10 10C9.43 10 9 10.44 9 11C9 11.56 9.43 12 10 12L11 12L11 13C11 13.56 11.44 14 12 14C12.56 14 13 13.56 13 13L13 12L16 12C16.56 12 17 11.56 17 11C17 10.44 16.56 10 16 10L13 10L13 9L15.5 9C15.75 9 16 8.97 16.24 8.92C16.45 8.87 16.66 8.8 16.86 8.72C17.06 8.63 17.25 8.53 17.43 8.42C17.62 8.29 17.8 8.14 17.97 7.97C18.14 7.8 18.29 7.62 18.42 7.43C18.53 7.25 18.63 7.06 18.72 6.86C18.8 6.66 18.87 6.45 18.92 6.24C18.97 6 19 5.75 19 5.5C19 5.24 18.97 4.99 18.92 4.75C18.87 4.54 18.8 4.33 18.72 4.13C18.63 3.93 18.53 3.74 18.42 3.56C18.29 3.37 18.14 3.19 17.97 3.02C17.8 2.85 17.62 2.7 17.43 2.57C17.25 2.46 17.06 2.36 16.86 2.27C16.66 2.19 16.45 2.12 16.24 2.07ZM8.6 5.87C8.36 6 8.13 6.15 7.9 6.32C7.63 6.51 7.37 6.73 7.13 6.96C6.89 7.19 6.67 7.43 6.47 7.69C6.3 7.92 6.14 8.15 5.99 8.39C5.82 8.68 5.66 8.98 5.53 9.29C5.43 9.55 5.33 9.82 5.26 10.09C5.19 10.31 5.14 10.53 5.1 10.76C5.03 11.16 5 11.58 5 12C5 12.41 5.03 12.82 5.1 13.22C5.14 13.44 5.19 13.65 5.25 13.87C5.32 14.14 5.41 14.4 5.52 14.66C5.64 14.96 5.79 15.26 5.96 15.54C6.1 15.78 6.25 16.01 6.42 16.23C6.6 16.46 6.79 16.68 7 16.89L7 14.99C7 14.43 7.44 13.99 8 14C8.56 14 9 14.44 9 15L9 18.84C9 18.89 9 18.94 9 19C9 19.13 8.97 19.26 8.92 19.38C8.87 19.5 8.8 19.6 8.7 19.7C8.6 19.8 8.5 19.87 8.38 19.92C8.26 19.97 8.13 19.99 8 19.99L4 20C3.44 20 3 19.56 3 19C2.99 18.44 3.43 18 3.99 18L5.29 17.99C5.13 17.82 4.98 17.64 4.84 17.46C4.62 17.17 4.42 16.87 4.24 16.56C4.02 16.2 3.84 15.82 3.68 15.44C3.54 15.1 3.42 14.75 3.32 14.4C3.24 14.1 3.17 13.8 3.12 13.49C3.04 13 3 12.5 3 12C3 11.48 3.04 10.98 3.12 10.48C3.17 10.17 3.24 9.86 3.33 9.55C3.43 9.19 3.55 8.84 3.7 8.5C3.86 8.11 4.06 7.73 4.28 7.36C4.47 7.04 4.68 6.74 4.91 6.45C5.16 6.12 5.44 5.81 5.74 5.52C6.05 5.23 6.37 4.96 6.71 4.71C7.01 4.49 7.31 4.3 7.63 4.12C8.12 3.85 8.72 4.02 8.99 4.51C9.27 5 9.09 5.6 8.6 5.87ZM13 4L15.5 4C15.62 4 15.73 4.01 15.85 4.04C15.92 4.05 16 4.08 16.08 4.11C16.16 4.15 16.24 4.19 16.31 4.23C16.4 4.29 16.48 4.36 16.56 4.43C16.63 4.51 16.7 4.59 16.76 4.68C16.8 4.75 16.84 4.83 16.88 4.91C16.91 4.99 16.94 5.07 16.95 5.14C16.98 5.26 17 5.37 17 5.5C17 5.62 16.98 5.73 16.95 5.85C16.94 5.92 16.91 6 16.88 6.08C16.84 6.16 16.8 6.24 16.76 6.31C16.7 6.4 16.63 6.48 16.56 6.56C16.48 6.63 16.4 6.7 16.31 6.76C16.24 6.8 16.16 6.84 16.08 6.88C16 6.91 15.93 6.94 15.85 6.95C15.73 6.98 15.62 7 15.5 7L13 7L13 4ZM18.77 10.24C18.64 9.7 18.95 9.17 19.49 9.03C20.04 8.89 20.57 9.2 20.71 9.75C20.78 10.02 20.84 10.29 20.88 10.56C20.96 11.03 21 11.51 21 12C21 12.66 20.92 13.32 20.78 13.95C20.67 14.48 20.5 14.99 20.29 15.5C20.07 16.01 19.82 16.49 19.52 16.94C19.18 17.45 18.8 17.92 18.36 18.36C17.92 18.8 17.45 19.18 16.94 19.52C16.49 19.82 16.01 20.07 15.5 20.29C14.99 20.5 14.48 20.67 13.95 20.78C13.32 20.92 12.66 21 12 21C11.44 21 11 20.56 11 20C11 19.44 11.44 19 12 19C12.53 19 13.05 18.94 13.56 18.82C13.95 18.73 14.34 18.61 14.72 18.45C15.11 18.28 15.48 18.08 15.83 17.86C16.23 17.59 16.6 17.29 16.94 16.94C17.29 16.6 17.59 16.23 17.86 15.83C18.08 15.48 18.28 15.11 18.45 14.72C18.61 14.34 18.73 13.95 18.82 13.56C18.94 13.05 19 12.53 19 12C19 11.59 18.96 11.2 18.9 10.81C18.86 10.62 18.82 10.43 18.77 10.24Z" fill="currentColor" fill-opacity="1.000000" fill-rule="evenodd"/>
	</g>
</svg>