<svg xmlns="http://www.w3.org/2000/svg" xmlns:xlink="http://www.w3.org/1999/xlink" width="24.000000" height="24.000000" viewBox="0 0 24 24" fill="none">
	<g clip-path="url(#clip526_1637)">
		<path id="vector" d="M15 3L15 2C15 1.44 14.56 1 14 1C13.44 1 13 1.44 13 2L13 3L11.75 3C11.55 3 11.35 3.02 11.16 3.06C11 3.09 10.83 3.14 10.67 3.21C10.52 3.28 10.37 3.36 10.23 3.45C10.07 3.55 9.93 3.67 9.8 3.8C9.67 3.93 9.55 4.07 9.45 4.23C9.36 4.37 9.28 4.52 9.21 4.67C9.14 4.83 9.09 5 9.06 5.16C9.02 5.35 9 5.55 9 5.75C9 5.94 9.02 6.14 9.06 6.33C9.09 6.49 9.14 6.66 9.21 6.82C9.28 6.97 9.36 7.12 9.45 7.26C9.55 7.42 9.67 7.56 9.8 7.69C9.93 7.82 10.07 7.94 10.23 8.04C10.37 8.13 10.52 8.21 10.67 8.28C10.83 8.35 11 8.4 11.16 8.43C11.35 8.47 11.55 8.5 11.75 8.5L13 8.5L13 10L10 10C9.43 10 9 10.44 9 11C9 11.56 9.43 12 10 12L13 12L13 13C13 13.56 13.44 14 14 14C14.56 14 15 13.56 15 13L15 12L16.25 12C16.44 12 16.64 11.97 16.83 11.93C16.99 11.9 17.16 11.85 17.32 11.78C17.47 11.71 17.62 11.63 17.76 11.54C17.92 11.44 18.06 11.32 18.19 11.19C18.32 11.06 18.44 10.92 18.54 10.76C18.63 10.62 18.71 10.47 18.78 10.32C18.85 10.16 18.9 9.99 18.93 9.83C18.97 9.64 19 9.44 19 9.25C19 9.05 18.97 8.85 18.93 8.66C18.9 8.5 18.85 8.33 18.78 8.17C18.71 8.02 18.63 7.87 18.54 7.73C18.44 7.57 18.32 7.43 18.19 7.3C18.06 7.17 17.92 7.05 17.76 6.95C17.62 6.86 17.47 6.78 17.32 6.71C17.16 6.64 16.99 6.59 16.83 6.56C16.64 6.52 16.44 6.5 16.25 6.5L15 6.5L15 5L18 5C18.56 5 19 4.56 19 4C19 3.44 18.56 3 18 3L15 3ZM13 5L11.75 5C11.64 5 11.55 5.01 11.46 5.05C11.37 5.09 11.29 5.14 11.21 5.21C11.14 5.29 11.09 5.37 11.05 5.46C11.01 5.55 11 5.64 11 5.75C11 5.85 11.01 5.94 11.05 6.03C11.09 6.12 11.14 6.2 11.21 6.28C11.29 6.35 11.37 6.4 11.46 6.44C11.55 6.48 11.64 6.5 11.75 6.5L13 6.5L13 5ZM15 8.5L15 10L16.25 10C16.35 10 16.44 9.98 16.53 9.94C16.62 9.9 16.7 9.85 16.78 9.78C16.85 9.7 16.9 9.62 16.94 9.53C16.98 9.44 17 9.35 17 9.25C17 9.14 16.98 9.05 16.94 8.96C16.9 8.87 16.85 8.79 16.78 8.71C16.7 8.64 16.62 8.59 16.53 8.55C16.44 8.51 16.35 8.5 16.25 8.5L15 8.5ZM6.49 7.66C6.19 8.05 5.93 8.47 5.71 8.92C5.49 9.36 5.32 9.81 5.2 10.28C5.06 10.84 5 11.41 5 12C5 12.41 5.03 12.82 5.1 13.22C5.14 13.44 5.19 13.65 5.25 13.87C5.32 14.14 5.41 14.4 5.52 14.66C5.64 14.96 5.79 15.26 5.96 15.54C6.1 15.78 6.25 16.01 6.42 16.23C6.6 16.46 6.79 16.68 7 16.89L7 14.99C7 14.43 7.44 13.99 8 14C8.56 14 9 14.44 9 15L9 18.84C9 18.89 9 18.94 9 19C9 19.13 8.97 19.26 8.92 19.38C8.87 19.5 8.8 19.6 8.7 19.7C8.6 19.8 8.5 19.87 8.38 19.92C8.26 19.97 8.13 19.99 8 19.99L4 20C3.44 20 3 19.56 3 19C2.99 18.44 3.43 18 3.99 18L5.29 17.99C5.13 17.82 4.98 17.64 4.84 17.46C4.63 17.18 4.42 16.87 4.24 16.56C4.02 16.2 3.84 15.82 3.68 15.44C3.54 15.1 3.42 14.75 3.32 14.4C3.24 14.1 3.17 13.8 3.12 13.49C3.04 13 3 12.5 3 12C3 11.54 3.03 11.08 3.1 10.63C3.13 10.4 3.18 10.16 3.23 9.93C3.31 9.61 3.4 9.3 3.51 9C3.62 8.67 3.76 8.35 3.91 8.03C4.04 7.77 4.18 7.51 4.34 7.26C4.53 6.95 4.74 6.65 4.98 6.36C5.18 6.1 5.4 5.86 5.63 5.63C5.87 5.4 6.11 5.18 6.37 4.97C6.81 4.62 7.42 4.69 7.78 5.12C8.13 5.56 8.06 6.18 7.62 6.53C7.2 6.87 6.82 7.25 6.49 7.66ZM21 12C21 12.66 20.92 13.32 20.78 13.95C20.67 14.48 20.5 14.99 20.29 15.5C20.07 16.01 19.82 16.49 19.52 16.94C19.18 17.45 18.8 17.92 18.36 18.36C17.92 18.8 17.45 19.18 16.94 19.52C16.49 19.81 16.01 20.07 15.5 20.29C14.99 20.5 14.48 20.67 13.95 20.78C13.32 20.92 12.66 21 12 21C11.44 21 11 20.56 11 20C11 19.44 11.44 19 12 19C12.53 19 13.05 18.94 13.56 18.82C13.95 18.73 14.34 18.61 14.72 18.45C15.11 18.28 15.48 18.08 15.83 17.86C16.23 17.59 16.6 17.29 16.94 16.94C17.29 16.6 17.59 16.23 17.86 15.83C18.08 15.48 18.28 15.11 18.45 14.72C18.61 14.34 18.73 13.95 18.82 13.56C18.94 13.05 19 12.53 19 12C19 11.44 19.44 11 20 11C20.56 11 21 11.44 21 12Z" fill="currentColor" fill-opacity="1.000000" fill-rule="evenodd"/>
	</g>
</svg>