<svg xmlns="http://www.w3.org/2000/svg" xmlns:xlink="http://www.w3.org/1999/xlink" width="24.000000" height="24.000000" viewBox="0 0 24 24" fill="none">
	<g>
		<path id="vector" d="M11 1C11 0.43 11.44 0 12 0C12.56 0 13 0.43 13 1L13 3C13 3.56 12.56 4 12 4C11.44 4 11 3.56 11 3L11 1ZM3.51 3.92C3.31 3.72 3.21 3.47 3.21 3.21C3.21 2.96 3.31 2.71 3.51 2.51C3.9 2.11 4.53 2.11 4.92 2.51L6.34 3.93C6.54 4.13 6.64 4.38 6.64 4.63C6.64 4.89 6.54 5.14 6.34 5.34C5.95 5.74 5.32 5.74 4.93 5.34L3.51 3.92ZM19.07 2.51C19.46 2.11 20.09 2.11 20.48 2.51C20.68 2.71 20.78 2.96 20.78 3.21C20.78 3.47 20.68 3.72 20.48 3.92L19.06 5.34C18.67 5.74 18.04 5.74 17.65 5.34C17.45 5.14 17.35 4.89 17.35 4.63C17.35 4.38 17.45 4.13 17.65 3.93L19.07 2.51ZM12 7C11.69 7 11.39 7.03 11.09 7.1C10.87 7.15 10.65 7.22 10.44 7.31C10.22 7.4 10.01 7.51 9.81 7.64C9.58 7.79 9.37 7.97 9.17 8.17C8.97 8.37 8.79 8.58 8.64 8.81C8.51 9.01 8.4 9.22 8.31 9.44C8.22 9.65 8.15 9.87 8.1 10.09C8.03 10.39 8 10.69 8 11C8 11.25 8.02 11.5 8.07 11.74C8.12 11.99 8.19 12.23 8.29 12.46C8.38 12.69 8.5 12.92 8.64 13.12C8.78 13.33 8.94 13.52 9.12 13.7C9.32 13.91 9.54 14.16 9.72 14.39C9.89 14.62 10.04 14.87 10.18 15.13C10.32 15.39 10.44 15.65 10.54 15.92C10.63 16.2 10.71 16.48 10.77 16.76L10.81 17L13.18 17L13.22 16.76C13.28 16.48 13.36 16.2 13.45 15.92C13.55 15.65 13.67 15.39 13.81 15.13C13.95 14.87 14.1 14.62 14.27 14.39C14.45 14.16 14.64 13.94 14.84 13.73C15.02 13.55 15.21 13.33 15.35 13.12C15.49 12.92 15.61 12.69 15.7 12.46C15.8 12.23 15.87 11.99 15.92 11.74C15.97 11.5 16 11.25 16 11C16 10.69 15.96 10.39 15.89 10.09C15.84 9.87 15.77 9.65 15.68 9.44C15.59 9.22 15.48 9.01 15.35 8.81C15.2 8.58 15.02 8.37 14.82 8.17C14.62 7.97 14.41 7.79 14.18 7.64C13.98 7.51 13.77 7.4 13.55 7.31C13.34 7.22 13.12 7.15 12.9 7.1C12.6 7.03 12.3 7 12 7ZM6 11C6 10.55 6.04 10.12 6.14 9.7C6.21 9.34 6.32 9 6.47 8.66C6.61 8.32 6.78 8 6.98 7.69C7.21 7.36 7.46 7.04 7.75 6.75C8.04 6.46 8.36 6.21 8.69 5.98C9 5.78 9.32 5.61 9.66 5.47C10 5.32 10.34 5.21 10.7 5.14C11.12 5.04 11.55 5 12 5C12.44 5 12.87 5.04 13.29 5.14C13.65 5.21 13.99 5.32 14.33 5.47C14.67 5.61 14.99 5.78 15.3 5.98C15.63 6.21 15.95 6.46 16.24 6.75C16.53 7.04 16.78 7.36 17.01 7.69C17.21 8 17.38 8.32 17.52 8.66C17.67 9 17.78 9.34 17.86 9.7C17.95 10.12 18 10.55 18 11C18 11.38 17.96 11.76 17.88 12.13C17.81 12.5 17.7 12.87 17.55 13.23C17.4 13.58 17.22 13.92 17.01 14.23C16.8 14.55 16.56 14.84 16.29 15.12C16.15 15.25 15.99 15.43 15.88 15.58C15.77 15.74 15.66 15.9 15.57 16.07C15.48 16.24 15.4 16.42 15.34 16.6C15.27 16.78 15.22 16.96 15.18 17.16L14.98 18.19C14.95 18.31 14.91 18.41 14.85 18.51C14.8 18.61 14.72 18.69 14.63 18.77C14.54 18.84 14.44 18.9 14.33 18.94C14.23 18.98 14.11 19 14 19L10 19C9.88 19 9.76 18.98 9.66 18.94C9.55 18.9 9.45 18.84 9.36 18.77C9.27 18.69 9.19 18.61 9.14 18.51C9.08 18.41 9.04 18.31 9.01 18.19L8.81 17.16C8.77 16.96 8.72 16.78 8.65 16.6C8.59 16.42 8.51 16.24 8.42 16.07C8.33 15.9 8.22 15.74 8.11 15.58C8 15.43 7.87 15.28 7.73 15.15C7.46 14.87 7.19 14.55 6.98 14.23C6.77 13.92 6.59 13.58 6.44 13.23C6.29 12.87 6.18 12.5 6.11 12.13C6.03 11.76 6 11.38 6 11ZM2 12C1.44 12 1 11.56 1 11C1 10.43 1.44 10 2 10L4 10C4.56 10 5 10.43 5 11C5 11.56 4.56 12 4 12L2 12ZM20 12C19.44 12 19 11.56 19 11C19 10.43 19.44 10 20 10L22 10C22.56 10 23 10.43 23 11C23 11.56 22.56 12 22 12L20 12ZM10.22 13.63C10.07 13.44 9.99 13.22 9.99 12.99C9.99 12.71 10.12 12.43 10.36 12.23C10.79 11.87 11.41 11.93 11.77 12.36C11.84 12.45 11.92 12.49 11.99 12.5C12.07 12.49 12.15 12.45 12.22 12.36C12.58 11.93 13.2 11.87 13.63 12.23C13.87 12.43 14 12.71 14 12.99C14 13.22 13.92 13.44 13.77 13.63C13.59 13.84 13.4 14.01 13.18 14.15C13.11 14.19 13.04 14.23 12.97 14.27C12.79 14.35 12.61 14.42 12.42 14.45C12.28 14.48 12.14 14.5 12 14.5C11.85 14.5 11.71 14.48 11.57 14.45C11.38 14.42 11.2 14.35 11.02 14.27C10.95 14.23 10.88 14.19 10.81 14.15C10.59 14.01 10.4 13.84 10.22 13.63ZM10 22C9.43 22 9 21.56 9 21C9 20.43 9.43 20 10 20L14 20C14.56 20 15 20.43 15 21C15 21.56 14.56 22 14 22L10 22Z" fill="currentColor" fill-opacity="1.000000" fill-rule="evenodd"/>
	</g>
</svg>