<svg xmlns="http://www.w3.org/2000/svg" xmlns:xlink="http://www.w3.org/1999/xlink" width="24.000000" height="24.000000" viewBox="0 0 24 24" fill="none">
	<g>
		<path id="vector" d="M6 6L18 6C18.56 6 19 6.44 19 7C19 7.56 18.56 8 18 8L6 8C5.44 8 5 7.56 5 7C5 6.44 5.44 6 6 6ZM18 11L6 11C5.44 11 5 11.44 5 12C5 12.56 5.44 13 6 13L18 13C18.56 13 19 12.56 19 12C19 11.44 18.56 11 18 11ZM6 16L18 16C18.56 16 19 16.44 19 17C19 17.56 18.56 18 18 18L6 18C5.44 18 5 17.56 5 17C5 16.44 5.44 16 6 16Z" fill="currentColor" fill-opacity="1.000000" fill-rule="evenodd"/>
	</g>
</svg>