<svg xmlns="http://www.w3.org/2000/svg" xmlns:xlink="http://www.w3.org/1999/xlink" width="24.000000" height="24.000000" viewBox="0 0 24 24" fill="none">
	<g clip-path="url(#clip785_10872)">
		<path d="M18 6L16 6L16 5C16 4.78 15.97 4.56 15.93 4.36C15.89 4.18 15.83 4 15.76 3.83C15.69 3.65 15.6 3.49 15.5 3.34C15.39 3.17 15.26 3.02 15.12 2.87C14.97 2.73 14.82 2.6 14.65 2.49C14.5 2.39 14.34 2.3 14.16 2.23C13.99 2.16 13.81 2.1 13.63 2.06C13.43 2.02 13.21 2 13 2L11 2C10.78 2 10.56 2.02 10.36 2.06C10.18 2.1 10 2.16 9.83 2.23C9.65 2.3 9.49 2.39 9.34 2.49C9.17 2.6 9.02 2.73 8.87 2.87C8.73 3.02 8.6 3.17 8.49 3.34C8.39 3.49 8.3 3.65 8.23 3.83C8.16 4 8.1 4.18 8.06 4.36C8.02 4.56 8 4.78 8 5L8 6L6 6C5.78 6 5.56 6.02 5.36 6.06C5.18 6.1 5 6.16 4.83 6.23C4.65 6.3 4.49 6.39 4.34 6.49C4.17 6.6 4.02 6.73 3.87 6.87C3.73 7.02 3.6 7.17 3.49 7.34C3.39 7.49 3.3 7.65 3.23 7.83C3.16 8 3.1 8.18 3.06 8.36C3.02 8.56 3 8.78 3 9L3 17C3 17.21 3.02 17.43 3.06 17.63C3.1 17.81 3.16 17.99 3.23 18.16C3.3 18.34 3.39 18.5 3.49 18.65C3.6 18.82 3.73 18.97 3.87 19.12C4.02 19.26 4.17 19.39 4.34 19.5C4.49 19.6 4.65 19.69 4.83 19.76C5 19.83 5.18 19.89 5.36 19.93C5.56 19.97 5.78 20 6 20L18 20C18.21 20 18.43 19.97 18.63 19.93C18.81 19.89 18.99 19.83 19.16 19.76C19.34 19.69 19.5 19.6 19.65 19.5C19.82 19.39 19.97 19.26 20.12 19.12C20.26 18.97 20.39 18.82 20.5 18.65C20.6 18.5 20.69 18.34 20.76 18.16C20.83 17.99 20.89 17.81 20.93 17.63C20.97 17.43 21 17.21 21 17L21 9C21 8.78 20.97 8.56 20.93 8.36C20.89 8.18 20.83 8 20.76 7.83C20.69 7.65 20.6 7.49 20.5 7.34C20.39 7.17 20.26 7.02 20.12 6.87C19.97 6.73 19.82 6.6 19.65 6.49C19.5 6.39 19.34 6.3 19.16 6.23C18.99 6.16 18.81 6.1 18.63 6.06C18.43 6.02 18.21 6 18 6ZM14 6L10 6L10 5C10 4.91 10 4.83 10.02 4.75C10.04 4.7 10.05 4.65 10.07 4.61C10.1 4.55 10.12 4.5 10.15 4.46C10.19 4.4 10.24 4.34 10.29 4.29C10.34 4.24 10.4 4.19 10.46 4.15C10.5 4.12 10.55 4.1 10.61 4.07C10.65 4.05 10.7 4.04 10.75 4.02C10.83 4 10.91 4 11 4L13 4C13.08 4 13.16 4 13.24 4.02C13.29 4.04 13.34 4.05 13.38 4.07C13.44 4.1 13.49 4.12 13.53 4.15C13.59 4.19 13.65 4.24 13.7 4.29C13.75 4.34 13.8 4.4 13.84 4.46C13.87 4.5 13.89 4.55 13.92 4.61C13.94 4.65 13.95 4.7 13.97 4.75C13.99 4.83 14 4.91 14 5L14 6ZM6 8L18 8C18.08 8 18.16 8 18.24 8.02C18.29 8.04 18.34 8.05 18.38 8.07C18.44 8.1 18.49 8.12 18.53 8.15C18.59 8.19 18.65 8.24 18.7 8.29C18.75 8.34 18.8 8.4 18.84 8.46C18.87 8.5 18.89 8.55 18.92 8.61C18.94 8.65 18.95 8.7 18.97 8.75C18.99 8.83 19 8.91 19 9L19 17C19 17.08 18.99 17.16 18.97 17.24C18.95 17.29 18.94 17.34 18.92 17.38C18.89 17.44 18.87 17.49 18.84 17.53C18.8 17.59 18.75 17.65 18.7 17.7C18.65 17.75 18.59 17.8 18.53 17.84C18.49 17.87 18.44 17.89 18.38 17.92C18.34 17.94 18.29 17.95 18.24 17.97C18.16 17.99 18.08 18 18 18L6 18C5.91 18 5.83 17.99 5.75 17.97C5.7 17.95 5.65 17.94 5.61 17.92C5.55 17.89 5.5 17.87 5.46 17.84C5.4 17.8 5.34 17.75 5.29 17.7C5.24 17.65 5.19 17.59 5.15 17.53C5.12 17.49 5.1 17.44 5.07 17.38C5.05 17.34 5.04 17.29 5.02 17.24C5 17.16 5 17.08 5 17L5 9C5 8.91 5 8.83 5.02 8.75C5.04 8.7 5.05 8.65 5.07 8.61C5.1 8.55 5.12 8.5 5.15 8.46C5.19 8.4 5.24 8.34 5.29 8.29C5.34 8.24 5.4 8.19 5.46 8.15C5.5 8.12 5.55 8.1 5.61 8.07C5.65 8.05 5.7 8.04 5.75 8.02C5.83 8 5.91 8 6 8ZM10 10L10 16C10 16.56 9.56 17 9 17C8.43 17 8 16.56 8 16L8 10C8 9.43 8.43 9 9 9C9.56 9 10 9.43 10 10ZM15 9C14.43 9 14 9.43 14 10L14 16C14 16.56 14.43 17 15 17C15.56 17 16 16.56 16 16L16 10C16 9.43 15.56 9 15 9Z" fill="currentColor" fill-opacity="1.000000" fill-rule="evenodd"/>
	</g>
</svg>