<svg xmlns="http://www.w3.org/2000/svg" xmlns:xlink="http://www.w3.org/1999/xlink" width="24.000000" height="24.000000" viewBox="0 0 24 24" fill="none">
	<path id="vector" d="M8 4C8 3.44 8.43 3 9 3C9.56 3 10 3.44 10 4L14 4C14 3.44 14.44 3 15 3C15.56 3 16 3.44 16 4L17 4C17.21 4 17.43 4.02 17.63 4.06C17.81 4.1 17.99 4.16 18.16 4.23C18.34 4.3 18.5 4.39 18.65 4.49C18.82 4.6 18.97 4.73 19.12 4.87C19.26 5.02 19.39 5.17 19.5 5.34C19.6 5.49 19.69 5.65 19.76 5.83C19.83 6 19.89 6.18 19.93 6.36C19.97 6.56 20 6.78 20 7L20 12C20 12.56 19.56 13 19 13C18.44 13 18 12.56 18 12L18 10L6 10L6 17C6 17.08 6 17.16 6.02 17.24C6.04 17.29 6.05 17.34 6.07 17.38C6.1 17.44 6.12 17.49 6.15 17.53C6.19 17.59 6.24 17.65 6.29 17.7C6.34 17.75 6.4 17.8 6.46 17.84C6.5 17.87 6.55 17.89 6.61 17.92C6.65 17.94 6.7 17.95 6.75 17.97C6.83 17.99 6.91 18 7 18L12 18C12.56 18 13 18.44 13 19C13 19.56 12.56 20 12 20L7 20C6.78 20 6.56 19.97 6.36 19.93C6.18 19.89 6 19.83 5.83 19.76C5.65 19.69 5.49 19.6 5.34 19.5C5.17 19.39 5.02 19.26 4.87 19.12C4.73 18.97 4.6 18.82 4.49 18.65C4.39 18.5 4.3 18.34 4.23 18.16C4.16 17.99 4.1 17.81 4.06 17.63C4.02 17.43 4 17.21 4 17L4 7C4 6.78 4.02 6.56 4.06 6.36C4.1 6.18 4.16 6 4.23 5.83C4.3 5.65 4.39 5.49 4.49 5.34C4.6 5.17 4.73 5.02 4.87 4.87C5.02 4.73 5.17 4.6 5.34 4.49C5.49 4.39 5.65 4.3 5.83 4.23C6 4.16 6.18 4.1 6.36 4.06C6.56 4.02 6.78 4 7 4L8 4ZM10 6C10 6.56 9.56 7 9 7C8.43 7 8 6.56 8 6L7 6C6.91 6 6.83 6 6.75 6.02C6.7 6.04 6.65 6.05 6.61 6.07C6.55 6.1 6.5 6.12 6.46 6.15C6.4 6.19 6.34 6.24 6.29 6.29C6.24 6.34 6.19 6.4 6.15 6.46C6.12 6.5 6.1 6.55 6.07 6.61C6.05 6.65 6.04 6.7 6.02 6.75C6 6.83 6 6.91 6 7L6 8L18 8L18 7C18 6.91 17.99 6.83 17.97 6.75C17.95 6.7 17.94 6.65 17.92 6.61C17.89 6.55 17.87 6.5 17.84 6.46C17.8 6.4 17.75 6.34 17.7 6.29C17.65 6.24 17.59 6.19 17.53 6.15C17.49 6.12 17.44 6.1 17.38 6.07C17.34 6.05 17.29 6.04 17.24 6.02C17.16 6 17.08 6 17 6L16 6C16 6.56 15.56 7 15 7C14.44 7 14 6.56 14 6L10 6ZM8 13C8 12.44 8.44 12 9 12C9.55 12 10 12.44 10 13C10 13.55 9.55 14 9 14C8.44 14 8 13.55 8 13ZM14 13C14 12.44 14.44 12 15 12C15.55 12 16 12.44 16 13C16 13.55 15.55 14 15 14C14.44 14 14 13.55 14 13ZM11 15C11 14.44 11.44 14 12 14C12.55 14 13 14.44 13 15C13 15.55 12.55 16 12 16C11.44 16 11 15.55 11 15ZM18 16C18 15.44 18.44 15 19 15C19.56 15 20 15.44 20 16L20 18L22 18C22.56 18 23 18.44 23 19C23 19.56 22.56 20 22 20L20 20L20 22C20 22.56 19.56 23 19 23C18.44 23 18 22.56 18 22L18 20L16 20C15.44 20 15 19.56 15 19C15 18.44 15.44 18 16 18L18 18L18 16Z" fill="currentColor" fill-opacity="1.000000" fill-rule="evenodd"/>
</svg>