<svg xmlns="http://www.w3.org/2000/svg" xmlns:xlink="http://www.w3.org/1999/xlink" width="24.000000" height="24.000000" viewBox="0 0 24 24" fill="none">
	<g>
		<path id="vector" d="M11 5C11 4.44 11.44 4 12 4C12.56 4 13 4.44 13 5L13 19C13 19.56 12.56 20 12 20C11.44 20 11 19.56 11 19L11 5ZM18 10C18 9.43 17.56 9 17 9C16.44 9 16 9.43 16 10L16 19C16 19.56 16.44 20 17 20C17.56 20 18 19.56 18 19L18 10ZM8 14L8 19C8 19.56 7.56 20 7 20C6.44 20 6 19.56 6 19L6 14C6 13.44 6.44 13 7 13C7.56 13 8 13.44 8 14Z" fill="currentColor" fill-opacity="1.000000" fill-rule="evenodd"/>
	</g>
</svg>