<svg xmlns="http://www.w3.org/2000/svg" xmlns:xlink="http://www.w3.org/1999/xlink" width="24.000000" height="24.000000" viewBox="0 0 24 24" fill="none">
	<path id="vector" d="M3 19.99L4.98 19.99L14.98 19.99L18.98 19.99L21 19.99C21.56 19.99 22 19.55 22 18.99C22 18.43 21.56 17.99 21 17.99L20 17.99L20 12C20 11.85 19.98 11.71 19.95 11.58C19.93 11.45 19.89 11.33 19.84 11.22C19.79 11.1 19.73 10.99 19.66 10.89C19.59 10.78 19.5 10.68 19.41 10.58C19.31 10.49 19.21 10.4 19.1 10.33C19 10.26 18.89 10.2 18.77 10.15C18.66 10.1 18.54 10.06 18.41 10.04C18.28 10.01 18.14 10 18 10L16 10L16 4.47C16 4.29 15.97 4.11 15.92 3.94C15.88 3.79 15.83 3.65 15.75 3.51C15.68 3.38 15.59 3.25 15.49 3.14C15.38 3.02 15.26 2.91 15.12 2.82C14.98 2.72 14.83 2.65 14.67 2.59C14.53 2.54 14.39 2.5 14.24 2.49C14.08 2.47 13.93 2.47 13.78 2.48C13.6 2.5 13.42 2.55 13.25 2.62L5.25 5.82C5.06 5.89 4.89 5.99 4.74 6.11C4.59 6.24 4.45 6.38 4.34 6.55C4.22 6.72 4.14 6.9 4.08 7.09C4.02 7.27 4 7.47 4 7.67L4 17.99L3 17.99C2.44 17.99 2 18.43 2 18.99C2 19.55 2.44 19.99 3 19.99ZM16 12L16 17.99L18 17.99L18 12L16 12ZM14 4.47L14 17.99L6 17.99L6 7.67L14 4.47ZM7 10C7 9.43 7.44 9 8 9L9 9C9.56 9 10 9.43 10 10C10 10.56 9.56 11 9 11L8 11C7.44 11 7 10.56 7 10ZM8 12L9 12C9.56 12 10 12.43 10 13C10 13.56 9.56 14 9 14L8 14C7.44 14 7 13.56 7 13C7 12.43 7.44 12 8 12ZM9 15L8 15C7.44 15 7 15.43 7 16C7 16.56 7.44 17 8 17L9 17C9.56 17 10 16.56 10 16C10 15.43 9.56 15 9 15Z" fill="currentColor" fill-opacity="1.000000" fill-rule="evenodd"/>
</svg>