<svg width="20.000000" height="20.000000" viewBox="0 0 20 20" fill="none" xmlns="http://www.w3.org/2000/svg" xmlns:xlink="http://www.w3.org/1999/xlink">
	<path id="vector" d="M10 17.5C9.44 17.5 8.89 17.44 8.36 17.32C7.92 17.22 7.5 17.08 7.08 16.91C6.65 16.73 6.25 16.51 5.87 16.26C5.45 15.98 5.06 15.66 4.69 15.3C4.33 14.93 4.01 14.54 3.73 14.12C3.48 13.74 3.26 13.34 3.08 12.91C2.91 12.49 2.77 12.06 2.67 11.63C2.55 11.1 2.5 10.55 2.5 10C2.5 9.44 2.55 8.89 2.67 8.36C2.77 7.93 2.91 7.5 3.08 7.08C3.26 6.65 3.48 6.25 3.73 5.87C4.01 5.45 4.33 5.06 4.69 4.69C5.06 4.33 5.45 4.01 5.87 3.73C6.25 3.48 6.65 3.26 7.08 3.08C7.5 2.91 7.93 2.77 8.36 2.67C8.89 2.55 9.44 2.5 10 2.5C10.55 2.5 11.1 2.55 11.63 2.67C12.06 2.77 12.49 2.91 12.91 3.08C13.34 3.26 13.74 3.48 14.12 3.73C14.54 4.01 14.93 4.33 15.3 4.69C15.66 5.06 15.98 5.45 16.26 5.87C16.51 6.25 16.73 6.65 16.91 7.08C17.08 7.5 17.22 7.93 17.32 8.36C17.44 8.89 17.5 9.44 17.5 10C17.5 10.55 17.44 11.1 17.32 11.63C17.22 12.06 17.08 12.49 16.91 12.91C16.73 13.34 16.51 13.74 16.26 14.12C15.98 14.54 15.66 14.93 15.3 15.3C14.93 15.66 14.54 15.98 14.12 16.26C13.74 16.51 13.34 16.73 12.91 16.91C12.49 17.08 12.06 17.22 11.63 17.32C11.1 17.44 10.55 17.5 10 17.5ZM10 15.83C10.44 15.83 10.87 15.78 11.29 15.68C11.62 15.61 11.95 15.5 12.27 15.37C12.59 15.23 12.9 15.07 13.19 14.88C13.52 14.66 13.83 14.41 14.12 14.12C14.41 13.83 14.66 13.52 14.88 13.19C15.07 12.9 15.23 12.59 15.37 12.27C15.5 11.95 15.61 11.63 15.68 11.3C15.78 10.87 15.83 10.44 15.83 10C15.83 9.55 15.78 9.12 15.68 8.69C15.61 8.36 15.5 8.04 15.37 7.72C15.23 7.4 15.07 7.09 14.88 6.8C14.66 6.47 14.41 6.16 14.12 5.87C13.83 5.58 13.52 5.33 13.19 5.11C12.9 4.92 12.59 4.76 12.27 4.62C11.95 4.49 11.62 4.38 11.29 4.31C10.87 4.21 10.44 4.16 10 4.16C9.55 4.16 9.12 4.21 8.7 4.31C8.37 4.38 8.04 4.49 7.72 4.62C7.4 4.76 7.09 4.92 6.8 5.11C6.47 5.33 6.16 5.58 5.87 5.87C5.58 6.16 5.33 6.47 5.11 6.8C4.92 7.09 4.76 7.4 4.62 7.72C4.49 8.04 4.38 8.36 4.31 8.69C4.21 9.12 4.16 9.55 4.16 10C4.16 10.44 4.21 10.87 4.31 11.3C4.38 11.63 4.49 11.95 4.62 12.27C4.76 12.59 4.92 12.9 5.11 13.19C5.33 13.52 5.58 13.83 5.87 14.12C6.16 14.41 6.47 14.66 6.8 14.88C7.09 15.07 7.4 15.23 7.72 15.37C8.04 15.5 8.37 15.61 8.7 15.68C9.12 15.78 9.55 15.83 10 15.83ZM10.83 6.66L10.83 9.16L13.33 9.16C13.79 9.16 14.16 9.53 14.16 10C14.16 10.46 13.79 10.83 13.33 10.83L10 10.83C9.76 10.83 9.57 10.75 9.41 10.58C9.24 10.42 9.16 10.23 9.16 10L9.16 6.66C9.16 6.19 9.53 5.83 10 5.83C10.46 5.83 10.83 6.19 10.83 6.66Z" fill="currentColor" fill-opacity="1.000000" fill-rule="evenodd"/>
</svg>
