<svg xmlns="http://www.w3.org/2000/svg" xmlns:xlink="http://www.w3.org/1999/xlink" width="24.000000" height="24.000000" viewBox="0 0 24 24" fill="none">
	<g clip-path="url(#clip40564_72627)">
		<path id="vector" d="M8 16L7 16C6.78 16 6.56 15.97 6.36 15.93C6.18 15.89 6 15.83 5.83 15.76C5.65 15.69 5.49 15.6 5.34 15.5C5.17 15.39 5.02 15.26 4.87 15.12C4.73 14.97 4.6 14.82 4.49 14.65C4.39 14.5 4.3 14.34 4.23 14.16C4.16 13.99 4.1 13.81 4.06 13.63C4.02 13.43 4 13.21 4 13L4 7C4 6.78 4.02 6.56 4.06 6.36C4.1 6.18 4.16 6 4.23 5.83C4.3 5.65 4.39 5.49 4.49 5.34C4.6 5.17 4.73 5.02 4.87 4.87C5.02 4.73 5.17 4.6 5.34 4.49C5.49 4.39 5.65 4.3 5.83 4.23C6 4.16 6.18 4.1 6.36 4.06C6.56 4.02 6.78 4 7 4L13 4C13.21 4 13.43 4.02 13.63 4.06C13.81 4.1 13.99 4.16 14.16 4.23C14.34 4.3 14.5 4.39 14.65 4.49C14.82 4.6 14.97 4.73 15.12 4.87C15.26 5.02 15.39 5.17 15.5 5.34C15.6 5.49 15.69 5.65 15.76 5.83C15.83 6 15.89 6.18 15.93 6.36C15.97 6.56 16 6.78 16 7L16 8L17 8C17.21 8 17.43 8.02 17.63 8.06C17.81 8.1 17.99 8.16 18.16 8.23C18.34 8.3 18.5 8.39 18.65 8.49C18.82 8.6 18.97 8.73 19.12 8.87C19.26 9.02 19.39 9.17 19.5 9.34C19.6 9.49 19.69 9.65 19.76 9.83C19.83 10 19.89 10.18 19.93 10.36C19.97 10.56 20 10.78 20 11L20 12C20 12.56 19.56 13 19 13C18.44 13 18 12.56 18 12L18 11C18 10.91 17.99 10.83 17.97 10.75C17.95 10.7 17.94 10.65 17.92 10.61C17.89 10.55 17.87 10.5 17.84 10.46C17.8 10.4 17.75 10.34 17.7 10.29C17.65 10.24 17.59 10.19 17.53 10.15C17.49 10.12 17.44 10.1 17.38 10.07C17.34 10.05 17.29 10.04 17.24 10.02C17.16 10 17.08 10 17 10L11 10C10.91 10 10.83 10 10.75 10.02C10.7 10.04 10.65 10.05 10.61 10.07C10.55 10.1 10.5 10.12 10.46 10.15C10.4 10.19 10.34 10.24 10.29 10.29C10.24 10.34 10.19 10.4 10.15 10.46C10.12 10.5 10.1 10.55 10.07 10.61C10.05 10.65 10.04 10.7 10.02 10.75C10 10.83 10 10.91 10 11L10 17C10 17.08 10 17.16 10.02 17.24C10.04 17.29 10.05 17.34 10.07 17.38C10.1 17.44 10.12 17.49 10.15 17.53C10.19 17.59 10.24 17.65 10.29 17.7C10.34 17.75 10.4 17.8 10.46 17.84C10.5 17.87 10.55 17.89 10.61 17.92C10.65 17.94 10.7 17.95 10.75 17.97C10.83 17.99 10.91 18 11 18L12 18C12.56 18 13 18.44 13 19C13 19.56 12.56 20 12 20L11 20C10.78 20 10.56 19.97 10.36 19.93C10.18 19.89 10 19.83 9.83 19.76C9.65 19.69 9.49 19.6 9.34 19.5C9.17 19.39 9.02 19.26 8.87 19.12C8.73 18.97 8.6 18.82 8.49 18.65C8.39 18.5 8.3 18.34 8.23 18.16C8.16 17.99 8.1 17.81 8.06 17.63C8.02 17.43 8 17.21 8 17L8 16ZM8 14L7 14C6.91 14 6.83 13.99 6.75 13.97C6.7 13.95 6.65 13.94 6.61 13.92C6.55 13.89 6.5 13.87 6.46 13.84C6.4 13.8 6.34 13.75 6.29 13.7C6.24 13.65 6.19 13.59 6.15 13.53C6.12 13.49 6.1 13.44 6.07 13.38C6.05 13.34 6.04 13.29 6.02 13.24C6 13.16 6 13.08 6 13L6 7C6 6.91 6 6.83 6.02 6.75C6.04 6.7 6.05 6.65 6.07 6.61C6.1 6.55 6.12 6.5 6.15 6.46C6.19 6.4 6.24 6.34 6.29 6.29C6.34 6.24 6.4 6.19 6.46 6.15C6.5 6.12 6.55 6.1 6.61 6.07C6.65 6.05 6.7 6.04 6.75 6.02C6.83 6 6.91 6 7 6L13 6C13.08 6 13.16 6 13.24 6.02C13.29 6.04 13.34 6.05 13.38 6.07C13.44 6.1 13.49 6.12 13.53 6.15C13.59 6.19 13.65 6.24 13.7 6.29C13.75 6.34 13.8 6.4 13.84 6.46C13.87 6.5 13.89 6.55 13.92 6.61C13.94 6.65 13.95 6.7 13.97 6.75C13.99 6.83 14 6.91 14 7L14 8L11 8C10.78 8 10.56 8.02 10.36 8.06C10.18 8.1 10 8.16 9.83 8.23C9.65 8.3 9.49 8.39 9.34 8.49C9.17 8.6 9.02 8.73 8.87 8.87C8.73 9.02 8.6 9.17 8.49 9.34C8.39 9.49 8.3 9.65 8.23 9.83C8.16 10 8.1 10.18 8.06 10.36C8.02 10.56 8 10.78 8 11L8 14ZM19 15C18.44 15 18 15.44 18 16L18 18L16 18C15.44 18 15 18.44 15 19C15 19.56 15.44 20 16 20L18 20L18 22C18 22.56 18.44 23 19 23C19.56 23 20 22.56 20 22L20 20L22 20C22.56 20 23 19.56 23 19C23 18.44 22.56 18 22 18L20 18L20 16C20 15.44 19.56 15 19 15Z" fill="currentColor" fill-opacity="1.000000" fill-rule="evenodd"/>
	</g>
</svg>