<svg xmlns="http://www.w3.org/2000/svg" xmlns:xlink="http://www.w3.org/1999/xlink" width="24.000000" height="24.000000" viewBox="0 0 24 24" fill="none">
	<path id="vector" d="M20.89 14.11C20.96 13.86 21 13.6 21 13.33L21 10.66C21 10.39 20.96 10.13 20.89 9.88C20.82 9.63 20.72 9.38 20.58 9.15C20.45 8.92 20.29 8.71 20.1 8.52C19.91 8.34 19.7 8.18 19.47 8.05L13.47 4.67C13.24 4.55 13 4.45 12.76 4.39C12.51 4.32 12.26 4.29 12 4.29C11.73 4.29 11.48 4.32 11.23 4.39C10.99 4.45 10.75 4.55 10.52 4.67L4.52 8.05C4.29 8.18 4.08 8.34 3.89 8.52C3.7 8.71 3.54 8.92 3.41 9.15C3.27 9.38 3.17 9.63 3.1 9.88C3.03 10.13 3 10.39 3 10.66L3 13.33C3 13.6 3.03 13.86 3.1 14.11C3.17 14.36 3.27 14.61 3.41 14.84C3.54 15.07 3.7 15.28 3.89 15.47C4.08 15.65 4.29 15.81 4.52 15.94L10.52 19.32C10.75 19.44 10.99 19.54 11.23 19.6C11.48 19.67 11.73 19.7 12 19.7C12.26 19.7 12.51 19.67 12.76 19.6C13 19.54 13.24 19.44 13.47 19.32L19.47 15.94C19.7 15.81 19.91 15.65 20.1 15.47C20.29 15.28 20.45 15.07 20.58 14.84C20.72 14.61 20.82 14.36 20.89 14.11ZM13 6.7L13 9.41L15.55 10.85L17.96 9.5L13 6.7ZM6.03 9.5L11 6.7L11 9.41L8.44 10.85L6.03 9.5ZM13.51 12L12 11.14L10.48 12L12 12.85L13.51 12ZM6.4 12L5 11.2L5 12.79L6.4 12ZM19 12.79L17.59 12L19 11.2L19 12.79ZM11 14.58L8.44 13.14L6.03 14.5L11 17.29L11 14.58ZM13 14.58L15.55 13.14L17.96 14.5L13 17.29L13 14.58Z" fill="currentColor" fill-opacity="1.000000" fill-rule="evenodd"/>
</svg>