<svg xmlns="http://www.w3.org/2000/svg" xmlns:xlink="http://www.w3.org/1999/xlink" width="24.000000" height="24.000000" viewBox="0 0 24 24" fill="none">
	<path id="vector" d="M21 8.66L21 12.42C21 12.47 21 12.53 21 12.58L21 15.33C21 15.6 20.96 15.86 20.89 16.11C20.82 16.36 20.72 16.61 20.58 16.84C20.45 17.07 20.29 17.28 20.1 17.47C19.91 17.65 19.7 17.81 19.47 17.94L13.47 21.32C13.24 21.44 13 21.54 12.76 21.6C12.51 21.67 12.26 21.7 12 21.7C11.73 21.7 11.48 21.67 11.23 21.6C10.99 21.54 10.75 21.44 10.52 21.32L4.52 17.94C4.29 17.81 4.08 17.65 3.89 17.47C3.7 17.28 3.54 17.07 3.41 16.84C3.27 16.61 3.17 16.36 3.1 16.11C3.03 15.86 3 15.6 3 15.33L3 12.58C2.99 12.53 2.99 12.47 3 12.42L3 8.66C3 8.39 3.03 8.13 3.1 7.88C3.17 7.63 3.27 7.38 3.41 7.15C3.54 6.92 3.7 6.71 3.89 6.52C4.08 6.34 4.29 6.18 4.52 6.05L10.52 2.67C10.75 2.55 10.99 2.45 11.23 2.39C11.48 2.32 11.73 2.29 12 2.29C12.26 2.29 12.51 2.32 12.76 2.39C13 2.45 13.24 2.55 13.47 2.67L19.47 6.05C19.7 6.18 19.91 6.34 20.1 6.52C20.29 6.71 20.45 6.92 20.58 7.15C20.72 7.38 20.82 7.63 20.89 7.88C20.96 8.13 21 8.39 21 8.66ZM12 5.85L10.48 5L11.5 4.42C11.58 4.38 11.66 4.34 11.74 4.32C11.82 4.3 11.91 4.29 12 4.29C12.08 4.29 12.17 4.3 12.25 4.32C12.33 4.34 12.41 4.38 12.49 4.42L13.51 5L12 5.85ZM6.03 7.5L8.44 6.14L11.5 7.87C11.58 7.91 11.66 7.94 11.74 7.96C11.82 7.98 11.91 8 12 8C12.08 8 12.17 7.98 12.25 7.96C12.33 7.94 12.41 7.91 12.49 7.87L15.55 6.14L17.96 7.5L12 10.85L6.03 7.5ZM19 9.2L19 11.91L16 13.59C15.93 13.64 15.86 13.69 15.79 13.75C15.73 13.81 15.68 13.88 15.63 13.96C15.59 14.04 15.55 14.12 15.53 14.2C15.51 14.29 15.5 14.37 15.5 14.46L15.5 17.88L13 19.29L13 12.58L19 9.2ZM11 12.58L5 9.2L5 11.91L7.99 13.59C8.06 13.64 8.13 13.69 8.2 13.75C8.26 13.81 8.31 13.88 8.36 13.96C8.4 14.04 8.44 14.12 8.46 14.2C8.48 14.29 8.5 14.37 8.5 14.46L8.5 17.88L11 19.29L11 12.58ZM6.5 16.75L6.5 15.05L5 14.2L5 15.33C5 15.42 5.01 15.5 5.03 15.59C5.05 15.67 5.09 15.75 5.13 15.83C5.18 15.91 5.23 15.98 5.29 16.04C5.36 16.1 5.43 16.15 5.5 16.2L6.5 16.75ZM17.5 15.05L19 14.2L19 15.33C19 15.42 18.98 15.5 18.96 15.59C18.94 15.67 18.9 15.75 18.86 15.83C18.81 15.91 18.76 15.98 18.7 16.04C18.63 16.1 18.56 16.15 18.49 16.2L17.5 16.75L17.5 15.05Z" fill="currentColor" fill-opacity="1.000000" fill-rule="evenodd"/>
</svg>