<svg width="24" height="24" viewBox="0 0 24 24" fill="none" xmlns="http://www.w3.org/2000/svg">
<path fill-rule="evenodd" clip-rule="evenodd" d="M6.00049 7C6.00049 6.44728 6.44777 6 7.00049 6H8.00098C8.55369 6 9.00098 6.44728 9.00098 7V17C9.00098 17.5527 8.55369 18 8.00098 18H7.00049C6.44777 18 6.00049 17.5527 6.00049 17V7ZM7.00049 4C5.3432 4 4.00049 5.34272 4.00049 7V17C4.00049 18.6573 5.3432 20 7.00049 20H8.00098C9.65826 20 11.001 18.6573 11.001 17V7C11.001 5.34272 9.65826 4 8.00098 4H7.00049ZM20.7076 8.70711C21.0981 8.31658 21.0981 7.68342 20.7076 7.29289C20.3171 6.90237 19.6839 6.90237 19.2934 7.29289L15.2934 11.2929C14.9029 11.6834 14.9029 12.3166 15.2934 12.7071L19.2934 16.7071C19.6839 17.0976 20.3171 17.0976 20.7076 16.7071C21.0981 16.3166 21.0981 15.6834 20.7076 15.2929L17.4147 12L20.7076 8.70711Z" fill="currentColor"/>
</svg>
