<svg width="20.000000" height="20.000000" viewBox="0 0 20 20" fill="none" xmlns="http://www.w3.org/2000/svg" xmlns:xlink="http://www.w3.org/1999/xlink">
	<path id="vector" d="M15.71 14.64C15.83 14.56 15.94 14.47 16.04 14.37C16.14 14.27 16.23 14.16 16.3 14.05C16.38 13.93 16.45 13.81 16.5 13.68C16.55 13.55 16.59 13.42 16.62 13.28C16.65 13.14 16.66 13.01 16.66 12.87L16.66 6.29C16.66 6.15 16.65 6.01 16.62 5.88C16.59 5.74 16.55 5.61 16.5 5.48C16.45 5.35 16.38 5.22 16.3 5.11C16.23 4.99 16.14 4.89 16.04 4.79C15.94 4.69 15.83 4.6 15.71 4.52C15.6 4.44 15.48 4.38 15.35 4.32C15.22 4.27 15.08 4.23 14.95 4.2C14.81 4.17 14.67 4.16 14.53 4.16L5.46 4.16C5.32 4.16 5.18 4.17 5.04 4.2C4.91 4.23 4.77 4.27 4.64 4.32C4.51 4.38 4.39 4.44 4.27 4.52C4.16 4.6 4.05 4.69 3.95 4.79C3.85 4.89 3.76 4.99 3.69 5.11C3.61 5.22 3.54 5.35 3.49 5.48C3.44 5.61 3.4 5.74 3.37 5.88C3.34 6.01 3.33 6.15 3.33 6.29L3.33 16.66C3.33 16.77 3.35 16.88 3.39 16.98C3.43 17.08 3.49 17.17 3.57 17.25C3.74 17.41 3.93 17.49 4.16 17.49C4.39 17.49 4.59 17.41 4.75 17.25L7.01 14.99L14.53 14.99C14.67 14.99 14.81 14.98 14.95 14.95C15.08 14.93 15.22 14.89 15.35 14.83C15.48 14.78 15.6 14.71 15.71 14.64ZM14.96 13.04C14.94 13.1 14.9 13.15 14.86 13.19C14.81 13.24 14.76 13.27 14.71 13.29C14.66 13.32 14.6 13.33 14.53 13.33L6.66 13.33C6.55 13.33 6.44 13.35 6.34 13.39C6.24 13.43 6.15 13.49 6.07 13.57L5 14.65L5 6.29C5 6.23 5.01 6.17 5.03 6.11C5.05 6.06 5.08 6.01 5.13 5.96C5.18 5.92 5.23 5.88 5.28 5.86C5.33 5.84 5.39 5.83 5.46 5.83L14.53 5.83C14.6 5.83 14.66 5.84 14.71 5.86C14.76 5.88 14.81 5.92 14.86 5.96C14.9 6.01 14.94 6.06 14.96 6.11C14.98 6.17 15 6.23 15 6.29L15 12.87C15 12.93 14.98 12.99 14.96 13.04Z" fill="currentColor" fill-opacity="1.000000" fill-rule="evenodd"/>
</svg>
