<svg xmlns="http://www.w3.org/2000/svg" xmlns:xlink="http://www.w3.org/1999/xlink" width="24.000000" height="24.000000" viewBox="0 0 24 24" fill="none">
	<g>
		<path id="vector" d="M18.67 14.17L20.97 4.22C20.98 4.18 20.98 4.15 20.99 4.11C20.99 4.07 21 4.03 21 3.99C21 3.96 20.99 3.92 20.99 3.88C20.98 3.84 20.98 3.81 20.97 3.77C20.94 3.64 20.89 3.52 20.81 3.41C20.74 3.31 20.64 3.22 20.53 3.15C20.41 3.07 20.29 3.03 20.16 3.01C20.03 2.98 19.9 2.99 19.77 3.02L9.82 5.32C9.53 5.38 9.24 5.47 8.97 5.58C8.72 5.68 8.48 5.79 8.24 5.92C8 6.06 7.78 6.2 7.56 6.36C7.34 6.53 7.12 6.72 6.92 6.92C6.72 7.12 6.53 7.34 6.36 7.56C6.2 7.78 6.06 8 5.92 8.24C5.79 8.48 5.68 8.72 5.58 8.97C5.47 9.24 5.38 9.53 5.32 9.82L3.02 19.77C3.01 19.81 3.01 19.84 3 19.88C3 19.92 3 19.96 3 20C3 20.03 3 20.07 3 20.11C3.01 20.15 3.01 20.18 3.02 20.22C3.05 20.35 3.1 20.47 3.18 20.58C3.25 20.68 3.35 20.77 3.47 20.84C3.58 20.92 3.7 20.96 3.83 20.98C3.96 21.01 4.09 21 4.22 20.97L14.17 18.67C14.46 18.61 14.75 18.52 15.02 18.41C15.27 18.31 15.51 18.2 15.75 18.07C15.99 17.93 16.21 17.79 16.43 17.63C16.65 17.46 16.87 17.27 17.07 17.07C17.27 16.87 17.46 16.65 17.63 16.43C17.79 16.21 17.93 15.99 18.07 15.75C18.2 15.51 18.31 15.27 18.41 15.02C18.52 14.75 18.61 14.46 18.67 14.17ZM18.66 5.33L10.26 7.27C10.07 7.31 9.88 7.37 9.69 7.45C9.53 7.51 9.37 7.59 9.22 7.67C9.06 7.76 8.91 7.85 8.77 7.96C8.62 8.07 8.47 8.2 8.34 8.34C8.2 8.47 8.07 8.62 7.96 8.77C7.85 8.91 7.76 9.06 7.67 9.22C7.59 9.37 7.51 9.53 7.45 9.69C7.37 9.88 7.31 10.07 7.27 10.26L6.52 13.52L10.47 17.47L13.73 16.72C13.92 16.68 14.11 16.62 14.3 16.54C14.46 16.48 14.62 16.4 14.77 16.32C14.93 16.23 15.08 16.14 15.22 16.03C15.37 15.92 15.52 15.79 15.65 15.65C15.79 15.52 15.92 15.37 16.03 15.22C16.14 15.08 16.23 14.93 16.32 14.77C16.4 14.62 16.48 14.46 16.54 14.3C16.62 14.11 16.68 13.92 16.72 13.73L18.66 5.33ZM12 9C10.34 9 9 10.34 9 11.99C9 13.65 10.34 14.99 12 14.99C13.65 14.99 15 13.65 15 11.99C15 10.34 13.65 9 12 9ZM12 10.99C11.44 10.99 11 11.44 11 11.99C11 12.55 11.44 12.99 12 12.99C12.55 12.99 13 12.55 13 11.99C13 11.44 12.55 10.99 12 10.99Z" fill="currentColor" fill-opacity="1.000000" fill-rule="evenodd"/>
	</g>
</svg>