<svg xmlns="http://www.w3.org/2000/svg" xmlns:xlink="http://www.w3.org/1999/xlink" width="24.000000" height="24.000000" viewBox="0 0 24 24" fill="none">
	<path id="vector" d="M18.63 8.22L14.7 4.29C14.3 3.89 13.68 3.89 13.28 4.29C12.89 4.68 12.89 5.31 13.28 5.7L15.57 7.99L5.99 7.99C5.43 7.99 5 8.43 5 8.99C5 9.55 5.43 9.99 5.99 9.99L17.9 9.99C18.06 10.01 18.22 9.98 18.37 9.92C18.62 9.82 18.81 9.62 18.91 9.38C19.02 9.13 19.02 8.85 18.91 8.61C18.85 8.46 18.75 8.33 18.63 8.22ZM5.35 15.76C5.23 15.66 5.13 15.52 5.07 15.37C4.96 15.13 4.96 14.85 5.07 14.61C5.17 14.36 5.36 14.16 5.61 14.06C5.76 14 5.92 13.98 6.08 13.99L17.99 13.99C18.55 13.99 18.99 14.43 18.99 14.99C18.99 15.55 18.55 15.99 17.99 15.99L8.41 15.99L10.7 18.28C11.09 18.68 11.09 19.3 10.7 19.69C10.3 20.09 9.68 20.09 9.29 19.69L5.35 15.76Z" fill="currentColor" fill-opacity="1.000000" fill-rule="evenodd"/>
</svg>