<svg xmlns="http://www.w3.org/2000/svg" xmlns:xlink="http://www.w3.org/1999/xlink" width="24.000000" height="24.000000" viewBox="0 0 24 24" fill="none">
	<g>
		<path id="vector" d="M7.7 3.29L9.7 5.29C9.9 5.48 10 5.72 10 6C10 6.27 9.9 6.51 9.7 6.7L7.7 8.7C7.31 9.1 6.68 9.1 6.29 8.7C5.89 8.31 5.89 7.68 6.29 7.29L6.58 7L5 7C4.91 7 4.83 7 4.75 7.02C4.7 7.04 4.65 7.05 4.61 7.07C4.55 7.1 4.5 7.12 4.46 7.15C4.4 7.19 4.34 7.24 4.29 7.29C4.24 7.34 4.19 7.4 4.15 7.46C4.12 7.5 4.1 7.55 4.07 7.61C4.05 7.65 4.04 7.7 4.02 7.75C4 7.83 4 7.91 4 8L4 16C4 16.08 4 16.16 4.02 16.24C4.04 16.29 4.05 16.34 4.07 16.38C4.1 16.44 4.12 16.49 4.15 16.53C4.19 16.59 4.24 16.65 4.29 16.7C4.34 16.75 4.4 16.8 4.46 16.84C4.5 16.87 4.55 16.89 4.61 16.92C4.65 16.94 4.7 16.95 4.75 16.97C4.83 16.99 4.91 17 5 17L11 17C11.56 17 12 17.43 12 18C12 18.55 11.56 19 11 19L5 19C4.78 19 4.56 18.97 4.36 18.93C4.18 18.89 4 18.83 3.83 18.76C3.65 18.69 3.49 18.6 3.34 18.5C3.17 18.39 3.02 18.26 2.87 18.12C2.73 17.97 2.6 17.82 2.49 17.65C2.39 17.5 2.3 17.34 2.23 17.16C2.16 16.99 2.1 16.81 2.06 16.63C2.02 16.43 2 16.21 2 16L2 8C2 7.78 2.02 7.56 2.06 7.36C2.1 7.18 2.16 7 2.23 6.83C2.3 6.65 2.39 6.49 2.49 6.34C2.6 6.17 2.73 6.02 2.87 5.87C3.02 5.73 3.17 5.6 3.34 5.49C3.49 5.39 3.65 5.3 3.83 5.23C4 5.16 4.18 5.1 4.36 5.06C4.56 5.02 4.78 5 5 5L6.58 5L6.29 4.7C5.89 4.31 5.89 3.68 6.29 3.29C6.68 2.89 7.31 2.89 7.7 3.29ZM19 5L13 5C12.44 5 12 5.43 12 6C12 6.55 12.44 7 13 7L19 7C19.08 7 19.16 7 19.24 7.02C19.29 7.04 19.34 7.05 19.38 7.07C19.44 7.1 19.49 7.12 19.53 7.15C19.59 7.19 19.65 7.24 19.7 7.29C19.75 7.34 19.8 7.4 19.84 7.46C19.87 7.5 19.89 7.55 19.92 7.61C19.94 7.65 19.95 7.7 19.97 7.75C19.99 7.83 20 7.91 20 8L20 16C20 16.08 19.99 16.16 19.97 16.24C19.95 16.29 19.94 16.34 19.92 16.38C19.89 16.44 19.87 16.49 19.84 16.53C19.8 16.59 19.75 16.65 19.7 16.7C19.65 16.75 19.59 16.8 19.53 16.84C19.49 16.87 19.44 16.89 19.38 16.92C19.34 16.94 19.29 16.95 19.24 16.97C19.16 16.99 19.08 17 19 17L17.41 17L17.7 16.7C18.1 16.31 18.1 15.68 17.7 15.29C17.31 14.89 16.68 14.89 16.29 15.29L14.35 17.22C14.25 17.31 14.16 17.42 14.1 17.55C14.05 17.67 14 17.86 14 18C14 18.13 14.02 18.26 14.07 18.38C14.13 18.51 14.24 18.68 14.35 18.77L16.29 20.7C16.68 21.1 17.31 21.1 17.7 20.7C18.1 20.31 18.1 19.68 17.7 19.29L17.41 19L19 19C19.21 19 19.43 18.97 19.63 18.93C19.81 18.89 19.99 18.83 20.16 18.76C20.34 18.69 20.5 18.6 20.65 18.5C20.82 18.39 20.97 18.26 21.12 18.12C21.26 17.97 21.39 17.82 21.5 17.65C21.6 17.5 21.69 17.34 21.76 17.16C21.83 16.99 21.89 16.81 21.93 16.63C21.97 16.43 22 16.21 22 16L22 8C22 7.78 21.97 7.56 21.93 7.36C21.89 7.18 21.83 7 21.76 6.83C21.69 6.65 21.6 6.49 21.5 6.34C21.39 6.17 21.26 6.02 21.12 5.87C20.97 5.73 20.82 5.6 20.65 5.49C20.5 5.39 20.34 5.3 20.16 5.23C19.99 5.16 19.81 5.1 19.63 5.06C19.43 5.02 19.21 5 19 5ZM11.36 14.93C11.56 14.97 11.78 15 12 15C12.21 15 12.43 14.97 12.63 14.93C12.81 14.89 12.99 14.83 13.16 14.76C13.33 14.69 13.5 14.6 13.65 14.5C13.82 14.39 13.97 14.26 14.12 14.12C14.26 13.97 14.39 13.82 14.5 13.65C14.6 13.5 14.69 13.33 14.76 13.16C14.83 12.99 14.89 12.81 14.93 12.63C14.97 12.43 15 12.21 15 12C15 11.78 14.97 11.56 14.93 11.36C14.89 11.18 14.83 11 14.76 10.83C14.69 10.65 14.6 10.49 14.5 10.34C14.39 10.17 14.26 10.02 14.12 9.87C13.97 9.73 13.82 9.6 13.65 9.49C13.5 9.39 13.34 9.3 13.16 9.23C12.99 9.16 12.81 9.1 12.63 9.06C12.43 9.02 12.21 9 12 9C11.78 9 11.56 9.02 11.36 9.06C11.18 9.1 11 9.16 10.83 9.23C10.65 9.3 10.49 9.39 10.34 9.49C10.17 9.6 10.02 9.73 9.87 9.87C9.73 10.02 9.6 10.17 9.49 10.34C9.39 10.49 9.3 10.65 9.23 10.83C9.16 11 9.1 11.18 9.06 11.36C9.02 11.56 9 11.78 9 12C9 12.21 9.02 12.43 9.06 12.63C9.1 12.81 9.16 12.99 9.23 13.16C9.3 13.34 9.39 13.5 9.49 13.65C9.6 13.82 9.73 13.97 9.87 14.12C10.02 14.26 10.17 14.39 10.34 14.5C10.49 14.6 10.65 14.69 10.83 14.76C11 14.83 11.18 14.89 11.36 14.93ZM12.24 12.97C12.16 12.99 12.08 13 12 13C11.91 13 11.83 12.99 11.75 12.97C11.7 12.95 11.65 12.94 11.61 12.92C11.55 12.89 11.5 12.87 11.46 12.84C11.4 12.8 11.34 12.75 11.29 12.7C11.24 12.65 11.19 12.59 11.15 12.53C11.12 12.49 11.1 12.44 11.07 12.38C11.05 12.34 11.04 12.29 11.02 12.24C11 12.16 11 12.08 11 12C11 11.91 11 11.83 11.02 11.75C11.04 11.7 11.05 11.65 11.07 11.61C11.1 11.55 11.12 11.5 11.15 11.46C11.19 11.4 11.24 11.34 11.29 11.29C11.34 11.24 11.4 11.19 11.46 11.15C11.5 11.12 11.55 11.1 11.61 11.07C11.65 11.05 11.7 11.04 11.75 11.02C11.83 11 11.91 11 12 11C12.08 11 12.16 11 12.24 11.02C12.29 11.04 12.34 11.05 12.38 11.07C12.44 11.1 12.49 11.12 12.53 11.15C12.59 11.19 12.65 11.24 12.7 11.29C12.75 11.34 12.8 11.4 12.84 11.46C12.87 11.5 12.89 11.55 12.92 11.61C12.94 11.65 12.95 11.7 12.97 11.75C12.99 11.83 13 11.91 13 12C13 12.08 12.99 12.16 12.97 12.24C12.95 12.29 12.94 12.34 12.92 12.38C12.89 12.44 12.87 12.49 12.84 12.53C12.8 12.59 12.75 12.65 12.7 12.7C12.65 12.75 12.59 12.8 12.53 12.84C12.49 12.87 12.44 12.89 12.38 12.92C12.34 12.94 12.29 12.95 12.24 12.97Z" fill="currentColor" fill-opacity="1.000000" fill-rule="evenodd"/>
	</g>
</svg>