<svg xmlns="http://www.w3.org/2000/svg" xmlns:xlink="http://www.w3.org/1999/xlink" width="24.000000" height="24.000000" viewBox="0 0 24 24" fill="none">
	<path id="vector" d="M13.41 11.99L19.7 5.7C20.1 5.31 20.1 4.68 19.7 4.29C19.31 3.89 18.68 3.89 18.29 4.29L11.99 10.58L5.7 4.29C5.31 3.89 4.68 3.89 4.29 4.29C3.89 4.68 3.89 5.31 4.29 5.7L10.58 11.99L4.29 18.29C3.89 18.68 3.89 19.31 4.29 19.7C4.68 20.1 5.31 20.1 5.7 19.7L11.99 13.41L18.29 19.7C18.68 20.1 19.31 20.1 19.7 19.7C20.1 19.31 20.1 18.68 19.7 18.29L13.41 11.99Z" fill="currentColor" fill-opacity="1.000000" fill-rule="evenodd"/>
</svg>