<svg xmlns="http://www.w3.org/2000/svg" xmlns:xlink="http://www.w3.org/1999/xlink" width="24.000000" height="24.000000" viewBox="0 0 24 24" fill="none">
	<path id="vector" d="M19.7 5.7L10.57 14.83C10.63 14.93 10.68 15.03 10.72 15.13C10.8 15.33 10.87 15.54 10.92 15.75C10.97 15.99 11 16.24 11 16.5C11 16.75 10.97 17 10.92 17.24C10.87 17.45 10.8 17.66 10.72 17.86C10.63 18.06 10.53 18.25 10.42 18.43C10.29 18.62 10.14 18.8 9.97 18.97C9.8 19.14 9.62 19.29 9.43 19.42C9.25 19.53 9.06 19.63 8.86 19.72C8.66 19.8 8.45 19.87 8.24 19.92C8 19.97 7.75 20 7.5 20C7.24 20 6.99 19.97 6.75 19.92C6.54 19.87 6.33 19.8 6.13 19.72C5.93 19.63 5.74 19.53 5.56 19.42C5.37 19.29 5.19 19.14 5.02 18.97C4.85 18.8 4.7 18.62 4.57 18.43C4.46 18.25 4.36 18.06 4.27 17.86C4.19 17.66 4.12 17.45 4.07 17.24C4.02 17 4 16.75 4 16.5C4 16.24 4.02 15.99 4.07 15.75C4.12 15.54 4.19 15.33 4.27 15.13C4.36 14.93 4.46 14.74 4.57 14.56C4.7 14.37 4.85 14.19 5.02 14.02C5.19 13.85 5.37 13.7 5.56 13.57C5.74 13.46 5.93 13.36 6.13 13.27C6.33 13.19 6.54 13.12 6.75 13.07C6.99 13.02 7.24 13 7.5 13C7.75 13 8 13.02 8.24 13.07C8.45 13.12 8.66 13.19 8.86 13.27C8.96 13.31 9.06 13.36 9.16 13.42L10.58 12L9.16 10.57C9.06 10.63 8.96 10.68 8.86 10.72C8.66 10.8 8.45 10.87 8.24 10.92C8 10.97 7.75 11 7.5 11C7.24 11 6.99 10.97 6.75 10.92C6.54 10.87 6.33 10.8 6.13 10.72C5.93 10.63 5.74 10.53 5.56 10.42C5.37 10.29 5.19 10.14 5.02 9.97C4.85 9.8 4.7 9.62 4.57 9.43C4.46 9.25 4.36 9.06 4.27 8.86C4.19 8.66 4.12 8.45 4.07 8.24C4.02 8 4 7.75 4 7.5C4 7.24 4.02 6.99 4.07 6.75C4.12 6.54 4.19 6.33 4.27 6.13C4.36 5.93 4.46 5.74 4.57 5.56C4.7 5.37 4.85 5.19 5.02 5.02C5.19 4.85 5.37 4.7 5.56 4.57C5.74 4.46 5.93 4.36 6.13 4.27C6.33 4.19 6.54 4.12 6.75 4.07C6.99 4.02 7.24 4 7.5 4C7.75 4 8 4.02 8.24 4.07C8.45 4.12 8.66 4.19 8.86 4.27C9.06 4.36 9.25 4.46 9.43 4.57C9.62 4.7 9.8 4.85 9.97 5.02C10.14 5.19 10.29 5.37 10.42 5.56C10.53 5.74 10.63 5.93 10.72 6.13C10.8 6.33 10.87 6.54 10.92 6.75C10.97 6.99 11 7.24 11 7.5C11 7.75 10.97 8 10.92 8.24C10.87 8.45 10.8 8.66 10.72 8.86C10.68 8.96 10.63 9.06 10.57 9.16L12 10.58L18.29 4.29C18.68 3.89 19.31 3.89 19.7 4.29C20.1 4.68 20.1 5.31 19.7 5.7ZM8.08 8.88C8 8.91 7.92 8.94 7.85 8.95C7.73 8.98 7.62 9 7.5 9C7.37 9 7.26 8.98 7.14 8.95C7.07 8.94 6.99 8.91 6.91 8.88C6.73 8.8 6.57 8.69 6.43 8.56C6.3 8.42 6.19 8.26 6.11 8.08C6.08 8 6.05 7.92 6.04 7.85C6.01 7.73 6 7.62 6 7.5C6 7.37 6.01 7.26 6.04 7.14C6.05 7.07 6.08 6.99 6.11 6.91C6.19 6.73 6.3 6.57 6.43 6.43C6.57 6.3 6.73 6.19 6.91 6.11C6.99 6.08 7.07 6.05 7.14 6.04C7.26 6.01 7.37 6 7.5 6C7.62 6 7.73 6.01 7.85 6.04C7.92 6.05 8 6.08 8.08 6.11C8.26 6.19 8.42 6.3 8.56 6.43C8.69 6.57 8.8 6.73 8.88 6.91C8.91 6.99 8.94 7.06 8.95 7.14C8.98 7.26 9 7.37 9 7.5C9 7.62 8.98 7.73 8.95 7.85C8.94 7.92 8.91 8 8.88 8.08C8.8 8.26 8.69 8.42 8.56 8.56C8.42 8.69 8.26 8.8 8.08 8.88ZM15.2 13.79C14.81 13.39 14.18 13.39 13.79 13.79C13.39 14.18 13.39 14.81 13.79 15.2L18.29 19.7C18.68 20.1 19.31 20.1 19.7 19.7C20.1 19.31 20.1 18.68 19.7 18.29L15.2 13.79ZM7.85 17.95C7.92 17.94 8 17.91 8.08 17.88C8.26 17.8 8.42 17.69 8.56 17.56C8.69 17.42 8.8 17.26 8.88 17.08C8.96 16.89 9 16.7 9 16.5C9 16.29 8.96 16.1 8.88 15.91C8.8 15.73 8.69 15.57 8.56 15.43C8.42 15.3 8.26 15.19 8.08 15.11C8 15.08 7.92 15.05 7.85 15.04C7.73 15.01 7.62 15 7.5 15C7.37 15 7.26 15.01 7.14 15.04C7.07 15.05 6.99 15.08 6.91 15.11C6.73 15.19 6.57 15.3 6.43 15.43C6.3 15.57 6.19 15.73 6.11 15.91C6.08 15.99 6.05 16.07 6.04 16.14C6.01 16.26 6 16.37 6 16.5C6 16.7 6.03 16.89 6.11 17.08C6.19 17.26 6.3 17.42 6.43 17.56C6.57 17.69 6.73 17.8 6.91 17.88C6.99 17.91 7.06 17.94 7.14 17.95C7.26 17.98 7.37 18 7.5 18C7.62 18 7.73 17.98 7.85 17.95Z" fill="currentColor" fill-opacity="1.000000" fill-rule="evenodd"/>
</svg>