<svg xmlns="http://www.w3.org/2000/svg" xmlns:xlink="http://www.w3.org/1999/xlink" width="24.000000" height="24.000000" viewBox="0 0 24 24" fill="none">
	<g>
		<path id="vector" d="M6.4 17L6 17C5.78 17 5.56 16.97 5.36 16.93C5.18 16.89 5 16.83 4.83 16.76C4.65 16.69 4.49 16.6 4.34 16.5C4.17 16.39 4.02 16.26 3.87 16.12C3.73 15.97 3.6 15.82 3.49 15.65C3.39 15.5 3.3 15.34 3.23 15.16C3.16 14.99 3.1 14.81 3.06 14.63C3.02 14.43 3 14.21 3 14L3 8C3 7.78 3.02 7.56 3.06 7.36C3.1 7.18 3.16 7 3.23 6.83C3.3 6.65 3.39 6.49 3.49 6.34C3.6 6.17 3.73 6.02 3.87 5.87C4.02 5.73 4.17 5.6 4.34 5.49C4.49 5.39 4.65 5.3 4.83 5.23C5 5.16 5.18 5.1 5.36 5.06C5.56 5.02 5.78 5 6 5L18 5C18.21 5 18.43 5.02 18.63 5.06C18.81 5.1 18.99 5.16 19.16 5.23C19.34 5.3 19.5 5.39 19.65 5.49C19.82 5.6 19.97 5.73 20.12 5.87C20.26 6.02 20.39 6.17 20.5 6.34C20.6 6.49 20.69 6.65 20.76 6.83C20.83 7 20.89 7.18 20.93 7.36C20.97 7.56 21 7.78 21 8L21 14C21 14.21 20.97 14.43 20.93 14.63C20.89 14.81 20.83 14.99 20.76 15.16C20.69 15.34 20.6 15.5 20.5 15.65C20.39 15.82 20.26 15.97 20.12 16.12C19.97 16.26 19.82 16.39 19.65 16.5C19.5 16.6 19.34 16.69 19.16 16.76C18.99 16.83 18.81 16.89 18.63 16.93C18.43 16.97 18.21 17 18 17L17.6 17C17.04 17 16.6 16.56 16.6 16C16.6 15.43 17.04 15 17.6 15L18 15C18.08 15 18.16 14.99 18.24 14.97C18.29 14.95 18.34 14.94 18.38 14.92C18.44 14.89 18.49 14.87 18.53 14.84C18.59 14.8 18.65 14.75 18.7 14.7C18.75 14.65 18.8 14.59 18.84 14.53C18.87 14.49 18.89 14.44 18.92 14.38C18.94 14.34 18.95 14.29 18.97 14.24C18.99 14.16 19 14.08 19 14L19 8C19 7.91 18.99 7.83 18.97 7.75C18.95 7.7 18.94 7.65 18.92 7.61C18.89 7.55 18.87 7.5 18.84 7.46C18.8 7.4 18.75 7.34 18.7 7.29C18.65 7.24 18.59 7.19 18.53 7.15C18.49 7.12 18.44 7.1 18.38 7.07C18.34 7.05 18.29 7.04 18.24 7.02C18.16 7 18.08 7 18 7L6 7C5.91 7 5.83 7 5.75 7.02C5.7 7.04 5.65 7.05 5.61 7.07C5.55 7.1 5.5 7.12 5.46 7.15C5.4 7.19 5.34 7.24 5.29 7.29C5.24 7.34 5.19 7.4 5.15 7.46C5.12 7.5 5.1 7.55 5.07 7.61C5.05 7.65 5.04 7.7 5.02 7.75C5 7.83 5 7.91 5 8L5 14C5 14.08 5 14.16 5.02 14.24C5.04 14.29 5.05 14.34 5.07 14.38C5.1 14.44 5.12 14.49 5.15 14.53C5.19 14.59 5.24 14.65 5.29 14.7C5.34 14.75 5.4 14.8 5.46 14.84C5.5 14.87 5.55 14.89 5.61 14.92C5.65 14.94 5.7 14.95 5.75 14.97C5.83 14.99 5.91 15 6 15L6.4 15C6.96 15 7.4 15.43 7.4 16C7.4 16.56 6.96 17 6.4 17ZM7.29 19.7C7.48 19.9 7.72 20 8 20L16 20C16.13 20 16.26 19.97 16.38 19.92C16.5 19.87 16.61 19.8 16.7 19.7C16.9 19.51 17 19.27 17 19C17 18.72 16.9 18.48 16.7 18.29L12.7 14.29C12.51 14.09 12.27 14 12 14C11.72 14 11.48 14.09 11.29 14.29L7.29 18.29C7.19 18.38 7.12 18.49 7.07 18.61C7.02 18.73 7 18.86 7 19C7 19.27 7.09 19.51 7.29 19.7ZM13.58 18L12 16.41L10.41 18L13.58 18Z" fill="currentColor" fill-opacity="1.000000" fill-rule="evenodd"/>
	</g>
</svg>