<svg xmlns="http://www.w3.org/2000/svg" xmlns:xlink="http://www.w3.org/1999/xlink" width="24.000000" height="24.000000" viewBox="0 0 24 24" fill="none">
	<g>
		<path id="vector" d="M14 5L4 5C3.85 5 3.71 5.01 3.58 5.04C3.45 5.06 3.33 5.1 3.22 5.15C3.1 5.2 2.99 5.26 2.89 5.33C2.78 5.4 2.68 5.49 2.58 5.58C2.49 5.68 2.4 5.78 2.33 5.89C2.26 5.99 2.2 6.1 2.15 6.22C2.1 6.33 2.06 6.45 2.04 6.58C2.01 6.71 2 6.85 2 7L2 15C2 15.14 2.01 15.28 2.04 15.41C2.06 15.54 2.1 15.66 2.15 15.77C2.2 15.89 2.26 16 2.33 16.1C2.4 16.21 2.49 16.31 2.58 16.41C2.68 16.5 2.78 16.59 2.89 16.66C2.99 16.73 3.1 16.79 3.22 16.84C3.33 16.89 3.45 16.93 3.58 16.95C3.71 16.98 3.85 17 4 17L4.17 17C4.06 17.31 4 17.64 4 18C4 19.65 5.34 21 7 21C8.65 21 10 19.65 10 18C10 17.64 9.93 17.31 9.82 17L14 17C14.05 17 14.11 16.99 14.17 16.99C14.06 17.3 14 17.64 14 18C14 19.65 15.34 21 17 21C18.65 21 20 19.65 20 18C20 17.64 19.93 17.31 19.82 17L20 17C20.14 17 20.28 16.98 20.41 16.95C20.54 16.93 20.66 16.89 20.77 16.84C20.89 16.79 21 16.73 21.1 16.66C21.21 16.59 21.31 16.5 21.41 16.41C21.5 16.31 21.59 16.21 21.66 16.1C21.73 16 21.79 15.89 21.84 15.77C21.89 15.66 21.92 15.54 21.95 15.41C21.98 15.28 22 15.14 22 15L22 12.41C22 12.28 21.98 12.15 21.96 12.02C21.93 11.89 21.89 11.77 21.84 11.64C21.79 11.52 21.73 11.41 21.66 11.3C21.59 11.19 21.5 11.09 21.41 11L19 8.58C18.9 8.49 18.8 8.4 18.69 8.33C18.59 8.26 18.47 8.2 18.35 8.15C18.22 8.1 18.1 8.06 17.97 8.03C17.84 8.01 17.71 8 17.58 8L16 8L16 7C16 6.85 15.98 6.71 15.95 6.58C15.93 6.45 15.89 6.33 15.84 6.22C15.79 6.1 15.73 5.99 15.66 5.89C15.59 5.78 15.5 5.68 15.41 5.58C15.31 5.49 15.21 5.4 15.1 5.33C15 5.26 14.89 5.2 14.77 5.15C14.66 5.1 14.54 5.06 14.41 5.04C14.28 5.01 14.14 5 14 5ZM17 15L20 15L20 12.41L17.58 10L16 10L16 15L17 15ZM17 17C16.44 17 16 17.44 16 18C16 18.55 16.44 19 17 19C17.55 19 18 18.55 18 18C18 17.44 17.55 17 17 17ZM14 15L4 15L4 7L14 7L14 15ZM6 18C6 17.44 6.44 17 7 17C7.55 17 8 17.44 8 18C8 18.55 7.55 19 7 19C6.44 19 6 18.55 6 18Z" fill="currentColor" fill-opacity="1.000000" fill-rule="evenodd"/>
	</g>
</svg>