<svg xmlns="http://www.w3.org/2000/svg" xmlns:xlink="http://www.w3.org/1999/xlink" width="24.000000" height="24.000000" viewBox="0 0 24 24" fill="none">
	<path id="vector" d="M11.87 6.87L13.7 5.05C13.47 5.01 13.23 5 13 5C12.61 5 12.24 5.04 11.87 5.12C11.59 5.18 11.32 5.27 11.05 5.39C10.77 5.5 10.51 5.64 10.26 5.81C9.97 5.99 9.71 6.21 9.46 6.46C9.21 6.71 8.99 6.97 8.81 7.26C8.64 7.51 8.5 7.77 8.39 8.05C8.27 8.32 8.18 8.59 8.12 8.87C8.04 9.24 8 9.61 8 10C8 10.3 8.02 10.6 8.08 10.89C8.15 11.29 8.27 11.67 8.44 12.05C8.48 12.14 8.51 12.24 8.52 12.34C8.53 12.44 8.53 12.54 8.51 12.64C8.49 12.74 8.46 12.84 8.42 12.93C8.37 13.01 8.31 13.09 8.24 13.17L5.32 16.08C5.26 16.15 5.2 16.22 5.16 16.29C5.13 16.34 5.1 16.4 5.08 16.45C5.05 16.51 5.03 16.57 5.02 16.63C5 16.71 5 16.79 5 16.87C5 16.96 5 17.04 5.02 17.11C5.03 17.18 5.05 17.24 5.08 17.3C5.1 17.35 5.13 17.4 5.16 17.45C5.2 17.53 5.26 17.6 5.32 17.67C5.39 17.73 5.46 17.79 5.53 17.83C5.59 17.86 5.64 17.89 5.69 17.91C5.75 17.94 5.81 17.96 5.88 17.97C5.95 17.99 6.03 18 6.12 18C6.2 18 6.28 17.99 6.36 17.97C6.42 17.96 6.48 17.94 6.54 17.91C6.59 17.89 6.65 17.86 6.7 17.83C6.77 17.79 6.84 17.73 6.91 17.67L9.82 14.75C9.9 14.68 9.98 14.62 10.06 14.57C10.15 14.53 10.25 14.5 10.35 14.48C10.45 14.46 10.55 14.46 10.65 14.47C10.75 14.48 10.85 14.51 10.94 14.55C11.32 14.72 11.7 14.84 12.1 14.91C12.39 14.97 12.69 15 13 15C13.38 15 13.75 14.95 14.12 14.87C14.4 14.81 14.67 14.72 14.94 14.6C15.22 14.49 15.48 14.35 15.73 14.18C16.02 14 16.28 13.78 16.53 13.53C16.78 13.28 17 13.02 17.18 12.73C17.35 12.48 17.49 12.22 17.6 11.94C17.72 11.67 17.81 11.4 17.87 11.12C17.95 10.75 18 10.38 18 10C18 9.76 17.98 9.52 17.94 9.29L16.12 11.12C15.96 11.27 15.8 11.4 15.62 11.52C15.46 11.62 15.3 11.7 15.12 11.78C14.95 11.85 14.77 11.9 14.59 11.94C14.4 11.98 14.2 12 14 12C13.79 12 13.59 11.98 13.4 11.94C13.22 11.9 13.04 11.85 12.87 11.78C12.69 11.7 12.53 11.62 12.37 11.52C12.19 11.4 12.03 11.27 11.87 11.12C11.72 10.96 11.59 10.8 11.47 10.62C11.37 10.46 11.29 10.3 11.21 10.12C11.14 9.95 11.09 9.77 11.05 9.59C11.01 9.4 11 9.2 11 9C11 8.79 11.01 8.59 11.05 8.4C11.09 8.22 11.14 8.04 11.21 7.87C11.29 7.69 11.37 7.53 11.47 7.37C11.59 7.19 11.72 7.03 11.87 6.87ZM13.29 8.29C13.23 8.35 13.18 8.41 13.14 8.48C13.11 8.52 13.09 8.57 13.07 8.62C13.05 8.67 13.03 8.72 13.02 8.78C13 8.85 13 8.92 13 9C13 9.07 13 9.14 13.02 9.21C13.03 9.27 13.05 9.32 13.07 9.37C13.09 9.42 13.11 9.47 13.14 9.51C13.18 9.58 13.23 9.64 13.29 9.7C13.35 9.76 13.41 9.81 13.48 9.85C13.52 9.88 13.57 9.9 13.62 9.92C13.67 9.94 13.72 9.96 13.78 9.97C13.85 9.99 13.92 10 14 10C14.07 10 14.14 9.99 14.21 9.97C14.27 9.96 14.32 9.94 14.37 9.92C14.42 9.9 14.47 9.88 14.51 9.85C14.58 9.81 14.64 9.76 14.7 9.7L17.7 6.71C17.72 6.69 17.8 6.61 17.83 6.6C17.85 6.58 17.95 6.52 17.97 6.51C18.1 6.45 18.22 6.42 18.35 6.41C18.48 6.4 18.61 6.42 18.74 6.47C18.87 6.52 18.98 6.58 19.08 6.67C19.17 6.75 19.25 6.86 19.31 6.98C19.57 7.52 19.75 8.08 19.86 8.65C19.95 9.09 20 9.54 20 10C20 10.51 19.94 11.02 19.83 11.51C19.74 11.92 19.61 12.33 19.44 12.72C19.28 13.12 19.08 13.49 18.84 13.85C18.58 14.24 18.28 14.6 17.94 14.94C17.6 15.28 17.24 15.58 16.85 15.84C16.49 16.08 16.12 16.28 15.72 16.44C15.33 16.61 14.92 16.74 14.51 16.83C14.02 16.94 13.51 17 13 17C12.55 17 12.11 16.95 11.68 16.87C11.37 16.81 11.07 16.73 10.77 16.63L8.32 19.08C8.16 19.24 7.99 19.38 7.8 19.5C7.64 19.6 7.47 19.69 7.29 19.77C7.11 19.84 6.93 19.89 6.74 19.93C6.54 19.97 6.33 20 6.12 20C5.9 20 5.7 19.97 5.49 19.93C5.31 19.89 5.12 19.84 4.94 19.77C4.76 19.69 4.59 19.6 4.43 19.5C4.24 19.38 4.07 19.24 3.91 19.08C3.75 18.92 3.61 18.75 3.49 18.56C3.39 18.4 3.3 18.23 3.22 18.05C3.15 17.87 3.1 17.68 3.06 17.5C3.02 17.29 3 17.09 3 16.87C3 16.66 3.02 16.45 3.06 16.25C3.1 16.06 3.15 15.88 3.22 15.7C3.3 15.52 3.39 15.35 3.49 15.19C3.61 15 3.75 14.83 3.91 14.67L6.36 12.22C6.26 11.92 6.18 11.62 6.12 11.31C6.04 10.88 6 10.44 6 10C6 9.48 6.05 8.97 6.16 8.48C6.25 8.07 6.38 7.66 6.55 7.27C6.71 6.87 6.91 6.5 7.15 6.14C7.41 5.75 7.71 5.39 8.05 5.05C8.39 4.71 8.75 4.41 9.14 4.15C9.5 3.91 9.87 3.71 10.27 3.55C10.66 3.38 11.07 3.25 11.48 3.16C11.97 3.05 12.48 3 13 3C13.45 3 13.9 3.04 14.34 3.13C14.91 3.24 15.47 3.42 16.01 3.68C16.03 3.7 16.13 3.75 16.15 3.77C16.18 3.79 16.26 3.86 16.28 3.88C16.38 3.98 16.45 4.08 16.5 4.2C16.55 4.32 16.58 4.45 16.58 4.59C16.58 4.72 16.55 4.85 16.5 4.97C16.45 5.09 16.38 5.19 16.28 5.29L13.29 8.29Z" fill="currentColor" fill-opacity="1.000000" fill-rule="evenodd"/>
</svg>