<svg xmlns="http://www.w3.org/2000/svg" xmlns:xlink="http://www.w3.org/1999/xlink" width="24.000000" height="24.000000" viewBox="0 0 24 24" fill="none">
	<g>
		<path id="vector" d="M13.08 4C13.03 3.99 12.98 3.99 12.92 4L11.07 4C11.01 3.99 10.96 3.99 10.91 4L7.48 4C7.32 4 7.18 4.01 7.03 4.04C6.89 4.08 6.75 4.13 6.61 4.19C6.47 4.26 6.35 4.34 6.23 4.43C6.11 4.52 6.01 4.63 5.91 4.75L2.74 8.71C2.67 8.81 2.6 8.91 2.54 9.02C2.49 9.12 2.44 9.22 2.41 9.33C2.37 9.44 2.34 9.55 2.33 9.66C2.31 9.78 2.3 9.9 2.31 10.02C2.31 10.13 2.32 10.25 2.35 10.37C2.37 10.48 2.4 10.59 2.45 10.69C2.49 10.8 2.54 10.9 2.6 11C2.66 11.1 2.74 11.2 2.82 11.29L10.51 19.84C10.61 19.95 10.72 20.05 10.85 20.14C10.96 20.22 11.07 20.28 11.2 20.33C11.32 20.39 11.44 20.43 11.57 20.46C11.71 20.49 11.85 20.5 12 20.5C12.14 20.5 12.28 20.49 12.42 20.46C12.54 20.43 12.67 20.39 12.79 20.33C12.92 20.28 13.03 20.22 13.14 20.14C13.27 20.05 13.38 19.95 13.48 19.84L21.17 11.29C21.25 11.2 21.33 11.1 21.39 11C21.45 10.9 21.5 10.8 21.54 10.69C21.59 10.59 21.62 10.48 21.64 10.37C21.67 10.25 21.68 10.13 21.68 10.02C21.69 9.9 21.68 9.78 21.66 9.66C21.65 9.55 21.62 9.44 21.58 9.33C21.55 9.22 21.5 9.12 21.45 9.02C21.39 8.91 21.32 8.81 21.25 8.71L18.08 4.75C17.98 4.63 17.88 4.52 17.76 4.43C17.64 4.34 17.52 4.26 17.38 4.19C17.24 4.13 17.1 4.08 16.96 4.04C16.81 4.01 16.67 4 16.51 4L13.08 4ZM7.48 6L9.38 6L7.88 9L5.08 9L7.48 6ZM5.24 11L9.77 16.02L7.81 11L5.24 11ZM9.96 11L12 16.24L14.03 11L9.96 11ZM16.18 11L14.22 16.02L18.75 11L16.18 11ZM18.91 9L16.11 9L14.61 6L16.51 6L18.91 9ZM13.88 9L10.11 9L11.61 6L12.38 6L13.88 9Z" fill="currentColor" fill-opacity="1.000000" fill-rule="evenodd"/>
	</g>
</svg>