<svg xmlns="http://www.w3.org/2000/svg" xmlns:xlink="http://www.w3.org/1999/xlink" width="24.000000" height="24.000000" viewBox="0 0 24 24" fill="none">
	<g>
		<path id="vector" d="M15.7 4.29C15.31 3.9 14.68 3.9 14.29 4.29C13.89 4.69 13.89 5.31 14.29 5.71L15.21 6.63L10.88 6.63C10.84 6.47 10.79 6.3 10.72 6.14C10.63 5.94 10.53 5.75 10.42 5.58C10.29 5.38 10.14 5.2 9.97 5.03C9.8 4.86 9.62 4.71 9.42 4.59C9.25 4.47 9.06 4.37 8.86 4.28C8.66 4.2 8.45 4.13 8.24 4.09C8 4.03 7.75 4.01 7.49 4.01C7.24 4.01 6.99 4.03 6.75 4.09C6.54 4.13 6.33 4.2 6.13 4.28C5.93 4.37 5.74 4.47 5.56 4.59C5.37 4.71 5.19 4.86 5.02 5.03C4.85 5.2 4.7 5.38 4.57 5.58C4.46 5.75 4.35 5.94 4.27 6.14C4.19 6.34 4.12 6.55 4.07 6.76C4.02 7 3.99 7.25 3.99 7.51C3.99 7.76 4.02 8.01 4.07 8.25C4.12 8.46 4.19 8.67 4.27 8.87C4.35 9.07 4.46 9.26 4.57 9.44C4.7 9.63 4.85 9.81 5.02 9.98C5.19 10.15 5.37 10.3 5.56 10.43C5.74 10.54 5.93 10.65 6.13 10.73C6.33 10.82 6.54 10.88 6.75 10.93C6.99 10.98 7.24 11.01 7.49 11.01C7.75 11.01 8 10.98 8.24 10.93C8.45 10.88 8.66 10.82 8.86 10.73C9.06 10.65 9.25 10.54 9.42 10.43C9.62 10.3 9.8 10.15 9.97 9.98C10.14 9.81 10.29 9.63 10.42 9.44C10.53 9.26 10.63 9.07 10.72 8.87C10.79 8.71 10.84 8.55 10.88 8.38L15.2 8.38L14.29 9.29C13.89 9.69 13.89 10.31 14.29 10.71C14.68 11.1 15.31 11.1 15.7 10.71L18.2 8.21C18.3 8.11 18.37 8 18.42 7.88C18.47 7.77 18.49 7.64 18.49 7.5C18.49 7.36 18.47 7.23 18.42 7.12C18.37 7 18.3 6.89 18.2 6.79L15.7 4.29ZM7.85 8.97C7.73 8.99 7.61 9.01 7.49 9.01C7.37 9.01 7.26 8.99 7.14 8.97C7.06 8.95 6.99 8.92 6.91 8.89C6.83 8.85 6.75 8.81 6.68 8.77C6.59 8.71 6.51 8.64 6.43 8.57C6.36 8.49 6.29 8.41 6.23 8.32C6.19 8.25 6.15 8.17 6.11 8.09C6.08 8.01 6.05 7.94 6.04 7.86C6.01 7.74 5.99 7.63 5.99 7.51C5.99 7.39 6.01 7.27 6.04 7.16C6.05 7.08 6.08 7 6.11 6.92C6.15 6.84 6.19 6.77 6.23 6.69C6.29 6.6 6.36 6.52 6.43 6.45C6.51 6.37 6.59 6.3 6.68 6.24C6.75 6.2 6.83 6.16 6.91 6.12C6.99 6.09 7.06 6.07 7.14 6.05C7.26 6.02 7.37 6.01 7.49 6.01C7.61 6.01 7.73 6.02 7.85 6.05C7.92 6.07 8 6.09 8.08 6.12C8.16 6.16 8.23 6.2 8.31 6.24C8.4 6.3 8.48 6.37 8.56 6.45C8.63 6.52 8.7 6.6 8.76 6.69C8.8 6.77 8.84 6.84 8.88 6.92C8.91 7 8.93 7.08 8.95 7.16C8.98 7.27 8.99 7.39 8.99 7.51C8.99 7.63 8.98 7.74 8.95 7.86C8.93 7.94 8.91 8.01 8.88 8.09C8.84 8.17 8.8 8.25 8.76 8.32C8.7 8.41 8.63 8.49 8.56 8.57C8.48 8.64 8.4 8.71 8.31 8.77C8.24 8.81 8.16 8.85 8.08 8.89C8 8.92 7.92 8.95 7.85 8.97ZM5.79 17.2L8.29 19.7C8.68 20.1 9.31 20.1 9.7 19.7C10.1 19.31 10.1 18.68 9.7 18.29L8.78 17.37L13.11 17.37C13.15 17.53 13.2 17.69 13.27 17.85C13.36 18.05 13.46 18.24 13.57 18.42C13.7 18.61 13.85 18.8 14.02 18.96C14.19 19.13 14.37 19.28 14.56 19.41C14.74 19.53 14.93 19.63 15.13 19.71C15.33 19.8 15.54 19.86 15.75 19.91C15.99 19.96 16.24 19.99 16.5 19.99C16.75 19.99 17 19.96 17.24 19.91C17.45 19.86 17.66 19.8 17.86 19.71C18.06 19.63 18.25 19.53 18.43 19.41C18.62 19.28 18.8 19.13 18.97 18.96C19.14 18.8 19.29 18.61 19.42 18.42C19.53 18.24 19.63 18.05 19.72 17.85C19.8 17.65 19.87 17.45 19.92 17.24C19.97 16.99 20 16.74 20 16.49C20 16.23 19.97 15.98 19.92 15.74C19.87 15.53 19.8 15.33 19.72 15.13C19.64 14.93 19.53 14.74 19.42 14.56C19.29 14.37 19.14 14.18 18.97 14.01C18.8 13.85 18.62 13.7 18.43 13.57C18.25 13.45 18.06 13.35 17.86 13.26C17.66 13.18 17.45 13.11 17.24 13.07C17 13.02 16.75 12.99 16.5 12.99C16.24 12.99 15.99 13.02 15.75 13.07C15.54 13.11 15.33 13.18 15.13 13.26C14.93 13.35 14.74 13.45 14.56 13.57C14.37 13.7 14.19 13.85 14.02 14.01C13.85 14.18 13.7 14.36 13.57 14.56C13.46 14.74 13.36 14.93 13.27 15.13C13.2 15.29 13.15 15.45 13.1 15.62L8.78 15.62L9.7 14.7C10.1 14.31 10.1 13.68 9.7 13.29C9.31 12.89 8.68 12.89 8.29 13.29L5.79 15.79C5.55 16.02 5.43 16.26 5.43 16.49C5.43 16.73 5.55 16.97 5.79 17.2ZM16.14 15.03C16.07 15.05 15.99 15.07 15.91 15.11C15.73 15.18 15.57 15.29 15.43 15.43C15.3 15.57 15.19 15.73 15.11 15.91C15.08 15.98 15.05 16.06 15.04 16.14C15.01 16.25 15 16.37 15 16.49C15 16.61 15.01 16.73 15.04 16.84C15.05 16.92 15.08 17 15.11 17.07C15.19 17.25 15.3 17.41 15.43 17.55C15.57 17.69 15.73 17.8 15.91 17.87C15.99 17.9 16.07 17.93 16.14 17.95C16.26 17.98 16.37 17.99 16.5 17.99C16.62 17.99 16.73 17.98 16.85 17.95C16.92 17.93 17 17.9 17.08 17.87C17.26 17.8 17.42 17.69 17.56 17.55C17.63 17.47 17.7 17.39 17.76 17.3C17.8 17.23 17.84 17.15 17.88 17.07C17.91 17 17.94 16.92 17.95 16.84C17.98 16.73 18 16.61 18 16.49C18 16.37 17.98 16.25 17.95 16.14C17.94 16.06 17.91 15.98 17.88 15.91C17.8 15.73 17.69 15.57 17.56 15.43C17.42 15.29 17.26 15.18 17.08 15.11C17 15.07 16.92 15.05 16.85 15.03C16.73 15 16.62 14.99 16.5 14.99C16.37 14.99 16.26 15 16.14 15.03Z" fill="currentColor" fill-opacity="1.000000" fill-rule="evenodd"/>
	</g>
</svg>