<svg xmlns="http://www.w3.org/2000/svg" xmlns:xlink="http://www.w3.org/1999/xlink" width="24.000000" height="24.000000" viewBox="0 0 24 24" fill="none">
	<path id="vector" d="M12 2C12.56 2 13 2.43 13 3L13 5L16.16 5C16.72 5 17.16 5.43 17.16 6C17.16 6.56 16.72 7 16.16 7L13 7L13 11L14.08 11C14.33 11 14.58 11.02 14.82 11.07C15.08 11.12 15.34 11.2 15.59 11.3C15.8 11.4 16.01 11.51 16.2 11.63C16.44 11.79 16.66 11.97 16.86 12.18C17.02 12.35 17.17 12.53 17.3 12.72C17.46 12.95 17.59 13.2 17.7 13.47C17.79 13.71 17.87 13.94 17.92 14.19C17.97 14.45 18 14.72 18 15C18 15.27 17.97 15.54 17.92 15.8C17.87 16.05 17.79 16.28 17.7 16.52C17.59 16.79 17.46 17.04 17.3 17.27C17.17 17.46 17.02 17.64 16.86 17.81C16.66 18.02 16.44 18.2 16.2 18.36C16.01 18.48 15.8 18.59 15.59 18.69C15.34 18.79 15.08 18.87 14.82 18.92C14.58 18.97 14.33 19 14.08 19L13 19L13 21C13 21.56 12.56 22 12 22C11.44 22 11 21.56 11 21L11 19L7 19C6.44 19 6 18.56 6 18C6 17.43 6.44 17 7 17L11 17L11 13L9.91 13C9.66 13 9.41 12.97 9.17 12.92C8.91 12.87 8.65 12.79 8.4 12.69C8.19 12.59 7.98 12.48 7.79 12.36C7.55 12.2 7.33 12.02 7.13 11.81C6.97 11.64 6.82 11.46 6.69 11.27C6.53 11.04 6.4 10.79 6.29 10.52C6.2 10.28 6.12 10.05 6.07 9.8C6.02 9.54 6 9.27 6 9C6 8.72 6.02 8.45 6.07 8.19C6.12 7.94 6.2 7.71 6.29 7.47C6.4 7.2 6.53 6.95 6.69 6.72C6.82 6.53 6.97 6.35 7.13 6.18C7.33 5.97 7.55 5.79 7.79 5.63C7.98 5.51 8.19 5.4 8.4 5.3C8.65 5.2 8.91 5.12 9.17 5.07C9.41 5.02 9.66 5 9.91 5L11 5L11 3C11 2.43 11.44 2 12 2ZM11 7L9.91 7C9.8 7 9.68 7.01 9.57 7.03C9.44 7.05 9.31 7.09 9.19 7.14C9.09 7.18 9 7.23 8.92 7.28C8.79 7.36 8.67 7.46 8.57 7.57C8.49 7.65 8.43 7.73 8.37 7.81C8.28 7.94 8.2 8.07 8.14 8.22C8.1 8.33 8.06 8.45 8.04 8.57C8.01 8.71 8 8.85 8 9C8 9.14 8.01 9.28 8.04 9.42C8.06 9.54 8.1 9.66 8.14 9.77C8.2 9.92 8.28 10.05 8.37 10.18C8.43 10.26 8.49 10.34 8.57 10.42C8.67 10.53 8.79 10.63 8.92 10.71C9 10.76 9.09 10.81 9.19 10.85C9.31 10.9 9.44 10.94 9.57 10.96C9.68 10.98 9.8 11 9.91 11L11 11L11 7ZM13 13L13 17L14.08 17C14.19 17 14.31 16.98 14.42 16.96C14.55 16.94 14.68 16.9 14.8 16.85C14.9 16.81 14.99 16.76 15.07 16.71C15.2 16.63 15.32 16.53 15.42 16.42C15.5 16.34 15.56 16.26 15.62 16.18C15.71 16.05 15.79 15.92 15.85 15.77C15.89 15.66 15.93 15.54 15.95 15.42C15.98 15.28 16 15.14 16 15C16 14.85 15.98 14.71 15.95 14.57C15.93 14.45 15.89 14.33 15.85 14.22C15.79 14.07 15.71 13.94 15.62 13.81C15.56 13.73 15.5 13.65 15.42 13.57C15.32 13.46 15.2 13.36 15.07 13.28C14.99 13.23 14.9 13.18 14.8 13.14C14.68 13.09 14.55 13.05 14.42 13.03C14.31 13.01 14.19 13 14.08 13L13 13Z" fill="currentColor" fill-opacity="1.000000" fill-rule="evenodd"/>
</svg>