<svg width="24.000000" height="24.000000" viewBox="0 0 24 24" fill="none" xmlns="http://www.w3.org/2000/svg" xmlns:xlink="http://www.w3.org/1999/xlink">
	<desc>
			Created with Pixso.
	</desc>
	<defs/>
	<path id="vector" d="M12 4C11.44 4 11 4.44 11 5L11 11.58L8.7 9.29C8.31 8.89 7.68 8.89 7.29 9.29C6.89 9.68 6.89 10.31 7.29 10.7L11.29 14.7C11.39 14.8 11.49 14.87 11.61 14.92C11.73 14.97 11.86 15 12 15C12.13 15 12.26 14.97 12.38 14.92C12.5 14.87 12.6 14.8 12.7 14.7L16.7 10.7C17.1 10.31 17.1 9.68 16.7 9.29C16.31 8.89 15.68 8.89 15.29 9.29L13 11.58L13 5C13 4.44 12.56 4 12 4ZM6 14L6 17C6 17.08 6 17.16 6.02 17.24C6.04 17.29 6.05 17.34 6.07 17.38C6.1 17.44 6.12 17.49 6.15 17.53C6.19 17.59 6.24 17.65 6.29 17.7C6.34 17.75 6.4 17.8 6.46 17.84C6.5 17.87 6.55 17.89 6.61 17.92C6.65 17.94 6.7 17.95 6.75 17.97C6.83 17.99 6.91 18 7 18L17 18C17.08 18 17.16 17.99 17.24 17.97C17.29 17.95 17.34 17.94 17.38 17.92C17.44 17.89 17.49 17.87 17.53 17.84C17.59 17.8 17.65 17.75 17.7 17.7C17.75 17.65 17.8 17.59 17.84 17.53C17.87 17.49 17.89 17.44 17.92 17.38C17.94 17.34 17.95 17.29 17.97 17.24C17.99 17.16 18 17.08 18 17L18 14C18 13.44 18.44 13 19 13C19.56 13 20 13.44 20 14L20 17C20 17.21 19.97 17.43 19.93 17.63C19.89 17.81 19.83 17.99 19.76 18.16C19.69 18.34 19.6 18.5 19.5 18.65C19.39 18.82 19.26 18.97 19.12 19.12C18.97 19.26 18.82 19.39 18.65 19.5C18.5 19.6 18.34 19.69 18.16 19.76C17.99 19.83 17.81 19.89 17.63 19.93C17.43 19.97 17.21 20 17 20L7 20C6.78 20 6.56 19.97 6.36 19.93C6.18 19.89 6 19.83 5.83 19.76C5.65 19.69 5.49 19.6 5.34 19.5C5.17 19.39 5.02 19.26 4.87 19.12C4.73 18.97 4.6 18.82 4.49 18.65C4.39 18.5 4.3 18.34 4.23 18.16C4.16 17.99 4.1 17.81 4.06 17.63C4.02 17.43 4 17.21 4 17L4 14C4 13.44 4.44 13 5 13C5.56 13 6 13.44 6 14Z" fill="currentColor" fill-opacity="1.000000" fill-rule="evenodd"/>
</svg>
