<svg width="24.000000" height="24.000000" viewBox="0 0 24 24" fill="none" xmlns="http://www.w3.org/2000/svg" xmlns:xlink="http://www.w3.org/1999/xlink">
	<path id="vector" d="M9 3C7.89 3 7 3.89 7 5C7 6.1 7.89 7 9 7C10.1 7 11 6.1 11 5C11 3.89 10.1 3 9 3ZM15 3C13.89 3 13 3.89 13 5C13 6.1 13.89 7 15 7C16.1 7 17 6.1 17 5C17 3.89 16.1 3 15 3ZM9 10C7.89 10 7 10.89 7 12C7 13.1 7.89 14 9 14C10.1 14 11 13.1 11 12C11 10.89 10.1 10 9 10ZM13 12C13 10.89 13.89 10 15 10C16.1 10 17 10.89 17 12C17 13.1 16.1 14 15 14C13.89 14 13 13.1 13 12ZM7 19C7 17.89 7.89 17 9 17C10.1 17 11 17.89 11 19C11 20.1 10.1 21 9 21C7.89 21 7 20.1 7 19ZM15 17C13.89 17 13 17.89 13 19C13 20.1 13.89 21 15 21C16.1 21 17 20.1 17 19C17 17.89 16.1 17 15 17Z" fill="currentColor" fill-opacity="1.000000" fill-rule="evenodd"/>
</svg>
