<svg width="24" height="24" viewBox="0 0 24 24" fill="none" xmlns="http://www.w3.org/2000/svg">
<path fill-rule="evenodd" clip-rule="evenodd" d="M14 7C14 6.44728 14.4473 6 15 6H18.0005C18.5532 6 19.0005 6.44728 19.0005 7V17C19.0005 17.5527 18.5532 18 18.0005 18H15C14.4473 18 14 17.5527 14 17V7ZM15 4C13.3427 4 12 5.34272 12 7V17C12 18.6573 13.3427 20 15 20H18.0005C19.6578 20 21.0005 18.6573 21.0005 17V7C21.0005 5.34272 19.6578 4 18.0005 4H15ZM3.29289 8.70711C2.90237 8.31658 2.90237 7.68342 3.29289 7.29289C3.68342 6.90237 4.31658 6.90237 4.70711 7.29289L8.70711 11.2929C9.09763 11.6834 9.09763 12.3166 8.70711 12.7071L4.70711 16.7071C4.31658 17.0976 3.68342 17.0976 3.29289 16.7071C2.90237 16.3166 2.90237 15.6834 3.29289 15.2929L6.58579 12L3.29289 8.70711Z" fill="currentColor"/>
</svg>
