<svg width="24.000000" height="24.000000" viewBox="0 0 24 24" fill="none" xmlns="http://www.w3.org/2000/svg" xmlns:xlink="http://www.w3.org/1999/xlink">
	<defs/>
	<path id="vector" d="M19.7 18.29L5.7 4.29C5.31 3.89 4.68 3.89 4.29 4.29C3.89 4.68 3.89 5.31 4.29 5.7L6.02 7.44C5.01 8.14 4.07 9 3.21 10.02C2.92 10.36 2.66 10.7 2.42 11.05C2.3 11.22 2.2 11.37 2.14 11.48C2.04 11.64 2 11.81 2 12C2 12.18 2.04 12.35 2.14 12.51C2.29 12.77 2.52 13.09 2.8 13.47C3.25 14.04 3.72 14.58 4.24 15.08C4.38 15.22 4.53 15.36 4.68 15.49C5.65 16.36 6.67 17.04 7.75 17.54C8.68 17.97 9.63 18.26 10.6 18.4C11.06 18.46 11.53 18.5 12 18.5C12.4 18.5 12.81 18.47 13.21 18.42C13.82 18.34 14.41 18.21 15 18.02C15.39 17.9 15.78 17.75 16.16 17.58L18.29 19.7C18.68 20.1 19.31 20.1 19.7 19.7C20.1 19.31 20.1 18.68 19.7 18.29ZM14.63 16.04C14.55 16.07 14.47 16.09 14.4 16.12C13.91 16.28 13.41 16.38 12.91 16.44C12.61 16.48 12.3 16.5 12 16.5C11.67 16.5 11.35 16.48 11.03 16.44C10.2 16.33 9.39 16.1 8.59 15.73C7.7 15.31 6.84 14.74 6.02 14C5.91 13.91 5.81 13.81 5.7 13.71C5.23 13.26 4.79 12.77 4.39 12.25C4.32 12.16 4.26 12.08 4.2 12C4.37 11.77 4.55 11.54 4.74 11.3C5.54 10.35 6.42 9.57 7.37 8.94L9.29 10.7C9.21 10.88 9.11 11.15 9.07 11.34C9.02 11.54 9 11.74 9 11.95C8.99 12.16 9.01 12.36 9.05 12.56C9.08 12.73 9.13 12.91 9.2 13.08C9.27 13.26 9.36 13.44 9.46 13.6C9.57 13.77 9.7 13.93 9.84 14.09C9.99 14.23 10.14 14.36 10.31 14.48C10.46 14.58 10.62 14.67 10.79 14.74C10.96 14.82 11.15 14.88 11.33 14.92C11.53 14.97 11.74 14.99 11.95 14.99C12.16 15 12.36 14.98 12.55 14.94C12.73 14.91 12.91 14.86 13.08 14.79C13.15 14.76 13.22 14.73 13.29 14.7L14.63 16.04ZM12 5.5C11.74 5.5 11.48 5.5 11.23 5.52C10.67 5.57 10.27 6.04 10.31 6.6C10.36 7.16 10.83 7.56 11.39 7.52C11.59 7.5 11.79 7.5 12 7.5C12.32 7.5 12.64 7.51 12.96 7.55C13.79 7.66 14.6 7.89 15.4 8.26C16.3 8.68 17.15 9.25 17.98 9.99C18.08 10.09 18.19 10.18 18.29 10.28C18.76 10.73 19.2 11.22 19.6 11.75C19.67 11.83 19.73 11.91 19.79 12C19.43 12.48 19 12.99 18.57 13.44C18.42 13.59 18.26 13.74 18.11 13.88C17.7 14.26 17.67 14.88 18.05 15.29C18.43 15.7 19.05 15.73 19.47 15.35C19.64 15.18 19.82 15.01 19.99 14.84C20.49 14.33 20.95 13.79 21.36 13.23C21.58 12.94 21.74 12.7 21.85 12.51C21.95 12.35 22 12.18 22 12C22 11.81 21.95 11.64 21.85 11.48C21.81 11.41 21.75 11.32 21.67 11.2C21.53 10.98 21.37 10.76 21.19 10.53C20.75 9.95 20.27 9.42 19.76 8.92C19.61 8.78 19.46 8.64 19.31 8.5C18.34 7.63 17.32 6.95 16.24 6.45C15.31 6.02 14.36 5.73 13.39 5.59C12.93 5.53 12.46 5.5 12 5.5Z" fill="#24292E" fill-opacity="1.000000" fill-rule="evenodd"/>
</svg>
