<svg width="24.000000" height="24.000000" viewBox="0 0 24 24" fill="none" xmlns="http://www.w3.org/2000/svg" xmlns:xlink="http://www.w3.org/1999/xlink">
	<defs/>
	<path id="vector" d="M12 5.5C12.46 5.5 12.93 5.53 13.39 5.59C14.36 5.73 15.31 6.02 16.24 6.45C17.32 6.95 18.34 7.63 19.31 8.5C19.46 8.64 19.61 8.78 19.76 8.92C20.27 9.42 20.75 9.95 21.19 10.53C21.37 10.76 21.53 10.98 21.67 11.2C21.75 11.32 21.81 11.41 21.85 11.48C21.9 11.56 21.94 11.64 21.96 11.73C21.98 11.81 22 11.9 22 12C22 12.09 21.98 12.18 21.96 12.26C21.94 12.35 21.9 12.43 21.85 12.51C21.81 12.58 21.75 12.67 21.67 12.79C21.53 13.01 21.37 13.23 21.19 13.46C20.75 14.04 20.27 14.57 19.76 15.07C19.61 15.21 19.46 15.35 19.31 15.49C18.34 16.36 17.32 17.04 16.24 17.54C15.31 17.97 14.36 18.26 13.39 18.4C12.93 18.46 12.46 18.5 12 18.5C11.53 18.5 11.06 18.46 10.6 18.4C9.63 18.26 8.68 17.97 7.75 17.54C6.67 17.04 5.65 16.36 4.68 15.49C4.53 15.36 4.38 15.22 4.24 15.08C3.72 14.58 3.25 14.04 2.8 13.47C2.52 13.09 2.29 12.77 2.14 12.51C2.09 12.43 2.05 12.35 2.03 12.26C2.01 12.18 2 12.09 2 12C2 11.9 2.01 11.81 2.03 11.73C2.05 11.64 2.09 11.56 2.14 11.48C2.18 11.41 2.24 11.32 2.32 11.2C2.46 10.98 2.62 10.76 2.8 10.53C3.24 9.95 3.72 9.42 4.23 8.92C4.38 8.78 4.53 8.64 4.68 8.5C5.65 7.63 6.67 6.95 7.75 6.45C8.68 6.02 9.63 5.73 10.6 5.59C11.06 5.53 11.53 5.5 12 5.5ZM11.03 7.55C10.2 7.66 9.39 7.89 8.59 8.26C7.69 8.68 6.84 9.25 6.01 9.99C5.91 10.09 5.8 10.18 5.7 10.28C5.23 10.73 4.79 11.22 4.39 11.75C4.32 11.83 4.26 11.91 4.2 12C4.26 12.08 4.32 12.16 4.39 12.25C4.79 12.77 5.23 13.26 5.7 13.71C5.81 13.81 5.91 13.91 6.02 14C6.84 14.74 7.7 15.31 8.59 15.73C9.39 16.1 10.2 16.33 11.03 16.44C11.35 16.48 11.67 16.5 12 16.5C12.32 16.5 12.64 16.48 12.96 16.44C13.79 16.33 14.6 16.1 15.4 15.73C16.3 15.31 17.15 14.74 17.98 14C18.08 13.9 18.19 13.81 18.29 13.71C18.76 13.26 19.2 12.77 19.6 12.25C19.67 12.16 19.73 12.08 19.79 12C19.73 11.91 19.67 11.83 19.6 11.75C19.2 11.22 18.76 10.73 18.29 10.28C18.19 10.18 18.08 10.09 17.98 9.99C17.15 9.25 16.3 8.68 15.4 8.26C14.6 7.89 13.79 7.66 12.96 7.55C12.64 7.51 12.32 7.5 12 7.5C11.67 7.5 11.35 7.51 11.03 7.55ZM9 12C9 10.34 10.34 9 12 9C13.65 9 15 10.34 15 12C15 13.65 13.65 15 12 15C10.34 15 9 13.65 9 12ZM11 12C11 11.44 11.44 11 12 11C12.55 11 13 11.44 13 12C13 12.55 12.55 13 12 13C11.44 13 11 12.55 11 12Z" fill="#24292E" fill-opacity="1.000000" fill-rule="evenodd"/>
</svg>
