<svg xmlns="http://www.w3.org/2000/svg" xmlns:xlink="http://www.w3.org/1999/xlink" width="24.000000" height="24.000000" viewBox="0 0 24 24" fill="none">
	<path id="vector" d="M20 15.16C20 15.44 19.96 15.7 19.89 15.96C19.83 16.17 19.75 16.38 19.64 16.57C19.54 16.77 19.41 16.95 19.27 17.11C19.11 17.3 18.93 17.46 18.72 17.61C18.52 17.76 18.3 17.87 18.07 17.96C17.87 18.04 17.66 18.09 17.44 18.13C17.22 18.16 17 18.17 16.78 18.15C16.51 18.13 16.25 18.08 15.99 17.98L5.99 14.41C5.83 14.36 5.68 14.29 5.54 14.21C5.41 14.14 5.29 14.06 5.17 13.97C5.05 13.88 4.94 13.78 4.84 13.67C4.73 13.56 4.63 13.44 4.54 13.31C4.45 13.19 4.37 13.05 4.3 12.91C4.24 12.78 4.18 12.64 4.14 12.5C4.09 12.36 4.06 12.22 4.03 12.07C4.01 11.91 4 11.75 4 11.59L4 9.5C4 9.33 4.01 9.16 4.04 8.99C4.07 8.84 4.1 8.69 4.15 8.54C4.2 8.39 4.27 8.25 4.34 8.11C4.41 7.97 4.5 7.83 4.6 7.7C4.7 7.56 4.81 7.44 4.93 7.33C5.04 7.22 5.16 7.13 5.29 7.04C5.42 6.95 5.55 6.87 5.69 6.8C5.84 6.73 6 6.67 6.17 6.62L16.17 3.76C16.43 3.69 16.68 3.65 16.94 3.64C17.15 3.64 17.36 3.66 17.58 3.7C17.79 3.74 17.99 3.81 18.18 3.89C18.4 3.98 18.61 4.1 18.8 4.25C19 4.4 19.17 4.56 19.32 4.75C19.45 4.91 19.57 5.09 19.67 5.28C19.77 5.47 19.84 5.67 19.9 5.87C19.96 6.12 20 6.38 20 6.65L20 15.16ZM18 15.16L18 6.65C18 6.54 17.98 6.44 17.95 6.34C17.93 6.29 17.91 6.24 17.89 6.19C17.86 6.14 17.82 6.08 17.79 6.03C17.73 5.96 17.67 5.9 17.6 5.85C17.52 5.79 17.45 5.75 17.37 5.72C17.31 5.69 17.25 5.68 17.19 5.66C17.13 5.65 17.08 5.65 17.02 5.65C16.92 5.64 16.82 5.66 16.72 5.68L6.72 8.54C6.61 8.57 6.52 8.62 6.43 8.68C6.34 8.74 6.26 8.81 6.2 8.9C6.13 8.99 6.08 9.09 6.05 9.19C6.01 9.29 6 9.39 6 9.5L6 11.59C6 11.69 6.01 11.79 6.04 11.89C6.07 11.98 6.12 12.08 6.18 12.16C6.24 12.25 6.31 12.32 6.39 12.38C6.47 12.44 6.56 12.49 6.66 12.53L16.66 16.1C16.76 16.14 16.87 16.16 16.97 16.16C17.03 16.16 17.09 16.16 17.14 16.15C17.2 16.14 17.27 16.12 17.32 16.1C17.41 16.07 17.49 16.03 17.57 15.97C17.65 15.92 17.72 15.86 17.77 15.79C17.81 15.74 17.85 15.68 17.88 15.63C17.91 15.58 17.93 15.53 17.95 15.47C17.98 15.37 18 15.27 18 15.16ZM8.35 16.56L12.35 18.06C12.87 18.26 13.13 18.82 12.93 19.35C12.73 19.87 12.17 20.13 11.64 19.93L7.64 18.43C7.12 18.23 6.86 17.67 7.06 17.14C7.26 16.62 7.82 16.36 8.35 16.56Z" fill="currentColor" fill-opacity="1.000000" fill-rule="evenodd"/>
</svg>