<svg xmlns="http://www.w3.org/2000/svg" xmlns:xlink="http://www.w3.org/1999/xlink" width="24.000000" height="24.000000" viewBox="0 0 24 24" fill="none">
	<path id="vector" d="M12 8L12 5L8 5C7.91 5 7.83 5 7.75 5.02C7.7 5.04 7.65 5.05 7.61 5.07C7.55 5.1 7.5 5.12 7.46 5.15C7.4 5.19 7.34 5.24 7.29 5.29C7.24 5.34 7.19 5.4 7.15 5.46C7.12 5.5 7.1 5.55 7.07 5.61C7.05 5.65 7.04 5.7 7.02 5.75C7 5.83 7 5.91 7 6L7 18C7 18.08 7 18.16 7.02 18.24C7.04 18.29 7.05 18.34 7.07 18.38C7.1 18.44 7.12 18.49 7.15 18.53C7.19 18.59 7.24 18.65 7.29 18.7C7.34 18.75 7.4 18.8 7.46 18.84C7.5 18.87 7.55 18.89 7.61 18.92C7.65 18.94 7.7 18.95 7.75 18.97C7.83 18.99 7.91 19 8 19L9 19C9.56 19 10 19.44 10 20C10 20.56 9.56 21 9 21L8 21C7.78 21 7.56 20.97 7.36 20.93C7.18 20.89 7 20.83 6.83 20.76C6.65 20.69 6.49 20.6 6.34 20.5C6.17 20.39 6.02 20.26 5.87 20.12C5.73 19.97 5.6 19.82 5.49 19.65C5.39 19.5 5.3 19.34 5.23 19.16C5.16 18.99 5.1 18.81 5.06 18.63C5.02 18.43 5 18.21 5 18L5 6C5 5.78 5.02 5.56 5.06 5.36C5.1 5.18 5.16 5 5.23 4.83C5.3 4.65 5.39 4.49 5.49 4.34C5.6 4.17 5.73 4.02 5.87 3.87C6.02 3.73 6.17 3.6 6.34 3.49C6.49 3.39 6.65 3.3 6.83 3.23C7 3.16 7.18 3.1 7.36 3.06C7.56 3.02 7.78 3 8 3L13.17 3C13.37 3 13.56 3.01 13.75 3.05C13.94 3.09 14.13 3.15 14.31 3.22C14.5 3.3 14.67 3.39 14.83 3.5C15 3.61 15.15 3.73 15.29 3.87L18.12 6.7C18.26 6.84 18.38 6.99 18.49 7.16C18.6 7.32 18.69 7.49 18.77 7.68C18.84 7.86 18.9 8.05 18.94 8.24C18.98 8.43 19 8.62 19 8.82L19 10C19 10.56 18.56 11 18 11C17.44 11 17 10.56 17 10L14 10C13.85 10 13.71 9.98 13.58 9.95C13.45 9.93 13.33 9.89 13.22 9.84C13.1 9.79 12.99 9.73 12.89 9.66C12.78 9.59 12.68 9.5 12.58 9.41C12.49 9.31 12.4 9.21 12.33 9.1C12.26 9 12.2 8.89 12.15 8.77C12.1 8.66 12.06 8.54 12.04 8.41C12.01 8.28 12 8.14 12 8ZM14 8L16.58 8L14 5.41L14 8ZM12.81 22.44L15.81 21.44C15.96 21.39 16.09 21.31 16.2 21.2L21.2 16.2C21.43 15.97 21.61 15.7 21.73 15.4C21.85 15.11 21.91 14.81 21.91 14.5C21.91 14.18 21.85 13.88 21.73 13.59C21.61 13.29 21.43 13.02 21.2 12.79C20.97 12.56 20.7 12.38 20.4 12.26C20.11 12.14 19.81 12.08 19.5 12.08C19.18 12.08 18.88 12.14 18.59 12.26C18.29 12.38 18.02 12.56 17.79 12.79L12.79 17.79C12.68 17.9 12.6 18.03 12.55 18.18L11.55 21.18C11.48 21.39 11.48 21.6 11.55 21.81C11.65 22.13 11.81 22.34 12.02 22.44C12.23 22.55 12.5 22.55 12.81 22.44ZM14.95 19.62L14.08 19.91L14.37 19.04L19.2 14.2C19.28 14.12 19.38 14.08 19.5 14.08C19.61 14.08 19.71 14.12 19.79 14.2C19.87 14.28 19.91 14.38 19.91 14.5C19.91 14.61 19.87 14.71 19.79 14.79L14.95 19.62Z" fill="currentColor" fill-opacity="1.000000" fill-rule="evenodd"/>
</svg>