<svg xmlns="http://www.w3.org/2000/svg" xmlns:xlink="http://www.w3.org/1999/xlink" width="24.000000" height="24.004089" viewBox="0 0 24 24.0041" fill="none">
	<path id="vector" d="M12 5L12 8C12 8.14 12.01 8.28 12.04 8.41C12.06 8.54 12.1 8.66 12.15 8.77C12.2 8.89 12.26 9 12.33 9.1C12.4 9.21 12.49 9.31 12.58 9.41C12.68 9.5 12.78 9.59 12.89 9.66C12.99 9.73 13.1 9.79 13.22 9.84C13.33 9.89 13.45 9.93 13.58 9.95C13.71 9.98 13.85 10 14 10L17 10L17 13C17 13.56 17.44 14 18 14C18.56 14 19 13.56 19 13L19 8.82C19 8.62 18.98 8.43 18.94 8.24C18.9 8.05 18.84 7.86 18.77 7.68C18.69 7.49 18.6 7.32 18.49 7.16C18.38 6.99 18.26 6.84 18.12 6.7L15.29 3.87C15.15 3.73 15 3.61 14.83 3.5C14.67 3.39 14.5 3.3 14.31 3.22C14.13 3.15 13.94 3.09 13.75 3.05C13.56 3.01 13.37 3 13.17 3L8 3C7.78 3 7.56 3.02 7.36 3.06C7.18 3.1 7 3.16 6.83 3.23C6.65 3.3 6.49 3.39 6.34 3.49C6.17 3.6 6.02 3.73 5.87 3.87C5.73 4.02 5.6 4.17 5.49 4.34C5.39 4.49 5.3 4.65 5.23 4.83C5.16 5 5.1 5.18 5.06 5.36C5.02 5.56 5 5.78 5 6L5 18C5 18.21 5.02 18.43 5.06 18.63C5.1 18.81 5.16 18.99 5.23 19.16C5.3 19.34 5.39 19.5 5.49 19.65C5.6 19.82 5.73 19.97 5.87 20.12C6.02 20.26 6.17 20.39 6.34 20.5C6.49 20.6 6.65 20.69 6.83 20.76C7 20.83 7.18 20.89 7.36 20.93C7.56 20.97 7.78 21 8 21L10 21C10.56 21 11 20.56 11 20C11 19.44 10.56 19 10 19L8 19C7.91 19 7.83 18.99 7.75 18.97C7.7 18.95 7.65 18.94 7.61 18.92C7.55 18.89 7.5 18.87 7.46 18.84C7.4 18.8 7.34 18.75 7.29 18.7C7.24 18.65 7.19 18.59 7.15 18.53C7.12 18.49 7.1 18.44 7.07 18.38C7.05 18.34 7.04 18.29 7.02 18.24C7 18.16 7 18.08 7 18L7 6C7 5.91 7 5.83 7.02 5.75C7.04 5.7 7.05 5.65 7.07 5.61C7.1 5.55 7.12 5.5 7.15 5.46C7.19 5.4 7.24 5.34 7.29 5.29C7.34 5.24 7.4 5.19 7.46 5.15C7.5 5.12 7.55 5.1 7.61 5.07C7.65 5.05 7.7 5.04 7.75 5.02C7.83 5 7.91 5 8 5L12 5ZM16.58 8L14 8L14 5.41L16.58 8ZM17.29 17.7C16.89 17.31 16.89 16.68 17.29 16.29C17.68 15.89 18.31 15.89 18.7 16.29L21.7 19.29C21.8 19.39 21.87 19.49 21.92 19.61C21.97 19.73 22 19.86 22 20C22 20.13 21.97 20.26 21.92 20.38C21.87 20.5 21.8 20.6 21.7 20.7L18.7 23.7C18.31 24.1 17.68 24.1 17.29 23.7C16.89 23.31 16.89 22.68 17.29 22.29L18.58 21L14 21C13.44 21 13 20.56 13 20C13 19.44 13.44 19 14 19L18.58 19L17.29 17.7Z" fill="currentColor" fill-opacity="1.000000" fill-rule="evenodd"/>
</svg>