<svg width="24.000000" height="24.000000" viewBox="0 0 24 24" fill="none" xmlns="http://www.w3.org/2000/svg" xmlns:xlink="http://www.w3.org/1999/xlink">
	<path id="vector" d="M18.93 6.05L4.93 6.05C4.37 6.05 3.93 6.49 3.93 7.05C3.93 7.61 4.37 8.05 4.93 8.05L18.93 8.05C19.49 8.05 19.93 7.61 19.93 7.05C19.93 6.49 19.49 6.05 18.93 6.05ZM12.25 21L15.25 20C15.4 19.95 15.53 19.87 15.64 19.76L20.64 14.76C20.87 14.52 21.05 14.26 21.17 13.96C21.29 13.67 21.35 13.36 21.35 13.05C21.35 12.73 21.29 12.43 21.17 12.14C21.05 11.84 20.87 11.57 20.64 11.34C20.41 11.11 20.14 10.93 19.84 10.81C19.55 10.69 19.25 10.63 18.93 10.63C18.62 10.63 18.32 10.69 18.03 10.81C17.73 10.93 17.46 11.11 17.23 11.34L12.23 16.34C12.12 16.45 12.04 16.58 11.99 16.73L10.99 19.73C10.92 19.94 10.92 20.15 10.99 20.37C11.2 21 11.62 21.21 12.25 21ZM5 11L12 11C12.56 11 13 11.44 13 12C13 12.56 12.56 13 12 13L5 13C4.43 13 4 12.56 4 12C4 11.44 4.43 11 5 11ZM14.39 18.17L13.52 18.47L13.81 17.59L18.64 12.76C18.72 12.67 18.82 12.63 18.93 12.63C19.05 12.63 19.15 12.67 19.23 12.76C19.31 12.84 19.35 12.93 19.35 13.05C19.35 13.16 19.31 13.26 19.23 13.34L14.39 18.17ZM9 16L5 16C4.43 16 4 16.44 4 17C4 17.56 4.43 18 5 18L9 18C9.56 18 10 17.56 10 17C10 16.44 9.56 16 9 16Z" fill="currentColor" fill-opacity="1.000000" fill-rule="evenodd"/>
</svg>
