<svg width="24.000000" height="24.000000" viewBox="0 0 24 24" fill="none" xmlns="http://www.w3.org/2000/svg" xmlns:xlink="http://www.w3.org/1999/xlink">
	<path id="vector" d="M5 6L19 6C19.5601 6 20 6.43994 20 7C20 7.56006 19.5601 8 19 8L5 8C4.43994 8 4 7.56006 4 7C4 6.43994 4.43994 6 5 6ZM17 11L7 11C6.43994 11 6 11.4399 6 12C6 12.5601 6.43994 13 7 13L17 13C17.5601 13 18 12.5601 18 12C18 11.4399 17.5601 11 17 11ZM9 16L15 16C15.5601 16 16 16.4399 16 17C16 17.5601 15.5601 18 15 18L9 18C8.43994 18 8 17.5601 8 17C8 16.4399 8.43994 16 9 16Z" clip-rule="evenodd" fill="currentColor" fill-opacity="1.000000" fill-rule="evenodd"/>
</svg>
