<svg xmlns="http://www.w3.org/2000/svg" xmlns:xlink="http://www.w3.org/1999/xlink" width="24.000000" height="24.000000" viewBox="0 0 24 24" fill="none">
	<mask id="mask418_14312" mask-type="alpha" maskUnits="userSpaceOnUse" x="0.000000" y="0.000000" width="24.000000" height="24.000000">
		<path id="vector" d="M3.06 5.34C3.1 5.45 3.16 5.56 3.24 5.65L9 12.36L9 17C9 17.18 9.04 17.36 9.14 17.52C9.24 17.68 9.38 17.8 9.55 17.89L13.55 19.89C13.79 20.01 14.05 20.03 14.31 19.94C14.57 19.86 14.77 19.69 14.89 19.44C14.92 19.37 14.95 19.3 14.97 19.22C14.99 19.15 15 19.07 15 19L15 12.36L20.75 5.65C20.93 5.44 21.01 5.19 20.99 4.92C20.97 4.64 20.86 4.42 20.65 4.24C20.56 4.16 20.45 4.1 20.34 4.06C20.23 4.02 20.11 4 20 4L4 4C3.72 4 3.48 4.09 3.29 4.29C3.09 4.48 3 4.72 3 5C3 5.11 3.02 5.23 3.06 5.34ZM6.17 6L10.75 11.34C10.83 11.43 10.89 11.54 10.93 11.65C10.97 11.76 11 11.88 11 12L11 16.38L13 17.38L13 12C13 11.88 13.02 11.76 13.06 11.65C13.1 11.54 13.16 11.43 13.24 11.34L17.82 6L6.17 6Z" fill="currentColor" fill-opacity="1.000000" fill-rule="evenodd"/>
	</mask>
	<g mask="url(#mask418_14312)">
		<rect id="color" width="24.000000" height="24.000000" fill="currentColor" fill-opacity="1.000000"/>
	</g>
</svg>