<svg xmlns="http://www.w3.org/2000/svg" xmlns:xlink="http://www.w3.org/1999/xlink" width="24.000000" height="24.000000" viewBox="0 0 24 24" fill="none">
	<path id="vector" d="M5 6L19 6C19.56 6 20 6.44 20 7C20 7.56 19.56 8 19 8L5 8C4.44 8 4 7.56 4 7C4 6.44 4.44 6 5 6ZM17 11L7 11C6.44 11 6 11.44 6 12C6 12.56 6.44 13 7 13L17 13C17.56 13 18 12.56 18 12C18 11.44 17.56 11 17 11ZM9 16L15 16C15.56 16 16 16.44 16 17C16 17.56 15.56 18 15 18L9 18C8.43 18 8 17.56 8 17C8 16.44 8.43 16 9 16Z" fill="currentColor" fill-opacity="1.000000" fill-rule="evenodd"/>
</svg>