<svg xmlns="http://www.w3.org/2000/svg" xmlns:xlink="http://www.w3.org/1999/xlink" width="24.000000" height="24.000000" viewBox="0 0 24 24" fill="none">
	<g>
		<path d="M18.52 4.14C18.3 4 18.03 3.96 17.77 4.02C17.68 4.04 17.59 4.07 17.52 4.11C17.39 4.16 17.17 4.23 17 4.27C16.42 4.42 15.75 4.5 15 4.5C14.61 4.5 14.17 4.45 13.68 4.36C13.37 4.3 12.88 4.19 12.24 4.02C11.55 3.85 11.03 3.73 10.68 3.67C10.06 3.55 9.5 3.5 9 3.5C8.08 3.5 7.25 3.59 6.5 3.77C6.26 3.84 6.03 3.9 5.83 3.98C5.72 4.02 5.62 4.06 5.55 4.1C5.46 4.14 5.39 4.19 5.32 4.26C5.25 4.32 5.19 4.39 5.14 4.47C5.09 4.55 5.06 4.63 5.03 4.72C5.01 4.81 5 4.9 5 5L5 20C5 20.56 5.44 21 6 21C6.56 21 7 20.56 7 20L7 14.71C7.58 14.57 8.25 14.5 9 14.5C9.38 14.5 9.82 14.54 10.31 14.63C10.62 14.69 11.11 14.8 11.75 14.97C12.44 15.14 12.96 15.26 13.31 15.32C13.93 15.44 14.49 15.5 15 15.5C15.91 15.5 16.74 15.4 17.49 15.22C17.73 15.15 17.96 15.09 18.16 15.01C18.23 14.98 18.3 14.96 18.35 14.93C18.56 14.85 18.73 14.71 18.85 14.52C18.96 14.35 19.01 14.14 19 13.92L19 5.08C19 4.97 18.99 4.87 18.97 4.77C18.91 4.5 18.75 4.28 18.52 4.14ZM17 13.28C16.41 13.42 15.74 13.5 15 13.5C14.61 13.5 14.17 13.45 13.68 13.36C13.37 13.3 12.88 13.19 12.24 13.02C11.55 12.85 11.03 12.73 10.68 12.67C10.06 12.55 9.5 12.5 9 12.5C8.28 12.5 7.61 12.55 7 12.67L7 5.71C7.58 5.57 8.25 5.5 9 5.5C9.38 5.5 9.82 5.54 10.31 5.63C10.62 5.69 11.11 5.8 11.75 5.97C12.44 6.14 12.96 6.26 13.31 6.32C13.93 6.44 14.49 6.5 15 6.5C15.71 6.5 16.38 6.44 17 6.32L17 13.28Z" fill="currentColor" fill-opacity="1.000000" fill-rule="evenodd"/>
	</g>
</svg>