<svg xmlns="http://www.w3.org/2000/svg" xmlns:xlink="http://www.w3.org/1999/xlink" width="24.000000" height="24.000000" viewBox="0 0 24 24" fill="none">
	<g>
		<path id="vector" d="M20.93 17.63C20.97 17.43 21 17.21 21 17L21 9C21 8.78 20.97 8.56 20.93 8.36C20.89 8.18 20.83 8 20.76 7.83C20.69 7.65 20.6 7.49 20.5 7.34C20.39 7.17 20.26 7.02 20.12 6.87C19.97 6.73 19.82 6.6 19.65 6.49C19.5 6.39 19.34 6.3 19.16 6.23C18.99 6.16 18.81 6.1 18.63 6.06C18.43 6.02 18.21 6 18 6L13.11 6C13.04 6 12.96 5.98 12.89 5.96C12.82 5.94 12.75 5.91 12.69 5.87C12.62 5.83 12.57 5.79 12.52 5.73C12.47 5.68 12.42 5.62 12.39 5.55C12.27 5.31 12.12 5.1 11.95 4.91C11.78 4.72 11.58 4.55 11.35 4.41C11.13 4.27 10.89 4.17 10.65 4.1C10.4 4.03 10.14 4 9.88 4L6 4C5.78 4 5.56 4.02 5.36 4.06C5.18 4.1 5 4.16 4.83 4.23C4.65 4.3 4.49 4.39 4.34 4.49C4.17 4.6 4.02 4.73 3.87 4.87C3.73 5.02 3.6 5.17 3.49 5.34C3.39 5.49 3.3 5.65 3.23 5.83C3.16 6 3.1 6.18 3.06 6.36C3.02 6.56 3 6.78 3 7L3 17C3 17.21 3.02 17.43 3.06 17.63C3.1 17.81 3.16 17.99 3.23 18.16C3.3 18.34 3.39 18.5 3.49 18.65C3.6 18.82 3.73 18.97 3.87 19.12C4.02 19.26 4.17 19.39 4.34 19.5C4.49 19.6 4.65 19.69 4.83 19.76C5 19.83 5.18 19.89 5.36 19.93C5.56 19.97 5.78 20 6 20L18 20C18.21 20 18.43 19.97 18.63 19.93C18.81 19.89 18.99 19.83 19.16 19.76C19.34 19.69 19.5 19.6 19.65 19.5C19.82 19.39 19.97 19.26 20.12 19.12C20.26 18.97 20.39 18.82 20.5 18.65C20.6 18.5 20.69 18.34 20.76 18.16C20.83 17.99 20.89 17.81 20.93 17.63ZM19 9L19 17C19 17.08 18.99 17.16 18.97 17.24C18.95 17.29 18.94 17.34 18.92 17.38C18.89 17.44 18.87 17.49 18.84 17.53C18.8 17.59 18.75 17.65 18.7 17.7C18.65 17.75 18.59 17.8 18.53 17.84C18.49 17.87 18.44 17.89 18.38 17.92C18.34 17.94 18.29 17.95 18.24 17.97C18.16 17.99 18.08 18 18 18L6 18C5.91 18 5.83 17.99 5.75 17.97C5.7 17.95 5.65 17.94 5.61 17.92C5.55 17.89 5.5 17.87 5.46 17.84C5.4 17.8 5.34 17.75 5.29 17.7C5.24 17.65 5.19 17.59 5.15 17.53C5.12 17.49 5.1 17.44 5.07 17.38C5.05 17.34 5.04 17.29 5.02 17.24C5 17.16 5 17.08 5 17L5 7C5 6.91 5 6.83 5.02 6.75C5.04 6.7 5.05 6.65 5.07 6.61C5.1 6.55 5.12 6.5 5.15 6.46C5.19 6.4 5.24 6.34 5.29 6.29C5.34 6.24 5.4 6.19 5.46 6.15C5.5 6.12 5.55 6.1 5.61 6.07C5.65 6.05 5.7 6.04 5.75 6.02C5.83 6 5.91 6 6 6L9.88 6C9.95 6 10.03 6.01 10.1 6.03C10.17 6.05 10.24 6.08 10.3 6.12C10.37 6.16 10.42 6.2 10.47 6.26C10.52 6.31 10.57 6.37 10.6 6.44C10.72 6.68 10.87 6.89 11.04 7.08C11.21 7.27 11.41 7.44 11.64 7.58C11.86 7.72 12.1 7.82 12.34 7.89C12.59 7.96 12.85 8 13.11 8L18 8C18.08 8 18.16 8 18.24 8.02C18.29 8.04 18.34 8.05 18.38 8.07C18.44 8.1 18.49 8.12 18.53 8.15C18.59 8.19 18.65 8.24 18.7 8.29C18.75 8.34 18.8 8.4 18.84 8.46C18.87 8.5 18.89 8.55 18.92 8.61C18.94 8.65 18.95 8.7 18.97 8.75C18.99 8.83 19 8.91 19 9Z" fill="currentColor" fill-opacity="1.000000" fill-rule="evenodd"/>
	</g>
</svg>