<svg xmlns="http://www.w3.org/2000/svg" xmlns:xlink="http://www.w3.org/1999/xlink" width="24.000000" height="24.000000" viewBox="0 0 24 24" fill="none">
	<path id="vector" d="M6.31 18.3L11.79 13.5C11.87 13.44 11.93 13.37 12 13.3L12 16.79C12 17.02 12.03 17.24 12.1 17.44C12.16 17.6 12.23 17.76 12.34 17.91C12.43 18.06 12.55 18.18 12.67 18.29C12.82 18.42 12.98 18.53 13.17 18.61C13.35 18.7 13.54 18.75 13.73 18.78C13.9 18.8 14.07 18.8 14.24 18.78C14.42 18.76 14.59 18.71 14.76 18.64C14.96 18.56 15.14 18.45 15.31 18.3L20.79 13.5C20.91 13.4 21.02 13.28 21.1 13.16C21.18 13.05 21.25 12.93 21.31 12.8C21.36 12.68 21.4 12.55 21.43 12.42C21.46 12.28 21.48 12.14 21.48 12C21.48 11.85 21.46 11.71 21.43 11.57C21.4 11.44 21.36 11.31 21.31 11.19C21.25 11.06 21.18 10.94 21.1 10.83C21.02 10.71 20.91 10.59 20.79 10.49L15.31 5.69C15.14 5.54 14.96 5.43 14.76 5.35C14.59 5.28 14.42 5.23 14.24 5.21C14.07 5.19 13.9 5.19 13.73 5.21C13.54 5.24 13.35 5.29 13.17 5.38C12.98 5.46 12.82 5.57 12.67 5.7C12.55 5.81 12.43 5.93 12.34 6.08C12.23 6.23 12.16 6.39 12.1 6.55C12.03 6.76 12 6.97 12 7.2L12 10.69C11.93 10.62 11.87 10.55 11.79 10.49L6.31 5.69C6.14 5.54 5.96 5.43 5.76 5.35C5.59 5.28 5.42 5.23 5.24 5.21C5.07 5.19 4.9 5.19 4.73 5.21C4.54 5.24 4.35 5.29 4.17 5.38C3.98 5.46 3.82 5.57 3.67 5.7C3.55 5.81 3.43 5.93 3.34 6.08C3.23 6.23 3.16 6.39 3.1 6.55C3.03 6.76 3 6.97 3 7.2L3 16.79C3 17.02 3.03 17.24 3.1 17.44C3.16 17.6 3.23 17.76 3.34 17.91C3.43 18.06 3.55 18.18 3.67 18.29C3.82 18.42 3.98 18.53 4.17 18.61C4.35 18.7 4.54 18.75 4.73 18.78C4.9 18.8 5.07 18.8 5.24 18.78C5.42 18.76 5.59 18.71 5.76 18.64C5.96 18.56 6.14 18.45 6.31 18.3ZM5 7.2L10.48 12L5 16.79L5 7.2ZM19.48 12L14 7.2L14 16.79L19.48 12Z" fill="currentColor" fill-opacity="1.000000" fill-rule="evenodd"/>
</svg>