<svg width="24.000000" height="24.000000" viewBox="0 0 24 24" fill="none" xmlns="http://www.w3.org/2000/svg" xmlns:xlink="http://www.w3.org/1999/xlink">
	<path id="Union" d="M19 4L14 4C13.44 4 13 4.44 13 5C13 5.56 13.44 6 14 6L16.76 6L13.38 9.38C13.03 9.72 13.03 10.27 13.38 10.61C13.72 10.96 14.27 10.96 14.61 10.61L18 7.23L18 10C18 10.56 18.44 11 19 11C19.56 11 20 10.56 20 10L20 5C20 4.66 19.91 4.41 19.75 4.25C19.58 4.08 19.33 4 19 4ZM5 13C4.44 13 4 13.44 4 14L4 19C4 19.33 4.08 19.58 4.25 19.75C4.41 19.91 4.66 20 5 20L10 20C10.56 20 11 19.56 11 19C11 18.44 10.56 18 10 18L7.23 18L10.61 14.61C10.96 14.27 10.96 13.72 10.61 13.38C10.27 13.03 9.72 13.03 9.38 13.38L6 16.76L6 14C6 13.44 5.56 13 5 13Z" fill="currentColor" fill-opacity="1.000000" fill-rule="evenodd"/>
</svg>
