<svg width="24.000000" height="24.000000" viewBox="0 0 24 24" fill="none" xmlns="http://www.w3.org/2000/svg" xmlns:xlink="http://www.w3.org/1999/xlink">
	<path id="vector" d="M18.5 3C18.07 4.15 17.15 5.07 16 5.5C17.15 5.92 18.07 6.84 18.5 8C18.92 6.84 19.84 5.92 21 5.5C19.84 5.07 18.92 4.15 18.5 3ZM11.65 4.06C11.36 4.16 11.16 4.36 11.06 4.65C10.92 5.03 10.75 5.4 10.57 5.77C10.4 6.1 10.21 6.43 10.01 6.75C9.8 7.07 9.58 7.38 9.34 7.67C9.1 7.98 8.83 8.27 8.55 8.55C8.27 8.83 7.98 9.1 7.67 9.34C7.38 9.58 7.07 9.8 6.75 10.01C6.43 10.21 6.1 10.4 5.77 10.57C5.4 10.75 5.03 10.92 4.65 11.06C4.34 11.17 4.13 11.34 4.03 11.55C3.93 11.77 3.94 12.03 4.06 12.34C4.16 12.63 4.36 12.83 4.65 12.93C5.03 13.07 5.4 13.24 5.77 13.42C6.1 13.59 6.43 13.78 6.75 13.98C7.4 14.4 8 14.89 8.55 15.44C9.1 15.99 9.59 16.59 10.01 17.24C10.21 17.56 10.4 17.89 10.57 18.22C10.75 18.59 10.92 18.96 11.06 19.34C11.29 19.97 11.72 20.16 12.34 19.93C12.63 19.83 12.83 19.63 12.93 19.34C13.21 18.6 13.56 17.9 13.98 17.24C14.4 16.59 14.89 15.99 15.44 15.44C15.99 14.89 16.59 14.4 17.24 13.98C17.56 13.78 17.89 13.59 18.22 13.42C18.59 13.24 18.96 13.07 19.34 12.93C19.97 12.7 20.16 12.27 19.93 11.65C19.83 11.36 19.63 11.16 19.34 11.06C18.96 10.92 18.59 10.75 18.22 10.57C17.89 10.4 17.56 10.21 17.24 10.01C16.59 9.59 15.99 9.1 15.44 8.55C14.89 8 14.4 7.4 13.98 6.75C13.78 6.43 13.59 6.1 13.42 5.77C13.24 5.4 13.07 5.03 12.93 4.65C12.7 4.02 12.27 3.83 11.65 4.06ZM12 7.33C11.9 7.5 11.8 7.67 11.69 7.83C11.45 8.21 11.18 8.58 10.9 8.93C10.61 9.29 10.3 9.64 9.97 9.97C9.64 10.3 9.29 10.61 8.93 10.9C8.58 11.18 8.21 11.45 7.83 11.69C7.67 11.8 7.5 11.9 7.33 12C7.5 12.09 7.67 12.19 7.83 12.3C8.6 12.8 9.32 13.37 9.97 14.02C10.3 14.35 10.61 14.7 10.9 15.06C11.18 15.41 11.45 15.78 11.69 16.16C11.8 16.32 11.9 16.49 12 16.66C12.09 16.49 12.19 16.32 12.3 16.16C12.8 15.39 13.37 14.67 14.02 14.02C14.67 13.37 15.39 12.8 16.16 12.3C16.32 12.19 16.49 12.09 16.66 12C16.49 11.9 16.32 11.8 16.16 11.69C15.39 11.19 14.67 10.62 14.02 9.97C13.37 9.32 12.8 8.6 12.3 7.83C12.19 7.67 12.09 7.5 12 7.33ZM3 18.5C4.15 18.07 5.07 17.15 5.5 16C5.92 17.15 6.84 18.07 8 18.5C6.84 18.92 5.92 19.84 5.5 21C5.07 19.84 4.15 18.92 3 18.5Z" fill="currentColor" fill-opacity="1.000000" fill-rule="evenodd"/>
</svg>
