<svg xmlns="http://www.w3.org/2000/svg" xmlns:xlink="http://www.w3.org/1999/xlink" width="24.000000" height="24.000000" viewBox="0 0 24 24" fill="none" >
  <path 
    fill-rule="evenodd" 
    clip-rule="evenodd" 
    d="M2 8C2 4.69 4.69 2 8 2H16C19.31 2 22 4.69 22 8V16C22 19.31 19.31 22 16 22H8C4.69 22 2 19.31 2 16V8ZM8 4C5.79 4 4 5.79 4 8V16C4 18.21 5.79 20 8 20H16C18.21 20 20 18.21 20 16V8C20 5.79 18.21 4 16 4H8Z" 
    fill="currentColor"
  />
  <path 
    fill-rule="evenodd" 
    clip-rule="evenodd" 
    d="M10.2 6C10.62 6 11 6.26 11.14 6.66L13.8 14.05L14.66 11.66C14.8 11.26 15.18 11 15.6 11H18C18.55 11 19 11.45 19 12C19 12.55 18.55 13 18 13H16.3L14.74 17.34C14.6 17.74 14.22 18 13.8 18C13.38 18 13 17.74 12.86 17.34L10.2 9.95L9.34 12.34C9.2 12.74 8.82 13 8.4 13H6C5.45 13 5 12.55 5 12C5 11.45 5.45 11 6 11H7.7L9.26 6.66C9.4 6.26 9.78 6 10.2 6Z" 
    fill="currentColor"
  />
</svg>