<svg xmlns="http://www.w3.org/2000/svg" xmlns:xlink="http://www.w3.org/1999/xlink" width="24.000000" height="24.000000" viewBox="0 0 24 24" fill="none">
	<g>
		<path id="vector" d="M16.73 13L20 13C20.56 13 21 12.56 21 12C21 11.43 20.56 11 20 11L16 11C15.78 11 15.58 11.06 15.4 11.19C15.22 11.32 15.1 11.49 15.04 11.7L14.01 15.04L10.95 4.71C10.88 4.45 10.71 4.25 10.47 4.12C10.23 3.98 9.98 3.96 9.71 4.04C9.55 4.08 9.4 4.17 9.28 4.29C9.16 4.41 9.08 4.56 9.03 4.72L7.24 11L4 11C3.44 11 3 11.43 3 12C3 12.56 3.44 13 4 13L8 13C8.22 13 8.42 12.93 8.6 12.79C8.78 12.66 8.9 12.48 8.96 12.27L10.01 8.57L13.04 18.78C13.08 18.94 13.17 19.08 13.28 19.2C13.4 19.32 13.54 19.4 13.7 19.45C13.96 19.53 14.22 19.51 14.46 19.38C14.71 19.25 14.87 19.05 14.95 18.79L16.73 13Z" fill="currentColor" fill-opacity="1.000000" fill-rule="evenodd"/>
	</g>
</svg>