<svg xmlns="http://www.w3.org/2000/svg" xmlns:xlink="http://www.w3.org/1999/xlink" width="24.000000" height="24.000000" viewBox="0 0 24 24" fill="none">
	<g>
		<path id="vector" d="M11.31 5.05C10.78 4.87 10.22 5.15 10.05 5.68L9.27 8L7 8C6.44 8 6 8.43 6 9C6 9.55 6.44 10 7 10L8.61 10L7.27 14L5 14C4.44 14 4 14.43 4 15C4 15.55 4.44 16 5 16L6.61 16L6.05 17.68C5.87 18.21 6.15 18.77 6.68 18.94C7.21 19.12 7.77 18.84 7.94 18.31L8.72 16L12.61 16L12.05 17.68C11.87 18.21 12.15 18.77 12.68 18.94C13.21 19.12 13.77 18.84 13.94 18.31L14.72 16L17 16C17.56 16 18 15.55 18 15C18 14.43 17.56 14 17 14L15.38 14L16.72 10L19 10C19.56 10 20 9.55 20 9C20 8.43 19.56 8 19 8L17.38 8L17.94 6.31C18.12 5.78 17.84 5.22 17.31 5.05C16.78 4.87 16.22 5.15 16.05 5.68L15.27 8L11.38 8L11.94 6.31C12.12 5.78 11.84 5.22 11.31 5.05ZM14.61 10L10.72 10L9.38 14L13.27 14L14.61 10Z" fill="currentColor" fill-opacity="1.000000" fill-rule="evenodd"/>
	</g>
</svg>