<svg xmlns="http://www.w3.org/2000/svg" xmlns:xlink="http://www.w3.org/1999/xlink" width="24.000000" height="24.000000" viewBox="0 0 24 24" fill="none">
	<g clip-path="url(#clip526_1634)">
		<path id="vector" d="M9 19C9 19.13 8.97 19.26 8.92 19.38C8.87 19.5 8.8 19.6 8.7 19.7C8.6 19.8 8.5 19.87 8.38 19.92C8.26 19.97 8.13 19.99 8 19.99L4 20C3.44 20 3 19.56 3 19C2.99 18.44 3.43 18 3.99 18L5.29 17.99C5.13 17.82 4.98 17.64 4.84 17.46C4.62 17.17 4.42 16.87 4.24 16.56C4.02 16.2 3.84 15.82 3.68 15.44C3.54 15.1 3.42 14.75 3.32 14.4C3.24 14.1 3.17 13.8 3.12 13.49C3.04 13 3 12.5 3 12C3 11.33 3.07 10.67 3.21 10.04C3.32 9.51 3.49 9 3.7 8.49C3.92 7.98 4.17 7.5 4.47 7.05C4.81 6.54 5.19 6.07 5.63 5.63C6.07 5.19 6.54 4.81 7.05 4.47C7.5 4.17 7.98 3.92 8.49 3.7C9 3.49 9.51 3.32 10.04 3.21C10.67 3.07 11.33 3 12 3C12.66 3 13.32 3.07 13.95 3.21C14.48 3.32 14.99 3.49 15.5 3.7C16.01 3.92 16.49 4.17 16.94 4.47C17.45 4.81 17.92 5.19 18.36 5.63C18.8 6.07 19.18 6.54 19.52 7.05C19.82 7.5 20.07 7.98 20.29 8.49C20.5 9 20.67 9.51 20.78 10.04C20.92 10.67 21 11.33 21 12C21 12.66 20.92 13.32 20.78 13.95C20.67 14.48 20.5 14.99 20.29 15.5C20.07 16.01 19.82 16.49 19.52 16.94C19.18 17.45 18.8 17.92 18.36 18.36C17.92 18.8 17.45 19.18 16.94 19.52C16.49 19.82 16.01 20.07 15.5 20.29C14.99 20.5 14.48 20.67 13.95 20.78C13.32 20.92 12.66 21 12 21C11.44 21 11 20.56 11 20C11 19.44 11.44 19 12 19C12.53 19 13.05 18.94 13.56 18.82C13.95 18.73 14.34 18.61 14.72 18.45C15.11 18.28 15.48 18.08 15.83 17.86C16.23 17.59 16.6 17.29 16.94 16.94C17.29 16.6 17.59 16.23 17.86 15.83C18.08 15.48 18.28 15.11 18.45 14.72C18.61 14.34 18.73 13.95 18.82 13.56C18.94 13.05 19 12.53 19 12C19 11.46 18.94 10.94 18.82 10.43C18.73 10.04 18.61 9.65 18.45 9.27C18.28 8.88 18.08 8.51 17.86 8.16C17.59 7.76 17.29 7.39 16.94 7.05C16.6 6.7 16.23 6.4 15.83 6.13C15.48 5.91 15.11 5.71 14.72 5.54C14.34 5.38 13.95 5.26 13.56 5.17C13.05 5.05 12.53 5 12 5C11.46 5 10.94 5.05 10.43 5.17C10.04 5.26 9.65 5.38 9.27 5.54C8.88 5.71 8.51 5.91 8.17 6.13C7.76 6.4 7.39 6.7 7.05 7.05C6.7 7.39 6.4 7.76 6.13 8.16C5.91 8.51 5.71 8.88 5.54 9.27C5.38 9.65 5.26 10.04 5.17 10.43C5.05 10.94 5 11.46 5 12C5 12.41 5.03 12.82 5.1 13.22C5.14 13.44 5.19 13.65 5.25 13.87C5.32 14.14 5.41 14.4 5.52 14.66C5.64 14.96 5.79 15.26 5.96 15.54C6.1 15.78 6.25 16.01 6.42 16.23C6.6 16.46 6.79 16.68 7 16.89L7 14.99C7 14.43 7.44 13.99 8 14C8.56 14 9 14.44 9 15L9 18.84C9 18.89 9 18.94 9 19ZM13 11L13 8C13 7.44 12.56 7 12 7C11.44 7 11 7.44 11 8L11 12C11 12.13 11.02 12.26 11.07 12.38C11.12 12.5 11.19 12.6 11.29 12.7C11.39 12.8 11.49 12.87 11.61 12.92C11.73 12.97 11.86 13 12 13L16 13C16.56 13 17 12.56 17 12C17 11.44 16.56 11 16 11L13 11Z" fill="currentColor" fill-opacity="1.000000" fill-rule="evenodd"/>
	</g>
</svg>