<svg width="24.000000" height="24.000000" viewBox="0 0 24 24" fill="none" xmlns="http://www.w3.org/2000/svg" xmlns:xlink="http://www.w3.org/1999/xlink">
	<defs/>
	<rect id="icon" width="24.000000" height="24.000000" fill="none" fill-opacity="0"/>
	<rect id="base" x="3.000000" y="3.000000" rx="5.000000" width="18.000000" height="18.000000" fill="none"/>
	<path id="path" d="M2 8C2 4.68 4.68 2 8 2L16 2C19.31 2 22 4.68 22 8L22 16C22 19.31 19.31 22 16 22L8 22C4.68 22 2 19.31 2 16L2 8ZM8 4C5.79 4 4 5.79 4 8L4 16C4 18.2 5.79 20 8 20L16 20C18.2 20 20 18.2 20 16L20 8C20 5.79 18.2 4 16 4L8 4Z" fill="currentColor" fill-opacity="1.000000" fill-rule="evenodd"/>
	<path id="path" d="M13 7.75C13 8.44 12.44 9 11.75 9C11.05 9 10.5 8.44 10.5 7.75C10.5 7.05 11.05 6.5 11.75 6.5C12.44 6.5 13 7.05 13 7.75ZM10 11C10 10.44 10.44 10 11 10L12 10C12.55 10 13 10.44 13 11L13 15C13.55 15 14 15.44 14 16C14 16.55 13.55 17 13 17L11 17C10.44 17 10 16.55 10 16C10 15.44 10.44 15 11 15L11 12C10.44 12 10 11.55 10 11Z" fill="currentColor" fill-opacity="1.000000" fill-rule="evenodd"/>
</svg>
