<svg width="24.000000" height="24.000000" viewBox="0 0 24 24" fill="none" xmlns="http://www.w3.org/2000/svg" xmlns:xlink="http://www.w3.org/1999/xlink">
	<path id="vector" d="M10 5C10 3.89 10.89 3 12 3C13.1 3 14 3.89 14 5C14 6.1 13.1 7 12 7C10.89 7 10 6.1 10 5ZM12 10C10.89 10 10 10.89 10 12C10 13.1 10.89 14 12 14C13.1 14 14 13.1 14 12C14 10.89 13.1 10 12 10ZM10 18.5C10 17.39 10.89 16.5 12 16.5C13.1 16.5 14 17.39 14 18.5C14 19.6 13.1 20.5 12 20.5C10.89 20.5 10 19.6 10 18.5Z" fill="currentColor" fill-opacity="1.000000" fill-rule="evenodd"/>
</svg>
