<svg xmlns="http://www.w3.org/2000/svg" xmlns:xlink="http://www.w3.org/1999/xlink" width="24.000000" height="24.000000" viewBox="0 0 24 24" fill="none">
	<g>
		<path id="vector" d="M19.7 5.7L19.41 6L20.7 7.29C21.1 7.68 21.1 8.31 20.7 8.7C20.31 9.1 19.68 9.1 19.29 8.7L18 7.41L17.41 8L18.7 9.29C19.1 9.68 19.1 10.31 18.7 10.7C18.31 11.1 17.68 11.1 17.29 10.7L16 9.41L13.17 12.24C13.69 13.03 14 13.98 14 15C14 17.76 11.76 20 9 20C6.23 20 4 17.76 4 15C4 12.23 6.23 10 9 10C10.01 10 10.96 10.3 11.75 10.82L17.29 5.29L18.29 4.29C18.68 3.89 19.31 3.89 19.7 4.29C20.1 4.68 20.1 5.31 19.7 5.7ZM9 12C7.34 12 6 13.34 6 15C6 16.65 7.34 18 9 18C10.65 18 12 16.65 12 15C12 13.34 10.65 12 9 12Z" fill="currentColor" fill-opacity="1.000000" fill-rule="evenodd"/>
	</g>
</svg>