<svg xmlns="http://www.w3.org/2000/svg" xmlns:xlink="http://www.w3.org/1999/xlink" width="24.000000" height="24.000000" viewBox="0 0 24 24" fill="none">
	<g>
		<path id="vector" d="M18.85 4.06C18.99 4.1 19.14 4.14 19.28 4.2C19.47 4.27 19.65 4.37 19.82 4.48C19.94 4.56 20.05 4.65 20.16 4.75C20.32 4.9 20.46 5.07 20.57 5.25C20.65 5.36 20.71 5.48 20.77 5.6C20.84 5.77 20.9 5.95 20.94 6.13C20.98 6.3 21 6.48 21 6.66L21 13.33C21 13.51 20.98 13.69 20.94 13.86C20.9 14.04 20.84 14.22 20.77 14.39C20.71 14.51 20.65 14.63 20.57 14.74C20.46 14.92 20.32 15.09 20.16 15.24C20.05 15.34 19.94 15.43 19.82 15.51C19.65 15.62 19.47 15.72 19.28 15.79C19.14 15.85 18.99 15.89 18.85 15.93C18.64 15.97 18.43 16 18.22 16L5.77 16C5.56 16 5.35 15.97 5.14 15.93C5 15.89 4.85 15.85 4.71 15.79C4.52 15.72 4.34 15.62 4.17 15.51C4.05 15.43 3.94 15.34 3.83 15.24C3.67 15.09 3.53 14.92 3.42 14.74C3.34 14.63 3.28 14.51 3.22 14.39C3.15 14.22 3.09 14.04 3.05 13.86C3.01 13.69 3 13.51 3 13.33L3 6.66C3 6.48 3.01 6.3 3.05 6.13C3.09 5.95 3.15 5.77 3.22 5.6C3.28 5.48 3.34 5.36 3.42 5.25C3.53 5.07 3.67 4.9 3.83 4.75C3.94 4.65 4.05 4.56 4.17 4.48C4.34 4.37 4.52 4.27 4.71 4.2C4.85 4.14 5 4.1 5.14 4.06C5.35 4.02 5.56 4 5.77 4L18.22 4C18.43 4 18.64 4.02 18.85 4.06ZM18.22 6L5.77 6C5.63 6 5.5 6.02 5.39 6.08C5.32 6.11 5.26 6.16 5.2 6.21C5.11 6.29 5.05 6.38 5.02 6.48C5 6.54 5 6.6 5 6.66L5 13.33C5 13.39 5 13.45 5.02 13.51C5.05 13.61 5.11 13.7 5.2 13.78C5.26 13.83 5.32 13.88 5.39 13.91C5.5 13.97 5.63 14 5.77 14L18.22 14C18.36 14 18.49 13.97 18.6 13.91C18.67 13.88 18.73 13.83 18.79 13.78C18.88 13.7 18.94 13.61 18.97 13.51C18.99 13.45 19 13.39 19 13.33L19 6.66C19 6.6 18.99 6.54 18.97 6.48C18.94 6.38 18.88 6.29 18.79 6.21C18.73 6.16 18.67 6.11 18.6 6.08C18.49 6.02 18.36 6 18.22 6ZM4 18L20 18C20.56 18 21 18.43 21 19C21 19.56 20.56 20 20 20L4 20C3.44 20 3 19.56 3 19C3 18.43 3.44 18 4 18Z" fill="currentColor" fill-opacity="1.000000" fill-rule="evenodd"/>
	</g>
</svg>