<svg xmlns="http://www.w3.org/2000/svg" xmlns:xlink="http://www.w3.org/1999/xlink" width="20.000000" height="20.000000" viewBox="0 0 20 20" fill="none">
	<defs>
		<clipPath id="clip4323_157257">
			<rect id="Icon" width="20.000000" height="20.000000" fill="white" fill-opacity="0"/>
		</clipPath>
	</defs>
	<g clip-path="url(#clip4323_157257)">
		<path id="vector" d="M10.69 8.2L11.19 4.68C11.2 4.58 11.19 4.48 11.15 4.38C11.12 4.28 11.06 4.2 10.97 4.13C10.85 4.03 10.7 3.98 10.54 4C10.37 4.01 10.24 4.09 10.13 4.22L4.73 10.82C4.69 10.87 4.65 10.93 4.63 10.99C4.61 11.06 4.6 11.13 4.6 11.2C4.6 11.36 4.65 11.5 4.77 11.62C4.89 11.74 5.03 11.79 5.2 11.79L9.3 11.79L8.8 15.31C8.79 15.41 8.8 15.51 8.84 15.61C8.87 15.71 8.93 15.79 9.02 15.86C9.14 15.96 9.29 16.01 9.45 15.99C9.62 15.98 9.75 15.9 9.86 15.77L15.26 9.17C15.3 9.12 15.34 9.06 15.36 9C15.38 8.93 15.39 8.86 15.39 8.79C15.39 8.63 15.34 8.49 15.22 8.37C15.1 8.25 14.96 8.2 14.79 8.2L10.69 8.2Z" fill="currentColor" fill-opacity="1.000000" fill-rule="evenodd"/>
	</g>
</svg>