<svg xmlns="http://www.w3.org/2000/svg" xmlns:xlink="http://www.w3.org/1999/xlink" width="24.000000" height="24.000000" viewBox="0 0 24 24" fill="none">
	<path id="vector" d="M12 21C7.02 21 3 16.97 3 12C3 7.02 7.02 3 12 3C16.97 3 21 7.02 21 12C21 16.97 16.97 21 12 21Z" fill="currentColor" fill-opacity="1.000000" fill-rule="evenodd"/>
	<path id="vector" d="M12.51 10.65L12.88 8.01C12.89 7.93 12.88 7.86 12.85 7.78C12.83 7.71 12.78 7.65 12.72 7.6C12.63 7.52 12.52 7.49 12.4 7.5C12.27 7.51 12.17 7.56 12.1 7.66L8.1 12.61C8.06 12.65 8.04 12.7 8.02 12.74C8 12.79 8 12.84 8 12.9C8 13.02 8.04 13.12 8.13 13.21C8.21 13.3 8.32 13.34 8.44 13.34L11.48 13.34L11.11 15.98C11.1 16.06 11.11 16.13 11.14 16.21C11.16 16.28 11.21 16.34 11.27 16.39C11.36 16.47 11.47 16.5 11.59 16.49C11.72 16.48 11.82 16.43 11.89 16.33L15.89 11.38C15.93 11.34 15.95 11.29 15.97 11.25C15.99 11.2 16 11.15 16 11.09C16 10.97 15.95 10.87 15.86 10.78C15.78 10.69 15.67 10.65 15.55 10.65L12.51 10.65Z" fill="#FFFFFF" fill-opacity="1.000000" fill-rule="evenodd"/>
</svg>