<svg xmlns="http://www.w3.org/2000/svg" xmlns:xlink="http://www.w3.org/1999/xlink" width="24.000000" height="24.000000" viewBox="0 0 24 24" fill="none">
	<g>
		<path id="vector" d="M9.81 4.15C10.18 4.24 10.55 4.38 10.9 4.55C11.26 4.72 11.59 4.93 11.89 5.17C11.93 5.19 11.96 5.22 12 5.25C12.03 5.22 12.06 5.19 12.1 5.17C12.4 4.93 12.73 4.72 13.09 4.55C13.44 4.38 13.81 4.24 14.18 4.15C14.61 4.05 15.05 4 15.5 4C15.9 4 16.3 4.04 16.68 4.12C17.01 4.19 17.33 4.3 17.64 4.43C17.95 4.56 18.24 4.72 18.52 4.9C18.83 5.1 19.12 5.34 19.38 5.61C19.89 6.11 20.28 6.7 20.56 7.35C20.69 7.66 20.8 7.98 20.87 8.31C20.95 8.69 21 9.09 21 9.5C21 10.48 20.85 11.42 20.56 12.31C20.16 13.52 19.49 14.64 18.55 15.67C17.83 16.47 16.92 17.23 15.85 17.96C14.88 18.61 13.75 19.26 12.43 19.89C12.14 20.04 11.85 20.04 11.56 19.89C10.24 19.26 9.11 18.61 8.14 17.96C7.07 17.23 6.16 16.47 5.44 15.67C4.5 14.64 3.83 13.52 3.43 12.31C3.14 11.42 3 10.48 3 9.5C3 9.09 3.04 8.69 3.12 8.31C3.19 7.98 3.3 7.66 3.43 7.35C3.56 7.04 3.72 6.75 3.9 6.47C4.1 6.16 4.34 5.87 4.61 5.61C4.87 5.34 5.16 5.1 5.47 4.9C5.75 4.72 6.04 4.56 6.35 4.43C6.66 4.3 6.98 4.19 7.31 4.12C7.69 4.04 8.09 4 8.5 4C8.94 4 9.38 4.05 9.81 4.15Z" fill="currentColor" fill-opacity="1.000000" fill-rule="evenodd"/>
	</g>
</svg>