
<svg width="24.000000" height="24.000000" viewBox="0 0 24 24" fill="none" xmlns="http://www.w3.org/2000/svg" xmlns:xlink="http://www.w3.org/1999/xlink">
	<g>
		<path id="vector" d="M9.81 4.15C9.38 4.05 8.94 4 8.5 4C8.09 4 7.69 4.04 7.31 4.12C6.98 4.19 6.66 4.3 6.35 4.43C6.04 4.56 5.75 4.72 5.47 4.9C5.16 5.1 4.87 5.34 4.61 5.61C4.34 5.87 4.1 6.16 3.9 6.47C3.72 6.75 3.56 7.04 3.43 7.35C3.3 7.66 3.19 7.98 3.12 8.31C3.04 8.69 3 9.09 3 9.5C3 10.48 3.14 11.42 3.43 12.31C3.83 13.52 4.5 14.64 5.44 15.67C6.16 16.47 7.07 17.23 8.14 17.96C9.11 18.61 10.24 19.26 11.56 19.89C11.85 20.04 12.14 20.04 12.43 19.89C13.75 19.26 14.88 18.61 15.85 17.96C16.92 17.23 17.83 16.47 18.55 15.67C19.49 14.64 20.16 13.52 20.56 12.31C20.85 11.42 21 10.48 21 9.5C21 9.09 20.95 8.69 20.87 8.31C20.8 7.98 20.69 7.66 20.56 7.35C20.28 6.7 19.89 6.11 19.38 5.61C19.12 5.34 18.83 5.1 18.52 4.9C18.24 4.72 17.95 4.56 17.64 4.43C17.33 4.3 17.01 4.19 16.68 4.12C16.3 4.04 15.9 4 15.5 4C15.05 4 14.61 4.05 14.18 4.15C13.81 4.24 13.44 4.38 13.09 4.55C12.73 4.72 12.4 4.93 12.1 5.17C12.06 5.19 12.03 5.22 12 5.25C11.96 5.22 11.93 5.19 11.89 5.17C11.59 4.93 11.26 4.72 10.9 4.55C10.55 4.38 10.18 4.24 9.81 4.15ZM7.7 6.08C7.96 6.02 8.22 6 8.5 6C8.79 6 9.08 6.03 9.36 6.1C9.59 6.16 9.81 6.24 10.03 6.35C10.25 6.46 10.46 6.58 10.65 6.73C10.86 6.9 11.05 7.08 11.22 7.3C11.43 7.55 11.65 7.7 11.88 7.72C12.12 7.75 12.36 7.65 12.62 7.44C12.68 7.4 12.73 7.35 12.77 7.3C13.1 6.89 13.5 6.57 13.96 6.35C14.18 6.24 14.4 6.16 14.63 6.1C14.91 6.03 15.2 6 15.5 6C15.97 6 16.42 6.09 16.86 6.27C17.05 6.35 17.23 6.45 17.4 6.56C17.61 6.69 17.8 6.85 17.97 7.02C18.29 7.34 18.54 7.71 18.72 8.13C18.9 8.57 19 9.02 19 9.5C19 10.4 18.84 11.24 18.54 12.02C18.22 12.8 17.71 13.63 17.07 14.33C16.45 15.01 15.67 15.67 14.73 16.3C13.95 16.83 13.04 17.35 12 17.88C10.95 17.35 10.04 16.83 9.26 16.3C8.32 15.67 7.54 15.01 6.92 14.33C6.28 13.63 5.81 12.89 5.49 12.12C5.19 11.33 5 10.4 5 9.5C5 9.22 5.02 8.96 5.08 8.7C5.13 8.51 5.19 8.32 5.27 8.13C5.35 7.94 5.45 7.76 5.56 7.59C5.69 7.38 5.85 7.19 6.02 7.02C6.19 6.85 6.38 6.69 6.59 6.56C6.76 6.45 6.94 6.35 7.13 6.27C7.32 6.19 7.51 6.13 7.7 6.08Z" fill="currentColor" fill-opacity="1.000000" fill-rule="evenodd"/>
	</g>
</svg>
