<svg xmlns="http://www.w3.org/2000/svg" xmlns:xlink="http://www.w3.org/1999/xlink" width="24.000000" height="24.000000" viewBox="0 0 24 24" fill="none">
	<path id="vector" d="M12.81 4.76L11.79 5.79C11.39 6.18 11.39 6.81 11.79 7.2C12.18 7.6 12.81 7.6 13.2 7.2L14.23 6.18C14.37 6.04 14.52 5.92 14.68 5.82C14.8 5.75 14.92 5.68 15.05 5.63C15.19 5.57 15.33 5.53 15.47 5.5C15.64 5.46 15.82 5.44 16 5.44C16.17 5.44 16.35 5.46 16.52 5.5C16.66 5.53 16.8 5.57 16.94 5.63C17.07 5.68 17.19 5.75 17.31 5.82C17.48 5.92 17.62 6.04 17.76 6.18C17.9 6.32 18.07 6.52 18.17 6.68C18.25 6.8 18.31 6.92 18.36 7.05C18.42 7.19 18.46 7.33 18.49 7.47C18.53 7.64 18.55 7.82 18.55 8C18.55 8.17 18.53 8.35 18.49 8.52C18.46 8.66 18.42 8.8 18.36 8.94C18.31 9.07 18.25 9.19 18.17 9.31C18.07 9.47 17.95 9.62 17.81 9.76L15.26 12.31C15.12 12.45 14.98 12.57 14.81 12.67C14.69 12.74 14.57 12.81 14.44 12.86C14.3 12.92 14.16 12.96 14.02 12.99C13.85 13.03 13.67 13.05 13.5 13.05C13.32 13.05 13.14 13.03 12.97 12.99C12.83 12.96 12.69 12.92 12.55 12.86C12.42 12.81 12.3 12.74 12.18 12.67C12.02 12.57 11.87 12.45 11.73 12.31C11.33 11.92 10.68 11.89 10.29 12.29C9.89 12.68 9.89 13.31 10.29 13.7C10.52 13.94 10.8 14.16 11.07 14.34C11.3 14.49 11.54 14.61 11.8 14.72C12.06 14.82 12.32 14.9 12.59 14.95C12.89 15.02 13.19 15.05 13.5 15.05C13.8 15.05 14.1 15.02 14.4 14.95C14.67 14.9 14.93 14.82 15.19 14.72C15.45 14.61 15.69 14.49 15.92 14.34C16.19 14.16 16.44 13.96 16.68 13.73L19.23 11.18C19.46 10.94 19.66 10.69 19.84 10.42C19.99 10.19 20.11 9.95 20.22 9.69C20.32 9.43 20.4 9.17 20.45 8.9C20.52 8.6 20.55 8.3 20.55 8C20.55 7.69 20.52 7.39 20.45 7.09C20.4 6.82 20.32 6.56 20.22 6.3C20.11 6.04 19.99 5.8 19.84 5.57C19.66 5.3 19.46 5.05 19.23 4.81C18.99 4.58 18.69 4.33 18.42 4.15C18.19 4 17.95 3.88 17.69 3.77C17.43 3.67 17.17 3.59 16.9 3.54C16.6 3.47 16.3 3.44 16 3.44C15.69 3.44 15.39 3.47 15.09 3.54C14.82 3.59 14.56 3.67 14.3 3.77C14.05 3.88 13.8 4 13.57 4.15C13.3 4.33 13.05 4.53 12.81 4.76ZM12.2 18.2L11.18 19.23C10.94 19.46 10.69 19.66 10.42 19.84C10.19 19.99 9.95 20.11 9.69 20.22C9.43 20.32 9.17 20.4 8.9 20.45C8.6 20.52 8.3 20.55 8 20.55C7.69 20.55 7.39 20.52 7.09 20.45C6.82 20.4 6.56 20.32 6.3 20.22C6.04 20.11 5.8 19.99 5.57 19.84C5.3 19.66 5.05 19.46 4.81 19.23C4.58 18.99 4.33 18.69 4.15 18.42C4 18.19 3.88 17.95 3.77 17.69C3.67 17.43 3.59 17.17 3.54 16.9C3.47 16.6 3.44 16.3 3.44 16C3.44 15.69 3.47 15.39 3.54 15.09C3.59 14.82 3.67 14.56 3.77 14.3C3.88 14.04 4 13.8 4.15 13.57C4.33 13.3 4.53 13.05 4.76 12.81L7.81 9.76C8.05 9.53 8.3 9.33 8.57 9.15C8.8 9 9.04 8.88 9.3 8.77C9.56 8.67 9.82 8.59 10.09 8.54C10.39 8.47 10.69 8.44 11 8.44C11.3 8.44 11.6 8.47 11.9 8.54C12.17 8.59 12.43 8.67 12.69 8.77C12.95 8.88 13.19 9 13.42 9.15C13.69 9.33 13.94 9.53 14.18 9.76C14.57 10.16 14.6 10.81 14.2 11.2C13.81 11.6 13.18 11.6 12.79 11.2C12.65 11.06 12.48 10.92 12.31 10.82C12.19 10.75 12.07 10.68 11.94 10.63C11.8 10.57 11.66 10.53 11.52 10.5C11.35 10.46 11.17 10.44 11 10.44C10.82 10.44 10.64 10.46 10.47 10.5C10.33 10.53 10.19 10.57 10.05 10.63C9.92 10.68 9.8 10.75 9.68 10.82C9.52 10.92 9.37 11.04 9.23 11.18L6.18 14.23C6.04 14.37 5.92 14.52 5.82 14.68C5.75 14.8 5.68 14.92 5.63 15.05C5.57 15.19 5.53 15.33 5.5 15.47C5.46 15.64 5.44 15.82 5.44 16C5.44 16.17 5.46 16.35 5.5 16.52C5.53 16.66 5.57 16.8 5.63 16.94C5.68 17.07 5.75 17.19 5.82 17.31C5.92 17.47 6.04 17.62 6.18 17.76C6.32 17.9 6.52 18.07 6.68 18.17C6.8 18.24 6.92 18.31 7.05 18.36C7.19 18.42 7.33 18.46 7.47 18.49C7.64 18.53 7.82 18.55 8 18.55C8.17 18.55 8.35 18.53 8.52 18.49C8.66 18.46 8.8 18.42 8.94 18.36C9.07 18.31 9.19 18.24 9.31 18.17C9.47 18.07 9.62 17.95 9.76 17.81L10.79 16.79C11.18 16.39 11.81 16.39 12.2 16.79C12.6 17.18 12.6 17.81 12.2 18.2Z" fill="currentColor" fill-opacity="1.000000" fill-rule="evenodd"/>
</svg>