<svg xmlns="http://www.w3.org/2000/svg" xmlns:xlink="http://www.w3.org/1999/xlink" width="24.000000" height="24.000000" viewBox="0 0 24 24" fill="none">
	<g>
		<path id="vector" d="M18.28 4.28C18.68 3.89 19.3 3.89 19.7 4.28C19.9 4.48 20 4.74 20 4.99C20 5.25 19.9 5.5 19.7 5.7L17.76 7.63C17.72 7.68 17.68 7.72 17.63 7.76L12.76 12.63C12.72 12.68 12.68 12.72 12.63 12.76L5.7 19.7C5.3 20.09 4.68 20.09 4.28 19.7C4.09 19.5 3.99 19.25 3.99 18.99C3.99 18.74 4.09 18.48 4.28 18.28L9.58 12.99L8.99 12.99C8.43 12.99 7.99 12.55 7.99 11.99C7.99 11.43 8.43 10.99 8.99 10.99L11.58 10.99L14.58 7.99L8.99 7.99C8.43 7.99 7.99 7.55 7.99 6.99C7.99 6.43 8.43 5.99 8.99 5.99L16.58 5.99L18.28 4.28ZM3.5 7C3.5 6.17 4.17 5.5 5 5.5C5.82 5.5 6.5 6.17 6.5 7C6.5 7.82 5.82 8.5 5 8.5C4.17 8.5 3.5 7.82 3.5 7ZM3.5 12C3.5 11.17 4.17 10.5 5 10.5C5.82 10.5 6.5 11.17 6.5 12C6.5 12.82 5.82 13.5 5 13.5C4.17 13.5 3.5 12.82 3.5 12ZM16.99 12.99C16.43 12.99 15.99 12.55 15.99 11.99C15.99 11.43 16.43 10.99 16.99 10.99L18.99 10.99C19.55 10.99 19.99 11.43 19.99 11.99C19.99 12.55 19.55 12.99 18.99 12.99L16.99 12.99ZM11.99 17.99C11.43 17.99 10.99 17.55 10.99 16.99C10.99 16.43 11.43 15.99 11.99 15.99L18.99 15.99C19.55 15.99 19.99 16.43 19.99 16.99C19.99 17.55 19.55 17.99 18.99 17.99L11.99 17.99Z" fill="currentColor" fill-opacity="1.000000" fill-rule="evenodd"/>
	</g>
</svg>