<svg width="24.000000" height="24.000000" viewBox="0 0 24 24" fill="none" xmlns="http://www.w3.org/2000/svg" xmlns:xlink="http://www.w3.org/1999/xlink">
	<path id="vector" d="M5 5.5C4.17 5.5 3.5 6.17 3.5 7C3.5 7.82 4.17 8.5 5 8.5C5.82 8.5 6.5 7.82 6.5 7C6.5 6.17 5.82 5.5 5 5.5ZM19 6L9 6C8.43 6 8 6.44 8 7C8 7.56 8.43 8 9 8L19 8C19.56 8 20 7.56 20 7C20 6.44 19.56 6 19 6ZM3.5 12C3.5 11.17 4.17 10.5 5 10.5C5.82 10.5 6.5 11.17 6.5 12C6.5 12.82 5.82 13.5 5 13.5C4.17 13.5 3.5 12.82 3.5 12ZM9 11L19 11C19.56 11 20 11.44 20 12C20 12.56 19.56 13 19 13L9 13C8.43 13 8 12.56 8 12C8 11.44 8.43 11 9 11ZM5 15.5C4.17 15.5 3.5 16.17 3.5 17C3.5 17.82 4.17 18.5 5 18.5C5.82 18.5 6.5 17.82 6.5 17C6.5 16.17 5.82 15.5 5 15.5ZM19 16L9 16C8.43 16 8 16.44 8 17C8 17.56 8.43 18 9 18L19 18C19.56 18 20 17.56 20 17C20 16.44 19.56 16 19 16Z" fill="currentColor" fill-opacity="1.000000" fill-rule="evenodd"/>
</svg>
