<svg xmlns="http://www.w3.org/2000/svg" xmlns:xlink="http://www.w3.org/1999/xlink" width="24.000000" height="24.000000" viewBox="0 0 24 24" fill="none">
	<path id="vector" d="M3.5 7C3.5 6.17 4.17 5.5 5 5.5C5.82 5.5 6.5 6.17 6.5 7C6.5 7.82 5.82 8.5 5 8.5C4.17 8.5 3.5 7.82 3.5 7ZM9 8C8.43 8 8 7.56 8 7C8 6.44 8.43 6 9 6L19 6C19.56 6 20 6.44 20 7C20 7.56 19.56 8 19 8L9 8ZM3.5 12C3.5 11.17 4.17 10.5 5 10.5C5.82 10.5 6.5 11.17 6.5 12C6.5 12.82 5.82 13.5 5 13.5C4.17 13.5 3.5 12.82 3.5 12ZM9 13C8.43 13 8 12.56 8 12C8 11.44 8.43 11 9 11L15 11C15.56 11 16 11.44 16 12C16 12.56 15.56 13 15 13L9 13ZM18 14C18 13.44 18.44 13 19 13C19.56 13 20 13.44 20 14L20 16L22 16C22.56 16 23 16.44 23 17C23 17.56 22.56 18 22 18L20 18L20 20C20 20.56 19.56 21 19 21C18.44 21 18 20.56 18 20L18 18L16 18C15.44 18 15 17.56 15 17C15 16.44 15.44 16 16 16L18 16L18 14ZM3.5 17C3.5 16.17 4.17 15.5 5 15.5C5.82 15.5 6.5 16.17 6.5 17C6.5 17.82 5.82 18.5 5 18.5C4.17 18.5 3.5 17.82 3.5 17ZM9 18C8.43 18 8 17.56 8 17C8 16.44 8.43 16 9 16L12 16C12.56 16 13 16.44 13 17C13 17.56 12.56 18 12 18L9 18Z" fill="currentColor" fill-opacity="1.000000" fill-rule="evenodd"/>
</svg>