<svg xmlns="http://www.w3.org/2000/svg" xmlns:xlink="http://www.w3.org/1999/xlink" width="24.000000" height="24.000000" viewBox="0 0 24 24" fill="none">
	<g>
		<path id="vector" d="M8 10L8 8C8 7.7 8.03 7.42 8.09 7.14C8.14 6.9 8.21 6.67 8.31 6.44C8.41 6.21 8.52 5.99 8.66 5.79C8.8 5.57 8.97 5.36 9.17 5.17C9.36 4.97 9.57 4.8 9.79 4.66C9.99 4.52 10.21 4.41 10.44 4.31C10.67 4.21 10.9 4.14 11.14 4.09C11.42 4.03 11.7 4 12 4C12.29 4 12.57 4.03 12.85 4.09C13.09 4.14 13.32 4.21 13.55 4.31C13.78 4.41 14 4.52 14.2 4.66C14.42 4.8 14.63 4.97 14.82 5.17C15.02 5.36 15.19 5.57 15.33 5.79C15.47 5.99 15.58 6.21 15.68 6.44C15.78 6.67 15.85 6.9 15.9 7.14C15.96 7.42 16 7.7 16 8L16 10C17.1 10 18 10.89 18 12L18 14C18 17.31 15.31 20 12 20C8.68 20 6 17.31 6 14L6 12C6 10.89 6.89 10 8 10ZM10 10L14 10L14 8C14 7.84 13.98 7.68 13.94 7.53C13.92 7.43 13.88 7.32 13.84 7.22C13.79 7.11 13.74 7.01 13.67 6.91C13.6 6.79 13.51 6.68 13.41 6.58C13.31 6.48 13.2 6.39 13.08 6.32C12.98 6.25 12.88 6.2 12.77 6.15C12.67 6.11 12.56 6.07 12.46 6.05C12.31 6.01 12.15 6 12 6C11.84 6 11.68 6.01 11.53 6.05C11.43 6.07 11.32 6.11 11.22 6.15C11.11 6.2 11.01 6.25 10.91 6.32C10.79 6.39 10.68 6.48 10.58 6.58C10.48 6.68 10.39 6.79 10.32 6.91C10.25 7.01 10.2 7.11 10.15 7.22C10.11 7.32 10.07 7.43 10.05 7.53C10.01 7.68 10 7.84 10 8L10 10ZM11 13C11 12.44 11.44 12 12 12C12.55 12 13 12.44 13 13L13 15C13 15.55 12.55 16 12 16C11.44 16 11 15.55 11 15L11 13Z" fill="currentColor" fill-opacity="1.000000" fill-rule="evenodd"/>
	</g>
</svg>