<svg xmlns="http://www.w3.org/2000/svg" xmlns:xlink="http://www.w3.org/1999/xlink" width="24.000000" height="24.000000" viewBox="0 0 24 24" fill="none">
	<g>
		<path id="vector" d="M16 3C16.51 3 17.02 3.05 17.51 3.16C17.92 3.25 18.33 3.38 18.72 3.55C19.12 3.71 19.49 3.91 19.85 4.15C20.24 4.41 20.6 4.71 20.94 5.05C21.28 5.39 21.58 5.75 21.84 6.14C22.08 6.5 22.28 6.87 22.44 7.27C22.61 7.66 22.74 8.07 22.83 8.48C22.94 8.97 23 9.48 23 10C23 10.56 22.56 11 22 11C21.44 11 21 10.56 21 10C21 9.61 20.95 9.24 20.87 8.87C20.81 8.59 20.72 8.32 20.6 8.05C20.49 7.77 20.35 7.51 20.18 7.26C20 6.97 19.78 6.71 19.53 6.46C19.28 6.21 19.02 5.99 18.73 5.81C18.48 5.64 18.22 5.5 17.94 5.39C17.67 5.27 17.4 5.18 17.12 5.12C16.75 5.04 16.38 5 16 5C15.44 5 15 4.56 15 4C15 3.43 15.44 3 16 3ZM21 16L21 14C21 13.43 20.56 13 20 13C19.44 13 19 13.43 19 14L19 16C19 16.08 18.99 16.16 18.97 16.24C18.95 16.29 18.94 16.34 18.92 16.38C18.89 16.44 18.87 16.49 18.84 16.53C18.8 16.59 18.75 16.65 18.7 16.7C18.65 16.75 18.59 16.8 18.53 16.84C18.49 16.87 18.44 16.89 18.38 16.92C18.34 16.94 18.29 16.95 18.24 16.97C18.16 16.99 18.08 17 18 17L6 17C5.91 17 5.83 16.99 5.75 16.97C5.7 16.95 5.65 16.94 5.61 16.92C5.55 16.89 5.5 16.87 5.46 16.84C5.4 16.8 5.34 16.75 5.29 16.7C5.24 16.65 5.19 16.59 5.15 16.53C5.12 16.49 5.1 16.44 5.07 16.38C5.05 16.34 5.04 16.29 5.02 16.24C5.01 16.16 5 16.08 5 16L5 8C5 7.91 5 7.83 5.02 7.75C5.04 7.7 5.05 7.65 5.07 7.61C5.1 7.55 5.12 7.5 5.15 7.46C5.19 7.4 5.24 7.34 5.29 7.29C5.34 7.24 5.4 7.19 5.46 7.15C5.5 7.12 5.55 7.1 5.61 7.07C5.65 7.05 5.7 7.04 5.75 7.02C5.83 7 5.91 7 6 7L12 7C12.56 7 13 6.56 13 6C13 5.43 12.56 5 12 5L6 5C5.78 5 5.56 5.02 5.36 5.06C5.18 5.1 5 5.16 4.83 5.23C4.65 5.3 4.49 5.39 4.34 5.49C4.17 5.6 4.02 5.73 3.87 5.87C3.73 6.02 3.6 6.17 3.49 6.34C3.39 6.49 3.3 6.65 3.23 6.83C3.16 7 3.1 7.18 3.06 7.36C3.02 7.56 3 7.78 3 8L3 16C3 16.21 3.02 16.43 3.06 16.63C3.1 16.81 3.16 16.99 3.23 17.16C3.3 17.34 3.39 17.5 3.49 17.65C3.6 17.82 3.73 17.97 3.87 18.12C4.02 18.26 4.17 18.39 4.34 18.5C4.49 18.6 4.65 18.69 4.83 18.76C5 18.83 5.18 18.89 5.36 18.93C5.56 18.97 5.78 19 6 19L18 19C18.21 19 18.43 18.97 18.63 18.93C18.81 18.89 18.99 18.83 19.16 18.76C19.34 18.69 19.5 18.6 19.65 18.5C19.82 18.39 19.97 18.26 20.12 18.12C20.26 17.97 20.39 17.82 20.5 17.65C20.6 17.5 20.69 17.34 20.76 17.16C20.83 16.99 20.89 16.81 20.93 16.63C20.97 16.43 21 16.21 21 16ZM16.85 6.09C16.57 6.03 16.29 6 16 6C15.44 6 15 6.43 15 7C15 7.56 15.44 8 16 8C16.15 8 16.31 8.01 16.46 8.05C16.56 8.07 16.67 8.11 16.77 8.15C16.88 8.2 16.98 8.25 17.08 8.32C17.2 8.39 17.31 8.48 17.41 8.58C17.51 8.68 17.6 8.79 17.67 8.91C17.74 9.01 17.79 9.11 17.84 9.22C17.88 9.32 17.92 9.43 17.94 9.53C17.98 9.68 18 9.84 18 10C18 10.56 18.44 11 19 11C19.56 11 20 10.56 20 10C20 9.7 19.96 9.42 19.9 9.14C19.85 8.9 19.78 8.67 19.68 8.44C19.58 8.21 19.47 7.99 19.33 7.79C19.19 7.57 19.02 7.36 18.82 7.17C18.63 6.97 18.42 6.8 18.2 6.66C18 6.52 17.78 6.41 17.55 6.31C17.32 6.21 17.09 6.14 16.85 6.09ZM11.92 11.66L7.62 8.21C7.18 7.86 6.56 7.93 6.21 8.37C5.86 8.81 5.93 9.43 6.37 9.78L11.37 13.78C11.47 13.86 11.58 13.91 11.69 13.95C11.8 13.99 11.92 14 12.05 13.99C12.18 13.99 12.3 13.96 12.4 13.91C12.51 13.86 12.61 13.79 12.7 13.7L13.7 12.7C14.1 12.31 14.1 11.68 13.7 11.29C13.31 10.89 12.68 10.89 12.29 11.29L11.92 11.66ZM16 11C16.55 11 17 10.55 17 10C17 9.44 16.55 9 16 9C15.44 9 15 9.44 15 10C15 10.55 15.44 11 16 11Z" fill="currentColor" fill-opacity="1.000000" fill-rule="evenodd"/>
	</g>
</svg>