<svg xmlns="http://www.w3.org/2000/svg" xmlns:xlink="http://www.w3.org/1999/xlink" width="24.000000" height="24.000000" viewBox="0 0 24 24" fill="none">
	<path id="vector" d="M18.63 5.06C18.81 5.1 18.99 5.16 19.16 5.23C19.34 5.3 19.5 5.39 19.65 5.49C19.82 5.6 19.97 5.73 20.12 5.87C20.26 6.02 20.39 6.17 20.5 6.34C20.6 6.49 20.69 6.65 20.76 6.83C20.83 7 20.89 7.18 20.93 7.36C20.97 7.56 21 7.78 21 8L21 16C21 16.21 20.97 16.43 20.93 16.63C20.89 16.81 20.83 16.99 20.76 17.16C20.69 17.34 20.6 17.5 20.5 17.65C20.39 17.82 20.26 17.97 20.12 18.12C19.97 18.26 19.82 18.39 19.65 18.5C19.5 18.6 19.34 18.69 19.16 18.76C18.99 18.83 18.81 18.89 18.63 18.93C18.43 18.97 18.21 19 18 19L6 19C5.78 19 5.56 18.97 5.36 18.93C5.18 18.89 5 18.83 4.83 18.76C4.65 18.69 4.49 18.6 4.34 18.5C4.17 18.39 4.02 18.26 3.87 18.12C3.73 17.97 3.6 17.82 3.49 17.65C3.39 17.5 3.3 17.34 3.23 17.16C3.16 16.99 3.1 16.81 3.06 16.63C3.02 16.43 3 16.21 3 16L3 8C3 7.78 3.02 7.56 3.06 7.36C3.1 7.18 3.16 7 3.23 6.83C3.3 6.65 3.39 6.49 3.49 6.34C3.6 6.17 3.73 6.02 3.87 5.87C4.02 5.73 4.17 5.6 4.34 5.49C4.49 5.39 4.65 5.3 4.83 5.23C5 5.16 5.18 5.1 5.36 5.06C5.56 5.02 5.78 5 6 5L18 5C18.21 5 18.43 5.02 18.63 5.06ZM18 7L6 7C5.91 7 5.83 7 5.75 7.02C5.7 7.04 5.65 7.05 5.61 7.07C5.55 7.1 5.5 7.12 5.46 7.15C5.4 7.19 5.34 7.24 5.29 7.29C5.24 7.34 5.19 7.4 5.15 7.46C5.12 7.5 5.1 7.55 5.07 7.61C5.05 7.65 5.04 7.7 5.02 7.75C5 7.83 5 7.91 5 8L5 16C5 16.08 5 16.16 5.02 16.24C5.04 16.29 5.05 16.34 5.07 16.38C5.1 16.44 5.12 16.49 5.15 16.53C5.19 16.59 5.24 16.65 5.29 16.7C5.34 16.75 5.4 16.8 5.46 16.84C5.5 16.87 5.55 16.89 5.61 16.92C5.65 16.94 5.7 16.95 5.75 16.97C5.83 16.99 5.91 17 6 17L18 17C18.08 17 18.16 16.99 18.24 16.97C18.29 16.95 18.34 16.94 18.38 16.92C18.44 16.89 18.49 16.87 18.53 16.84C18.59 16.8 18.65 16.75 18.7 16.7C18.75 16.65 18.8 16.59 18.84 16.53C18.87 16.49 18.89 16.44 18.92 16.38C18.94 16.34 18.95 16.29 18.97 16.24C18.99 16.16 19 16.08 19 16L19 8C19 7.91 18.99 7.83 18.97 7.75C18.95 7.7 18.94 7.65 18.92 7.61C18.89 7.55 18.87 7.5 18.84 7.46C18.8 7.4 18.75 7.34 18.7 7.29C18.65 7.24 18.59 7.19 18.53 7.15C18.49 7.12 18.44 7.1 18.38 7.07C18.34 7.05 18.29 7.04 18.24 7.02C18.16 7 18.08 7 18 7ZM7.62 8.21L12 11.71L16.37 8.21C16.81 7.86 17.43 7.93 17.78 8.37C18.13 8.81 18.06 9.43 17.62 9.78L12.62 13.78C12.44 13.92 12.23 14 12 14C11.76 14 11.55 13.92 11.37 13.78L6.37 9.78C5.93 9.43 5.86 8.81 6.21 8.37C6.56 7.93 7.18 7.86 7.62 8.21Z" fill="currentColor" fill-opacity="1.000000" fill-rule="evenodd"/>
</svg>