<svg width="24.000000" height="24.000000" viewBox="0 0 24 24" fill="none" xmlns="http://www.w3.org/2000/svg" xmlns:xlink="http://www.w3.org/1999/xlink">
	<defs>
		<clipPath id="clip526_1747">
			<rect id="interface / map-pin" width="24.000000" height="24.000000" fill="white" fill-opacity="0"/>
		</clipPath>
	</defs>
	<g clip-path="url(#clip526_1747)">
		<path id="vector" d="M11.42 21.81C11.34 21.76 11.23 21.67 11.09 21.57C10.82 21.37 10.54 21.14 10.26 20.91C9.35 20.14 8.51 19.34 7.75 18.49C6.67 17.3 5.82 16.1 5.2 14.9C4.4 13.35 4 11.83 4 10.36C4 9.76 4.05 9.17 4.17 8.59C4.27 8.11 4.41 7.64 4.6 7.17C4.84 6.55 5.15 5.98 5.52 5.45C5.76 5.1 6.03 4.77 6.32 4.46C6.77 3.99 7.26 3.58 7.8 3.24C8.15 3.01 8.53 2.81 8.92 2.64C9.45 2.41 9.99 2.24 10.55 2.13C11.02 2.04 11.5 2 12 2C12.49 2 12.97 2.04 13.44 2.13C14 2.24 14.54 2.41 15.07 2.64C15.46 2.81 15.84 3.01 16.19 3.24C16.73 3.58 17.22 3.99 17.67 4.46C17.96 4.77 18.23 5.1 18.47 5.45C18.84 5.98 19.15 6.55 19.39 7.17C19.58 7.64 19.72 8.11 19.82 8.59C19.94 9.17 20 9.76 20 10.36C20 11.83 19.59 13.35 18.79 14.9C18.17 16.1 17.32 17.3 16.24 18.49C15.48 19.34 14.64 20.14 13.73 20.91C13.45 21.14 13.17 21.37 12.9 21.57C12.76 21.67 12.65 21.76 12.57 21.81C12.48 21.87 12.39 21.92 12.3 21.95C12.2 21.98 12.1 22 12 22C11.89 22 11.79 21.98 11.69 21.95C11.6 21.92 11.51 21.87 11.42 21.81ZM12.45 19.37C12.29 19.5 12.14 19.62 12 19.74C11.85 19.62 11.7 19.5 11.54 19.37C10.7 18.67 9.94 17.93 9.24 17.16C8.27 16.09 7.52 15.03 6.98 13.98C6.32 12.71 6 11.51 6 10.36C6 9.88 6.04 9.42 6.14 8.96C6.22 8.61 6.32 8.25 6.46 7.91C6.65 7.41 6.9 6.95 7.21 6.52C7.38 6.28 7.57 6.06 7.77 5.84C8.13 5.46 8.52 5.14 8.95 4.88C9.19 4.72 9.45 4.59 9.72 4.47C10.12 4.3 10.53 4.17 10.96 4.09C11.3 4.03 11.64 4 12 4C12.35 4 12.69 4.03 13.03 4.09C13.46 4.17 13.87 4.3 14.27 4.47C14.54 4.59 14.8 4.72 15.04 4.88C15.47 5.14 15.86 5.46 16.22 5.84C16.42 6.06 16.61 6.28 16.78 6.52C17.09 6.95 17.34 7.41 17.53 7.91C17.67 8.25 17.77 8.61 17.85 8.96C17.95 9.42 18 9.88 18 10.36C18 11.51 17.67 12.71 17.01 13.98C16.47 15.03 15.72 16.09 14.75 17.16C14.05 17.93 13.29 18.67 12.45 19.37ZM11.36 12.93C11.56 12.97 11.78 13 12 13C12.21 13 12.43 12.97 12.63 12.93C12.81 12.89 12.99 12.83 13.16 12.76C13.34 12.69 13.5 12.6 13.65 12.5C13.82 12.39 13.97 12.26 14.12 12.12C14.26 11.97 14.39 11.82 14.5 11.65C14.6 11.5 14.69 11.34 14.76 11.16C14.83 10.99 14.89 10.81 14.93 10.63C14.97 10.43 15 10.21 15 10C15 9.78 14.97 9.56 14.93 9.36C14.89 9.18 14.83 9 14.76 8.83C14.69 8.65 14.6 8.49 14.5 8.34C14.39 8.17 14.26 8.02 14.12 7.87C13.97 7.73 13.82 7.6 13.65 7.49C13.5 7.39 13.34 7.3 13.16 7.23C12.99 7.16 12.81 7.1 12.63 7.06C12.43 7.02 12.21 7 12 7C11.78 7 11.56 7.02 11.36 7.06C11.18 7.1 11 7.16 10.83 7.23C10.65 7.3 10.49 7.39 10.34 7.49C10.17 7.6 10.02 7.73 9.87 7.87C9.73 8.02 9.6 8.17 9.49 8.34C9.39 8.49 9.3 8.65 9.23 8.83C9.16 9 9.1 9.18 9.06 9.36C9.02 9.56 9 9.78 9 10C9 10.21 9.02 10.43 9.06 10.63C9.1 10.81 9.16 10.99 9.23 11.16C9.3 11.34 9.39 11.5 9.49 11.65C9.6 11.82 9.73 11.97 9.87 12.12C10.02 12.26 10.17 12.39 10.34 12.5C10.49 12.6 10.65 12.69 10.83 12.76C11 12.83 11.18 12.89 11.36 12.93ZM12.24 10.97C12.16 10.99 12.08 11 12 11C11.91 11 11.83 10.99 11.75 10.97C11.7 10.95 11.65 10.94 11.61 10.92C11.55 10.89 11.5 10.87 11.46 10.84C11.4 10.8 11.34 10.75 11.29 10.7C11.24 10.65 11.19 10.59 11.15 10.53C11.12 10.49 11.1 10.44 11.07 10.38C11.05 10.34 11.04 10.29 11.02 10.24C11 10.16 11 10.08 11 10C11 9.91 11 9.83 11.02 9.75C11.04 9.7 11.05 9.65 11.07 9.61C11.1 9.55 11.12 9.5 11.15 9.46C11.19 9.4 11.24 9.34 11.29 9.29C11.34 9.24 11.4 9.19 11.46 9.15C11.5 9.12 11.55 9.1 11.61 9.07C11.65 9.05 11.7 9.04 11.75 9.02C11.83 9 11.91 9 12 9C12.08 9 12.16 9 12.24 9.02C12.29 9.04 12.34 9.05 12.38 9.07C12.44 9.1 12.49 9.12 12.53 9.15C12.59 9.19 12.65 9.24 12.7 9.29C12.75 9.34 12.8 9.4 12.84 9.46C12.87 9.5 12.89 9.55 12.92 9.61C12.94 9.65 12.95 9.7 12.97 9.75C12.99 9.83 13 9.91 13 10C13 10.08 12.99 10.16 12.97 10.24C12.95 10.29 12.94 10.34 12.92 10.38C12.89 10.44 12.87 10.49 12.84 10.53C12.8 10.59 12.75 10.65 12.7 10.7C12.65 10.75 12.59 10.8 12.53 10.84C12.49 10.87 12.44 10.89 12.38 10.92C12.34 10.94 12.29 10.95 12.24 10.97Z" fill="currentColor" fill-opacity="1.000000" fill-rule="evenodd"/>
	</g>
</svg>
