<svg width="24.000000" height="24.000000" viewBox="0 0 24 24" fill="none" xmlns="http://www.w3.org/2000/svg" xmlns:xlink="http://www.w3.org/1999/xlink">
	<path id="vector" d="M3 12C3 10.89 3.89 10 5 10C6.1 10 7 10.89 7 12C7 13.1 6.1 14 5 14C3.89 14 3 13.1 3 12ZM12 10C10.89 10 10 10.89 10 12C10 13.1 10.89 14 12 14C13.1 14 14 13.1 14 12C14 10.89 13.1 10 12 10ZM17 12C17 10.89 17.89 10 19 10C20.1 10 21 10.89 21 12C21 13.1 20.1 14 19 14C17.89 14 17 13.1 17 12Z" fill="currentColor" fill-opacity="1.000000" fill-rule="evenodd"/>
</svg>
