<svg xmlns="http://www.w3.org/2000/svg" xmlns:xlink="http://www.w3.org/1999/xlink" width="24.000000" height="24.000000" viewBox="0 0 24 24" fill="none">
	<path id="vector" d="M18.86 17.56C19 17.47 19.13 17.37 19.25 17.25C19.37 17.13 19.47 17 19.56 16.86C19.66 16.72 19.74 16.57 19.8 16.42C19.87 16.26 19.91 16.1 19.95 15.94C19.98 15.78 20 15.61 20 15.44L20 7.55C20 7.38 19.98 7.21 19.95 7.05C19.91 6.89 19.87 6.73 19.8 6.57C19.74 6.42 19.66 6.27 19.56 6.13C19.47 5.99 19.37 5.86 19.25 5.74C19.13 5.62 19 5.52 18.86 5.43C18.72 5.33 18.57 5.25 18.42 5.19C18.26 5.12 18.1 5.08 17.94 5.04C17.78 5.01 17.61 5 17.44 5L6.55 5C6.38 5 6.21 5.01 6.05 5.04C5.89 5.08 5.73 5.12 5.57 5.19C5.42 5.25 5.27 5.33 5.13 5.43C4.99 5.52 4.86 5.62 4.74 5.74C4.62 5.86 4.52 5.99 4.43 6.13C4.33 6.27 4.25 6.42 4.19 6.57C4.12 6.73 4.08 6.89 4.04 7.05C4.01 7.21 4 7.38 4 7.55L4 20C4 20.13 4.02 20.26 4.07 20.38C4.12 20.5 4.19 20.61 4.29 20.7C4.48 20.9 4.72 21 5 21C5.27 21 5.51 20.9 5.7 20.7L8.41 18L17.44 18C17.61 18 17.78 17.98 17.94 17.95C18.1 17.91 18.26 17.87 18.42 17.8C18.57 17.74 18.72 17.66 18.86 17.56ZM17.95 15.65C17.93 15.72 17.89 15.78 17.83 15.83C17.78 15.89 17.72 15.93 17.65 15.95C17.59 15.98 17.52 16 17.44 16L8 16C7.86 16 7.73 16.02 7.61 16.07C7.49 16.12 7.38 16.19 7.29 16.29L6 17.58L6 7.55C6 7.47 6.01 7.4 6.04 7.34C6.06 7.27 6.1 7.21 6.16 7.16C6.21 7.1 6.27 7.06 6.34 7.04C6.4 7.01 6.47 7 6.55 7L17.44 7C17.52 7 17.59 7.01 17.65 7.04C17.72 7.06 17.78 7.1 17.83 7.16C17.89 7.21 17.93 7.27 17.95 7.34C17.98 7.4 18 7.47 18 7.55L18 15.44C18 15.52 17.98 15.59 17.95 15.65Z" fill="currentColor" fill-opacity="1.000000" fill-rule="evenodd"/>
</svg>