<svg xmlns="http://www.w3.org/2000/svg" xmlns:xlink="http://www.w3.org/1999/xlink" width="24.000000" height="24.000000" viewBox="0 0 24 24" fill="none">
	<path id="vector" d="M19.7 18.29C20.1 18.68 20.1 19.31 19.7 19.7C19.31 20.1 18.68 20.1 18.29 19.7L16.58 18L8.41 18L5.7 20.7Q5.56 20.85 5.38 20.92C5.26 20.97 5.13 21 5 21Q4.79 21 4.61 20.92Q4.43 20.85 4.29 20.7Q4.22 20.63 4.16 20.55L4.16 20.55C4.13 20.5 4.1 20.44 4.07 20.38C4.05 20.32 4.03 20.25 4.01 20.19C4 20.13 4 20.06 4 20L4 8Q4 7.67 4.06 7.36C4.1 7.18 4.16 7 4.23 6.83Q4.34 6.57 4.49 6.34Q4.58 6.21 4.68 6.09L4.29 5.7C3.89 5.31 3.89 4.68 4.29 4.29C4.68 3.89 5.31 3.89 5.7 4.29L19.7 18.29ZM17 5L11 5C10.43 5 10 5.43 10 6C10 6.56 10.43 7 11 7L17 7C17.08 7 17.16 7 17.24 7.02C17.29 7.04 17.34 7.05 17.38 7.07C17.44 7.1 17.49 7.12 17.53 7.15C17.59 7.19 17.65 7.24 17.7 7.29C17.75 7.34 17.8 7.4 17.84 7.46C17.87 7.5 17.89 7.55 17.92 7.61C17.94 7.65 17.95 7.7 17.97 7.75C17.99 7.83 18 7.91 18 8L18 14C18 14.55 18.43 15 19 15C19.56 15 20 14.55 20 14L20 8Q20 7.67 19.93 7.36L19.93 7.36C19.89 7.18 19.83 7 19.76 6.83C19.69 6.65 19.6 6.49 19.5 6.34C19.39 6.17 19.26 6.02 19.12 5.87C18.97 5.73 18.82 5.6 18.65 5.49C18.5 5.39 18.34 5.3 18.16 5.23C17.99 5.16 17.81 5.1 17.63 5.06C17.43 5.02 17.21 5 17 5ZM6.11 7.53C6.09 7.57 6.04 7.7 6.02 7.75C6 7.83 6 7.91 6 8L6 17.58L7.29 16.29C7.33 16.24 7.39 16.2 7.44 16.16C7.49 16.13 7.55 16.1 7.61 16.07C7.67 16.05 7.74 16.03 7.8 16.01C7.86 16 7.93 16 8 16L14.58 16L6.11 7.53Z" fill="currentColor" fill-opacity="1.000000" fill-rule="evenodd"/>
</svg>