<svg xmlns="http://www.w3.org/2000/svg" xmlns:xlink="http://www.w3.org/1999/xlink" width="24.000000" height="24.000000" viewBox="0 0 24 24" fill="none">
	<path id="vector" d="M9 4C9.29 4 9.57 4.03 9.85 4.09C10.09 4.14 10.32 4.21 10.55 4.31C10.78 4.41 11 4.52 11.2 4.66C11.42 4.8 11.63 4.97 11.82 5.17C11.88 5.23 11.94 5.29 12 5.35C12.05 5.29 12.11 5.23 12.17 5.17C12.36 4.97 12.57 4.8 12.79 4.66C12.99 4.52 13.21 4.41 13.44 4.31C13.67 4.21 13.9 4.14 14.14 4.09C14.42 4.03 14.7 4 15 4L21 4C21.27 4 21.51 4.09 21.7 4.29C21.9 4.48 22 4.72 22 5L22 17C22 17.27 21.9 17.51 21.7 17.7C21.51 17.9 21.27 18 21 18L14 18C13.91 18 13.83 18 13.75 18.02C13.7 18.04 13.65 18.05 13.61 18.07C13.55 18.1 13.5 18.12 13.46 18.15C13.4 18.19 13.34 18.24 13.29 18.29C13.24 18.34 13.19 18.4 13.15 18.46C13.12 18.5 13.1 18.55 13.07 18.61C13.05 18.65 13.04 18.7 13.02 18.75C13 18.83 13 18.91 13 19L13 19.5C13 19.77 12.9 20.01 12.7 20.2C12.51 20.4 12.27 20.5 12 20.5C11.72 20.5 11.48 20.4 11.29 20.2C11.09 20.01 11 19.77 11 19.5L11 19C11 18.91 10.99 18.83 10.97 18.75C10.95 18.7 10.94 18.65 10.92 18.61C10.89 18.55 10.87 18.5 10.84 18.46C10.8 18.4 10.75 18.34 10.7 18.29C10.65 18.24 10.59 18.19 10.53 18.15C10.49 18.12 10.44 18.1 10.38 18.07C10.34 18.05 10.29 18.04 10.24 18.02C10.16 18 10.08 18 10 18L3 18C2.86 18 2.73 17.97 2.61 17.92C2.49 17.87 2.39 17.8 2.29 17.7C2.19 17.6 2.12 17.5 2.07 17.38C2.02 17.26 2 17.13 2 17L2 5C2 4.86 2.02 4.73 2.07 4.61C2.12 4.49 2.19 4.39 2.29 4.29C2.39 4.19 2.49 4.12 2.61 4.07C2.73 4.02 2.86 4 3 4L9 4ZM11 16.17L11 8C11 7.84 10.98 7.68 10.94 7.53C10.92 7.43 10.88 7.32 10.84 7.22C10.79 7.11 10.74 7.01 10.67 6.91C10.6 6.79 10.51 6.68 10.41 6.58C10.31 6.48 10.2 6.39 10.08 6.32C9.98 6.25 9.88 6.2 9.77 6.15C9.67 6.11 9.56 6.07 9.46 6.05C9.31 6.01 9.15 6 9 6L4 6L4 16L10 16C10.21 16 10.43 16.02 10.63 16.06C10.76 16.09 10.88 16.12 11 16.17ZM13 16.17C13.11 16.12 13.23 16.09 13.36 16.06C13.56 16.02 13.78 16 14 16L20 16L20 6L15 6C14.84 6 14.68 6.01 14.53 6.05C14.43 6.07 14.32 6.11 14.22 6.15C14.11 6.2 14.01 6.25 13.91 6.32C13.79 6.39 13.68 6.48 13.58 6.58C13.48 6.68 13.39 6.79 13.32 6.91C13.25 7.01 13.2 7.11 13.15 7.22C13.11 7.32 13.07 7.43 13.05 7.53C13.01 7.68 13 7.84 13 8L13 16.17Z" fill="currentColor" fill-opacity="1.000000" fill-rule="evenodd"/>
</svg>