<svg xmlns="http://www.w3.org/2000/svg" xmlns:xlink="http://www.w3.org/1999/xlink" width="24.000000" height="24.000000" viewBox="0 0 24 24" fill="none">
	<g>
		<path id="vector" d="M9.17 4.17C9.36 3.97 9.57 3.8 9.79 3.66C9.99 3.52 10.21 3.41 10.44 3.31C10.67 3.21 10.9 3.14 11.14 3.09C11.42 3.03 11.7 3 12 3C12.29 3 12.57 3.03 12.85 3.09C13.09 3.14 13.32 3.21 13.55 3.31C13.78 3.41 14 3.52 14.2 3.66C14.42 3.8 14.63 3.97 14.82 4.17C15.02 4.36 15.19 4.57 15.33 4.79C15.47 4.99 15.58 5.21 15.68 5.44C15.78 5.67 15.85 5.9 15.9 6.14C15.96 6.42 16 6.7 16 7L16 10C16 10.56 15.56 11 15 11C14.44 11 14 10.56 14 10L14 7C14 6.84 13.98 6.68 13.94 6.53C13.92 6.43 13.88 6.32 13.84 6.22C13.79 6.11 13.74 6.01 13.67 5.91C13.6 5.79 13.51 5.68 13.41 5.58C13.31 5.48 13.2 5.39 13.08 5.32C12.98 5.25 12.88 5.2 12.77 5.15C12.67 5.11 12.56 5.07 12.46 5.05C12.31 5.01 12.15 5 12 5C11.84 5 11.68 5.01 11.53 5.05C11.43 5.07 11.32 5.11 11.22 5.15C11.11 5.2 11.01 5.25 10.91 5.32C10.79 5.39 10.68 5.48 10.58 5.58C10.18 5.98 9.56 5.98 9.17 5.58C8.77 5.18 8.77 4.56 9.17 4.17ZM5.7 4.29L17.27 15.86C17.37 15.67 17.46 15.49 17.54 15.29C17.69 14.92 17.8 14.55 17.88 14.17C17.96 13.78 18 13.39 18 13L18 11C18 10.43 18.44 10 19 10C19.56 10 20 10.43 20 11L20 13C20 13.53 19.94 14.05 19.84 14.56C19.74 15.07 19.59 15.57 19.39 16.06C19.2 16.5 18.98 16.92 18.73 17.32L19.7 18.29C20.1 18.68 20.1 19.31 19.7 19.7C19.31 20.1 18.68 20.1 18.29 19.7L17.44 18.86C17.13 19.15 16.79 19.41 16.44 19.65C16.01 19.94 15.55 20.18 15.06 20.39C14.57 20.59 14.07 20.74 13.56 20.84C13.05 20.94 12.53 21 12 21C11.46 21 10.94 20.94 10.43 20.84C9.92 20.74 9.42 20.59 8.93 20.39C8.44 20.18 7.98 19.94 7.55 19.65C7.12 19.36 6.71 19.03 6.34 18.65C5.96 18.28 5.63 17.87 5.34 17.44C5.05 17.01 4.81 16.55 4.6 16.06C4.4 15.57 4.25 15.07 4.15 14.56C4.05 14.05 4 13.53 4 13L4 11C4 10.43 4.44 10 5 10C5.56 10 6 10.43 6 11L6 13C6 13.39 6.03 13.78 6.11 14.17C6.19 14.55 6.3 14.92 6.45 15.29C6.6 15.66 6.79 16 7.01 16.33C7.22 16.65 7.47 16.96 7.75 17.24C8.03 17.52 8.34 17.77 8.66 17.98C8.99 18.2 9.33 18.39 9.7 18.54C10.07 18.69 10.44 18.8 10.82 18.88C11.21 18.96 11.6 19 12 19C12.39 19 12.78 18.96 13.17 18.88C13.55 18.8 13.92 18.69 14.29 18.54C14.66 18.39 15 18.2 15.33 17.98C15.57 17.82 15.81 17.64 16.03 17.44L14.61 16.02C14.48 16.14 14.34 16.24 14.2 16.33C14 16.47 13.78 16.58 13.55 16.68C13.32 16.78 13.09 16.85 12.85 16.9C12.57 16.96 12.29 17 12 17C11.7 17 11.42 16.96 11.14 16.9C10.9 16.85 10.67 16.78 10.44 16.68C10.21 16.58 9.99 16.47 9.79 16.33C9.57 16.19 9.36 16.02 9.17 15.82C8.97 15.63 8.8 15.42 8.66 15.2C8.52 15 8.41 14.78 8.31 14.55C8.21 14.32 8.14 14.09 8.09 13.85C8.03 13.57 8 13.29 8 13L8 9.41L4.29 5.7C3.89 5.31 3.89 4.68 4.29 4.29C4.68 3.89 5.31 3.89 5.7 4.29ZM10 11.41L10 13C10 13.15 10.01 13.31 10.05 13.46C10.07 13.56 10.11 13.67 10.15 13.77C10.2 13.88 10.25 13.98 10.32 14.08C10.39 14.2 10.48 14.31 10.58 14.41C10.68 14.51 10.79 14.6 10.91 14.67C11.01 14.74 11.11 14.79 11.22 14.84C11.32 14.88 11.43 14.92 11.53 14.94C11.68 14.98 11.84 15 12 15C12.15 15 12.31 14.98 12.46 14.94C12.56 14.92 12.67 14.88 12.77 14.84C12.88 14.79 12.98 14.74 13.08 14.67C13.12 14.65 13.15 14.63 13.19 14.6L10 11.41Z" fill="currentColor" fill-opacity="1.000000" fill-rule="evenodd"/>
	</g>
</svg>