<svg xmlns="http://www.w3.org/2000/svg" xmlns:xlink="http://www.w3.org/1999/xlink" width="24.000000" height="24.000000" viewBox="0 0 24 24" fill="none">
	<g>
		<path id="vector" d="M9.77 3.67C9.99 3.52 10.22 3.4 10.46 3.3C10.71 3.2 10.96 3.12 11.21 3.07C11.47 3.02 11.73 3 12 3C12.26 3 12.52 3.02 12.78 3.07C13.03 3.12 13.28 3.2 13.53 3.3C13.77 3.4 14 3.52 14.22 3.67C14.43 3.81 14.64 3.98 14.82 4.17C15.01 4.35 15.18 4.56 15.32 4.77C15.47 4.99 15.59 5.22 15.69 5.46C15.79 5.71 15.87 5.96 15.92 6.21C15.97 6.47 16 6.73 16 7L16 13C16 13.26 15.97 13.52 15.92 13.78C15.87 14.03 15.79 14.28 15.69 14.53C15.59 14.77 15.47 15 15.32 15.22C15.18 15.43 15.01 15.64 14.82 15.82C14.64 16.01 14.43 16.18 14.22 16.32C14 16.47 13.77 16.59 13.53 16.69C13.28 16.79 13.03 16.87 12.78 16.92C12.52 16.97 12.26 17 12 17C11.73 17 11.47 16.97 11.21 16.92C10.96 16.87 10.71 16.79 10.46 16.69C10.22 16.59 9.99 16.47 9.77 16.32C9.56 16.18 9.35 16.01 9.17 15.82C8.98 15.64 8.81 15.43 8.67 15.22C8.52 15 8.4 14.77 8.3 14.53C8.2 14.28 8.12 14.03 8.07 13.78C8.02 13.52 8 13.26 8 13L8 7C8 6.73 8.02 6.47 8.07 6.21C8.12 5.96 8.2 5.71 8.3 5.46C8.4 5.22 8.52 4.99 8.67 4.77C8.81 4.56 8.98 4.35 9.17 4.17C9.35 3.98 9.56 3.81 9.77 3.67ZM10.33 5.88C10.26 5.99 10.2 6.11 10.15 6.23C10.1 6.35 10.06 6.48 10.03 6.6C10.01 6.73 10 6.86 10 7L10 13C10 13.13 10.01 13.26 10.03 13.39C10.06 13.51 10.1 13.64 10.15 13.76C10.2 13.88 10.26 14 10.33 14.11C10.4 14.21 10.49 14.32 10.58 14.41C10.67 14.5 10.78 14.59 10.88 14.66C10.99 14.73 11.11 14.79 11.23 14.84C11.35 14.89 11.48 14.93 11.6 14.96C11.73 14.98 11.86 15 12 15C12.13 15 12.26 14.98 12.39 14.96C12.51 14.93 12.64 14.89 12.76 14.84C12.88 14.79 13 14.73 13.11 14.66C13.21 14.59 13.32 14.5 13.41 14.41C13.5 14.32 13.59 14.21 13.66 14.11C13.73 14 13.79 13.88 13.84 13.76C13.89 13.64 13.93 13.51 13.96 13.39C13.98 13.26 14 13.13 14 13L14 7C14 6.86 13.98 6.73 13.96 6.6C13.93 6.48 13.89 6.35 13.84 6.23C13.79 6.11 13.73 5.99 13.66 5.88C13.59 5.78 13.5 5.67 13.41 5.58C13.32 5.49 13.21 5.4 13.11 5.33C13 5.26 12.88 5.2 12.76 5.15C12.64 5.1 12.51 5.06 12.39 5.03C12.26 5.01 12.13 5 12 5C11.86 5 11.73 5.01 11.6 5.03C11.48 5.06 11.35 5.1 11.23 5.15C11.11 5.2 10.99 5.26 10.88 5.33C10.78 5.4 10.67 5.49 10.58 5.58C10.49 5.67 10.4 5.78 10.33 5.88ZM6 11L6 13C6 13.39 6.03 13.78 6.11 14.17C6.19 14.55 6.3 14.92 6.45 15.29C6.6 15.66 6.79 16 7.01 16.33C7.22 16.65 7.47 16.96 7.75 17.24C8.03 17.52 8.34 17.77 8.66 17.98C8.99 18.2 9.33 18.39 9.7 18.54C10.07 18.69 10.44 18.8 10.82 18.88C11.21 18.96 11.6 19 12 19C12.39 19 12.78 18.96 13.17 18.88C13.55 18.8 13.92 18.69 14.29 18.54C14.66 18.39 15 18.2 15.33 17.98C15.65 17.77 15.96 17.52 16.24 17.24C16.52 16.96 16.77 16.65 16.98 16.33C17.2 16 17.39 15.66 17.54 15.29C17.69 14.92 17.8 14.55 17.88 14.17C17.96 13.78 18 13.39 18 13L18 11C18 10.43 18.44 10 19 10C19.56 10 20 10.43 20 11L20 13C20 13.53 19.94 14.05 19.84 14.56C19.74 15.07 19.59 15.57 19.39 16.06C19.18 16.55 18.94 17.01 18.65 17.44C18.36 17.87 18.03 18.28 17.65 18.65C17.28 19.03 16.87 19.36 16.44 19.65C16.01 19.94 15.55 20.18 15.06 20.39C14.57 20.59 14.07 20.74 13.56 20.84C13.05 20.94 12.53 21 12 21C11.46 21 10.94 20.94 10.43 20.84C9.92 20.74 9.42 20.59 8.93 20.39C8.44 20.18 7.98 19.94 7.55 19.65C7.12 19.36 6.71 19.03 6.34 18.65C5.96 18.28 5.63 17.87 5.34 17.44C5.05 17.01 4.81 16.55 4.6 16.06C4.4 15.57 4.25 15.07 4.15 14.56C4.05 14.05 4 13.53 4 13L4 11C4 10.43 4.44 10 5 10C5.56 10 6 10.43 6 11Z" fill="currentColor" fill-opacity="1.000000" fill-rule="evenodd"/>
	</g>
</svg>