<svg width="24.000000" height="24.000000" viewBox="0 0 24 24" fill="none" xmlns="http://www.w3.org/2000/svg" xmlns:xlink="http://www.w3.org/1999/xlink">
	<path id="vector" d="M15 5L15 7.76257L18.3813 4.38129C18.7278 4.03479 19.2722 4.03479 19.6187 4.38129C19.9652 4.72778 19.9652 5.27222 19.6187 5.61871L16.2374 9L19 9C19.56 9 20 9.44 20 10C20 10.56 19.56 11 19 11L14 11C13.6667 11 13.4167 10.9167 13.25 10.75C13.0833 10.5833 13 10.3333 13 10L13 5C13 4.44 13.44 4 14 4C14.56 4 15 4.44 15 5ZM10 13.0001L5 13.0001C4.44 13.0001 4 13.4401 4 14.0001C4 14.5601 4.44 15.0001 5 15.0001L7.76257 15.0001L4.38129 18.3813C4.03479 18.7278 4.03479 19.2723 4.38129 19.6188C4.72778 19.9653 5.27222 19.9653 5.61871 19.6188L9 16.2375L9 19.0001C9 19.5601 9.44 20.0001 10 20.0001C10.56 20.0001 11 19.5601 11 19.0001L11 14.0001C11 13.3334 10.6667 13.0001 10 13.0001Z" clip-rule="evenodd" fill="currentColor" fill-opacity="1.000000" fill-rule="evenodd"/>
</svg>
