<svg xmlns="http://www.w3.org/2000/svg" xmlns:xlink="http://www.w3.org/1999/xlink" width="24.000000" height="24.000000" viewBox="0 0 24 24" fill="none">
	<g clip-path="url(#clip526_1687)">
		<path id="vector" d="M18.3 18.44C18.6 18.15 18.88 17.83 19.14 17.49C19.41 17.15 19.64 16.8 19.85 16.43C20.06 16.06 20.24 15.68 20.4 15.28C20.56 14.88 20.69 14.48 20.78 14.07C20.88 13.65 20.95 13.23 20.99 12.81C21 12.69 20.99 12.57 20.96 12.45C20.92 12.33 20.87 12.22 20.8 12.12C20.63 11.9 20.42 11.77 20.14 11.73C19.87 11.69 19.62 11.75 19.4 11.91C19.15 12.1 18.88 12.26 18.61 12.4C18.33 12.53 18.04 12.64 17.74 12.73C17.44 12.82 17.13 12.88 16.83 12.91C16.52 12.94 16.21 12.95 15.9 12.92C15.59 12.9 15.28 12.85 14.98 12.77C14.68 12.69 14.39 12.59 14.11 12.46C13.82 12.33 13.55 12.18 13.3 12C13.04 11.82 12.81 11.63 12.59 11.4C12.36 11.18 12.17 10.94 11.99 10.69C11.81 10.44 11.66 10.17 11.53 9.88C11.4 9.6 11.29 9.31 11.22 9.01C11.14 8.71 11.09 8.4 11.07 8.09C11.04 7.78 11.05 7.47 11.08 7.16C11.11 6.85 11.17 6.55 11.26 6.25C11.34 5.95 11.46 5.66 11.59 5.38C11.73 5.11 11.89 4.84 12.08 4.59C12.15 4.49 12.2 4.38 12.24 4.26C12.27 4.15 12.28 4.03 12.27 3.9C12.24 3.63 12.12 3.4 11.91 3.23C11.7 3.05 11.46 2.97 11.18 3C10.76 3.04 10.34 3.11 9.92 3.21C9.51 3.3 9.11 3.43 8.71 3.59C8.31 3.75 7.93 3.93 7.56 4.14C7.19 4.35 6.83 4.58 6.5 4.84C6.16 5.11 5.84 5.39 5.54 5.69C5.25 6 4.98 6.32 4.72 6.67C4.47 7.01 4.25 7.37 4.05 7.75C3.85 8.12 3.68 8.51 3.53 8.91C3.38 9.32 3.27 9.73 3.18 10.14C3.1 10.56 3.04 10.98 3.01 11.4C2.99 11.83 2.99 12.26 3.02 12.68C3.05 13.1 3.12 13.52 3.21 13.94C3.3 14.36 3.42 14.77 3.57 15.16C3.72 15.56 3.9 15.94 4.11 16.32C4.31 16.7 4.54 17.05 4.8 17.39C5.05 17.73 5.33 18.05 5.64 18.35C5.94 18.66 6.26 18.94 6.6 19.19C6.94 19.44 7.29 19.67 7.67 19.88C8.04 20.09 8.43 20.26 8.83 20.41C9.22 20.56 9.63 20.69 10.05 20.78C10.47 20.87 10.89 20.94 11.31 20.97C11.73 21 12.16 21 12.58 20.98C13.01 20.95 13.43 20.89 13.85 20.81C14.26 20.72 14.67 20.6 15.07 20.46C15.48 20.31 15.87 20.14 16.24 19.94C16.61 19.74 16.97 19.52 17.32 19.27C17.67 19.01 17.99 18.74 18.3 18.44ZM18.11 15.44C17.95 15.73 17.77 16.01 17.56 16.27C17.36 16.53 17.14 16.78 16.9 17.01C16.67 17.24 16.41 17.45 16.14 17.65C15.87 17.85 15.59 18.02 15.3 18.18C15.01 18.33 14.71 18.46 14.4 18.58C14.08 18.69 13.76 18.78 13.44 18.85C13.12 18.92 12.79 18.96 12.46 18.98C12.12 19 11.79 19 11.47 18.97C11.14 18.95 10.81 18.9 10.48 18.83C10.16 18.75 9.84 18.66 9.53 18.54C9.22 18.43 8.92 18.29 8.63 18.13C8.34 17.97 8.06 17.79 7.8 17.59C7.53 17.39 7.28 17.18 7.05 16.94C6.81 16.7 6.6 16.45 6.4 16.19C6.2 15.93 6.02 15.65 5.86 15.36C5.7 15.06 5.56 14.76 5.45 14.46C5.33 14.15 5.23 13.83 5.16 13.51C5.09 13.18 5.04 12.85 5.02 12.52C4.99 12.2 4.99 11.86 5.01 11.53C5.03 11.2 5.07 10.87 5.14 10.55C5.21 10.23 5.3 9.91 5.41 9.59C5.52 9.28 5.66 8.98 5.81 8.69C5.97 8.4 6.14 8.12 6.34 7.85C6.54 7.58 6.75 7.32 6.98 7.09C7.21 6.85 7.46 6.63 7.72 6.43C7.98 6.22 8.26 6.04 8.54 5.88C8.82 5.72 9.11 5.58 9.41 5.46C9.38 5.54 9.36 5.62 9.34 5.69C9.22 6.11 9.13 6.53 9.09 6.96C9.05 7.38 9.04 7.81 9.07 8.24C9.1 8.67 9.17 9.09 9.28 9.51C9.39 9.92 9.53 10.32 9.71 10.72C9.89 11.11 10.1 11.48 10.35 11.83C10.59 12.18 10.87 12.51 11.17 12.82C11.48 13.12 11.81 13.4 12.16 13.64C12.51 13.89 12.88 14.1 13.27 14.28C13.67 14.46 14.07 14.6 14.48 14.71C14.9 14.82 15.32 14.88 15.75 14.92C16.18 14.95 16.61 14.94 17.03 14.9C17.46 14.86 17.88 14.77 18.29 14.65C18.37 14.63 18.45 14.61 18.53 14.58C18.41 14.88 18.27 15.17 18.11 15.44Z" fill="currentColor" fill-opacity="1.000000" fill-rule="evenodd"/>
	</g>
</svg>