<svg width="16.000000" height="16.000000" viewBox="0 0 16 16" fill="none" xmlns="http://www.w3.org/2000/svg" xmlns:xlink="http://www.w3.org/1999/xlink">
	<path id="Vector" d="M9.73 13.31C10.25 12.92 10.83 12.33 11.55 11.61L11.61 11.55C12.33 10.83 12.92 10.25 13.31 9.73C13.73 9.19 14 8.64 14 8C14 7.35 13.73 6.8 13.31 6.26C12.92 5.74 12.33 5.16 11.61 4.44L11.55 4.38C10.83 3.66 10.25 3.07 9.73 2.68C9.19 2.26 8.64 2 8 2C7.35 2 6.8 2.26 6.26 2.68C5.74 3.07 5.16 3.66 4.44 4.38L4.38 4.44C3.66 5.16 3.07 5.74 2.68 6.26C2.26 6.8 2 7.35 2 8C2 8.64 2.26 9.19 2.68 9.73C3.07 10.25 3.66 10.83 4.38 11.55L4.44 11.61C5.16 12.33 5.74 12.92 6.26 13.31C6.8 13.73 7.35 14 8 14C8.64 14 9.19 13.73 9.73 13.31Z" fill="#9E77ED" fill-opacity="1.000000" fill-rule="evenodd"/>
	<path id="Vector" d="M8.29 10.54C9.27 9.47 10.06 8.29 10.63 7.01C10.73 6.8 10.58 6.56 10.32 6.53C9.56 6.44 8.79 6.39 8 6.39C7.21 6.39 6.43 6.44 5.67 6.53C5.41 6.56 5.26 6.8 5.36 7.01C5.93 8.29 6.72 9.47 7.7 10.54C7.86 10.7 8.14 10.7 8.29 10.54Z" fill="#FFFFFF" fill-opacity="1.000000" fill-rule="nonzero"/>
</svg>
