<svg xmlns="http://www.w3.org/2000/svg" xmlns:xlink="http://www.w3.org/1999/xlink" width="24.000000" height="24.000000" viewBox="0 0 24 24" fill="none">
	<path id="vector" d="M6.14 7.7C6.04 8.12 6 8.55 6 9C6 10.19 5.9 11.26 5.7 12.21C5.55 12.94 5.35 13.58 5.09 14.13C4.92 14.5 4.73 14.8 4.54 15.04C4.48 15.1 4.44 15.15 4.39 15.19C4.28 15.28 4.2 15.37 4.13 15.48C4.07 15.59 4.02 15.72 4.01 15.85C3.99 15.99 3.99 16.12 4.02 16.24C4.05 16.37 4.11 16.48 4.2 16.6C4.24 16.66 4.3 16.71 4.35 16.76C4.41 16.81 4.48 16.85 4.55 16.89C4.62 16.92 4.69 16.95 4.77 16.97C4.84 16.99 4.92 17 5 17L19 17C19.13 17 19.26 16.97 19.38 16.92C19.5 16.87 19.6 16.8 19.7 16.7C19.8 16.6 19.87 16.5 19.92 16.38C19.97 16.26 20 16.13 20 16C20 15.92 19.99 15.84 19.97 15.77C19.95 15.69 19.92 15.62 19.89 15.55C19.85 15.48 19.81 15.41 19.76 15.35C19.71 15.3 19.66 15.24 19.6 15.2C19.55 15.15 19.51 15.1 19.45 15.04C19.26 14.8 19.07 14.5 18.9 14.13C18.64 13.58 18.44 12.94 18.29 12.21C18.09 11.26 18 10.19 18 9C18 8.55 17.95 8.12 17.86 7.7C17.78 7.34 17.67 7 17.52 6.66C17.38 6.32 17.21 6 17.01 5.69C16.78 5.36 16.53 5.04 16.24 4.75C15.95 4.46 15.63 4.21 15.3 3.98C14.99 3.78 14.67 3.61 14.33 3.47C13.99 3.32 13.65 3.21 13.29 3.14C12.87 3.04 12.44 3 12 3C11.55 3 11.12 3.04 10.7 3.14C10.34 3.21 10 3.32 9.66 3.47C9.32 3.61 9 3.78 8.69 3.98C8.36 4.21 8.04 4.46 7.75 4.75C7.46 5.04 7.21 5.36 6.98 5.69C6.78 6 6.61 6.32 6.47 6.66C6.32 7 6.21 7.34 6.14 7.7ZM16 9C16 8.69 15.96 8.39 15.89 8.09C15.84 7.87 15.77 7.65 15.68 7.44C15.59 7.22 15.48 7.01 15.35 6.81C15.2 6.58 15.02 6.37 14.82 6.17C14.62 5.97 14.41 5.79 14.18 5.64C13.98 5.51 13.77 5.4 13.55 5.31C13.34 5.22 13.12 5.15 12.9 5.1C12.6 5.03 12.3 5 12 5C11.69 5 11.39 5.03 11.09 5.1C10.87 5.15 10.65 5.22 10.44 5.31C10.22 5.4 10.01 5.51 9.81 5.64C9.58 5.79 9.37 5.97 9.17 6.17C8.97 6.37 8.79 6.58 8.64 6.81C8.51 7.01 8.4 7.22 8.31 7.44C8.22 7.65 8.15 7.87 8.1 8.09C8.03 8.39 8 8.69 8 9C8 10.32 7.88 11.53 7.66 12.61C7.48 13.5 7.23 14.29 6.9 14.98L17.1 15C16.77 14.3 16.51 13.5 16.33 12.61C16.11 11.53 16 10.32 16 9ZM9.16 19.55C8.85 19.09 8.97 18.47 9.44 18.16C9.91 17.85 10.52 17.97 10.83 18.44C10.93 18.59 11.1 18.74 11.29 18.83C11.34 18.86 11.4 18.88 11.46 18.91C11.63 18.97 11.81 19 12 19C12.18 19 12.36 18.97 12.53 18.91C12.59 18.88 12.65 18.86 12.7 18.83C12.89 18.74 13.04 18.61 13.15 18.46C13.46 17.99 14.09 17.85 14.55 18.16C15.02 18.47 15.14 19.09 14.83 19.55C14.73 19.7 14.62 19.83 14.5 19.96C14.25 20.22 13.95 20.45 13.6 20.62C13.4 20.72 13.2 20.8 12.99 20.86C12.67 20.95 12.34 21 12 21C11.65 21 11.32 20.95 11 20.86C10.79 20.8 10.59 20.72 10.39 20.62C10.04 20.45 9.74 20.22 9.49 19.96C9.37 19.83 9.26 19.7 9.16 19.55Z" fill="currentColor" fill-opacity="1.000000" fill-rule="evenodd"/>
</svg>