<svg xmlns="http://www.w3.org/2000/svg" xmlns:xlink="http://www.w3.org/1999/xlink" width="24.000000" height="24.000000" viewBox="0 0 24 24" fill="none">
	<path id="Vector" d="M17.33 17.42C16.25 18.5 15.38 19.38 14.6 19.97C13.78 20.59 12.97 21 12 21C11.02 21 10.21 20.59 9.39 19.97C8.61 19.38 7.74 18.5 6.66 17.42L6.57 17.33C5.49 16.25 4.61 15.38 4.02 14.6C3.4 13.78 3 12.97 3 12C3 11.02 3.4 10.21 4.02 9.39C4.61 8.61 5.49 7.74 6.57 6.66L6.66 6.57C7.74 5.49 8.61 4.61 9.39 4.02C10.21 3.4 11.02 3 12 3C12.97 3 13.78 3.4 14.6 4.02C15.38 4.61 16.25 5.49 17.33 6.57L17.42 6.66C18.5 7.74 19.38 8.61 19.97 9.39C20.59 10.21 21 11.02 21 12C21 12.97 20.59 13.78 19.97 14.6C19.38 15.38 18.5 16.25 17.42 17.33L17.33 17.42ZM8.07 7.98L7.98 8.07C6.87 9.19 6.1 9.96 5.61 10.61C5.12 11.24 5 11.64 5 12C5 12.35 5.12 12.75 5.61 13.38C6.1 14.03 6.87 14.8 7.98 15.92L8.07 16.01C9.19 17.12 9.96 17.89 10.61 18.38C11.24 18.87 11.64 19 12 19C12.35 19 12.75 18.87 13.38 18.38C14.03 17.89 14.8 17.12 15.92 16.01L16.01 15.92C17.12 14.8 17.89 14.03 18.38 13.38C18.87 12.75 19 12.35 19 12C19 11.64 18.87 11.24 18.38 10.61C17.89 9.96 17.12 9.19 16.01 8.07L15.92 7.98C14.8 6.87 14.03 6.1 13.38 5.61C12.75 5.12 12.35 5 12 5C11.64 5 11.24 5.12 10.61 5.61C9.96 6.1 9.19 6.87 8.07 7.98ZM15.95 10.52C15.1 12.43 13.9 14.21 12.44 15.81C12.2 16.06 11.79 16.06 11.55 15.81C10.09 14.21 8.89 12.43 8.04 10.52C7.89 10.2 8.12 9.84 8.5 9.79C9.64 9.66 10.81 9.6 12 9.6C13.18 9.6 14.35 9.66 15.49 9.79C15.87 9.84 16.1 10.2 15.95 10.52Z" fill="currentColor" fill-opacity="1.000000" fill-rule="evenodd"/>
</svg>