<svg xmlns="http://www.w3.org/2000/svg" xmlns:xlink="http://www.w3.org/1999/xlink" width="24.000000" height="24.000000" viewBox="0 0 24 24" fill="none">
	<path id="vector" d="M10.9 15.45C10.86 15.27 11.12 14.94 11.44 14.63C11.38 14.83 11.42 15.18 11.55 15.31C11.32 15.31 11.05 15.36 10.9 15.45ZM10.96 11.82L11.23 12.57C11 12.63 10.62 12.8 10.62 13.02C10.62 13.33 11.16 13.52 11.46 13.49C11.44 13.56 11.46 13.62 11.51 13.67C11.4 13.67 11.19 13.73 11.11 13.8C10.95 13.65 10.7 13.59 10.57 13.69C10.45 13.79 10.44 13.94 10.57 14.13C10.66 14.25 10.69 14.37 10.59 14.51C10.96 14.51 10.82 14.03 10.97 14.03C10.95 14.13 10.97 14.24 11 14.36C11.03 14.44 11.03 14.49 10.98 14.57C10.86 14.76 10.68 15.19 10.71 15.6C10.59 15.6 10.52 15.57 10.57 15.41C10.59 15.34 10.55 15.3 10.5 15.38C10.44 15.46 10.41 15.61 10.41 15.66C10.41 16.01 10.84 16.09 10.99 16.01C11.46 16.46 12.37 16.34 12.68 16.19L11.07 11.78C11.03 11.7 10.92 11.73 10.95 11.82L10.96 11.82ZM12.8 14.24C13.03 14.15 13.39 14.22 13.38 14.55C13.38 14.62 13.48 14.62 13.49 14.55C13.56 14.05 13.22 13.9 12.87 13.97C12.82 13.79 12.79 13.65 12.75 13.5C12.71 13.38 12.71 13.15 12.84 13.15C12.92 13.15 12.89 13.36 12.88 13.45C12.88 13.54 12.9 13.58 12.96 13.58C13 13.58 13.05 13.54 13.08 13.5C13.28 13.27 13.33 12.92 13.09 12.75C12.89 12.6 12.4 12.71 12.26 12.91C12.24 12.84 12.14 12.71 12.1 12.65C12.05 12.6 12.04 12.56 12.1 12.52C12.13 12.5 12.22 12.4 12.22 12.31C12.22 12.26 12.17 12.16 12.04 12.16C11.93 12.16 11.82 12.23 11.82 12.4C11.82 12.43 11.82 12.47 11.86 12.52C11.79 12.51 11.61 12.52 11.52 12.53L12.82 16.1C13.18 15.91 13.46 15.62 13.46 15.31C13.46 15.05 13.06 15.14 12.88 15.34C12.82 15 12.76 14.7 12.71 14.38C12.69 14.3 12.73 14.26 12.8 14.25L12.8 14.24ZM17.57 17.52L16.93 17.02C16.67 17.17 16.48 17.41 16.4 17.7C16.02 17.75 14.95 17.51 15.05 17.36C16.21 15.72 15.33 14.74 14.25 14.8L14.25 15.89C14.25 16.24 13.95 16.53 13.56 16.53L12.82 16.53C12.29 16.53 11.95 17.06 11.95 17.06C11.95 17.06 11.61 16.53 11.08 16.53L10.34 16.53C9.96 16.53 9.65 16.24 9.65 15.89L9.65 14.8C8.58 14.74 7.69 15.72 8.85 17.36C8.95 17.51 7.86 17.76 7.35 17.7C7.21 17.56 7.02 17.47 6.81 17.47C6.71 17.47 6.62 17.49 6.54 17.51C6.54 17.51 4.52 15.61 4.49 15.59L4.5 15.55C4.61 15.34 4.44 15.1 4.33 15.12C4.46 14.96 4.47 14.29 3.75 14.13C3.77 14.27 3.78 14.55 3.78 14.55C3.78 14.55 3.22 14.25 2.95 14.51C2.71 14.8 3.04 15.32 3.04 15.32C3.04 15.32 2.76 15.32 2.62 15.32C2.82 16.01 3.51 15.97 3.66 15.83C3.65 15.94 3.9 16.1 4.11 15.97L4.2 15.92L6.18 17.8C6.09 17.94 6.05 18.09 6.08 18.27C6.12 18.54 6.35 18.76 6.64 18.83C6.84 18.87 7.04 18.83 7.19 18.74L7.71 19.22C7.75 19.26 7.82 19.28 7.88 19.28C8.01 19.28 8.1 19.17 8.09 19.05C8.09 18.99 8.07 18.95 8.03 18.91C8.03 18.9 7.5 18.42 7.5 18.42C7.94 18.12 8.73 17.91 9.4 17.91C9.52 17.91 9.58 17.81 9.53 17.72C9.23 16.99 9.88 16.47 10.54 16.9C10.84 17.08 11.13 17.45 11.35 18.06C10.26 18.32 8.88 19.05 8.6 19.85C8.49 20.16 8.85 20.58 9.28 20.66L9.3 20.66C9.3 20.66 9.31 20.65 9.31 20.64C9.53 19.45 10.82 18.56 11.48 18.41C11.52 18.51 11.5 18.48 11.54 18.56C10.81 18.9 10.1 19.63 9.91 20.49C9.81 20.89 10.26 21.25 10.62 21.34C10.63 21.34 10.65 21.34 10.65 21.31C10.73 20.23 11.2 19.3 11.64 18.87C11.65 18.96 11.66 19.04 11.66 19.12C11.66 19.12 11.22 20.36 11.22 21.25C11.22 21.66 11.84 21.96 11.93 22C12.04 21.96 12.67 21.66 12.67 21.25C12.67 20.36 12.23 19.12 12.23 19.12C12.23 19.04 12.24 18.96 12.25 18.87C12.69 19.3 13.17 20.22 13.24 21.31C13.24 21.33 13.26 21.34 13.28 21.34C13.64 21.24 14.08 20.89 13.98 20.49C13.78 19.63 13.08 18.91 12.36 18.56C12.39 18.47 12.37 18.5 12.41 18.41C13.08 18.56 14.36 19.45 14.58 20.64C14.58 20.64 14.58 20.66 14.59 20.66L14.61 20.66C15.04 20.58 15.39 20.15 15.29 19.85C15.02 19.05 13.63 18.32 12.54 18.06C12.76 17.45 13.05 17.08 13.35 16.9C14.02 16.47 14.67 17 14.36 17.72C14.32 17.82 14.38 17.91 14.49 17.91C15.25 17.91 16.17 18.18 16.53 18.54C16.76 18.89 17.2 19.12 17.68 19.07C18.24 19.01 18.69 18.6 18.75 18.08C18.81 17.63 18.58 17.23 18.2 17.01L17.56 17.51L17.57 17.52ZM6.01 11.7C6.05 11.78 6.09 11.85 6.12 11.94C4.95 12.61 3.3 12.54 3.05 12.52C3.03 12.52 3.02 12.53 3.02 12.55C3.04 13.37 3.83 13.59 4.54 13.5C5.14 13.42 5.98 13.02 6.57 12.57C6.62 12.63 6.69 12.7 6.75 12.75C6.18 13.68 4.85 14.06 4.42 14.1C4.4 14.1 4.38 14.13 4.39 14.13C4.68 14.62 5.32 14.79 6.02 14.46C6.44 14.25 6.96 13.73 7.31 13.14C7.39 13.18 7.48 13.21 7.57 13.24C7.35 14.35 6.24 15.03 6.05 15.14C6.05 15.14 6.04 15.15 6.04 15.16L6.04 15.17C6.37 15.54 7.13 15.55 7.59 15.02C7.87 14.69 8.09 14.08 8.21 13.34C8.55 13.34 9.34 13.49 9.59 14.18C9.6 14.21 9.65 14.2 9.65 14.18L9.65 12.29C9.65 12.29 9.63 12.27 9.61 12.27C9.19 12.4 8.74 12.42 8.43 12.37C7.83 12.26 7.37 11.76 7.37 11.17C7.37 10.83 7.52 10.52 7.76 10.3C7.82 10.25 7.81 10.17 7.74 10.13C7.72 10.11 7.69 10.1 7.66 10.09C5.54 8.73 3.61 5.6 3.41 5.26C3.4 5.24 3.37 5.24 3.36 5.26C2.71 5.83 2.65 6.97 3.34 7.84C3.79 8.42 4.74 9.06 5.72 9.62C5.71 9.72 5.69 9.83 5.69 9.93C3.68 9.5 2.4 8.11 2.19 7.88C2.18 7.86 2.16 7.87 2.15 7.88C1.78 8.6 2.1 9.58 2.83 9.98C3.47 10.34 4.49 10.55 5.73 10.7C5.74 10.79 5.76 10.89 5.77 10.97C3.91 11.22 2.45 10.54 2.2 10.42C2.18 10.41 2.17 10.42 2.16 10.43C2.07 11.21 2.55 11.83 3.39 11.97C4.23 12.11 6.01 11.69 6.01 11.69L6.01 11.7ZM21.71 10.42C21.46 10.55 20 11.23 18.14 10.97C18.15 10.88 18.17 10.79 18.18 10.7C19.42 10.55 20.44 10.34 21.08 9.98C21.82 9.58 22.14 8.6 21.76 7.88C21.75 7.86 21.72 7.86 21.72 7.88C21.51 8.11 20.23 9.5 18.23 9.93C18.23 9.83 18.21 9.72 18.2 9.62C19.18 9.06 20.13 8.43 20.58 7.84C21.27 6.96 21.21 5.83 20.56 5.26C20.56 5.26 20.54 5.26 20.53 5.26C20.53 5.26 20.51 5.26 20.51 5.27C20.31 5.61 18.37 8.74 16.25 10.09C16.22 10.1 16.19 10.12 16.17 10.13C16.1 10.17 16.1 10.25 16.15 10.3C16.4 10.52 16.54 10.83 16.54 11.17C16.54 11.77 16.08 12.27 15.48 12.37C15.16 12.42 14.72 12.41 14.3 12.27C14.28 12.27 14.26 12.27 14.26 12.29L14.26 14.18C14.26 14.18 14.31 14.22 14.32 14.18C14.57 13.49 15.36 13.34 15.7 13.34C15.82 14.08 16.04 14.69 16.32 15.02C16.78 15.55 17.54 15.54 17.87 15.17L17.87 15.16C17.87 15.16 17.87 15.14 17.86 15.14C17.67 15.03 16.56 14.35 16.34 13.24C16.42 13.21 16.52 13.18 16.6 13.14C16.96 13.73 17.47 14.25 17.89 14.46C18.59 14.79 19.23 14.63 19.52 14.13C19.53 14.12 19.52 14.1 19.49 14.1C19.06 14.06 17.73 13.68 17.16 12.75C17.22 12.7 17.29 12.63 17.34 12.57C17.93 13.02 18.77 13.42 19.37 13.5C20.07 13.59 20.87 13.37 20.89 12.55C20.89 12.53 20.87 12.52 20.86 12.52C20.61 12.54 18.96 12.61 17.79 11.94C17.82 11.86 17.87 11.78 17.9 11.7C17.9 11.7 19.67 12.12 20.52 11.98C21.36 11.84 21.84 11.22 21.75 10.44C21.75 10.43 21.72 10.42 21.71 10.43L21.71 10.42ZM8.4 6.43L9.69 6.43C10.77 6.43 11.25 5.77 11.4 5.19L12.5 5.19C12.65 5.77 13.14 6.43 14.21 6.43L15.5 6.43C15.5 6.43 15.72 6.13 15.79 5.97C15.99 5.43 15.73 5.17 15.36 5.17L14.87 5.61L14.38 5.17C14 5.17 13.75 5.43 13.95 5.97C13.98 6.04 14.04 6.15 14.09 6.23C13.63 6.16 13.05 5.85 12.93 5.18C12.93 5.18 13.27 4.65 13.35 4.42C13.65 3.64 13.27 3.33 12.7 3.33L11.96 4.19L11.22 3.33C10.65 3.33 10.27 3.65 10.57 4.42C10.65 4.65 10.99 5.18 10.99 5.18C10.86 5.85 10.28 6.16 9.82 6.23C9.88 6.14 9.94 6.04 9.97 5.97C10.17 5.43 9.92 5.17 9.54 5.17L9.05 5.61L8.56 5.17C8.19 5.17 7.93 5.43 8.13 5.97C8.19 6.12 8.42 6.43 8.42 6.43L8.4 6.43ZM9.38 4.37L9.04 3.95L8.7 4.37L9.04 4.78L9.38 4.37ZM18 16.52L17.56 16.06L17.11 16.52L17.56 16.92L18 16.52ZM15.21 4.37L14.87 3.95L14.53 4.37L14.87 4.78L15.21 4.37ZM12.44 2.58L11.95 2L11.46 2.58L11.95 3.21L12.44 2.58ZM8.29 8.7C8.6 8.43 9.05 8.44 9.3 8.52C9.13 8.32 8.74 8.14 8.63 8.12C8.54 8.16 8.29 8.42 8.29 8.71L8.29 8.7ZM5.46 6.87C5.65 6.73 6.31 6.35 6.15 7.08C6.23 7.08 6.46 6.93 6.46 6.72C6.46 6.26 5.83 6.05 5.83 5.61C5.83 4.95 6.88 4.96 6.85 5.06C6.67 5.65 7.02 6.38 8.01 6.42C8.01 6.41 8.01 6.28 8.01 6.28C7.17 6.28 6.8 5.38 7.45 4.77C7.1 3.67 6.57 4.77 6.12 5.06C5.86 5.22 5.16 5.12 5.1 5.44C5.02 5.89 5.83 5.89 5.47 6.87L5.46 6.87ZM17.07 5.06C17.04 4.96 18.09 4.95 18.09 5.61C18.09 6.05 17.46 6.27 17.46 6.72C17.46 6.93 17.69 7.08 17.77 7.08C17.6 6.35 18.27 6.73 18.46 6.87C18.1 5.89 18.91 5.89 18.83 5.44C18.77 5.12 18.07 5.22 17.81 5.06C17.36 4.77 16.83 3.67 16.48 4.77C17.13 5.38 16.75 6.28 15.92 6.28C15.92 6.28 15.92 6.41 15.92 6.42C16.91 6.38 17.26 5.64 17.08 5.06L17.07 5.06ZM16.64 7.57C16.43 6.48 13.88 7.2 12.6 6.73C12.58 7.06 13 7.56 13.4 7.76C12.71 8.35 12.1 9.55 11.97 11.01C11.85 9.55 11.23 8.35 10.54 7.76C10.95 7.56 11.36 7.06 11.33 6.73C10.05 7.2 7.5 6.48 7.3 7.57C7.26 7.8 7.37 8.16 7.5 8.26C7.51 8.19 7.63 7.95 7.98 7.89C9.78 7.63 11.28 10.39 9.93 11.51C9.91 11.53 9.93 11.56 9.94 11.56L14 11.56C14 11.56 14.04 11.53 14.02 11.51C12.67 10.4 14.17 7.63 15.96 7.89C16.32 7.95 16.43 8.19 16.45 8.26C16.57 8.16 16.68 7.81 16.64 7.57ZM15.64 8.7C15.33 8.43 14.88 8.44 14.63 8.52C14.79 8.32 15.19 8.14 15.3 8.12C15.39 8.16 15.64 8.42 15.64 8.7Z" fill="currentColor" fill-opacity="1.000000" fill-rule="evenodd"/>
</svg>