<svg xmlns="http://www.w3.org/2000/svg" xmlns:xlink="http://www.w3.org/1999/xlink" width="24.000000" height="24.000000" viewBox="0 0 24 24" fill="none">
	<path id="vector" d="M9 4C9.14 4 9.28 4.01 9.41 4.04C9.54 4.06 9.66 4.1 9.77 4.15C9.89 4.2 10 4.26 10.1 4.33C10.21 4.4 10.31 4.49 10.41 4.58C10.5 4.68 10.59 4.78 10.66 4.89C10.73 4.99 10.79 5.1 10.84 5.22C10.89 5.33 10.93 5.45 10.95 5.58C10.98 5.71 11 5.85 11 6L11 18C11 18.14 10.98 18.28 10.95 18.41C10.93 18.54 10.89 18.66 10.84 18.77C10.79 18.89 10.73 19 10.66 19.1C10.59 19.21 10.5 19.31 10.41 19.41C10.31 19.5 10.21 19.59 10.1 19.66C10 19.73 9.89 19.79 9.77 19.84C9.66 19.89 9.54 19.93 9.41 19.95C9.28 19.98 9.14 20 9 20L6 20C5.85 20 5.71 19.98 5.58 19.95C5.45 19.93 5.33 19.89 5.22 19.84C5.1 19.79 4.99 19.73 4.89 19.66C4.78 19.59 4.68 19.5 4.58 19.41C4.49 19.31 4.4 19.21 4.33 19.1C4.26 19 4.2 18.89 4.15 18.77C4.1 18.66 4.06 18.54 4.04 18.41C4.01 18.28 4 18.14 4 18L4 6C4 5.85 4.01 5.71 4.04 5.58C4.06 5.45 4.1 5.33 4.15 5.22C4.2 5.1 4.26 4.99 4.33 4.89C4.4 4.78 4.49 4.68 4.58 4.58C4.68 4.49 4.78 4.4 4.89 4.33C4.99 4.26 5.1 4.2 5.22 4.15C5.33 4.1 5.45 4.06 5.58 4.04C5.71 4.01 5.85 4 6 4L9 4ZM18.41 4.04C18.28 4.01 18.14 4 18 4L15 4C14.85 4 14.71 4.01 14.58 4.04C14.45 4.06 14.33 4.1 14.22 4.15C14.1 4.2 13.99 4.26 13.89 4.33C13.78 4.4 13.68 4.49 13.58 4.58C13.49 4.68 13.4 4.78 13.33 4.89C13.26 4.99 13.2 5.1 13.15 5.22C13.1 5.33 13.06 5.45 13.04 5.58C13.01 5.71 13 5.85 13 6L13 18C13 18.14 13.01 18.28 13.04 18.41C13.06 18.54 13.1 18.66 13.15 18.77C13.2 18.89 13.26 19 13.33 19.1C13.4 19.21 13.49 19.31 13.58 19.41C13.68 19.5 13.78 19.59 13.89 19.66C13.99 19.73 14.1 19.79 14.22 19.84C14.33 19.89 14.45 19.93 14.58 19.95C14.71 19.98 14.85 20 15 20L18 20C18.14 20 18.28 19.98 18.41 19.95C18.54 19.93 18.66 19.89 18.77 19.84C18.89 19.79 19 19.73 19.1 19.66C19.21 19.59 19.31 19.5 19.41 19.41C19.5 19.31 19.59 19.21 19.66 19.1C19.73 19 19.79 18.89 19.84 18.77C19.89 18.66 19.93 18.54 19.95 18.41C19.98 18.28 20 18.14 20 18L20 6C20 5.85 19.98 5.71 19.95 5.58C19.93 5.45 19.89 5.33 19.84 5.22C19.79 5.1 19.73 4.99 19.66 4.89C19.59 4.78 19.5 4.68 19.41 4.58C19.31 4.49 19.21 4.4 19.1 4.33C19 4.26 18.89 4.2 18.77 4.15C18.66 4.1 18.54 4.06 18.41 4.04ZM9 6L6 6L6 18L9 18L9 6ZM15 6L18 6L18 18L15 18L15 6Z" fill="currentColor" fill-opacity="1.000000" fill-rule="evenodd"/>
</svg>