<svg xmlns="http://www.w3.org/2000/svg" xmlns:xlink="http://www.w3.org/1999/xlink" width="24.000000" height="24.000000" viewBox="0 0 24 24" fill="none">
	<path id="vector" d="M4.24 19.97L8.24 18.97C8.33 18.94 8.41 18.91 8.49 18.87C8.57 18.82 8.64 18.77 8.7 18.7L18.2 9.2C18.36 9.04 18.5 8.87 18.62 8.68C18.73 8.52 18.81 8.35 18.89 8.17C18.96 7.99 19.02 7.81 19.05 7.62C19.1 7.42 19.12 7.21 19.12 7C19.12 6.78 19.1 6.58 19.05 6.37C19.02 6.18 18.96 6 18.89 5.82C18.81 5.64 18.73 5.47 18.62 5.31C18.5 5.12 18.36 4.95 18.2 4.79C18.04 4.63 17.87 4.49 17.68 4.37C17.52 4.26 17.35 4.18 17.17 4.1C16.99 4.03 16.81 3.97 16.62 3.94C16.41 3.89 16.21 3.87 16 3.87C15.78 3.87 15.58 3.89 15.37 3.94C15.18 3.97 15 4.03 14.82 4.1C14.64 4.18 14.47 4.26 14.31 4.37C14.12 4.49 13.95 4.63 13.79 4.79L4.29 14.29C4.22 14.35 4.17 14.42 4.12 14.5C4.08 14.58 4.05 14.66 4.02 14.75L3.02 18.75C3 18.83 3 18.91 3 19C3 19.08 3 19.16 3.02 19.24C3.09 19.51 3.24 19.71 3.48 19.85C3.72 19.99 3.97 20.03 4.24 19.97ZM7.48 17.09L16.79 7.79C16.85 7.72 16.91 7.65 16.95 7.58C16.99 7.53 17.01 7.47 17.03 7.42C17.06 7.36 17.08 7.3 17.09 7.24C17.11 7.16 17.12 7.08 17.12 7C17.12 6.91 17.11 6.83 17.09 6.76C17.08 6.69 17.06 6.63 17.03 6.57C17.01 6.52 16.99 6.46 16.95 6.41C16.91 6.34 16.85 6.27 16.79 6.2C16.72 6.14 16.65 6.08 16.58 6.04C16.53 6.01 16.47 5.98 16.42 5.96C16.36 5.93 16.3 5.91 16.24 5.9C16.16 5.88 16.08 5.87 16 5.87C15.91 5.87 15.83 5.88 15.75 5.9C15.69 5.91 15.63 5.93 15.57 5.96C15.52 5.98 15.46 6.01 15.41 6.04C15.34 6.08 15.27 6.14 15.2 6.2L5.9 15.51L5.37 17.62L7.48 17.09ZM20 18L12 18C11.44 18 11 18.44 11 19C11 19.56 11.44 20 12 20L20 20C20.56 20 21 19.56 21 19C21 18.44 20.56 18 20 18Z" fill="currentColor" fill-opacity="1.000000" fill-rule="evenodd"/>
</svg>