<svg xmlns="http://www.w3.org/2000/svg" xmlns:xlink="http://www.w3.org/1999/xlink" width="24.000000" height="24.000000" viewBox="0 0 24 24" fill="none">
	<g>
		<path id="vector" d="M7.5 11C7.24 11 6.99 10.97 6.75 10.92C6.54 10.87 6.33 10.8 6.13 10.72C5.93 10.63 5.74 10.53 5.56 10.42C5.37 10.29 5.19 10.14 5.02 9.97C4.85 9.8 4.7 9.62 4.57 9.43C4.46 9.25 4.36 9.06 4.27 8.86C4.19 8.66 4.12 8.45 4.07 8.24C4.02 8 4 7.75 4 7.5C4 7.24 4.02 6.99 4.07 6.75C4.12 6.54 4.19 6.33 4.27 6.13C4.36 5.93 4.46 5.74 4.57 5.56C4.7 5.37 4.85 5.19 5.02 5.02C5.19 4.85 5.37 4.7 5.56 4.57C5.74 4.46 5.93 4.36 6.13 4.27C6.33 4.19 6.54 4.12 6.75 4.07C6.99 4.02 7.24 4 7.5 4C7.75 4 8 4.02 8.24 4.07C8.45 4.12 8.66 4.19 8.86 4.27C9.06 4.36 9.25 4.46 9.43 4.57C9.62 4.7 9.8 4.85 9.97 5.02C10.14 5.19 10.29 5.37 10.42 5.56C10.53 5.74 10.63 5.93 10.72 6.13C10.8 6.33 10.87 6.54 10.92 6.75C10.97 6.99 11 7.24 11 7.5C11 7.75 10.97 8 10.92 8.24C10.87 8.45 10.8 8.66 10.72 8.86C10.63 9.06 10.53 9.25 10.42 9.43C10.29 9.62 10.14 9.8 9.97 9.97C9.8 10.14 9.62 10.29 9.43 10.42C9.25 10.53 9.06 10.63 8.86 10.72C8.66 10.8 8.45 10.87 8.24 10.92C8 10.97 7.75 11 7.5 11ZM18.7 6.7L6.7 18.7C6.31 19.1 5.68 19.1 5.29 18.7C4.89 18.31 4.89 17.68 5.29 17.29L17.29 5.29C17.68 4.89 18.31 4.89 18.7 5.29C19.1 5.68 19.1 6.31 18.7 6.7ZM7.5 9C7.62 9 7.73 8.98 7.85 8.95C7.92 8.94 8 8.91 8.08 8.88C8.16 8.84 8.24 8.8 8.31 8.76C8.4 8.7 8.48 8.63 8.56 8.56C8.63 8.48 8.7 8.4 8.76 8.31C8.8 8.24 8.84 8.16 8.88 8.08C8.91 8 8.94 7.92 8.95 7.85C8.98 7.73 9 7.62 9 7.5C9 7.37 8.98 7.26 8.95 7.14C8.94 7.07 8.91 6.99 8.88 6.91C8.84 6.83 8.8 6.75 8.76 6.68C8.7 6.59 8.63 6.51 8.56 6.43C8.48 6.36 8.4 6.29 8.31 6.23C8.24 6.19 8.16 6.15 8.08 6.11C8 6.08 7.92 6.05 7.85 6.04C7.73 6.01 7.62 6 7.5 6C7.37 6 7.26 6.01 7.14 6.04C7.07 6.05 6.99 6.08 6.91 6.11C6.83 6.15 6.75 6.19 6.68 6.23C6.59 6.29 6.51 6.36 6.43 6.43C6.36 6.51 6.29 6.59 6.23 6.68C6.19 6.75 6.15 6.83 6.11 6.91C6.08 6.99 6.05 7.07 6.04 7.14C6.01 7.26 6 7.37 6 7.5C6 7.62 6.01 7.73 6.04 7.85C6.05 7.92 6.08 8 6.11 8.08C6.15 8.16 6.19 8.24 6.23 8.31C6.29 8.4 6.36 8.48 6.43 8.56C6.51 8.63 6.59 8.7 6.68 8.76C6.75 8.8 6.83 8.84 6.91 8.88C6.99 8.91 7.07 8.94 7.14 8.95C7.26 8.98 7.37 9 7.5 9ZM15.75 19.92C15.99 19.97 16.24 20 16.5 20C16.75 20 17 19.97 17.24 19.92C17.45 19.87 17.66 19.8 17.86 19.72C18.06 19.63 18.25 19.53 18.43 19.42C18.62 19.29 18.8 19.14 18.97 18.97C19.14 18.8 19.29 18.62 19.42 18.43C19.53 18.25 19.64 18.06 19.72 17.86C19.8 17.66 19.87 17.45 19.92 17.24C19.97 17 20 16.75 20 16.5C20 16.24 19.97 15.99 19.92 15.75C19.87 15.54 19.8 15.33 19.72 15.13C19.63 14.93 19.53 14.74 19.42 14.56C19.29 14.37 19.14 14.19 18.97 14.02C18.8 13.85 18.62 13.7 18.43 13.57C18.25 13.46 18.06 13.36 17.86 13.27C17.66 13.19 17.45 13.12 17.24 13.07C17 13.02 16.75 13 16.5 13C16.24 13 15.99 13.02 15.75 13.07C15.54 13.12 15.33 13.19 15.13 13.27C14.93 13.36 14.74 13.46 14.56 13.57C14.37 13.7 14.19 13.85 14.02 14.02C13.85 14.19 13.7 14.37 13.57 14.56C13.46 14.74 13.36 14.93 13.27 15.13C13.19 15.33 13.12 15.54 13.07 15.75C13.02 15.99 13 16.24 13 16.5C13 16.75 13.02 17 13.07 17.24C13.12 17.45 13.19 17.66 13.27 17.86C13.36 18.06 13.46 18.25 13.57 18.42C13.7 18.62 13.85 18.8 14.02 18.97C14.19 19.14 14.37 19.29 14.56 19.42C14.74 19.53 14.93 19.63 15.13 19.72C15.33 19.8 15.54 19.87 15.75 19.92ZM16.85 17.95C16.73 17.98 16.62 18 16.5 18C16.37 18 16.26 17.98 16.14 17.95C16.07 17.94 15.99 17.91 15.91 17.88C15.83 17.84 15.75 17.8 15.68 17.76C15.59 17.7 15.51 17.63 15.43 17.56C15.36 17.48 15.29 17.4 15.23 17.31C15.19 17.24 15.15 17.16 15.11 17.08C15.08 17 15.05 16.92 15.04 16.85C15.01 16.73 15 16.62 15 16.5C15 16.37 15.01 16.26 15.04 16.14C15.05 16.07 15.08 15.99 15.11 15.91C15.15 15.83 15.19 15.75 15.23 15.68C15.29 15.59 15.36 15.51 15.43 15.43C15.51 15.36 15.59 15.29 15.68 15.23C15.75 15.19 15.83 15.15 15.91 15.11C15.99 15.08 16.07 15.05 16.14 15.04C16.26 15.01 16.37 15 16.5 15C16.62 15 16.73 15.01 16.85 15.04C16.92 15.05 17 15.08 17.08 15.11C17.16 15.15 17.24 15.19 17.31 15.23C17.4 15.29 17.48 15.36 17.56 15.43C17.63 15.51 17.7 15.59 17.76 15.68C17.8 15.75 17.84 15.83 17.88 15.91C17.91 15.99 17.94 16.07 17.95 16.14C17.98 16.26 18 16.37 18 16.5C18 16.62 17.98 16.73 17.95 16.85C17.94 16.92 17.91 17 17.88 17.08C17.84 17.16 17.8 17.24 17.76 17.31C17.7 17.4 17.63 17.48 17.56 17.56C17.48 17.63 17.4 17.7 17.31 17.76C17.24 17.8 17.16 17.84 17.08 17.88C17 17.91 16.92 17.94 16.85 17.95Z" fill="currentColor" fill-opacity="1.000000" fill-rule="evenodd"/>
	</g>
</svg>