<svg width="24.000000" height="24.000000" viewBox="0 0 24 24" fill="none" xmlns="http://www.w3.org/2000/svg" xmlns:xlink="http://www.w3.org/1999/xlink">
	<defs>
		<clipPath id="clip297_1522">
			<rect id="interface / phone" width="24.000000" height="24.000000" fill="white" fill-opacity="0"/>
		</clipPath>
	</defs>
	<g clip-path="url(#clip297_1522)">
		<path id="vector" d="M3.13 5.41C3.1 5.64 3.1 5.87 3.13 6.11C3.25 7.08 3.45 8.03 3.73 8.95C3.99 9.83 4.34 10.69 4.75 11.53C5.14 12.31 5.58 13.05 6.08 13.76C6.64 14.56 7.27 15.31 7.97 16.02C8.68 16.72 9.43 17.35 10.23 17.91C10.94 18.41 11.68 18.85 12.46 19.24C13.3 19.65 14.16 20 15.05 20.26C15.96 20.54 16.91 20.74 17.88 20.86C18.12 20.89 18.35 20.89 18.58 20.86C18.76 20.84 18.93 20.8 19.1 20.74C19.25 20.68 19.4 20.62 19.54 20.54C19.74 20.43 19.93 20.29 20.1 20.12C20.22 20.01 20.32 19.89 20.42 19.76C20.55 19.58 20.67 19.38 20.76 19.16C20.83 19 20.88 18.83 20.92 18.66C20.97 18.44 21 18.22 21 18L21 16C21 15.8 20.98 15.61 20.94 15.43C20.9 15.22 20.84 15.02 20.76 14.83C20.73 14.75 20.69 14.67 20.65 14.6C20.52 14.34 20.34 14.1 20.14 13.88C20.08 13.82 20.02 13.76 19.96 13.7C19.75 13.51 19.51 13.34 19.26 13.2C19.1 13.11 18.93 13.04 18.76 12.98C18.58 12.91 18.4 12.86 18.21 12.82C17.89 12.75 17.59 12.68 17.28 12.58C16.98 12.48 16.69 12.37 16.4 12.25C16.25 12.18 16.09 12.15 15.93 12.17C15.76 12.18 15.61 12.23 15.47 12.31L14 13.22C13.79 13.08 13.59 12.94 13.39 12.79C12.98 12.48 12.59 12.14 12.22 11.77C11.85 11.4 11.51 11.01 11.2 10.6C11.05 10.4 10.91 10.2 10.77 10L11.68 8.52C11.77 8.38 11.81 8.23 11.82 8.06C11.84 7.9 11.81 7.74 11.74 7.59C11.62 7.3 11.51 7.01 11.41 6.71C11.31 6.4 11.24 6.1 11.17 5.78C11.13 5.59 11.08 5.41 11.01 5.23C10.95 5.06 10.88 4.89 10.79 4.73C10.65 4.48 10.48 4.24 10.29 4.03C10.23 3.97 10.17 3.91 10.11 3.85C9.89 3.65 9.65 3.47 9.39 3.34C9.32 3.3 9.24 3.26 9.16 3.23C8.97 3.15 8.77 3.09 8.56 3.05C8.38 3.01 8.19 3 8 3L6 3C5.77 3 5.55 3.02 5.33 3.07C5.16 3.11 4.99 3.16 4.83 3.23C4.61 3.32 4.41 3.44 4.23 3.57C4.1 3.67 3.98 3.77 3.87 3.89C3.7 4.06 3.56 4.25 3.45 4.45C3.37 4.59 3.31 4.74 3.25 4.89C3.19 5.06 3.15 5.23 3.13 5.41ZM5.64 8.37C5.39 7.56 5.22 6.72 5.11 5.87C5.1 5.76 5.1 5.66 5.13 5.57C5.16 5.46 5.22 5.37 5.31 5.27C5.38 5.21 5.52 5.11 5.61 5.07C5.65 5.06 5.69 5.04 5.73 5.03C5.82 5.01 5.9 5 6 5L8 5C8.07 5 8.15 5 8.23 5.02C8.41 5.07 8.58 5.16 8.74 5.31C8.86 5.42 8.95 5.55 9.04 5.7C9.07 5.77 9.11 5.84 9.14 5.91C9.17 6 9.19 6.09 9.21 6.18C9.29 6.56 9.39 6.94 9.5 7.31C9.57 7.51 9.64 7.71 9.71 7.9L8.75 9.47C8.65 9.63 8.6 9.8 8.6 9.98C8.6 10.17 8.64 10.34 8.73 10.5C9 10.96 9.29 11.4 9.61 11.82C9.97 12.3 10.37 12.76 10.8 13.19C11.23 13.62 11.69 14.02 12.17 14.38C12.59 14.7 13.03 14.99 13.49 15.26C13.65 15.35 13.82 15.39 14.01 15.39C14.19 15.39 14.36 15.34 14.52 15.24L16.09 14.28C16.28 14.35 16.48 14.42 16.68 14.49C17.05 14.6 17.43 14.7 17.81 14.78C17.9 14.8 17.99 14.82 18.08 14.85C18.15 14.88 18.22 14.92 18.29 14.95C18.44 15.04 18.57 15.13 18.68 15.25C18.83 15.41 18.92 15.58 18.97 15.76C18.99 15.84 19 15.92 19 16L19 18C19 18.09 18.98 18.17 18.96 18.26C18.95 18.3 18.93 18.34 18.92 18.38C18.88 18.47 18.83 18.55 18.77 18.62C18.68 18.71 18.53 18.83 18.42 18.86C18.33 18.89 18.23 18.89 18.12 18.88C17.27 18.77 16.43 18.6 15.62 18.35C14.84 18.11 14.08 17.81 13.35 17.45C12.66 17.11 12.01 16.72 11.4 16.29C10.68 15.79 10.01 15.23 9.39 14.6C8.76 13.98 8.2 13.31 7.7 12.59C7.27 11.98 6.88 11.33 6.54 10.64C6.18 9.91 5.88 9.15 5.64 8.37Z" fill="#24292E" fill-opacity="1.000000" fill-rule="evenodd"/>
	</g>
</svg>
