<svg xmlns="http://www.w3.org/2000/svg" xmlns:xlink="http://www.w3.org/1999/xlink" width="24.000000" height="24.000000" viewBox="0 0 24 24" fill="none">
	<g>
		<path d="M5 20C4.78 20 4.56 19.97 4.36 19.93C4.18 19.89 4 19.83 3.83 19.76C3.65 19.69 3.49 19.6 3.34 19.5C3.17 19.39 3.02 19.26 2.87 19.12C2.73 18.97 2.6 18.82 2.49 18.65C2.39 18.5 2.3 18.34 2.23 18.16C2.16 17.99 2.1 17.81 2.06 17.63C2.02 17.43 2 17.21 2 17L2 8C2 7.78 2.02 7.56 2.06 7.36C2.1 7.18 2.16 7 2.23 6.83C2.3 6.65 2.39 6.49 2.49 6.34C2.6 6.17 2.73 6.02 2.87 5.87C3.02 5.73 3.17 5.6 3.34 5.49C3.49 5.39 3.65 5.3 3.83 5.23C4 5.16 4.18 5.1 4.36 5.06C4.56 5.02 4.78 5 5 5L7.17 5C7.23 5 7.3 4.99 7.36 4.98C7.43 4.96 7.49 4.94 7.55 4.92C7.61 4.89 7.67 4.86 7.72 4.83C7.78 4.79 7.83 4.75 7.87 4.7L8.7 3.87C8.84 3.73 8.99 3.61 9.16 3.5C9.32 3.39 9.49 3.3 9.68 3.22C9.86 3.15 10.05 3.09 10.24 3.05C10.43 3.01 10.62 3 10.82 3L13.17 3C13.37 3 13.56 3.01 13.75 3.05C13.94 3.09 14.13 3.15 14.31 3.22C14.5 3.3 14.67 3.39 14.83 3.5C15 3.61 15.15 3.73 15.29 3.87L16.12 4.7C16.16 4.75 16.21 4.79 16.27 4.83C16.32 4.86 16.38 4.89 16.44 4.92C16.5 4.94 16.56 4.96 16.63 4.98C16.69 4.99 16.76 5 16.82 5L19 5C19.21 5 19.43 5.02 19.63 5.06C19.81 5.1 19.99 5.16 20.16 5.23C20.34 5.3 20.5 5.39 20.65 5.49C20.82 5.6 20.97 5.73 21.12 5.87C21.26 6.02 21.39 6.17 21.5 6.34C21.6 6.49 21.69 6.65 21.76 6.83C21.83 7 21.89 7.18 21.93 7.36C21.97 7.56 22 7.78 22 8L22 17C22 17.21 21.97 17.43 21.93 17.63C21.89 17.81 21.83 17.99 21.76 18.16C21.69 18.34 21.6 18.5 21.5 18.65C21.39 18.82 21.26 18.97 21.12 19.12C20.97 19.26 20.82 19.39 20.65 19.5C20.5 19.6 20.34 19.69 20.16 19.76C19.99 19.83 19.81 19.89 19.63 19.93C19.43 19.97 19.21 20 19 20L5 20ZM5 18L19 18C19.08 18 19.16 17.99 19.24 17.97C19.29 17.95 19.34 17.94 19.38 17.92C19.44 17.89 19.49 17.87 19.53 17.84C19.59 17.8 19.65 17.75 19.7 17.7C19.75 17.65 19.8 17.59 19.84 17.53C19.87 17.49 19.89 17.44 19.92 17.38C19.94 17.34 19.95 17.29 19.97 17.24C19.99 17.16 20 17.08 20 17L20 8C20 7.91 19.99 7.83 19.97 7.75C19.95 7.7 19.94 7.65 19.92 7.61C19.89 7.55 19.87 7.5 19.84 7.46C19.8 7.4 19.75 7.34 19.7 7.29C19.65 7.24 19.59 7.19 19.53 7.15C19.49 7.12 19.44 7.1 19.38 7.07C19.34 7.05 19.29 7.04 19.24 7.02C19.16 7 19.08 7 19 7L16.82 7C16.62 7 16.43 6.98 16.24 6.94C16.05 6.9 15.86 6.84 15.68 6.77C15.49 6.69 15.32 6.6 15.16 6.49C14.99 6.38 14.84 6.26 14.7 6.12L13.87 5.29C13.83 5.24 13.78 5.2 13.72 5.16C13.67 5.13 13.61 5.1 13.55 5.07C13.49 5.05 13.43 5.03 13.36 5.01C13.3 5 13.23 5 13.17 5L10.82 5C10.76 5 10.69 5 10.63 5.01C10.56 5.03 10.5 5.05 10.44 5.07C10.38 5.1 10.32 5.13 10.27 5.16C10.21 5.2 10.16 5.24 10.12 5.29L9.29 6.12C9.15 6.26 9 6.38 8.83 6.49C8.67 6.6 8.5 6.69 8.31 6.77C8.13 6.84 7.94 6.9 7.75 6.94C7.56 6.98 7.37 7 7.17 7L5 7C4.91 7 4.83 7 4.75 7.02C4.7 7.04 4.65 7.05 4.61 7.07C4.55 7.1 4.5 7.12 4.46 7.15C4.4 7.19 4.34 7.24 4.29 7.29C4.24 7.34 4.19 7.4 4.15 7.46C4.12 7.5 4.1 7.55 4.07 7.61C4.05 7.65 4.04 7.7 4.02 7.75C4 7.83 4 7.91 4 8L4 17C4 17.08 4 17.16 4.02 17.24C4.04 17.29 4.05 17.34 4.07 17.38C4.1 17.44 4.12 17.49 4.15 17.53C4.19 17.59 4.24 17.65 4.29 17.7C4.34 17.75 4.4 17.8 4.46 17.84C4.5 17.87 4.55 17.89 4.61 17.92C4.65 17.94 4.7 17.95 4.75 17.97C4.83 17.99 4.91 18 5 18ZM11.14 15.9C11.42 15.96 11.7 16 12 16C12.29 16 12.57 15.96 12.85 15.9C13.09 15.85 13.32 15.78 13.55 15.68C13.78 15.58 14 15.47 14.2 15.33C14.42 15.19 14.63 15.02 14.82 14.82C15.02 14.63 15.19 14.42 15.33 14.2C15.47 14 15.58 13.78 15.68 13.55C15.78 13.32 15.85 13.09 15.9 12.85C15.96 12.57 16 12.29 16 12C16 11.7 15.96 11.42 15.9 11.14C15.85 10.9 15.78 10.67 15.68 10.44C15.58 10.21 15.47 9.99 15.33 9.79C15.19 9.57 15.02 9.36 14.82 9.17C14.63 8.97 14.42 8.8 14.2 8.66C14 8.52 13.78 8.41 13.55 8.31C13.32 8.21 13.09 8.14 12.85 8.09C12.57 8.03 12.29 8 12 8C11.7 8 11.42 8.03 11.14 8.09C10.9 8.14 10.67 8.21 10.44 8.31C10.21 8.41 9.99 8.52 9.79 8.66C9.57 8.8 9.36 8.97 9.17 9.17C8.97 9.36 8.8 9.57 8.66 9.79C8.52 9.99 8.41 10.21 8.31 10.44C8.21 10.67 8.14 10.9 8.09 11.14C8.03 11.42 8 11.7 8 12C8 12.29 8.03 12.57 8.09 12.85C8.14 13.09 8.21 13.32 8.31 13.55C8.41 13.78 8.52 14 8.66 14.2C8.8 14.42 8.97 14.63 9.17 14.82C9.36 15.02 9.57 15.19 9.79 15.33C9.99 15.47 10.21 15.58 10.44 15.68C10.67 15.78 10.9 15.85 11.14 15.9ZM12.46 13.94C12.31 13.98 12.15 14 12 14C11.84 14 11.68 13.98 11.53 13.94C11.43 13.92 11.32 13.88 11.22 13.84C11.11 13.79 11.01 13.74 10.91 13.67C10.79 13.6 10.68 13.51 10.58 13.41C10.48 13.31 10.39 13.2 10.32 13.08C10.25 12.98 10.2 12.88 10.15 12.77C10.11 12.67 10.07 12.56 10.05 12.46C10.01 12.31 10 12.15 10 12C10 11.84 10.01 11.68 10.05 11.53C10.07 11.43 10.11 11.32 10.15 11.22C10.2 11.11 10.25 11.01 10.32 10.91C10.39 10.79 10.48 10.68 10.58 10.58C10.68 10.48 10.79 10.39 10.91 10.32C11.01 10.25 11.11 10.2 11.22 10.15C11.32 10.11 11.43 10.07 11.53 10.05C11.68 10.01 11.84 10 12 10C12.15 10 12.31 10.01 12.46 10.05C12.56 10.07 12.67 10.11 12.77 10.15C12.88 10.2 12.98 10.25 13.08 10.32C13.2 10.39 13.31 10.48 13.41 10.58C13.51 10.68 13.6 10.79 13.67 10.91C13.74 11.01 13.79 11.11 13.84 11.22C13.88 11.32 13.92 11.43 13.94 11.53C13.98 11.68 14 11.84 14 12C14 12.15 13.98 12.31 13.94 12.46C13.92 12.56 13.88 12.67 13.84 12.77C13.79 12.88 13.74 12.98 13.67 13.08C13.6 13.2 13.51 13.31 13.41 13.41C13.31 13.51 13.2 13.6 13.08 13.67C12.98 13.74 12.88 13.79 12.77 13.84C12.67 13.88 12.56 13.92 12.46 13.94Z" fill="currentColor" fill-opacity="1.000000" fill-rule="evenodd"/>
	</g>
</svg>