<svg xmlns="http://www.w3.org/2000/svg" xmlns:xlink="http://www.w3.org/1999/xlink" width="24.000000" height="24.000000" viewBox="0 0 24 24" fill="none">
	<g>
		<path id="vector" d="M5.7 4.29L10.64 9.22C10.68 9.26 10.72 9.3 10.76 9.34L14.65 13.23C14.69 13.27 14.73 13.31 14.77 13.35L19.7 18.29C20.1 18.68 20.1 19.31 19.7 19.7C19.31 20.1 18.68 20.1 18.29 19.7L14.61 16.02L13.99 19.1C13.98 19.23 13.94 19.35 13.88 19.47C13.75 19.71 13.54 19.88 13.29 19.95C13.03 20.03 12.76 20.01 12.52 19.88C12.41 19.82 12.31 19.74 12.23 19.64L9 16.41L5.7 19.7C5.31 20.1 4.68 20.1 4.29 19.7C3.89 19.31 3.89 18.68 4.29 18.29L7.58 15L4.35 11.77C4.25 11.68 4.17 11.58 4.11 11.47C3.98 11.23 3.96 10.96 4.03 10.71C4.11 10.45 4.28 10.24 4.52 10.11C4.64 10.05 4.76 10.01 4.89 10L6.47 9.68L7.97 9.38L4.29 5.7C3.89 5.31 3.89 4.68 4.29 4.29C4.68 3.89 5.31 3.89 5.7 4.29ZM9.67 11.08L7.02 11.61L9.7 14.29L12.38 16.97L12.91 14.32L9.67 11.08ZM16.55 10.1L17.31 9.72L14.27 6.68L13.89 7.44C13.64 7.94 13.05 8.14 12.55 7.89C12.05 7.64 11.85 7.05 12.1 6.55L13.1 4.55C13.11 4.52 13.17 4.43 13.18 4.41C13.2 4.39 13.27 4.31 13.29 4.29C13.39 4.19 13.49 4.12 13.61 4.07C13.73 4.02 13.86 4 14 4C14.13 4 14.26 4.02 14.38 4.07C14.5 4.12 14.6 4.19 14.7 4.29L19.7 9.29C19.72 9.31 19.79 9.39 19.81 9.41C19.82 9.43 19.88 9.52 19.89 9.55C19.95 9.67 19.99 9.8 20 9.92C20 10.05 19.99 10.18 19.94 10.31C19.9 10.44 19.84 10.56 19.75 10.65C19.67 10.75 19.57 10.83 19.44 10.89L17.44 11.89C16.94 12.14 16.35 11.94 16.1 11.44C15.85 10.94 16.05 10.35 16.55 10.1Z" fill="currentColor" fill-opacity="1.000000" fill-rule="evenodd"/>
	</g>
</svg>