<svg xmlns="http://www.w3.org/2000/svg" xmlns:xlink="http://www.w3.org/1999/xlink" width="24.000000" height="24.000000" viewBox="0 0 24 24" fill="none">
	<g>
		<path id="vector" d="M13.84 4C13.58 4.04 13.34 4.19 13.18 4.41C13.14 4.47 13.1 4.54 13.07 4.61L12.17 6.4L9.5 9.07L4.89 10C4.76 10.01 4.64 10.05 4.52 10.11C4.28 10.24 4.11 10.45 4.03 10.7C3.96 10.96 3.98 11.23 4.11 11.47C4.17 11.58 4.25 11.68 4.35 11.77L7.58 15L4.29 18.29C3.89 18.68 3.89 19.31 4.29 19.7C4.68 20.1 5.31 20.1 5.7 19.7L9 16.41L12.23 19.64C12.31 19.74 12.41 19.82 12.52 19.88C12.76 20.01 13.04 20.03 13.29 19.95C13.54 19.88 13.75 19.71 13.88 19.47C13.94 19.35 13.98 19.23 13.99 19.1L14.92 14.49L17.59 11.82L19.38 10.92C19.45 10.89 19.52 10.85 19.58 10.81C19.8 10.65 19.94 10.41 19.99 10.16C20.03 9.9 19.97 9.63 19.81 9.41C19.76 9.35 19.71 9.29 19.65 9.24L14.75 4.34C14.7 4.28 14.64 4.23 14.58 4.18C14.36 4.02 14.09 3.96 13.84 4ZM9.71 14.29L12.38 16.97L13.01 13.8C13.02 13.75 13.04 13.7 13.05 13.66C13.07 13.61 13.09 13.57 13.11 13.52C13.14 13.48 13.16 13.44 13.19 13.4C13.22 13.36 13.25 13.32 13.29 13.29L16.29 10.29C16.31 10.27 16.39 10.2 16.41 10.18C16.43 10.17 16.52 10.11 16.55 10.1L17.31 9.72L14.27 6.68L13.89 7.44C13.88 7.47 13.82 7.56 13.81 7.58C13.79 7.6 13.72 7.68 13.7 7.7L10.7 10.7C10.67 10.74 10.63 10.77 10.59 10.8C10.55 10.83 10.51 10.85 10.47 10.88C10.42 10.9 10.38 10.92 10.33 10.94C10.29 10.95 10.24 10.97 10.19 10.98L7.02 11.61L9.71 14.29Z" fill="currentColor" fill-opacity="1.000000" fill-rule="evenodd"/>
	</g>
</svg>