<svg xmlns="http://www.w3.org/2000/svg" xmlns:xlink="http://www.w3.org/1999/xlink" width="24.000000" height="24.000000" viewBox="0 0 24 24" fill="none">
	<g clip-path="url(#clip526_1762)">
		<path id="vector" d="M6.25 17.74L2.55 15.89C2.42 15.83 2.32 15.75 2.24 15.65C2.15 15.56 2.09 15.44 2.05 15.31C2 15.18 1.99 15.05 1.99 14.92C2 14.8 2.04 14.67 2.1 14.55C2.11 14.52 2.17 14.43 2.18 14.41C2.2 14.39 2.27 14.31 2.29 14.29L3.29 13.29C3.33 13.24 3.39 13.2 3.44 13.16C3.49 13.13 3.55 13.1 3.61 13.07C3.67 13.05 3.74 13.03 3.8 13.01C3.86 13 3.93 13 4 13L7.58 13L9.31 11.27L2.55 7.89C2.42 7.83 2.32 7.75 2.24 7.65C2.15 7.56 2.09 7.44 2.05 7.31C2 7.18 1.99 7.05 1.99 6.92C2 6.8 2.04 6.67 2.1 6.55L3.1 4.55C3.15 4.45 3.21 4.36 3.29 4.28C3.37 4.21 3.45 4.15 3.56 4.1C3.66 4.05 3.76 4.02 3.87 4C3.97 3.99 4.08 3.99 4.19 4.01L13.67 5.91L15.76 3.82C15.92 3.66 16.09 3.52 16.27 3.39C16.43 3.27 16.6 3.17 16.78 3.08C16.96 2.99 17.14 2.91 17.33 2.85C17.53 2.78 17.74 2.73 17.95 2.7C18.16 2.66 18.37 2.65 18.58 2.64C18.78 2.64 18.98 2.66 19.18 2.69C19.37 2.72 19.57 2.76 19.76 2.82C19.97 2.88 20.17 2.96 20.36 3.06C20.49 3.11 20.6 3.19 20.7 3.29C20.8 3.38 20.88 3.5 20.93 3.63C21.03 3.82 21.11 4.02 21.17 4.23C21.23 4.42 21.27 4.62 21.3 4.81C21.33 5.01 21.35 5.21 21.35 5.41C21.34 5.62 21.33 5.83 21.29 6.04C21.26 6.25 21.21 6.46 21.14 6.66C21.08 6.85 21 7.03 20.91 7.21C20.82 7.39 20.72 7.56 20.6 7.72C20.47 7.9 20.33 8.07 20.17 8.23L18.08 10.32L19.98 19.8C20.02 20.02 19.99 20.23 19.89 20.43C19.79 20.64 19.64 20.79 19.44 20.89L17.44 21.89C17.2 22.01 16.94 22.03 16.68 21.94C16.42 21.86 16.22 21.69 16.1 21.44L12.72 14.68L11 16.41L11 20C11 20.13 10.97 20.26 10.92 20.38C10.87 20.5 10.8 20.61 10.7 20.7L9.7 21.7C9.66 21.74 9.62 21.77 9.58 21.81C9.54 21.84 9.49 21.87 9.44 21.89C9.2 22.01 8.94 22.03 8.68 21.94C8.42 21.86 8.22 21.69 8.1 21.44L6.25 17.74ZM7.93 16.63L9 18.76L9 16C9 15.86 9.02 15.73 9.07 15.61C9.12 15.49 9.19 15.38 9.29 15.29L12.29 12.29C12.48 12.09 12.72 12 13 12C13.27 12 13.51 12.09 13.7 12.29C13.74 12.33 13.77 12.37 13.81 12.41C13.84 12.45 13.87 12.5 13.89 12.55L17.44 19.65L17.86 19.44L16.01 10.19C15.98 10.03 15.99 9.87 16.04 9.71C16.09 9.55 16.17 9.41 16.29 9.29L18.76 6.82C18.91 6.66 19.03 6.5 19.13 6.32C19.22 6.13 19.28 5.94 19.32 5.72C19.35 5.51 19.36 5.3 19.32 5.1C19.31 4.98 19.28 4.87 19.24 4.75C19.12 4.71 19.01 4.68 18.89 4.67C18.69 4.63 18.48 4.64 18.27 4.67C18.05 4.71 17.86 4.77 17.67 4.86C17.49 4.96 17.33 5.08 17.17 5.23L14.7 7.7C14.64 7.76 14.58 7.81 14.51 7.85C14.44 7.89 14.36 7.93 14.28 7.95C14.2 7.98 14.12 7.99 14.04 7.99C13.96 8 13.88 7.99 13.8 7.98L4.55 6.13L4.34 6.55L11.44 10.1C11.47 10.11 11.56 10.17 11.58 10.18C11.6 10.2 11.68 10.27 11.7 10.29C11.8 10.39 11.87 10.49 11.92 10.61C11.97 10.73 12 10.86 12 11C12 11.13 11.97 11.26 11.92 11.38C11.87 11.5 11.8 11.6 11.7 11.7L8.7 14.7C8.66 14.75 8.6 14.79 8.55 14.83C8.5 14.86 8.44 14.89 8.38 14.92C8.32 14.94 8.25 14.96 8.19 14.98C8.13 14.99 8.06 15 8 15L5.23 15L7.36 16.06C7.49 16.11 7.6 16.19 7.7 16.29C7.8 16.38 7.88 16.5 7.93 16.63Z" fill="currentColor" fill-opacity="1.000000" fill-rule="evenodd"/>
	</g>
</svg>