<svg xmlns="http://www.w3.org/2000/svg" xmlns:xlink="http://www.w3.org/1999/xlink" width="24.000000" height="24.000000" viewBox="0 0 24 24" fill="none">
	<g>
		<path id="vector" d="M18.71 10.69C18.59 10.55 18.46 10.43 18.3 10.33L9.1 4.2C8.93 4.08 8.74 4 8.55 3.94C8.39 3.89 8.23 3.87 8.06 3.86C7.89 3.86 7.73 3.87 7.57 3.91C7.39 3.95 7.22 4.01 7.05 4.1C6.88 4.19 6.73 4.3 6.6 4.42C6.49 4.54 6.38 4.66 6.3 4.8C6.21 4.95 6.14 5.1 6.09 5.26C6.03 5.45 6 5.65 6 5.86L6 18.13C6 18.34 6.03 18.54 6.09 18.73C6.14 18.89 6.21 19.04 6.3 19.19C6.38 19.33 6.49 19.45 6.6 19.57C6.73 19.69 6.88 19.8 7.05 19.89C7.22 19.98 7.39 20.04 7.57 20.08C7.73 20.12 7.89 20.13 8.06 20.13C8.23 20.12 8.39 20.1 8.55 20.05C8.74 19.99 8.93 19.91 9.1 19.79L18.3 13.66C18.46 13.56 18.59 13.44 18.71 13.3C18.81 13.18 18.9 13.05 18.97 12.91C19.04 12.78 19.09 12.64 19.13 12.49C19.17 12.33 19.19 12.17 19.19 12C19.19 11.82 19.17 11.66 19.13 11.5C19.09 11.35 19.04 11.21 18.97 11.08C18.9 10.94 18.81 10.81 18.71 10.69ZM8 5.86L17.19 12L8 18.13L8 5.86Z" fill="currentColor" fill-opacity="1.000000" fill-rule="evenodd"/>
	</g>
</svg>