<svg width="24.000000" height="24.000000" viewBox="0 0 24 24" fill="none" xmlns="http://www.w3.org/2000/svg" xmlns:xlink="http://www.w3.org/1999/xlink">
	<desc>
			Created with Pixso.
	</desc>
	<defs/>
	<path id="vector" d="M12 5C11.44 5 11 5.44 11 6L11 11L6 11C5.44 11 5 11.44 5 12C5 12.56 5.44 13 6 13L11 13L11 18C11 18.56 11.44 19 12 19C12.56 19 13 18.56 13 18L13 13L18 13C18.56 13 19 12.56 19 12C19 11.44 18.56 11 18 11L13 11L13 6C13 5.44 12.56 5 12 5Z" fill="currentColor" fill-opacity="1.000000" fill-rule="evenodd"/>
</svg>
