<svg xmlns="http://www.w3.org/2000/svg" xmlns:xlink="http://www.w3.org/1999/xlink" width="24.000000" height="24.000000" viewBox="0 0 24 24" fill="none">
	<g>
		<path id="vector" d="M15 3C15.14 3 15.28 3.01 15.41 3.04C15.54 3.06 15.66 3.1 15.77 3.15C15.89 3.2 16 3.26 16.1 3.33C16.21 3.4 16.31 3.49 16.41 3.58C16.5 3.68 16.59 3.78 16.66 3.89C16.73 3.99 16.79 4.1 16.84 4.22C16.89 4.33 16.93 4.45 16.95 4.58C16.98 4.71 17 4.85 17 5L17 8L18 8C18.21 8 18.43 8.02 18.63 8.06C18.81 8.1 18.99 8.16 19.16 8.23C19.34 8.3 19.5 8.39 19.65 8.49C19.82 8.6 19.97 8.73 20.12 8.87C20.26 9.02 20.39 9.17 20.5 9.34C20.6 9.49 20.69 9.65 20.76 9.83C20.83 10 20.89 10.18 20.93 10.36C20.97 10.56 21 10.78 21 11L21 15C21 15.21 20.97 15.43 20.93 15.63C20.89 15.81 20.83 15.99 20.76 16.16C20.69 16.34 20.6 16.5 20.5 16.65C20.39 16.82 20.26 16.97 20.12 17.12C19.97 17.26 19.82 17.39 19.65 17.5C19.5 17.6 19.34 17.69 19.16 17.76C18.99 17.83 18.81 17.89 18.63 17.93C18.43 17.97 18.21 18 18 18L17 18C17 18.21 16.97 18.43 16.93 18.63C16.89 18.81 16.83 18.99 16.76 19.16C16.61 19.52 16.39 19.84 16.12 20.12C15.84 20.39 15.52 20.61 15.16 20.76C14.99 20.83 14.81 20.89 14.63 20.93C14.43 20.97 14.21 21 14 21L10 21C9.78 21 9.56 20.97 9.36 20.93C9.18 20.89 9 20.83 8.83 20.76C8.47 20.61 8.15 20.39 7.87 20.12C7.6 19.84 7.38 19.52 7.23 19.16C7.16 18.99 7.1 18.81 7.06 18.63C7.02 18.43 7 18.21 7 18L6 18C5.78 18 5.56 17.97 5.36 17.93C5.18 17.89 5 17.83 4.83 17.76C4.65 17.69 4.49 17.6 4.34 17.5C4.17 17.39 4.02 17.26 3.87 17.12C3.73 16.97 3.6 16.82 3.49 16.65C3.39 16.5 3.3 16.34 3.23 16.16C3.16 15.99 3.1 15.81 3.06 15.63C3.02 15.43 3 15.21 3 15L3 11C3 10.78 3.02 10.56 3.06 10.36C3.1 10.18 3.16 10 3.23 9.83C3.3 9.65 3.39 9.49 3.49 9.34C3.6 9.17 3.73 9.02 3.87 8.87C4.02 8.73 4.17 8.6 4.34 8.49C4.49 8.39 4.65 8.3 4.83 8.23C5 8.16 5.18 8.1 5.36 8.06C5.56 8.02 5.78 8 6 8L7 8L7 5C7 4.85 7.01 4.71 7.04 4.58C7.06 4.45 7.1 4.33 7.15 4.22C7.2 4.1 7.26 3.99 7.33 3.89C7.4 3.78 7.49 3.68 7.58 3.58C7.68 3.49 7.78 3.4 7.89 3.33C7.99 3.26 8.1 3.2 8.22 3.15C8.33 3.1 8.45 3.06 8.58 3.04C8.71 3.01 8.85 3 9 3L15 3ZM9 8L15 8L15 5L9 5L9 8ZM9 10L6 10C5.91 10 5.83 10 5.75 10.02C5.7 10.04 5.65 10.05 5.61 10.07C5.55 10.1 5.5 10.12 5.46 10.15C5.4 10.19 5.34 10.24 5.29 10.29C5.24 10.34 5.19 10.4 5.15 10.46C5.12 10.5 5.1 10.55 5.07 10.61C5.05 10.65 5.04 10.7 5.02 10.75C5 10.83 5 10.91 5 11L5 15C5 15.08 5 15.16 5.02 15.24C5.04 15.29 5.05 15.34 5.07 15.38C5.1 15.44 5.12 15.49 5.15 15.53C5.19 15.59 5.24 15.65 5.29 15.7C5.34 15.75 5.4 15.8 5.46 15.84C5.5 15.87 5.55 15.89 5.61 15.92C5.65 15.94 5.7 15.95 5.75 15.97C5.83 15.99 5.91 16 6 16L7.76 16C7.8 15.95 7.83 15.91 7.87 15.87C8.02 15.73 8.17 15.6 8.34 15.49C8.49 15.39 8.65 15.3 8.83 15.23C9 15.16 9.18 15.1 9.36 15.06C9.56 15.02 9.78 15 10 15L14 15C14.4 15 14.79 15.07 15.16 15.23C15.34 15.3 15.5 15.39 15.65 15.49C15.82 15.6 15.97 15.73 16.12 15.87C16.16 15.91 16.19 15.95 16.23 16L18 16C18.08 16 18.16 15.99 18.24 15.97C18.29 15.95 18.34 15.94 18.38 15.92C18.44 15.89 18.49 15.87 18.53 15.84C18.59 15.8 18.65 15.75 18.7 15.7C18.75 15.65 18.8 15.59 18.84 15.53C18.87 15.49 18.89 15.44 18.92 15.38C18.94 15.34 18.95 15.29 18.97 15.24C18.99 15.16 19 15.08 19 15L19 11C19 10.91 18.99 10.83 18.97 10.75C18.95 10.7 18.94 10.65 18.92 10.61C18.89 10.55 18.87 10.5 18.84 10.46C18.8 10.4 18.75 10.34 18.7 10.29C18.65 10.24 18.59 10.19 18.53 10.15C18.49 10.12 18.44 10.1 18.38 10.07C18.34 10.05 18.29 10.04 18.24 10.02C18.16 10 18.08 10 18 10L9 10ZM17 11C17.55 11 18 11.44 18 12C18 12.55 17.55 13 17 13C16.44 13 16 12.55 16 12C16 11.44 16.44 11 17 11ZM10 17L14 17C14.13 17 14.26 17.02 14.38 17.07C14.5 17.12 14.61 17.2 14.7 17.29C14.79 17.38 14.87 17.49 14.92 17.61C14.97 17.73 15 17.86 15 18C15 18.13 14.97 18.26 14.92 18.38C14.87 18.5 14.79 18.61 14.7 18.7C14.61 18.79 14.5 18.87 14.38 18.92C14.26 18.97 14.13 19 14 19L10 19C9.86 19 9.73 18.97 9.61 18.92C9.49 18.87 9.38 18.79 9.29 18.7C9.2 18.61 9.12 18.5 9.07 18.38C9.02 18.26 9 18.13 9 18C9 17.86 9.02 17.73 9.07 17.61C9.12 17.49 9.2 17.38 9.29 17.29C9.38 17.2 9.49 17.12 9.61 17.07C9.73 17.02 9.86 17 10 17Z" fill="currentColor" fill-opacity="1.000000" fill-rule="evenodd"/>
	</g>
</svg>