<svg xmlns="http://www.w3.org/2000/svg" xmlns:xlink="http://www.w3.org/1999/xlink" width="24.000000" height="24.000000" viewBox="0 0 24 24" fill="none">
	<g>
		<path id="vector" d="M16.41 3.04C16.28 3.01 16.14 3 16 3L8 3C7.85 3 7.71 3.01 7.58 3.04C7.45 3.06 7.33 3.1 7.22 3.15C7.1 3.2 6.99 3.26 6.89 3.33C6.78 3.4 6.68 3.49 6.58 3.58C6.49 3.68 6.4 3.78 6.33 3.89C6.26 3.99 6.2 4.1 6.15 4.22C6.1 4.33 6.06 4.45 6.04 4.58C6.01 4.71 6 4.85 6 5L3 5C2.86 5 2.73 5.02 2.61 5.07C2.49 5.12 2.39 5.19 2.29 5.29C2.19 5.39 2.12 5.49 2.07 5.61C2.02 5.73 2 5.86 2 6C2 6.36 2.03 6.72 2.11 7.07C2.18 7.37 2.27 7.66 2.39 7.94C2.51 8.23 2.65 8.49 2.82 8.75C3 9.03 3.22 9.29 3.46 9.53C3.7 9.77 3.96 9.99 4.24 10.17C4.5 10.34 4.76 10.48 5.05 10.6C5.33 10.72 5.62 10.81 5.92 10.88C5.96 10.89 6.02 10.9 6.06 10.91C6.08 11.04 6.11 11.16 6.13 11.29C6.21 11.64 6.32 11.99 6.47 12.33C6.61 12.67 6.78 12.99 6.98 13.3C7.21 13.63 7.46 13.95 7.75 14.24C8.04 14.53 8.36 14.78 8.69 15.01C9 15.21 9.32 15.38 9.66 15.52C10 15.67 10.34 15.78 10.7 15.85C10.79 15.88 10.9 15.9 11 15.91L10.72 16C10.5 16 10.3 16.03 10.1 16.09C9.91 16.15 9.72 16.25 9.55 16.37C9.37 16.5 9.22 16.64 9.1 16.81C8.98 16.97 8.89 17.16 8.82 17.36L8.05 19.68C8.04 19.7 8.01 19.81 8.01 19.83C8.01 19.86 8 19.97 8 20C8 20.13 8.02 20.26 8.07 20.38C8.12 20.5 8.19 20.6 8.29 20.7C8.39 20.8 8.49 20.87 8.61 20.92C8.73 20.97 8.86 21 9 21L15 21C15.02 20.99 15.13 20.99 15.16 20.98C15.18 20.98 15.29 20.95 15.31 20.94C15.44 20.9 15.56 20.84 15.65 20.75C15.75 20.67 15.83 20.57 15.89 20.44C15.95 20.32 15.99 20.19 16 20.07C16 19.94 15.99 19.81 15.94 19.68L15.17 17.36C15.1 17.16 15.01 16.97 14.89 16.81C14.77 16.64 14.62 16.5 14.44 16.37C14.27 16.25 14.08 16.15 13.89 16.09C13.69 16.03 13.49 16 13.27 16L13 16C13.09 15.98 13.19 15.88 13.29 15.86C13.65 15.78 13.99 15.67 14.33 15.52C14.67 15.38 14.99 15.21 15.3 15.01C15.63 14.78 15.95 14.53 16.24 14.24C16.53 13.95 16.78 13.63 17.01 13.3C17.21 12.99 17.38 12.67 17.52 12.33C17.67 11.99 17.78 11.65 17.86 11.29C17.88 11.17 17.91 11.04 17.93 10.91C17.97 10.9 18.02 10.89 18.07 10.88C18.36 10.82 18.66 10.72 18.94 10.6C19.23 10.48 19.49 10.34 19.75 10.17C20.03 9.99 20.29 9.77 20.53 9.53C20.77 9.29 20.99 9.03 21.17 8.75C21.34 8.49 21.48 8.23 21.6 7.94C21.72 7.66 21.81 7.37 21.88 7.07C21.96 6.72 22 6.36 22 6C22 5.86 21.97 5.73 21.92 5.61C21.87 5.49 21.8 5.39 21.7 5.29C21.6 5.19 21.5 5.12 21.38 5.07C21.26 5.02 21.13 5 21 5L18 5C18 4.85 17.98 4.71 17.95 4.58C17.93 4.45 17.89 4.33 17.84 4.22C17.79 4.1 17.73 3.99 17.66 3.89C17.59 3.78 17.5 3.68 17.41 3.58C17.31 3.49 17.21 3.4 17.1 3.33C17 3.26 16.89 3.2 16.77 3.15C16.66 3.1 16.54 3.06 16.41 3.04ZM12 18L10.72 18L10.38 19L13.61 19L13.27 18L12 18ZM8 5L8 10C8 10.3 8.03 10.6 8.1 10.9C8.15 11.12 8.22 11.34 8.31 11.55C8.4 11.77 8.51 11.98 8.64 12.18C8.79 12.41 8.97 12.62 9.17 12.82C9.37 13.02 9.58 13.2 9.81 13.35C10.01 13.48 10.22 13.59 10.44 13.68C10.65 13.77 10.87 13.84 11.09 13.89C11.39 13.96 11.69 14 12 14C12.3 14 12.6 13.96 12.9 13.89C13.12 13.84 13.34 13.77 13.55 13.68C13.77 13.59 13.98 13.48 14.18 13.35C14.41 13.2 14.62 13.02 14.82 12.82C15.02 12.62 15.2 12.41 15.35 12.18C15.48 11.98 15.59 11.77 15.68 11.55C15.77 11.34 15.84 11.12 15.89 10.9C15.96 10.6 16 10.3 16 10L16 5L8 5ZM6 8.82C5.94 8.8 5.88 8.78 5.83 8.76C5.66 8.69 5.51 8.61 5.36 8.51C5.19 8.4 5.02 8.27 4.87 8.12C4.72 7.97 4.59 7.8 4.48 7.63C4.38 7.48 4.3 7.33 4.23 7.16C4.21 7.11 4.19 7.05 4.17 7L6 7L6 8.82ZM18.16 8.76C18.11 8.78 18.05 8.8 18 8.82L18 7L19.82 7C19.8 7.05 19.78 7.11 19.76 7.16C19.69 7.33 19.61 7.48 19.51 7.63C19.4 7.8 19.27 7.97 19.12 8.12C18.97 8.27 18.8 8.4 18.63 8.51C18.48 8.61 18.33 8.69 18.16 8.76Z" fill="currentColor" fill-opacity="1.000000" fill-rule="evenodd"/>
	</g>
</svg>