
<svg width="24.000000" height="24.000000" viewBox="0 0 24 24" fill="none" xmlns="http://www.w3.org/2000/svg" xmlns:xlink="http://www.w3.org/1999/xlink">
	<g>
		<path id="vector" d="M7.24 3.07C7.45 3.12 7.66 3.18 7.86 3.27C8.06 3.35 8.25 3.46 8.43 3.57C8.62 3.7 8.8 3.85 8.97 4.02C9.14 4.19 9.29 4.37 9.42 4.56C9.53 4.74 9.63 4.93 9.72 5.13C9.77 5.25 9.81 5.37 9.85 5.5L14.75 5.5C15.02 5.5 15.29 5.52 15.55 5.58C15.77 5.63 15.99 5.7 16.2 5.79C16.42 5.88 16.62 5.99 16.81 6.12C17.02 6.25 17.22 6.41 17.4 6.59C17.58 6.77 17.74 6.97 17.87 7.18C18 7.37 18.11 7.57 18.2 7.79C18.29 8 18.36 8.22 18.41 8.44C18.47 8.7 18.5 8.97 18.5 9.25C18.5 9.52 18.47 9.79 18.41 10.05C18.36 10.27 18.29 10.49 18.2 10.71C18.11 10.92 18 11.12 17.87 11.31C17.74 11.52 17.58 11.72 17.4 11.9C17.22 12.08 17.02 12.24 16.81 12.37C16.62 12.5 16.42 12.61 16.2 12.7C15.99 12.79 15.77 12.86 15.55 12.91C15.29 12.97 15.02 13 14.75 13L9.25 13C9.11 13 8.97 13.01 8.84 13.04C8.75 13.06 8.65 13.09 8.56 13.13C8.47 13.17 8.38 13.22 8.3 13.27C8.19 13.34 8.1 13.42 8.01 13.51C7.92 13.6 7.84 13.69 7.77 13.8C7.72 13.88 7.67 13.97 7.63 14.06C7.59 14.15 7.56 14.25 7.54 14.34C7.51 14.47 7.5 14.61 7.5 14.75C7.5 14.88 7.51 15.02 7.54 15.15C7.56 15.24 7.59 15.34 7.63 15.43C7.67 15.52 7.72 15.61 7.77 15.69C7.84 15.8 7.92 15.89 8.01 15.98C8.1 16.07 8.19 16.15 8.3 16.22C8.38 16.27 8.47 16.32 8.56 16.36C8.65 16.4 8.75 16.43 8.84 16.45C8.97 16.48 9.11 16.5 9.25 16.5L14.14 16.5C14.18 16.37 14.22 16.25 14.27 16.13C14.36 15.93 14.46 15.74 14.57 15.57C14.7 15.37 14.85 15.19 15.02 15.02C15.19 14.85 15.37 14.7 15.56 14.57C15.74 14.46 15.93 14.36 16.13 14.27C16.33 14.19 16.54 14.12 16.75 14.07C16.99 14.02 17.24 14 17.5 14C17.75 14 18 14.02 18.24 14.07C18.45 14.12 18.66 14.19 18.86 14.27C19.06 14.36 19.25 14.46 19.43 14.57C19.62 14.7 19.8 14.85 19.97 15.02C20.14 15.19 20.29 15.37 20.42 15.56C20.53 15.74 20.64 15.93 20.72 16.13C20.8 16.33 20.87 16.54 20.92 16.75C20.97 16.99 21 17.24 21 17.5C21 17.75 20.97 18 20.92 18.24C20.87 18.45 20.8 18.66 20.72 18.86C20.63 19.06 20.53 19.25 20.42 19.43C20.29 19.62 20.14 19.8 19.97 19.97C19.8 20.14 19.62 20.29 19.43 20.42C19.25 20.53 19.06 20.63 18.86 20.72C18.66 20.8 18.45 20.87 18.24 20.92C18 20.97 17.75 21 17.5 21C17.24 21 16.99 20.97 16.75 20.92C16.54 20.87 16.33 20.8 16.13 20.72C15.93 20.63 15.74 20.53 15.56 20.42C15.37 20.29 15.19 20.14 15.02 19.97C14.85 19.8 14.7 19.62 14.57 19.43C14.46 19.25 14.36 19.06 14.27 18.86C14.22 18.74 14.18 18.62 14.14 18.5L9.25 18.5C8.97 18.5 8.7 18.47 8.44 18.41C8.22 18.36 8 18.29 7.79 18.2C7.57 18.11 7.37 18 7.18 17.87C6.97 17.74 6.77 17.58 6.59 17.4C6.41 17.22 6.25 17.02 6.12 16.81C5.99 16.62 5.88 16.42 5.79 16.2C5.7 15.99 5.63 15.77 5.58 15.55C5.52 15.29 5.5 15.02 5.5 14.75C5.5 14.47 5.52 14.2 5.58 13.94C5.63 13.72 5.7 13.5 5.79 13.29C5.88 13.07 5.99 12.87 6.12 12.68C6.25 12.47 6.41 12.27 6.59 12.09C6.77 11.91 6.97 11.75 7.18 11.62C7.37 11.49 7.57 11.38 7.79 11.29C8 11.2 8.22 11.13 8.44 11.08C8.7 11.02 8.97 11 9.25 11L14.75 11C14.88 11 15.02 10.98 15.15 10.95C15.24 10.93 15.34 10.9 15.43 10.86C15.52 10.82 15.61 10.77 15.69 10.72C15.8 10.65 15.89 10.57 15.98 10.48C16.07 10.39 16.15 10.3 16.22 10.19C16.27 10.11 16.32 10.02 16.36 9.93C16.4 9.84 16.43 9.74 16.45 9.65C16.48 9.52 16.5 9.38 16.5 9.25C16.5 9.11 16.48 8.97 16.45 8.84C16.43 8.75 16.4 8.65 16.36 8.56C16.32 8.47 16.27 8.38 16.22 8.3C16.15 8.19 16.07 8.1 15.98 8.01C15.89 7.92 15.8 7.84 15.69 7.77C15.61 7.72 15.52 7.67 15.43 7.63C15.34 7.59 15.24 7.56 15.15 7.54C15.02 7.51 14.88 7.5 14.75 7.5L9.85 7.5C9.81 7.62 9.77 7.74 9.72 7.86C9.63 8.06 9.53 8.25 9.42 8.42C9.29 8.62 9.14 8.8 8.97 8.97C8.8 9.14 8.62 9.29 8.43 9.41C8.25 9.53 8.06 9.63 7.86 9.72C7.66 9.8 7.45 9.87 7.24 9.91C7 9.97 6.75 9.99 6.5 9.99C6.24 9.99 5.99 9.97 5.75 9.91C5.54 9.87 5.33 9.8 5.13 9.72C4.93 9.63 4.74 9.53 4.56 9.41C4.37 9.29 4.19 9.14 4.02 8.97C3.85 8.8 3.7 8.62 3.57 8.42C3.46 8.25 3.36 8.06 3.27 7.86C3.19 7.66 3.12 7.45 3.07 7.24C3.02 7 3 6.75 3 6.49C3 6.24 3.02 5.99 3.07 5.75C3.12 5.54 3.19 5.33 3.27 5.13C3.36 4.93 3.46 4.74 3.57 4.56C3.7 4.37 3.85 4.19 4.02 4.02C4.19 3.85 4.37 3.7 4.56 3.57C4.74 3.46 4.93 3.35 5.13 3.27C5.33 3.18 5.54 3.12 5.75 3.07C5.99 3.02 6.24 2.99 6.5 2.99C6.75 2.99 7 3.02 7.24 3.07ZM6.5 4.99C6.37 4.99 6.26 5.01 6.14 5.04C6.07 5.05 5.99 5.08 5.91 5.11C5.83 5.15 5.75 5.19 5.68 5.23C5.59 5.29 5.51 5.36 5.43 5.43C5.36 5.51 5.29 5.59 5.23 5.68C5.19 5.75 5.15 5.83 5.11 5.91C5.08 5.99 5.05 6.06 5.04 6.14C5.01 6.26 5 6.37 5 6.49C5 6.61 5.01 6.73 5.04 6.84C5.05 6.92 5.08 7 5.11 7.08C5.15 7.16 5.19 7.23 5.23 7.31C5.29 7.4 5.36 7.48 5.43 7.55C5.51 7.63 5.59 7.7 5.68 7.76C5.75 7.8 5.83 7.84 5.91 7.88C5.99 7.91 6.07 7.93 6.14 7.95C6.26 7.98 6.37 7.99 6.5 7.99C6.62 7.99 6.73 7.98 6.85 7.95C6.92 7.93 7 7.91 7.08 7.88C7.16 7.84 7.24 7.8 7.31 7.76C7.4 7.7 7.48 7.63 7.56 7.55C7.63 7.48 7.7 7.4 7.76 7.31C7.8 7.23 7.84 7.16 7.88 7.08C7.91 7 7.94 6.92 7.95 6.84C7.98 6.73 8 6.61 8 6.49C8 6.37 7.98 6.26 7.95 6.14C7.94 6.06 7.91 5.99 7.88 5.91C7.84 5.83 7.8 5.75 7.76 5.68C7.7 5.59 7.63 5.51 7.56 5.43C7.48 5.36 7.4 5.29 7.31 5.23C7.24 5.19 7.16 5.15 7.08 5.11C7 5.08 6.92 5.05 6.85 5.04C6.73 5.01 6.62 4.99 6.5 4.99ZM17.14 16.04C17.26 16.01 17.37 16 17.5 16C17.62 16 17.73 16.01 17.85 16.04C17.92 16.05 18 16.08 18.08 16.11C18.16 16.15 18.24 16.19 18.31 16.23C18.4 16.29 18.48 16.36 18.56 16.43C18.63 16.51 18.7 16.59 18.76 16.68C18.8 16.75 18.84 16.83 18.88 16.91C18.91 16.99 18.94 17.07 18.95 17.14C18.98 17.26 19 17.37 19 17.5C19 17.62 18.98 17.73 18.95 17.85C18.94 17.92 18.91 18 18.88 18.08C18.84 18.16 18.8 18.24 18.76 18.31C18.7 18.4 18.63 18.48 18.56 18.56C18.48 18.63 18.4 18.7 18.31 18.76C18.24 18.8 18.16 18.84 18.08 18.88C18 18.91 17.93 18.94 17.85 18.95C17.73 18.98 17.62 19 17.5 19C17.37 19 17.26 18.98 17.14 18.95C17.07 18.94 16.99 18.91 16.91 18.88C16.83 18.84 16.75 18.8 16.68 18.76C16.59 18.7 16.51 18.63 16.43 18.56C16.36 18.48 16.29 18.4 16.23 18.31C16.19 18.24 16.15 18.16 16.11 18.08C16.08 18 16.05 17.92 16.04 17.85C16.01 17.73 16 17.62 16 17.5C16 17.37 16.01 17.26 16.04 17.14C16.05 17.07 16.08 16.99 16.11 16.91C16.15 16.83 16.19 16.75 16.23 16.68C16.29 16.59 16.36 16.51 16.43 16.43C16.51 16.36 16.59 16.29 16.68 16.23C16.75 16.19 16.83 16.15 16.91 16.11C16.99 16.08 17.07 16.05 17.14 16.04Z" fill="currentColor" fill-opacity="1.000000" fill-rule="evenodd"/>
	</g>
</svg>
