<svg xmlns="http://www.w3.org/2000/svg" xmlns:xlink="http://www.w3.org/1999/xlink" width="24.000000" height="24.000000" viewBox="0 0 24 24" fill="none">
	<path id="vector" d="M4.32 8.96C4.27 9.08 4.2 9.19 4.1 9.28L3.51 9.87C3.22 10.17 3 10.49 2.85 10.84C2.7 11.2 2.63 11.58 2.63 12C2.63 12.41 2.7 12.79 2.85 13.15C3 13.5 3.22 13.82 3.51 14.12L4.1 14.71C4.2 14.8 4.27 14.91 4.32 15.03C4.37 15.15 4.39 15.27 4.39 15.41L4.39 16.75C4.39 17.16 4.46 17.54 4.61 17.9C4.76 18.25 4.98 18.57 5.27 18.87C5.56 19.16 5.89 19.38 6.24 19.53C6.59 19.67 6.98 19.75 7.39 19.75L8.72 19.75C8.86 19.75 8.99 19.77 9.11 19.82C9.23 19.87 9.33 19.94 9.43 20.04L9.87 20.48C10.58 21.19 11.29 21.54 12 21.54C12.7 21.54 13.41 21.19 14.12 20.48L14.56 20.04C14.66 19.94 14.76 19.87 14.88 19.82C15 19.77 15.13 19.75 15.27 19.75L16.39 19.75C17.39 19.75 18.14 19.5 18.64 19C19.14 18.5 19.39 17.75 19.39 16.75L19.39 15.62C19.39 15.48 19.42 15.35 19.46 15.24C19.51 15.12 19.59 15.01 19.68 14.91L20.48 14.12C20.77 13.82 20.99 13.5 21.14 13.15C21.29 12.79 21.36 12.41 21.36 12C21.36 11.58 21.29 11.2 21.14 10.84C20.99 10.49 20.77 10.17 20.48 9.87L19.68 9.08C19.59 8.98 19.51 8.87 19.46 8.75C19.42 8.64 19.39 8.51 19.39 8.37L19.39 7.75C19.39 7.33 19.32 6.95 19.17 6.59C19.03 6.24 18.81 5.92 18.51 5.62C18.22 5.33 17.9 5.11 17.54 4.96C17.19 4.82 16.81 4.75 16.39 4.75L15.77 4.75C15.63 4.75 15.5 4.72 15.38 4.67C15.26 4.62 15.16 4.55 15.06 4.45L14.12 3.51C13.82 3.22 13.5 3 13.15 2.85C12.79 2.7 12.41 2.63 12 2.63C11.58 2.63 11.2 2.7 10.84 2.85C10.49 3 10.17 3.22 9.87 3.51L8.93 4.45C8.83 4.55 8.73 4.62 8.61 4.67C8.49 4.72 8.36 4.75 8.22 4.75L7.39 4.75C6.39 4.75 5.64 5 5.14 5.5C4.64 6 4.39 6.75 4.39 7.75L4.39 8.58C4.39 8.72 4.37 8.84 4.32 8.96ZM4.92 11.29L5.51 10.7C5.81 10.41 6.03 10.08 6.17 9.73C6.32 9.38 6.39 8.99 6.39 8.58L6.39 7.75C6.39 7.41 6.47 7.16 6.64 7C6.81 6.83 7.06 6.75 7.39 6.75L8.22 6.75C8.64 6.75 9.02 6.67 9.38 6.53C9.73 6.38 10.05 6.16 10.35 5.87L11.29 4.92C11.39 4.83 11.49 4.75 11.61 4.7C11.73 4.66 11.86 4.63 12 4.63C12.13 4.63 12.26 4.66 12.38 4.7C12.5 4.75 12.6 4.83 12.7 4.92L13.64 5.87C13.94 6.16 14.26 6.38 14.61 6.53C14.97 6.67 15.35 6.75 15.77 6.75L16.39 6.75C16.53 6.75 16.66 6.77 16.78 6.82C16.89 6.87 17 6.94 17.1 7.04C17.2 7.14 17.27 7.24 17.32 7.36C17.37 7.48 17.39 7.61 17.39 7.75L17.39 8.37C17.39 8.78 17.46 9.17 17.61 9.52C17.76 9.88 17.98 10.2 18.27 10.49L19.07 11.29C19.16 11.39 19.24 11.49 19.29 11.61C19.33 11.73 19.36 11.86 19.36 12C19.36 12.13 19.33 12.26 19.29 12.38C19.24 12.5 19.16 12.6 19.07 12.7L18.27 13.5C17.98 13.79 17.76 14.11 17.61 14.47C17.46 14.82 17.39 15.21 17.39 15.62L17.39 16.75C17.39 17.08 17.31 17.33 17.14 17.5C16.97 17.66 16.72 17.75 16.39 17.75L15.27 17.75C14.85 17.75 14.47 17.82 14.11 17.96C13.76 18.11 13.44 18.33 13.14 18.62L12.7 19.07C12.47 19.3 12.23 19.42 12 19.42C11.76 19.42 11.52 19.3 11.29 19.07L10.85 18.62C10.55 18.33 10.23 18.11 9.88 17.96C9.52 17.82 9.14 17.75 8.72 17.75L7.39 17.75C7.06 17.75 6.81 17.66 6.64 17.5C6.47 17.33 6.39 17.08 6.39 16.75L6.39 15.41C6.39 15 6.32 14.61 6.17 14.26C6.03 13.91 5.81 13.58 5.51 13.29L4.92 12.7C4.83 12.6 4.75 12.5 4.7 12.38C4.66 12.26 4.63 12.13 4.63 12C4.63 11.86 4.66 11.73 4.7 11.61C4.75 11.49 4.83 11.39 4.92 11.29ZM15.7 10.7L11.7 14.7C11.23 15.17 10.76 15.17 10.29 14.7L8.29 12.7C7.89 12.31 7.89 11.68 8.29 11.29C8.68 10.89 9.31 10.89 9.7 11.29L11 12.58L14.29 9.29C14.68 8.89 15.31 8.89 15.7 9.29C16.1 9.68 16.1 10.31 15.7 10.7Z" fill="currentColor" fill-opacity="1.000000" fill-rule="evenodd"/>
</svg>