<svg width="24.000000" height="24.000000" viewBox="0 0 24 24" fill="none" xmlns="http://www.w3.org/2000/svg" xmlns:xlink="http://www.w3.org/1999/xlink">
	<rect id="&lt;Icon&gt;after" rx="12.000000" width="24.000000" height="24.000000" fill="currentColor" fill-opacity="0"/>
	<path id="vector" d="M10.04 20.78C10.67 20.92 11.33 21 12 21C12.66 21 13.32 20.92 13.95 20.78C14.48 20.67 14.99 20.5 15.5 20.29C16.01 20.07 16.49 19.82 16.94 19.52C17.45 19.18 17.92 18.8 18.36 18.36C18.8 17.92 19.18 17.45 19.52 16.94C19.81 16.49 20.07 16.01 20.29 15.5C20.5 14.99 20.67 14.48 20.78 13.95C20.92 13.32 21 12.66 21 12C21 11.33 20.92 10.67 20.78 10.04C20.67 9.51 20.5 9 20.29 8.49C20.07 7.98 19.82 7.5 19.52 7.05C19.18 6.54 18.8 6.07 18.36 5.63C17.92 5.19 17.45 4.81 16.94 4.47C16.49 4.18 16.01 3.92 15.5 3.7C14.99 3.49 14.48 3.32 13.95 3.21C13.32 3.07 12.66 3 12 3C11.33 3 10.67 3.07 10.04 3.21C9.51 3.32 9 3.49 8.49 3.7C7.98 3.92 7.5 4.18 7.05 4.47C6.54 4.81 6.07 5.19 5.63 5.63C5.19 6.07 4.81 6.54 4.47 7.05C4.18 7.5 3.92 7.98 3.7 8.49C3.49 9 3.32 9.51 3.21 10.04C3.07 10.67 3 11.33 3 12C3 12.66 3.07 13.32 3.21 13.95C3.32 14.48 3.49 14.99 3.7 15.5C3.92 16.01 4.17 16.49 4.47 16.94C4.81 17.45 5.19 17.92 5.63 18.36C6.07 18.8 6.54 19.18 7.05 19.52C7.5 19.82 7.98 20.07 8.49 20.29C9 20.5 9.51 20.67 10.04 20.78ZM13.55 18.82C13.05 18.94 12.53 19 12 19C11.46 19 10.94 18.94 10.43 18.82C10.04 18.73 9.65 18.61 9.27 18.45C8.88 18.28 8.51 18.08 8.17 17.86C7.76 17.59 7.39 17.29 7.05 16.94C6.7 16.6 6.4 16.23 6.13 15.83C5.91 15.48 5.71 15.11 5.54 14.72C5.38 14.34 5.26 13.95 5.17 13.56C5.05 13.05 5 12.53 5 12C5 11.46 5.05 10.94 5.17 10.43C5.26 10.04 5.38 9.65 5.54 9.27C5.71 8.88 5.91 8.51 6.13 8.17C6.4 7.76 6.7 7.39 7.05 7.05C7.39 6.7 7.76 6.4 8.16 6.13C8.51 5.91 8.88 5.71 9.27 5.54C9.65 5.38 10.04 5.26 10.43 5.17C10.94 5.05 11.46 5 12 5C12.53 5 13.05 5.05 13.56 5.17C13.95 5.26 14.34 5.38 14.72 5.54C15.11 5.71 15.48 5.91 15.83 6.13C16.23 6.4 16.6 6.7 16.94 7.05C17.29 7.39 17.59 7.76 17.86 8.17C18.08 8.51 18.28 8.88 18.45 9.27C18.61 9.65 18.73 10.04 18.82 10.43C18.94 10.94 19 11.46 19 12C19 12.53 18.94 13.05 18.82 13.56C18.73 13.95 18.61 14.34 18.45 14.72C18.28 15.11 18.08 15.48 17.86 15.83C17.59 16.23 17.29 16.6 16.94 16.94C16.6 17.29 16.23 17.59 15.83 17.86C15.48 18.08 15.11 18.28 14.72 18.45C14.34 18.61 13.95 18.73 13.55 18.82ZM8.57 8.75C8.62 8.54 8.69 8.33 8.77 8.13C8.86 7.93 8.96 7.74 9.07 7.56C9.2 7.37 9.35 7.19 9.52 7.02C9.69 6.85 9.87 6.7 10.06 6.57C10.24 6.46 10.43 6.36 10.63 6.27C10.83 6.19 11.04 6.12 11.25 6.07C11.49 6.02 11.74 6 12 6C12.25 6 12.5 6.02 12.74 6.07C12.95 6.12 13.16 6.19 13.36 6.27C13.56 6.36 13.75 6.46 13.93 6.57C14.12 6.7 14.3 6.85 14.47 7.02C14.64 7.19 14.79 7.37 14.92 7.56C15.03 7.74 15.13 7.93 15.22 8.13C15.3 8.33 15.37 8.54 15.42 8.75C15.47 8.99 15.5 9.24 15.5 9.5C15.5 9.75 15.47 10 15.42 10.24C15.37 10.45 15.3 10.66 15.22 10.86C15.13 11.06 15.03 11.25 14.92 11.43C14.79 11.62 14.64 11.8 14.47 11.97C14.3 12.14 14.12 12.29 13.93 12.42C13.75 12.53 13.56 12.63 13.36 12.72C13.24 12.77 13.12 12.81 13 12.85L13 13C13 13.56 12.56 14 12 14C11.43 14 11 13.56 11 13L11 12C11 11.86 11.02 11.73 11.07 11.61C11.12 11.49 11.19 11.39 11.29 11.29C11.39 11.19 11.49 11.12 11.61 11.07C11.73 11.02 11.86 11 12 11C12.12 11 12.23 10.98 12.35 10.95C12.42 10.94 12.5 10.91 12.58 10.88C12.66 10.84 12.74 10.8 12.81 10.76C12.9 10.7 12.98 10.63 13.06 10.56C13.13 10.48 13.2 10.4 13.26 10.31C13.3 10.24 13.34 10.16 13.38 10.08C13.41 10 13.44 9.92 13.45 9.85C13.48 9.73 13.5 9.62 13.5 9.5C13.5 9.37 13.48 9.26 13.45 9.14C13.44 9.07 13.41 8.99 13.38 8.91C13.34 8.83 13.3 8.75 13.26 8.68C13.2 8.59 13.13 8.51 13.06 8.43C12.98 8.36 12.9 8.29 12.81 8.23C12.74 8.19 12.66 8.15 12.58 8.11C12.5 8.08 12.42 8.05 12.35 8.04C12.23 8.01 12.12 8 12 8C11.87 8 11.76 8.01 11.64 8.04C11.57 8.05 11.49 8.08 11.41 8.11C11.33 8.15 11.25 8.19 11.18 8.23C11.09 8.29 11.01 8.36 10.93 8.43C10.86 8.51 10.79 8.59 10.73 8.68C10.69 8.75 10.65 8.83 10.61 8.91C10.58 8.99 10.55 9.07 10.54 9.14C10.51 9.26 10.5 9.37 10.5 9.5C10.5 10.06 10.06 10.5 9.5 10.5C8.93 10.5 8.5 10.06 8.5 9.5C8.5 9.24 8.52 8.99 8.57 8.75ZM10.75 16.25C10.75 16.95 11.29 17.5 11.99 17.5C12.69 17.5 13.25 16.95 13.25 16.25C13.25 15.55 12.69 15 11.99 15C11.29 15 10.75 15.55 10.75 16.25Z" fill="currentColor" fill-opacity="1.000000" fill-rule="evenodd"/>
</svg>
