<svg width="16.000000" height="16.000000" viewBox="0 0 16 16" fill="none" xmlns="http://www.w3.org/2000/svg" xmlns:xlink="http://www.w3.org/1999/xlink">
	<path id="Icon (Border)" d="M8.8 6.53C8.5 6.23 8.5 5.76 8.8 5.46C9.09 5.17 9.56 5.17 9.86 5.46L13.86 9.46C13.93 9.54 13.98 9.62 14.02 9.71C14.06 9.8 14.08 9.9 14.08 10C14.08 10.2 14 10.38 13.86 10.53C13.71 10.67 13.54 10.75 13.33 10.75L2.66 10.75C2.24 10.75 1.91 10.42 1.91 10C1.91 9.58 2.24 9.25 2.66 9.25L11.52 9.25L8.8 6.53Z" fill="currentColor" fill-opacity="1.000000" fill-rule="evenodd"/>
</svg>
