<svg xmlns="http://www.w3.org/2000/svg" xmlns:xlink="http://www.w3.org/1999/xlink" width="24.000000" height="24.000000" viewBox="0 0 24 24" fill="none">
	<path id="vector" d="M15 5C15 4.44 15.44 4 16 4C16.56 4 17 4.44 17 5L17 6L19 6C19.56 6 20 6.44 20 7C20 7.56 19.56 8 19 8L17 8L17 9C17 9.56 16.56 10 16 10C15.44 10 15 9.56 15 9L15 5ZM5 8C4.44 8 4 7.56 4 7C4 6.44 4.44 6 5 6L13 6C13.56 6 14 6.44 14 7C14 7.56 13.56 8 13 8L5 8ZM7 10C7 9.43 7.44 9 8 9C8.56 9 9 9.43 9 10L9 14C9 14.56 8.56 15 8 15C7.44 15 7 14.56 7 14L7 13L5 13C4.44 13 4 12.56 4 12C4 11.44 4.44 11 5 11L7 11L7 10ZM11 13C10.44 13 10 12.56 10 12C10 11.44 10.44 11 11 11L19 11C19.56 11 20 11.44 20 12C20 12.56 19.56 13 19 13L11 13ZM15 15C15 14.44 15.44 14 16 14C16.56 14 17 14.44 17 15L17 16L19 16C19.56 16 20 16.44 20 17C20 17.56 19.56 18 19 18L17 18L17 19C17 19.56 16.56 20 16 20C15.44 20 15 19.56 15 19L15 15ZM5 18C4.44 18 4 17.56 4 17C4 16.44 4.44 16 5 16L13 16C13.56 16 14 16.44 14 17C14 17.56 13.56 18 13 18L5 18Z" fill="currentColor" fill-opacity="1.000000" fill-rule="evenodd"/>
</svg>