<svg xmlns="http://www.w3.org/2000/svg" xmlns:xlink="http://www.w3.org/1999/xlink" width="24.000000" height="24.000000" viewBox="0 0 24 24" fill="none">
	<g>
		<path id="vector" d="M12.89 2.55L15.3 7.44L20.7 8.22C20.84 8.24 20.96 8.29 21.07 8.35C21.18 8.42 21.27 8.51 21.36 8.62C21.44 8.73 21.5 8.84 21.53 8.97C21.56 9.09 21.56 9.22 21.54 9.36C21.54 9.41 21.52 9.47 21.51 9.52C21.49 9.57 21.47 9.62 21.45 9.67C21.42 9.72 21.39 9.76 21.36 9.81C21.33 9.85 21.29 9.89 21.25 9.93L17.35 13.73L18.27 19.11C18.29 19.24 18.29 19.37 18.26 19.5C18.24 19.62 18.18 19.74 18.1 19.85C18.02 19.97 17.93 20.06 17.82 20.12C17.71 20.19 17.59 20.24 17.45 20.26C17.4 20.27 17.35 20.28 17.29 20.28C17.24 20.28 17.18 20.27 17.13 20.26C17.07 20.26 17.02 20.24 16.97 20.23C16.92 20.21 16.87 20.19 16.82 20.16L12 17.62L7.17 20.16C7.05 20.23 6.92 20.26 6.8 20.28C6.67 20.29 6.54 20.27 6.41 20.23C6.28 20.19 6.16 20.13 6.06 20.05C5.97 19.97 5.88 19.86 5.82 19.74C5.79 19.69 5.77 19.64 5.76 19.59C5.74 19.54 5.73 19.49 5.72 19.43C5.71 19.38 5.7 19.32 5.7 19.27C5.71 19.22 5.71 19.16 5.72 19.11L6.64 13.73L2.74 9.93C2.64 9.83 2.56 9.73 2.51 9.61C2.46 9.49 2.44 9.36 2.44 9.23C2.43 9.09 2.46 8.96 2.5 8.84C2.55 8.72 2.62 8.61 2.72 8.52C2.76 8.48 2.8 8.44 2.84 8.41C2.89 8.38 2.93 8.35 2.98 8.32C3.03 8.3 3.08 8.28 3.13 8.26C3.18 8.24 3.24 8.23 3.29 8.22L8.69 7.44L11.1 2.55C11.16 2.43 11.24 2.32 11.33 2.24C11.43 2.16 11.54 2.09 11.67 2.05C11.8 2 11.93 1.99 12.06 1.99C12.19 2 12.31 2.04 12.44 2.1C12.49 2.12 12.53 2.15 12.58 2.18C12.62 2.21 12.66 2.25 12.7 2.29C12.74 2.33 12.78 2.37 12.81 2.41C12.84 2.46 12.87 2.5 12.89 2.55Z" fill="currentColor" fill-opacity="1.000000" fill-rule="evenodd"/>
	</g>
</svg>