<svg xmlns="http://www.w3.org/2000/svg" xmlns:xlink="http://www.w3.org/1999/xlink" width="19.120178" height="18.286987" viewBox="0 0 19.1202 18.287" fill="none">
	<path id="vector" d="M12.86 5.44L10.45 0.56C10.4 0.46 10.34 0.37 10.26 0.29C10.18 0.21 10.1 0.15 10 0.1C9.75 -0.02 9.49 -0.04 9.23 0.05C8.97 0.14 8.78 0.31 8.66 0.56L6.25 5.44L0.85 6.23C0.74 6.24 0.64 6.28 0.54 6.33C0.44 6.38 0.36 6.44 0.28 6.52C0.09 6.72 -0.01 6.95 0 7.23C0 7.51 0.1 7.74 0.3 7.93L4.2 11.74L3.28 17.11C3.26 17.22 3.26 17.33 3.28 17.44C3.29 17.54 3.33 17.65 3.38 17.74C3.51 17.99 3.7 18.15 3.97 18.23C4.23 18.32 4.49 18.29 4.73 18.16L9.55 15.63L14.38 18.16C14.48 18.22 14.58 18.25 14.69 18.27C14.8 18.28 14.91 18.28 15.01 18.26C15.29 18.22 15.5 18.08 15.66 17.86C15.82 17.63 15.88 17.38 15.83 17.11L14.91 11.74L18.81 7.93C18.89 7.86 18.96 7.77 19.01 7.67C19.05 7.57 19.09 7.47 19.1 7.36C19.14 7.09 19.08 6.84 18.92 6.62C18.75 6.4 18.53 6.27 18.26 6.23L12.86 5.44ZM11.61 7.17C11.74 7.26 11.89 7.32 12.06 7.35L15.97 7.92L13.14 10.67C13.02 10.79 12.93 10.92 12.88 11.08C12.83 11.24 12.82 11.4 12.85 11.56L13.52 15.45L10.02 13.61C9.87 13.54 9.72 13.5 9.55 13.5C9.39 13.5 9.23 13.54 9.09 13.61L5.59 15.45L6.26 11.56C6.29 11.4 6.28 11.24 6.23 11.08C6.17 10.92 6.09 10.79 5.97 10.67L3.14 7.92L7.05 7.35C7.22 7.32 7.36 7.26 7.5 7.17C7.63 7.07 7.73 6.95 7.81 6.8L9.55 3.26L11.3 6.8C11.38 6.95 11.48 7.07 11.61 7.17Z" fill="currentColor" fill-opacity="1.000000" fill-rule="evenodd"/>
</svg>