<svg xmlns="http://www.w3.org/2000/svg" xmlns:xlink="http://www.w3.org/1999/xlink" width="24.000000" height="24.000000" viewBox="0 0 24 24" fill="none">
	<g>
		<path id="vector" d="M21.25 9.93L18.4 12.71C18 13.1 17.38 13.09 16.99 12.69C16.59 12.29 16.6 11.67 17 11.28L18.41 9.91L14.5 9.34C14.41 9.33 14.34 9.31 14.26 9.28C14.19 9.25 14.12 9.21 14.05 9.16C13.99 9.12 13.93 9.06 13.88 9C13.82 8.94 13.78 8.87 13.74 8.8L11.99 5.25L11.9 5.44C11.66 5.94 11.07 6.14 10.57 5.89C10.06 5.64 9.86 5.05 10.11 4.55L11.1 2.55C11.12 2.5 11.15 2.46 11.18 2.41C11.21 2.37 11.25 2.33 11.29 2.29C11.33 2.25 11.37 2.21 11.41 2.18C11.46 2.15 11.5 2.12 11.55 2.1C11.68 2.04 11.8 2 11.93 1.99C12.06 1.99 12.19 2 12.32 2.05C12.45 2.09 12.56 2.16 12.66 2.24C12.75 2.32 12.83 2.43 12.89 2.55L15.3 7.44L20.7 8.22C20.75 8.23 20.81 8.24 20.86 8.26C20.91 8.28 20.96 8.3 21.01 8.32C21.06 8.35 21.1 8.38 21.15 8.41C21.19 8.44 21.23 8.48 21.27 8.52C21.37 8.61 21.44 8.72 21.49 8.84C21.53 8.96 21.56 9.09 21.55 9.23C21.55 9.36 21.53 9.49 21.48 9.61C21.43 9.73 21.35 9.83 21.25 9.93ZM6.36 7.78L4.29 5.7C3.89 5.31 3.89 4.68 4.29 4.29C4.68 3.89 5.31 3.89 5.7 4.29L19.7 18.29C20.1 18.68 20.1 19.31 19.7 19.7C19.31 20.1 18.68 20.1 18.29 19.7C18.27 19.74 18.19 19.71 18.17 19.74C18.04 19.99 17.85 20.15 17.58 20.23C17.32 20.31 17.06 20.29 16.82 20.16L12 17.62L7.17 20.16C7.07 20.21 6.97 20.25 6.86 20.26C6.75 20.28 6.64 20.28 6.54 20.26C6.26 20.22 6.05 20.08 5.89 19.85C5.73 19.63 5.67 19.38 5.72 19.11L6.64 13.73L2.74 9.93C2.66 9.85 2.59 9.77 2.54 9.67C2.49 9.57 2.46 9.47 2.45 9.36C2.41 9.08 2.47 8.84 2.63 8.62C2.8 8.39 3.02 8.26 3.29 8.22L6.36 7.78ZM8.13 9.54L15.94 17.36L12.46 15.61C12.31 15.53 12.16 15.5 12 15.5C11.83 15.5 11.68 15.53 11.53 15.61L8.03 17.45L8.7 13.55C8.73 13.39 8.72 13.23 8.67 13.08C8.62 12.92 8.53 12.78 8.41 12.67L5.58 9.91L8.13 9.54Z" fill="currentColor" fill-opacity="1.000000" fill-rule="evenodd"/>
	</g>
</svg>