<svg xmlns="http://www.w3.org/2000/svg" xmlns:xlink="http://www.w3.org/1999/xlink" width="24.000000" height="24.000000" viewBox="0 0 24 24" fill="none">
	<path id="vector" d="M19.59 11.13C19.7 10.86 19.8 10.59 19.89 10.31L21.44 5.04C21.5 4.84 21.52 4.64 21.52 4.44C21.52 4.27 21.49 4.11 21.45 3.94C21.41 3.78 21.34 3.63 21.27 3.49C21.18 3.34 21.07 3.19 20.93 3.06C20.8 2.92 20.65 2.81 20.5 2.72C20.36 2.65 20.21 2.58 20.05 2.54C19.88 2.5 19.72 2.47 19.55 2.47C19.35 2.47 19.15 2.49 18.95 2.55L13.68 4.1C13.4 4.19 13.13 4.29 12.86 4.4C12.59 4.52 12.33 4.65 12.08 4.8C11.83 4.95 11.59 5.11 11.36 5.29C11.13 5.47 10.91 5.66 10.71 5.87L9.58 7L5 7C4.83 7 4.67 7.03 4.52 7.11C4.38 7.19 4.26 7.3 4.16 7.44L2.16 10.44C2.01 10.67 1.96 10.92 2.01 11.19C2.07 11.46 2.21 11.67 2.44 11.83C2.48 11.86 2.53 11.88 2.58 11.9C2.62 11.92 2.67 11.94 2.72 11.96L4.94 12.59C4.91 12.71 4.88 12.82 4.86 12.94C4.79 13.28 4.75 13.64 4.75 14C4.75 14.35 4.79 14.71 4.86 15.05C4.92 15.36 5.01 15.67 5.14 15.97C5.26 16.27 5.4 16.55 5.57 16.82C5.59 16.85 5.63 16.9 5.65 16.93L5.29 17.29C4.89 17.68 4.89 18.31 5.29 18.7C5.68 19.1 6.31 19.1 6.7 18.7L7.06 18.34C7.07 18.35 7.17 18.41 7.17 18.42C7.44 18.59 7.72 18.73 8.02 18.85C8.32 18.98 8.63 19.07 8.94 19.13C9.28 19.2 9.64 19.24 10 19.24C10.35 19.24 10.71 19.2 11.05 19.13C11.17 19.11 11.28 19.08 11.4 19.05L12.03 21.27C12.04 21.29 12.08 21.39 12.09 21.41C12.1 21.44 12.15 21.53 12.16 21.55C12.24 21.66 12.33 21.76 12.44 21.83C12.54 21.9 12.66 21.95 12.8 21.98C12.93 22 13.06 22 13.19 21.98C13.31 21.95 13.43 21.9 13.55 21.83L16.55 19.83C16.62 19.78 16.68 19.73 16.74 19.67C16.79 19.61 16.84 19.54 16.88 19.47C16.92 19.39 16.95 19.32 16.97 19.24C16.99 19.16 17 19.08 17 19L17 14.41L18.12 13.28C18.33 13.08 18.52 12.86 18.7 12.63C18.88 12.4 19.04 12.16 19.19 11.91C19.34 11.66 19.47 11.4 19.59 11.13ZM5.86 10.77L4.59 10.41L5.53 9L7.58 9L6.29 10.29C6.13 10.44 5.99 10.6 5.86 10.77ZM14.41 6.28C15.03 6.73 15.64 7.25 16.19 7.8C16.74 8.35 17.24 8.94 17.69 9.56C17.77 9.67 17.85 9.78 17.92 9.89C17.94 9.84 17.95 9.8 17.97 9.75L19.52 4.47L14.25 6.02C14.2 6.04 14.15 6.05 14.1 6.07C14.2 6.14 14.3 6.21 14.41 6.28ZM8.52 16.88C8.6 16.93 8.69 16.96 8.77 17C8.95 17.07 9.14 17.13 9.32 17.17C9.54 17.21 9.77 17.24 10 17.24C10.22 17.24 10.45 17.21 10.67 17.17C10.85 17.13 11.04 17.07 11.22 17C11.39 16.93 11.55 16.85 11.71 16.75C11.92 16.62 12.11 16.47 12.29 16.29L16.71 11.87C16.49 11.5 16.32 11.08 16.07 10.73C15.68 10.2 15.25 9.69 14.77 9.22C14.3 8.74 13.79 8.31 13.26 7.92C12.91 7.67 12.55 7.44 12.18 7.23L7.7 11.7C7.52 11.88 7.37 12.07 7.24 12.28C7.14 12.44 7.06 12.6 6.99 12.77C6.92 12.95 6.86 13.14 6.82 13.32C6.78 13.54 6.75 13.77 6.75 14C6.75 14.22 6.78 14.45 6.82 14.67C6.86 14.85 6.92 15.04 6.99 15.22C7.03 15.3 7.06 15.39 7.11 15.47L11.29 11.29C11.68 10.89 12.31 10.89 12.7 11.29C13.1 11.68 13.1 12.31 12.7 12.7L8.52 16.88ZM13.58 19.4L13.22 18.13C13.39 18 13.55 17.86 13.7 17.7L15 16.41L15 18.46L13.58 19.4Z" fill="currentColor" fill-opacity="1.000000" fill-rule="evenodd"/>
</svg>