<svg xmlns="http://www.w3.org/2000/svg" xmlns:xlink="http://www.w3.org/1999/xlink" width="24.000000" height="24.000000" viewBox="0 0 24 24" fill="none">
	<path id="vector" d="M17.63 4.06C17.81 4.1 17.99 4.16 18.16 4.23C18.34 4.3 18.5 4.39 18.65 4.49C18.82 4.6 18.97 4.73 19.12 4.87C19.26 5.02 19.39 5.17 19.5 5.34C19.6 5.49 19.69 5.65 19.76 5.83C19.83 6 19.89 6.18 19.93 6.36C19.97 6.56 20 6.78 20 7L20 17C20 17.21 19.97 17.43 19.93 17.63C19.89 17.81 19.83 17.99 19.76 18.16C19.69 18.34 19.6 18.5 19.5 18.65C19.39 18.82 19.26 18.97 19.12 19.12C18.97 19.26 18.82 19.39 18.65 19.5C18.5 19.6 18.34 19.69 18.16 19.76C17.99 19.83 17.81 19.89 17.63 19.93C17.43 19.97 17.21 20 17 20L7 20C6.78 20 6.56 19.97 6.36 19.93C6.18 19.89 6 19.83 5.83 19.76C5.65 19.69 5.49 19.6 5.34 19.5C5.17 19.39 5.02 19.26 4.87 19.12C4.73 18.97 4.6 18.82 4.49 18.65C4.39 18.5 4.3 18.34 4.23 18.16C4.16 17.99 4.1 17.81 4.06 17.63C4.02 17.43 4 17.21 4 17L4 7C4 6.78 4.02 6.56 4.06 6.36C4.1 6.18 4.16 6 4.23 5.83C4.3 5.65 4.39 5.49 4.49 5.34C4.6 5.17 4.73 5.02 4.87 4.87C5.02 4.73 5.17 4.6 5.34 4.49C5.49 4.39 5.65 4.3 5.83 4.23C6 4.16 6.18 4.1 6.36 4.06C6.56 4.02 6.78 4 7 4L17 4C17.21 4 17.43 4.02 17.63 4.06ZM6 13L18 13L18 17C18 17.08 17.99 17.16 17.97 17.24C17.95 17.29 17.94 17.34 17.92 17.38C17.89 17.44 17.87 17.49 17.84 17.53C17.8 17.59 17.75 17.65 17.7 17.7C17.65 17.75 17.59 17.8 17.53 17.84C17.49 17.87 17.44 17.89 17.38 17.92C17.34 17.94 17.29 17.95 17.24 17.97C17.16 17.99 17.08 18 17 18L7 18C6.91 18 6.83 17.99 6.75 17.97C6.7 17.95 6.65 17.94 6.61 17.92C6.55 17.89 6.5 17.87 6.46 17.84C6.4 17.8 6.34 17.75 6.29 17.7C6.24 17.65 6.19 17.59 6.15 17.53C6.12 17.49 6.1 17.44 6.07 17.38C6.05 17.34 6.04 17.29 6.02 17.24C6 17.16 6 17.08 6 17L6 13ZM18 11L6 11L6 7C6 6.91 6 6.83 6.02 6.75C6.04 6.7 6.05 6.65 6.07 6.61C6.1 6.55 6.12 6.5 6.15 6.46C6.19 6.4 6.24 6.34 6.29 6.29C6.34 6.24 6.4 6.19 6.46 6.15C6.5 6.12 6.55 6.1 6.61 6.07C6.65 6.05 6.7 6.04 6.75 6.02C6.83 6 6.91 6 7 6L17 6C17.08 6 17.16 6 17.24 6.02C17.29 6.04 17.34 6.05 17.38 6.07C17.44 6.1 17.49 6.12 17.53 6.15C17.59 6.19 17.65 6.24 17.7 6.29C17.75 6.34 17.8 6.4 17.84 6.46C17.87 6.5 17.89 6.55 17.92 6.61C17.94 6.65 17.95 6.7 17.97 6.75C17.99 6.83 18 6.91 18 7L18 11Z" fill="currentColor" fill-opacity="1.000000" fill-rule="evenodd"/>
</svg>