<svg xmlns="http://www.w3.org/2000/svg" xmlns:xlink="http://www.w3.org/1999/xlink" width="24.000000" height="24.000000" viewBox="0 0 24 24" fill="none">
	<g>
		<path d="M6.36 19.93C6.56 19.97 6.78 20 7 20L17 20C17.21 20 17.43 19.97 17.63 19.93C17.81 19.89 17.99 19.83 18.16 19.76C18.34 19.69 18.5 19.6 18.65 19.5C18.82 19.39 18.97 19.26 19.12 19.12C19.26 18.97 19.39 18.82 19.5 18.65C19.6 18.5 19.69 18.34 19.76 18.16C19.83 17.99 19.89 17.81 19.93 17.63C19.97 17.43 20 17.21 20 17L20 9C20 8.93 19.99 8.86 19.98 8.8C19.96 8.74 19.94 8.67 19.92 8.61C19.89 8.55 19.86 8.49 19.83 8.44C19.79 8.39 19.75 8.33 19.7 8.29L15.7 4.29C15.66 4.24 15.6 4.2 15.55 4.16C15.5 4.13 15.44 4.1 15.38 4.07C15.32 4.05 15.25 4.03 15.19 4.01C15.13 4 15.06 4 15 4L7 4C6.78 4 6.56 4.02 6.36 4.06C6.18 4.1 6 4.16 5.83 4.23C5.65 4.3 5.49 4.39 5.34 4.49C5.17 4.6 5.02 4.73 4.87 4.87C4.73 5.02 4.6 5.17 4.49 5.34C4.39 5.49 4.3 5.65 4.23 5.83C4.16 6 4.1 6.18 4.06 6.36C4.02 6.56 4 6.78 4 7L4 17C4 17.21 4.02 17.43 4.06 17.63C4.1 17.81 4.16 17.99 4.23 18.16C4.3 18.34 4.39 18.5 4.49 18.65C4.6 18.82 4.73 18.97 4.87 19.12C5.02 19.26 5.17 19.39 5.34 19.5C5.49 19.6 5.65 19.69 5.83 19.76C6 19.83 6.18 19.89 6.36 19.93ZM10 6L14.58 6L18 9.41L18 17C18 17.08 17.99 17.16 17.97 17.24C17.95 17.29 17.94 17.34 17.92 17.38C17.89 17.44 17.87 17.49 17.84 17.53C17.8 17.59 17.75 17.65 17.7 17.7C17.65 17.75 17.59 17.8 17.53 17.84C17.49 17.87 17.44 17.89 17.38 17.92C17.34 17.94 17.29 17.95 17.24 17.97C17.16 17.99 17.08 18 17 18L16 18L16 14C16 13.86 15.97 13.73 15.92 13.61C15.87 13.49 15.8 13.39 15.7 13.29C15.6 13.19 15.5 13.12 15.38 13.07C15.26 13.02 15.13 13 15 13L9 13C8.86 13 8.73 13.02 8.61 13.07C8.49 13.12 8.39 13.19 8.29 13.29C8.19 13.39 8.12 13.49 8.07 13.61C8.02 13.73 8 13.86 8 14L8 18L7 18C6.91 18 6.83 17.99 6.75 17.97C6.7 17.95 6.65 17.94 6.61 17.92C6.55 17.89 6.5 17.87 6.46 17.84C6.4 17.8 6.34 17.75 6.29 17.7C6.24 17.65 6.19 17.59 6.15 17.53C6.12 17.49 6.1 17.44 6.07 17.38C6.05 17.34 6.04 17.29 6.02 17.24C6 17.16 6 17.08 6 17L6 7C6 6.91 6 6.83 6.02 6.75C6.04 6.7 6.05 6.65 6.07 6.61C6.1 6.55 6.12 6.5 6.15 6.46C6.19 6.4 6.24 6.34 6.29 6.29C6.34 6.24 6.4 6.19 6.46 6.15C6.5 6.12 6.55 6.1 6.61 6.07C6.65 6.05 6.7 6.04 6.75 6.02C6.83 6 6.91 6 7 6L8 6L8 9C8 9.27 8.09 9.51 8.29 9.7C8.48 9.9 8.72 10 9 10L14 10C14.56 10 15 9.56 15 9C15 8.43 14.56 8 14 8L10 8L10 6ZM14 18L10 18L10 15L14 15L14 18Z" fill="currentColor" fill-opacity="1.000000" fill-rule="evenodd"/>
	</g>
</svg>