<svg xmlns="http://www.w3.org/2000/svg" xmlns:xlink="http://www.w3.org/1999/xlink" width="24.000000" height="24.000000" viewBox="0 0 24 24" fill="none">
	<g clip-path="url(#clip526_1711)">
		<path id="vector" d="M7.23 5.09C6.81 5.36 6.41 5.68 6.05 6.05C5.65 6.44 5.65 7.06 6.05 7.46C6.44 7.86 7.06 7.86 7.46 7.46C7.73 7.19 8.02 6.95 8.34 6.76C8.58 6.6 8.84 6.47 9.11 6.36C9.39 6.25 9.68 6.16 9.97 6.1C10.3 6.03 10.64 6 11 6C11.35 6 11.69 6.03 12.02 6.1C12.31 6.16 12.6 6.25 12.88 6.36C13.15 6.47 13.41 6.6 13.65 6.76C13.97 6.95 14.26 7.19 14.53 7.46C14.8 7.73 15.04 8.02 15.23 8.34C15.39 8.58 15.52 8.84 15.63 9.11C15.74 9.39 15.83 9.68 15.89 9.97C15.96 10.3 16 10.64 16 11C16 11.35 15.96 11.69 15.89 12.02C15.83 12.31 15.74 12.6 15.63 12.88C15.52 13.15 15.39 13.41 15.23 13.65C15.04 13.97 14.8 14.26 14.53 14.53C14.26 14.8 13.97 15.04 13.65 15.23C13.41 15.39 13.15 15.52 12.88 15.63C12.6 15.74 12.31 15.83 12.02 15.89C11.69 15.96 11.35 16 11 16C10.64 16 10.3 15.96 9.97 15.89C9.68 15.83 9.39 15.74 9.11 15.63C8.84 15.52 8.58 15.39 8.34 15.23C8.02 15.04 7.73 14.8 7.46 14.53C7.06 14.13 6.44 14.13 6.05 14.53C5.65 14.93 5.65 15.55 6.05 15.94C6.41 16.31 6.81 16.63 7.23 16.9C7.59 17.13 7.97 17.32 8.36 17.48C8.76 17.64 9.17 17.77 9.58 17.85C10.04 17.95 10.51 18 11 18C11.48 18 11.95 17.95 12.41 17.85C12.82 17.77 13.23 17.64 13.63 17.48C14.03 17.32 14.4 17.13 14.76 16.9C14.91 16.81 15.05 16.7 15.2 16.6C15.22 16.63 15.25 16.67 15.29 16.7L18.29 19.7C18.68 20.1 19.31 20.1 19.7 19.7C20.1 19.31 20.1 18.68 19.7 18.29L16.7 15.29C16.67 15.25 16.63 15.22 16.6 15.2C16.7 15.05 16.81 14.91 16.9 14.76C17.13 14.4 17.32 14.02 17.48 13.63C17.64 13.23 17.77 12.82 17.85 12.41C17.95 11.95 18 11.48 18 11C18 10.51 17.95 10.04 17.85 9.58C17.77 9.17 17.64 8.76 17.48 8.36C17.32 7.97 17.13 7.59 16.9 7.23C16.63 6.81 16.31 6.41 15.94 6.05C15.58 5.68 15.18 5.36 14.76 5.09C14.4 4.86 14.02 4.67 13.63 4.51C13.23 4.35 12.82 4.22 12.41 4.14C11.95 4.04 11.48 4 11 4C10.51 4 10.04 4.04 9.58 4.14C9.17 4.22 8.76 4.35 8.36 4.51C7.97 4.67 7.59 4.86 7.23 5.09ZM1.29 11.29L3.29 9.29C3.39 9.19 3.49 9.12 3.61 9.07C3.73 9.02 3.86 9 4 9C4.13 9 4.26 9.02 4.38 9.07C4.5 9.12 4.6 9.19 4.7 9.29L6 10.58L8.29 8.29C8.39 8.19 8.49 8.12 8.61 8.07C8.73 8.02 8.86 8 9 8C9.13 8 9.26 8.02 9.38 8.07C9.5 8.12 9.6 8.19 9.7 8.29C9.71 8.3 9.79 8.39 9.79 8.4L12.1 11.47L13.29 10.29C13.68 9.89 14.31 9.89 14.7 10.29C15.1 10.68 15.1 11.31 14.7 11.7L12.7 13.7C12.69 13.71 12.6 13.79 12.6 13.8C12.48 13.88 12.37 13.94 12.24 13.97C12.12 14 11.99 14 11.85 13.98C11.72 13.97 11.59 13.92 11.48 13.86C11.37 13.79 11.28 13.71 11.2 13.6L8.89 10.52L6.7 12.7C6.6 12.8 6.5 12.87 6.38 12.92C6.26 12.97 6.13 13 6 13C5.86 13 5.73 12.97 5.61 12.92C5.49 12.87 5.39 12.8 5.29 12.7L4 11.41L2.7 12.7C2.31 13.1 1.68 13.1 1.29 12.7C0.89 12.31 0.89 11.68 1.29 11.29Z" fill="currentColor" fill-opacity="1.000000" fill-rule="evenodd"/>
	</g>
</svg>