<svg width="24.000000" height="24.000000" viewBox="0 0 24 24" fill="none" xmlns="http://www.w3.org/2000/svg" xmlns:xlink="http://www.w3.org/1999/xlink">
	<path id="vector" d="M9.48 17.83C9.07 17.74 8.66 17.61 8.27 17.44C7.87 17.28 7.5 17.08 7.14 16.84C6.75 16.58 6.39 16.28 6.05 15.94C5.71 15.6 5.41 15.24 5.15 14.85C4.91 14.49 4.71 14.12 4.55 13.72C4.38 13.33 4.25 12.92 4.16 12.51C4.05 12.02 4 11.51 4 11C4 10.48 4.05 9.97 4.16 9.48C4.25 9.07 4.38 8.66 4.55 8.27C4.71 7.87 4.91 7.5 5.15 7.14C5.41 6.75 5.71 6.39 6.05 6.05C6.39 5.71 6.75 5.41 7.14 5.15C7.5 4.91 7.87 4.71 8.27 4.55C8.66 4.38 9.07 4.25 9.48 4.16C9.97 4.05 10.48 4 11 4C11.51 4 12.02 4.05 12.51 4.16C12.92 4.25 13.33 4.38 13.72 4.55C14.12 4.71 14.49 4.91 14.85 5.15C15.24 5.41 15.6 5.71 15.94 6.05C16.28 6.39 16.58 6.75 16.84 7.14C17.08 7.5 17.28 7.87 17.44 8.27C17.61 8.66 17.74 9.07 17.83 9.48C17.94 9.97 18 10.48 18 11C18 11.51 17.94 12.02 17.83 12.51C17.74 12.92 17.61 13.33 17.44 13.72C17.28 14.12 17.08 14.49 16.84 14.85C16.76 14.96 16.68 15.08 16.6 15.2C16.63 15.22 16.67 15.25 16.7 15.29L19.7 18.29C20.1 18.68 20.1 19.31 19.7 19.7C19.31 20.1 18.68 20.1 18.29 19.7L15.29 16.7C15.25 16.67 15.22 16.63 15.2 16.6C15.08 16.68 14.96 16.76 14.85 16.84C14.49 17.08 14.12 17.28 13.72 17.44C13.33 17.61 12.92 17.74 12.51 17.83C12.02 17.94 11.51 18 11 18C10.48 18 9.97 17.94 9.48 17.83ZM11 16C11.38 16 11.75 15.95 12.12 15.87C12.4 15.81 12.67 15.72 12.94 15.6C13.22 15.49 13.48 15.35 13.73 15.18C14.02 15 14.28 14.78 14.53 14.53C14.78 14.28 15 14.02 15.18 13.73C15.35 13.48 15.49 13.22 15.6 12.94C15.72 12.67 15.81 12.4 15.87 12.12C15.95 11.75 16 11.38 16 11C16 10.61 15.95 10.24 15.87 9.87C15.81 9.59 15.72 9.32 15.6 9.05C15.49 8.77 15.35 8.51 15.18 8.26C15 7.97 14.78 7.71 14.53 7.46C14.28 7.21 14.02 6.99 13.73 6.81C13.48 6.64 13.22 6.5 12.94 6.39C12.67 6.27 12.4 6.18 12.12 6.12C11.75 6.04 11.38 6 11 6C10.61 6 10.24 6.04 9.87 6.12C9.59 6.18 9.32 6.27 9.05 6.39C8.77 6.5 8.51 6.64 8.26 6.81C7.97 6.99 7.71 7.21 7.46 7.46C7.21 7.71 6.99 7.97 6.81 8.26C6.64 8.51 6.5 8.77 6.39 9.05C6.27 9.32 6.18 9.59 6.12 9.87C6.04 10.24 6 10.61 6 11C6 11.38 6.04 11.75 6.12 12.12C6.18 12.4 6.27 12.67 6.39 12.94C6.5 13.22 6.64 13.48 6.81 13.73C6.99 14.02 7.21 14.28 7.46 14.53C7.71 14.78 7.97 15 8.26 15.18C8.51 15.35 8.77 15.49 9.05 15.6C9.32 15.72 9.59 15.81 9.87 15.87C10.24 15.95 10.61 16 11 16Z" fill="currentColor" fill-opacity="1.000000" fill-rule="evenodd"/>
</svg>
