<svg xmlns="http://www.w3.org/2000/svg" xmlns:xlink="http://www.w3.org/1999/xlink" width="24.000000" height="24.000000" viewBox="0 0 24 24" fill="none">
	<g clip-path="url(#clip526_1738)">
		<path id="vector" d="M19.98 12.51C19.99 12.34 20 12.17 20 12L20 7.65C20 7.45 19.97 7.26 19.91 7.08C19.86 6.9 19.77 6.72 19.66 6.55C19.55 6.39 19.43 6.24 19.28 6.12C19.13 6 18.97 5.89 18.78 5.82L12.78 3.24C12.66 3.19 12.53 3.15 12.4 3.12C12.27 3.1 12.13 3.08 12 3.08C11.86 3.08 11.72 3.1 11.59 3.12C11.46 3.15 11.33 3.19 11.21 3.24L5.21 5.82C5.02 5.89 4.86 6 4.71 6.12C4.56 6.24 4.44 6.39 4.33 6.55C4.22 6.72 4.13 6.9 4.08 7.08C4.02 7.26 4 7.45 4 7.65L4 12C4 12.17 4 12.34 4.01 12.51C4.09 13.58 4.39 14.63 4.91 15.66C5.41 16.63 6.1 17.58 6.98 18.49C7.66 19.19 8.43 19.85 9.3 20.48C9.88 20.91 10.47 21.29 11.06 21.62C11.21 21.71 11.37 21.77 11.53 21.81C11.68 21.85 11.83 21.87 12 21.87C12.16 21.87 12.31 21.85 12.46 21.81C12.63 21.77 12.78 21.71 12.93 21.62C13.52 21.29 14.11 20.91 14.69 20.48C15.56 19.85 16.33 19.19 17.01 18.49C17.89 17.58 18.58 16.63 19.08 15.66C19.6 14.63 19.9 13.58 19.98 12.51ZM18 7.65L18 12C17.98 12.89 17.75 13.86 17.29 14.75C16.89 15.55 16.31 16.33 15.57 17.1C14.98 17.72 14.29 18.3 13.52 18.86C13.01 19.23 12.51 19.56 12 19.85C11.48 19.56 10.98 19.23 10.47 18.86C9.7 18.3 9.01 17.72 8.42 17.1C7.68 16.33 7.1 15.55 6.7 14.75C6.24 13.86 6.01 12.97 6 12.08L6 7.65L12 5.08L18 7.65Z" fill="currentColor" fill-opacity="1.000000" fill-rule="evenodd"/>
	</g>
</svg>