<svg xmlns="http://www.w3.org/2000/svg" xmlns:xlink="http://www.w3.org/1999/xlink" width="24.000000" height="24.000000" viewBox="0 0 24 24" fill="none">
	<g>
		<path id="vector" d="M19.98 12.51C19.9 13.58 19.6 14.63 19.08 15.66C18.58 16.63 17.89 17.58 17.01 18.49C16.33 19.19 15.56 19.85 14.69 20.48C14.11 20.91 13.52 21.29 12.93 21.62C12.78 21.71 12.63 21.77 12.46 21.81C12.31 21.85 12.16 21.87 12 21.87C11.83 21.87 11.68 21.85 11.53 21.81C11.37 21.77 11.21 21.71 11.06 21.62C10.47 21.29 9.88 20.91 9.3 20.48C8.43 19.85 7.66 19.19 6.98 18.49C6.1 17.58 5.41 16.63 4.91 15.66C4.39 14.63 4.09 13.58 4.01 12.51C4 12.34 4 12.17 4 12L4 7.65C4 7.45 4.02 7.26 4.08 7.08C4.13 6.9 4.22 6.72 4.33 6.55C4.44 6.39 4.56 6.24 4.71 6.12C4.86 6 5.02 5.89 5.21 5.82L11.21 3.24C11.33 3.19 11.46 3.15 11.59 3.12C11.72 3.1 11.86 3.08 12 3.08C12.13 3.08 12.27 3.1 12.4 3.12C12.53 3.15 12.66 3.19 12.78 3.24L18.78 5.82C18.97 5.89 19.13 6 19.28 6.12C19.43 6.24 19.55 6.39 19.66 6.55C19.77 6.72 19.86 6.9 19.91 7.08C19.97 7.26 20 7.45 20 7.65L20 12C20 12.17 19.99 12.34 19.98 12.51ZM18 12L18 7.65L12 5.08L6 7.65L6 12C6.01 12.89 6.24 13.86 6.7 14.75C7.1 15.55 7.68 16.33 8.42 17.1C9.01 17.72 9.7 18.3 10.47 18.86C10.98 19.23 11.48 19.56 12 19.85C12.51 19.56 13.01 19.23 13.52 18.86C14.29 18.3 14.98 17.72 15.57 17.1C16.31 16.33 16.89 15.55 17.29 14.75C17.75 13.86 17.98 12.89 18 12ZM15.7 10.7L11.7 14.7C11.51 14.9 11.27 15 11 15C10.72 15 10.48 14.9 10.29 14.7L8.29 12.7C7.89 12.31 7.89 11.68 8.29 11.29C8.68 10.89 9.31 10.89 9.7 11.29L11 12.58L14.29 9.29C14.68 8.89 15.31 8.89 15.7 9.29C16.1 9.68 16.1 10.31 15.7 10.7Z" fill="currentColor" fill-opacity="1.000000" fill-rule="evenodd"/>
	</g>
</svg>