<svg width="18.000000" height="18.000000" viewBox="0 0 18 18" fill="none" xmlns="http://www.w3.org/2000/svg" xmlns:xlink="http://www.w3.org/1999/xlink">
	<g>
		<path id="vector" d="M14.98 9.38C14.93 10.18 14.7 10.97 14.31 11.74C13.93 12.47 13.42 13.18 12.76 13.87C12.25 14.39 11.67 14.89 11.02 15.36C10.58 15.68 10.14 15.96 9.7 16.22C9.58 16.28 9.47 16.33 9.35 16.36C9.23 16.39 9.12 16.4 9 16.4C8.87 16.4 8.76 16.39 8.64 16.36C8.52 16.33 8.41 16.28 8.29 16.22C7.85 15.96 7.41 15.68 6.97 15.36C6.32 14.89 5.74 14.39 5.23 13.87C4.57 13.18 4.06 12.47 3.68 11.74C3.29 10.97 3.06 10.18 3.01 9.38C3 9.25 3 9.12 3 9L3 5.74C3 5.59 3.02 5.45 3.06 5.31C3.1 5.17 3.16 5.04 3.24 4.91C3.33 4.79 3.42 4.68 3.53 4.59C3.64 4.5 3.77 4.42 3.9 4.36L8.4 2.43C8.5 2.39 8.59 2.36 8.69 2.34C8.79 2.32 8.89 2.31 9 2.31C9.1 2.31 9.2 2.32 9.3 2.34C9.4 2.36 9.49 2.39 9.59 2.43L14.09 4.36C14.22 4.42 14.35 4.5 14.46 4.59C14.57 4.68 14.66 4.79 14.75 4.91C14.83 5.04 14.89 5.17 14.93 5.31C14.97 5.45 15 5.59 15 5.74L15 9C15 9.12 14.99 9.25 14.98 9.38ZM13.5 9L13.5 5.74L9 3.81L4.5 5.74L4.5 9C4.51 9.67 4.68 10.4 5.02 11.06C5.32 11.66 5.76 12.25 6.31 12.82C6.76 13.29 7.27 13.73 7.85 14.15C8.23 14.42 8.61 14.67 9 14.89C9.38 14.67 9.76 14.42 10.14 14.15C10.72 13.73 11.23 13.29 11.68 12.82C12.23 12.25 12.67 11.66 12.97 11.06C13.31 10.4 13.48 9.67 13.5 9ZM11.78 8.03L8.78 11.03C8.63 11.17 8.45 11.25 8.25 11.25C8.04 11.25 7.86 11.17 7.71 11.03L6.21 9.53C5.92 9.23 5.92 8.76 6.21 8.46C6.51 8.17 6.98 8.17 7.28 8.46L8.25 9.43L10.71 6.96C11.01 6.67 11.48 6.67 11.78 6.96C12.07 7.26 12.07 7.73 11.78 8.03Z" fill="currentColor" fill-opacity="1.000000" fill-rule="evenodd"/>
	</g>
</svg>
