
<svg width="24.000000" height="24.000000" viewBox="0 0 24 24" fill="none" xmlns="http://www.w3.org/2000/svg" xmlns:xlink="http://www.w3.org/1999/xlink">
	<path id="vector" d="M19.79 3.21C19.54 3.14 19.29 3.12 19.03 3.18L8.34 5.47C7.92 5.56 7.56 5.77 7.27 6.09C7.01 6.38 6.85 6.72 6.79 7.12C6.72 7.51 6.78 7.89 6.94 8.25C7.01 8.42 7.11 8.58 7.23 8.72C7.38 8.89 7.56 9.04 7.77 9.16L12.26 11.73L14.83 16.22C14.95 16.43 15.1 16.61 15.27 16.76C15.41 16.88 15.57 16.98 15.74 17.05C16.1 17.21 16.48 17.27 16.87 17.2C17.09 17.17 17.28 17.11 17.47 17.02C17.62 16.94 17.77 16.84 17.9 16.72C18.22 16.43 18.43 16.07 18.52 15.65L20.81 4.96C20.87 4.7 20.85 4.45 20.78 4.2C20.7 3.96 20.58 3.76 20.4 3.59C20.31 3.49 20.22 3.42 20.11 3.35C20.01 3.3 19.9 3.25 19.79 3.21ZM18.69 5.3L8.76 7.42L12.83 9.75L14.29 8.29C14.68 7.89 15.31 7.89 15.7 8.29C16.1 8.68 16.1 9.31 15.7 9.7L14.24 11.16L16.57 15.23L18.69 5.3ZM6.7 12.7L4.7 14.7C4.31 15.1 3.68 15.1 3.29 14.7C2.89 14.31 2.89 13.68 3.29 13.29L5.29 11.29C5.68 10.89 6.31 10.89 6.7 11.29C7.1 11.68 7.1 12.31 6.7 12.7ZM10.7 14.7L5.7 19.7C5.31 20.1 4.68 20.1 4.29 19.7C3.89 19.31 3.89 18.68 4.29 18.29L9.29 13.29C9.68 12.89 10.31 12.89 10.7 13.29C11.1 13.68 11.1 14.31 10.7 14.7ZM10.7 20.7L12.7 18.7C13.1 18.31 13.1 17.68 12.7 17.29C12.31 16.89 11.68 16.89 11.29 17.29L9.29 19.29C8.89 19.68 8.89 20.31 9.29 20.7C9.68 21.1 10.31 21.1 10.7 20.7Z" fill="currentColor" fill-opacity="1.000000" fill-rule="evenodd"/>
</svg>
