<svg xmlns="http://www.w3.org/2000/svg" xmlns:xlink="http://www.w3.org/1999/xlink" width="24.000000" height="24.000000" viewBox="0 0 24 24" fill="none">
	<path id="vector" d="M4 7C4 4.79 7.58 3 12 3C16.41 3 20 4.79 20 7L20 17C20 17.1 19.99 17.2 19.98 17.29C19.94 17.54 19.87 17.79 19.76 18.03C19.61 18.33 19.42 18.6 19.16 18.87C18.71 19.32 18.1 19.71 17.34 20.04C16.62 20.34 15.81 20.58 14.9 20.74C13.97 20.91 13 21 12 21C10.99 21 10.02 20.91 9.09 20.74C8.18 20.58 7.37 20.34 6.65 20.04C5.89 19.71 5.28 19.32 4.83 18.87C4.58 18.6 4.38 18.33 4.23 18.03C4.12 17.79 4.05 17.54 4.01 17.29C4 17.2 4 17.1 4 17L4 7ZM6 14.72L6 17C6 17.13 6.08 17.28 6.26 17.46C6.52 17.73 6.91 17.97 7.44 18.2C8.02 18.44 8.69 18.64 9.45 18.78C10.26 18.92 11.11 19 12 19C12.88 19 13.73 18.92 14.54 18.78C15.3 18.64 15.97 18.44 16.55 18.2C17.08 17.97 17.47 17.73 17.73 17.46C17.91 17.28 18 17.13 18 17L18 14.72C17.79 14.83 17.57 14.94 17.34 15.04C16.62 15.34 15.81 15.58 14.9 15.74C13.97 15.91 13 16 12 16C10.99 16 10.02 15.91 9.09 15.74C8.18 15.58 7.37 15.34 6.65 15.04C6.42 14.94 6.2 14.83 6 14.72ZM18 12C18 12.13 17.91 12.28 17.73 12.46C17.47 12.73 17.08 12.97 16.55 13.2C15.97 13.44 15.3 13.64 14.54 13.78C13.73 13.92 12.88 14 12 14C11.11 14 10.26 13.92 9.45 13.78C8.69 13.64 8.02 13.44 7.44 13.2C6.91 12.97 6.52 12.73 6.26 12.46C6.08 12.28 6 12.13 6 12L6 9.64C7.46 10.47 9.61 11 12 11C14.38 11 16.53 10.47 18 9.64L18 12ZM12 9C8.68 9 6 8.1 6 7C6 5.89 8.68 5 12 5C15.31 5 18 5.89 18 7C18 8.1 15.31 9 12 9Z" fill="currentColor" fill-opacity="1.000000" fill-rule="evenodd"/>
</svg>