<svg width="24.000000" height="24.000000" viewBox="0 0 24 24" fill="none" xmlns="http://www.w3.org/2000/svg" xmlns:xlink="http://www.w3.org/1999/xlink">
	<path id="vector" d="M15.28 5.49C15.21 5.4 15.15 5.3 15.11 5.2L15.06 5.06C14.96 4.81 14.84 4.58 14.69 4.37C14.64 4.3 14.59 4.23 14.53 4.16C14.43 4.04 14.34 3.94 14.23 3.84C14.09 3.72 13.94 3.61 13.78 3.5C13.7 3.45 13.62 3.41 13.54 3.36C13.34 3.26 13.13 3.18 12.92 3.12C12.8 3.09 12.68 3.06 12.56 3.04C12.37 3.01 12.19 3 12 3C11.8 3 11.62 3.01 11.43 3.04C11.31 3.06 11.19 3.09 11.07 3.12C10.86 3.18 10.65 3.26 10.45 3.36C10.37 3.41 10.29 3.45 10.21 3.5C10.05 3.61 9.9 3.72 9.76 3.84C9.65 3.94 9.56 4.04 9.46 4.16C9.4 4.23 9.35 4.3 9.3 4.37C9.15 4.58 9.03 4.81 8.93 5.06L8.88 5.2C8.84 5.3 8.78 5.4 8.71 5.49C8.61 5.62 8.49 5.73 8.33 5.81C8.21 5.88 8.08 5.93 7.94 5.96C7.79 5.99 7.63 5.99 7.47 5.96L7.31 5.94C7.01 5.89 6.71 5.88 6.42 5.91C6.37 5.91 6.31 5.92 6.26 5.93C6.07 5.96 5.89 6 5.72 6.06C5.58 6.1 5.45 6.16 5.32 6.22C5.19 6.28 5.06 6.35 4.94 6.43C4.8 6.53 4.66 6.64 4.53 6.76C4.42 6.86 4.31 6.98 4.21 7.1C4.11 7.22 4.03 7.35 3.95 7.48C3.85 7.65 3.76 7.82 3.69 8C3.65 8.11 3.62 8.22 3.59 8.33C3.54 8.53 3.51 8.72 3.5 8.92C3.49 9.04 3.49 9.16 3.5 9.27C3.51 9.43 3.53 9.57 3.56 9.72C3.6 9.9 3.65 10.07 3.72 10.24C3.73 10.28 3.75 10.32 3.77 10.36C3.89 10.64 4.06 10.89 4.26 11.13L4.36 11.25C4.47 11.37 4.54 11.5 4.59 11.64C4.63 11.76 4.64 11.87 4.64 12C4.64 12.12 4.63 12.23 4.59 12.35C4.54 12.49 4.47 12.62 4.36 12.74L4.26 12.86C4.06 13.1 3.89 13.35 3.77 13.63C3.75 13.67 3.73 13.71 3.72 13.75C3.65 13.92 3.6 14.09 3.56 14.27C3.53 14.42 3.51 14.56 3.5 14.72C3.49 14.83 3.49 14.95 3.5 15.07C3.51 15.26 3.54 15.46 3.59 15.66C3.62 15.77 3.65 15.88 3.69 15.99C3.76 16.17 3.85 16.34 3.95 16.51C4.03 16.64 4.11 16.77 4.21 16.89C4.31 17.01 4.42 17.13 4.53 17.23C4.66 17.35 4.8 17.46 4.94 17.56C5.06 17.64 5.19 17.71 5.32 17.77C5.45 17.83 5.58 17.89 5.72 17.93C5.89 17.99 6.07 18.03 6.26 18.06C6.31 18.07 6.37 18.08 6.42 18.08C6.71 18.11 7.01 18.1 7.31 18.05L7.47 18.03C7.63 18 7.79 18 7.94 18.03C8.08 18.06 8.21 18.11 8.33 18.18C8.49 18.26 8.61 18.37 8.71 18.5C8.78 18.59 8.84 18.69 8.88 18.79L8.93 18.93C9.03 19.18 9.15 19.41 9.3 19.62C9.35 19.69 9.4 19.76 9.46 19.83C9.56 19.95 9.65 20.05 9.76 20.15C9.9 20.27 10.05 20.38 10.21 20.49C10.29 20.54 10.37 20.58 10.45 20.63C10.65 20.73 10.86 20.81 11.07 20.87C11.19 20.9 11.31 20.93 11.43 20.95C11.61 20.98 11.8 21 12 21C12.19 21 12.37 20.98 12.56 20.95C12.68 20.93 12.8 20.9 12.92 20.87C13.13 20.81 13.34 20.73 13.54 20.63C13.62 20.58 13.7 20.54 13.78 20.49C13.94 20.38 14.09 20.27 14.23 20.15C14.34 20.05 14.43 19.95 14.53 19.83C14.59 19.76 14.64 19.69 14.69 19.62C14.84 19.41 14.96 19.18 15.06 18.93L15.11 18.79C15.15 18.69 15.21 18.59 15.28 18.5C15.38 18.37 15.5 18.26 15.66 18.18C15.78 18.11 15.91 18.06 16.05 18.03C16.2 18 16.36 18 16.52 18.03L16.68 18.05C16.98 18.1 17.28 18.11 17.57 18.08C17.62 18.08 17.68 18.07 17.73 18.06C17.92 18.03 18.1 17.99 18.27 17.93C18.41 17.89 18.54 17.83 18.67 17.77C18.8 17.71 18.93 17.64 19.05 17.56C19.19 17.46 19.33 17.35 19.46 17.23C19.57 17.13 19.68 17.01 19.78 16.89C19.88 16.77 19.96 16.64 20.04 16.51C20.14 16.34 20.23 16.17 20.3 15.99C20.34 15.88 20.37 15.77 20.4 15.66C20.45 15.46 20.48 15.27 20.49 15.07C20.5 14.95 20.5 14.83 20.49 14.72C20.48 14.56 20.46 14.42 20.43 14.27C20.39 14.09 20.34 13.92 20.27 13.75C20.26 13.71 20.24 13.67 20.22 13.63C20.1 13.35 19.93 13.1 19.73 12.86L19.63 12.74C19.52 12.62 19.45 12.49 19.4 12.35C19.37 12.23 19.35 12.12 19.35 12C19.35 11.87 19.37 11.76 19.4 11.64C19.45 11.5 19.52 11.37 19.63 11.25L19.73 11.13C19.93 10.89 20.1 10.64 20.22 10.36C20.24 10.32 20.26 10.28 20.27 10.24C20.34 10.07 20.39 9.9 20.43 9.72C20.46 9.58 20.48 9.43 20.49 9.27C20.5 9.16 20.5 9.04 20.49 8.92C20.48 8.73 20.45 8.53 20.4 8.33C20.37 8.22 20.34 8.11 20.3 8C20.23 7.82 20.14 7.65 20.04 7.48C19.96 7.35 19.88 7.22 19.78 7.1C19.68 6.98 19.57 6.86 19.46 6.76C19.33 6.64 19.19 6.53 19.05 6.43C18.93 6.35 18.8 6.28 18.67 6.22C18.54 6.16 18.41 6.1 18.27 6.06C18.1 6 17.92 5.96 17.73 5.93C17.68 5.92 17.62 5.91 17.57 5.91C17.28 5.88 16.98 5.89 16.68 5.94L16.52 5.96C16.36 5.99 16.2 5.99 16.05 5.96C15.91 5.93 15.78 5.88 15.66 5.81C15.5 5.73 15.38 5.62 15.28 5.49ZM13.19 5.78L13.25 5.92C13.31 6.08 13.39 6.24 13.48 6.39C13.58 6.56 13.7 6.73 13.83 6.88C13.93 6.99 14.04 7.1 14.15 7.19C14.31 7.33 14.49 7.45 14.68 7.56C14.83 7.64 14.99 7.72 15.15 7.77C15.33 7.84 15.52 7.89 15.71 7.93C15.89 7.96 16.06 7.98 16.24 7.98C16.44 7.98 16.64 7.97 16.84 7.94L17 7.91C17.22 7.88 17.42 7.89 17.61 7.94C17.67 7.96 17.74 7.99 17.8 8.02C17.9 8.07 17.99 8.13 18.08 8.2C18.17 8.29 18.26 8.39 18.33 8.5C18.41 8.65 18.46 8.8 18.49 8.95C18.49 9.02 18.5 9.09 18.49 9.16C18.49 9.21 18.48 9.27 18.47 9.32C18.43 9.5 18.34 9.67 18.21 9.83L18.1 9.95C17.96 10.12 17.83 10.31 17.73 10.5C17.65 10.63 17.59 10.78 17.54 10.92C17.47 11.1 17.42 11.28 17.39 11.46C17.36 11.64 17.35 11.81 17.35 12C17.35 12.18 17.36 12.35 17.39 12.53C17.42 12.71 17.47 12.89 17.54 13.07C17.59 13.21 17.65 13.36 17.73 13.49C17.83 13.68 17.96 13.87 18.1 14.04L18.21 14.16C18.34 14.32 18.43 14.49 18.47 14.67C18.48 14.72 18.49 14.78 18.49 14.83C18.5 14.9 18.49 14.97 18.49 15.04C18.46 15.19 18.41 15.34 18.33 15.49C18.26 15.6 18.17 15.7 18.08 15.79C17.99 15.86 17.9 15.92 17.8 15.97C17.74 16 17.67 16.03 17.61 16.05C17.42 16.1 17.22 16.11 17 16.08L16.84 16.05C16.64 16.02 16.44 16.01 16.24 16.01C16.06 16.01 15.89 16.03 15.71 16.06C15.52 16.1 15.33 16.15 15.15 16.22C14.99 16.27 14.83 16.35 14.68 16.43C14.49 16.54 14.31 16.66 14.15 16.8C14.04 16.9 13.93 17 13.83 17.11C13.7 17.26 13.58 17.43 13.48 17.6C13.39 17.75 13.31 17.91 13.25 18.07L13.19 18.21C13.13 18.36 13.05 18.5 12.94 18.61C12.88 18.68 12.8 18.74 12.72 18.79C12.65 18.83 12.59 18.87 12.52 18.89C12.36 18.96 12.18 19 12 19C11.81 19 11.63 18.96 11.47 18.89C11.4 18.87 11.34 18.83 11.27 18.79C11.19 18.74 11.11 18.68 11.05 18.61C10.94 18.5 10.86 18.36 10.8 18.21L10.74 18.07C10.68 17.91 10.6 17.75 10.51 17.6C10.41 17.43 10.29 17.26 10.16 17.11C10.06 17 9.95 16.89 9.84 16.8C9.68 16.66 9.5 16.54 9.31 16.43C9.16 16.35 9 16.27 8.84 16.22C8.66 16.15 8.47 16.1 8.28 16.06C8.1 16.03 7.93 16.01 7.75 16.01C7.55 16.01 7.35 16.02 7.15 16.05L6.99 16.08C6.77 16.11 6.57 16.1 6.38 16.05C6.32 16.03 6.25 16 6.19 15.97C6.09 15.92 6 15.86 5.91 15.79C5.82 15.7 5.73 15.6 5.67 15.49C5.58 15.34 5.53 15.19 5.5 15.04C5.5 14.97 5.49 14.9 5.5 14.83C5.5 14.78 5.51 14.72 5.52 14.67C5.56 14.49 5.65 14.32 5.78 14.16L5.89 14.04C6.03 13.87 6.16 13.68 6.26 13.49C6.34 13.36 6.4 13.21 6.45 13.07C6.52 12.89 6.57 12.71 6.6 12.53C6.63 12.36 6.64 12.18 6.64 12C6.64 11.81 6.63 11.64 6.6 11.46C6.57 11.28 6.52 11.1 6.45 10.92C6.4 10.78 6.34 10.63 6.26 10.5C6.16 10.31 6.03 10.12 5.89 9.95L5.78 9.83C5.65 9.67 5.56 9.5 5.52 9.32C5.51 9.27 5.5 9.21 5.5 9.16C5.49 9.09 5.5 9.02 5.5 8.95C5.53 8.8 5.58 8.65 5.67 8.5C5.73 8.39 5.82 8.29 5.91 8.2C6 8.13 6.09 8.07 6.19 8.02C6.25 7.99 6.32 7.96 6.38 7.94C6.57 7.89 6.77 7.88 6.99 7.91L7.15 7.94C7.35 7.97 7.55 7.98 7.75 7.98C7.93 7.98 8.1 7.96 8.28 7.93C8.47 7.89 8.66 7.84 8.84 7.77C9 7.72 9.16 7.64 9.31 7.56C9.5 7.45 9.68 7.33 9.84 7.19C9.95 7.1 10.06 6.99 10.16 6.88C10.29 6.73 10.41 6.56 10.51 6.39C10.6 6.24 10.68 6.08 10.74 5.92L10.8 5.78C10.86 5.63 10.94 5.49 11.05 5.38C11.11 5.31 11.19 5.25 11.27 5.2C11.34 5.16 11.4 5.12 11.47 5.1C11.63 5.03 11.81 5 12 5C12.18 5 12.36 5.03 12.52 5.1C12.59 5.12 12.65 5.16 12.72 5.2C12.8 5.25 12.88 5.31 12.94 5.38C13.05 5.49 13.13 5.63 13.19 5.78ZM12 8C9.79 8 8 9.79 8 12C8 14.2 9.79 16 12 16C14.2 16 16 14.2 16 12C16 9.79 14.2 8 12 8ZM12 10C10.89 10 10 10.89 10 12C10 13.1 10.89 14 12 14C13.1 14 14 13.1 14 12C14 10.89 13.1 10 12 10Z" fill="currentColor" fill-opacity="1.000000" fill-rule="evenodd"/>
</svg>
