<svg xmlns="http://www.w3.org/2000/svg" xmlns:xlink="http://www.w3.org/1999/xlink" width="24.000000" height="24.000000" viewBox="0 0 24 24" fill="none">
	<path id="vector" d="M3 3L5.23 3C5.35 3 5.46 3 5.57 3.02C5.68 3.04 5.78 3.07 5.88 3.1C5.98 3.14 6.08 3.18 6.17 3.23C6.27 3.28 6.36 3.34 6.45 3.41C6.53 3.47 6.61 3.55 6.69 3.63C6.76 3.7 6.83 3.78 6.89 3.87C6.95 3.96 7 4.05 7.04 4.15C7.09 4.25 7.13 4.36 7.16 4.47L9.76 14L16.15 14L18.11 8L10 8C9.43 8 9 7.56 9 7C9 6.43 9.43 6 10 6L18.11 6C18.45 6 18.76 6.07 19.05 6.22C19.32 6.37 19.55 6.57 19.73 6.82C19.92 7.07 20.04 7.35 20.09 7.66C20.11 7.81 20.12 7.96 20.11 8.11C20.1 8.28 20.07 8.45 20.02 8.62L18.05 14.62C17.98 14.82 17.89 15.01 17.76 15.18C17.64 15.34 17.5 15.49 17.32 15.61C17.15 15.74 16.96 15.84 16.76 15.9C16.57 15.96 16.36 16 16.15 16L9.76 16C9.64 16 9.53 15.99 9.42 15.97C9.31 15.95 9.21 15.92 9.11 15.89C8.91 15.82 8.72 15.72 8.54 15.58C8.37 15.45 8.23 15.3 8.1 15.12C7.98 14.94 7.89 14.74 7.83 14.52L5.23 5L3 5C2.44 5 2 4.56 2 4C2 3.43 2.44 3 3 3ZM10.5 18.75C10.5 19.71 9.71 20.5 8.75 20.5C7.78 20.5 7 19.71 7 18.75C7 17.78 7.78 17 8.75 17C9.71 17 10.5 17.78 10.5 18.75ZM17.25 20.5C18.21 20.5 19 19.71 19 18.75C19 17.78 18.21 17 17.25 17C16.28 17 15.5 17.78 15.5 18.75C15.5 19.71 16.28 20.5 17.25 20.5Z" fill="currentColor" fill-opacity="1.000000" fill-rule="evenodd"/>
</svg>