<svg width="24" height="24" viewBox="0 0 24 24" fill="none" xmlns="http://www.w3.org/2000/svg">
<path fill-rule="evenodd" clip-rule="evenodd" d="M7 3C5.34315 3 4 4.34315 4 6V18C4 19.6569 5.34315 21 7 21H11C11.5523 21 12 20.5523 12 20C12 19.4477 11.5523 19 11 19H7C6.44772 19 6 18.5523 6 18V6C6 5.44772 6.44772 5 7 5H11C11.5523 5 12 4.55228 12 4C12 3.44772 11.5523 3 11 3H7ZM15.2929 7.29289C15.6834 6.90237 16.3166 6.90237 16.7071 7.29289L20.7071 11.2929C21.0976 11.6834 21.0976 12.3166 20.7071 12.7071L16.7071 16.7071C16.3166 17.0976 15.6834 17.0976 15.2929 16.7071C14.9024 16.3166 14.9024 15.6834 15.2929 15.2929L17.5858 13H9.85986C9.30758 13 8.85986 12.5523 8.85986 12C8.85986 11.4477 9.30758 11 9.85986 11H17.5858L15.2929 8.70711C14.9024 8.31658 14.9024 7.68342 15.2929 7.29289Z" fill="currentColor"/>
</svg>
