<svg xmlns="http://www.w3.org/2000/svg" xmlns:xlink="http://www.w3.org/1999/xlink" width="24.000000" height="24.000000" viewBox="0 0 24 24" fill="none">
	<path id="vector" d="M13 4L16 4C16.21 4 16.43 4.02 16.63 4.06C16.81 4.1 16.99 4.16 17.16 4.23C17.34 4.3 17.5 4.39 17.65 4.49C17.82 4.6 17.97 4.73 18.12 4.87C18.26 5.02 18.39 5.17 18.5 5.34C18.6 5.49 18.69 5.65 18.76 5.83C18.83 6 18.89 6.18 18.93 6.36C18.97 6.56 19 6.78 19 7L19 17C19 17.21 18.97 17.43 18.93 17.63C18.89 17.81 18.83 17.99 18.76 18.16C18.69 18.34 18.6 18.5 18.5 18.65C18.39 18.82 18.26 18.97 18.12 19.12C17.97 19.26 17.82 19.39 17.65 19.5C17.5 19.6 17.34 19.69 17.16 19.76C16.99 19.83 16.81 19.89 16.63 19.93C16.43 19.97 16.21 20 16 20L13 20C12.44 20 12 19.56 12 19C12 18.44 12.44 18 13 18L16 18C16.08 18 16.16 17.99 16.24 17.97C16.29 17.95 16.34 17.94 16.38 17.92C16.44 17.89 16.49 17.87 16.53 17.84C16.59 17.8 16.65 17.75 16.7 17.7C16.75 17.65 16.8 17.59 16.84 17.53C16.87 17.49 16.89 17.44 16.92 17.38C16.94 17.34 16.95 17.29 16.97 17.24C16.99 17.16 17 17.08 17 17L17 7C17 6.91 16.99 6.83 16.97 6.75C16.95 6.7 16.94 6.65 16.92 6.61C16.89 6.55 16.87 6.5 16.84 6.46C16.8 6.4 16.75 6.34 16.7 6.29C16.65 6.24 16.59 6.19 16.53 6.15C16.49 6.12 16.44 6.1 16.38 6.07C16.34 6.05 16.29 6.04 16.24 6.02C16.16 6 16.08 6 16 6L13 6C12.44 6 12 5.56 12 5C12 4.44 12.44 4 13 4ZM8.29 8.7C7.89 8.31 7.89 7.68 8.29 7.29C8.68 6.89 9.31 6.89 9.7 7.29L13.7 11.29C13.8 11.39 13.87 11.49 13.92 11.61C13.97 11.73 14 11.86 14 12C14 12.13 13.97 12.26 13.92 12.38C13.87 12.5 13.8 12.6 13.7 12.7L9.7 16.7C9.31 17.1 8.68 17.1 8.29 16.7C7.89 16.31 7.89 15.68 8.29 15.29L10.58 13L4 13C3.44 13 3 12.56 3 12C3 11.44 3.44 11 4 11L10.58 11L8.29 8.7Z" fill="currentColor" fill-opacity="1.000000" fill-rule="evenodd"/>
</svg>