<svg xmlns="http://www.w3.org/2000/svg" xmlns:xlink="http://www.w3.org/1999/xlink" width="24.000000" height="24.000000" viewBox="0 0 24 24" fill="none">
	<g>
		<path id="vector" d="M10.04 20.78C10.67 20.92 11.33 21 12 21C12.66 21 13.32 20.92 13.95 20.78C14.48 20.67 14.99 20.5 15.5 20.29C16.01 20.07 16.49 19.81 16.94 19.52C17.45 19.18 17.92 18.8 18.36 18.36C18.8 17.92 19.18 17.45 19.52 16.94C19.82 16.49 20.07 16.01 20.29 15.5C20.5 14.99 20.67 14.48 20.78 13.95C20.92 13.32 21 12.66 21 12C21 11.33 20.92 10.67 20.78 10.04C20.67 9.51 20.5 9 20.29 8.49C20.07 7.98 19.81 7.5 19.52 7.05C19.18 6.54 18.8 6.07 18.36 5.63C17.92 5.19 17.45 4.81 16.94 4.47C16.49 4.17 16.01 3.92 15.5 3.7C14.99 3.49 14.48 3.32 13.95 3.21C13.32 3.07 12.66 3 12 3C11.33 3 10.67 3.07 10.04 3.21C9.51 3.32 9 3.49 8.49 3.7C7.98 3.92 7.5 4.18 7.05 4.47C6.54 4.81 6.07 5.19 5.63 5.63C5.19 6.07 4.81 6.54 4.47 7.05C4.17 7.5 3.92 7.98 3.7 8.49C3.49 9 3.32 9.51 3.21 10.04C3.07 10.67 3 11.33 3 12C3 12.66 3.07 13.32 3.21 13.95C3.32 14.48 3.49 14.99 3.7 15.5C3.92 16.01 4.18 16.49 4.47 16.94C4.81 17.45 5.19 17.92 5.63 18.36C6.07 18.8 6.54 19.18 7.05 19.52C7.5 19.82 7.98 20.07 8.49 20.29C9 20.5 9.51 20.67 10.04 20.78ZM13.55 18.82C13.05 18.94 12.53 19 12 19C11.46 19 10.94 18.94 10.43 18.82C10.04 18.73 9.65 18.61 9.27 18.45C8.88 18.28 8.51 18.08 8.17 17.86C7.76 17.59 7.39 17.29 7.05 16.94C6.7 16.6 6.4 16.23 6.13 15.83C5.91 15.48 5.71 15.11 5.54 14.72C5.38 14.34 5.26 13.95 5.17 13.56C5.05 13.05 5 12.53 5 12C5 11.46 5.05 10.94 5.17 10.43C5.26 10.04 5.38 9.65 5.54 9.27C5.71 8.88 5.91 8.51 6.13 8.17C6.4 7.76 6.7 7.39 7.05 7.05C7.39 6.7 7.76 6.4 8.17 6.13C8.51 5.91 8.88 5.71 9.27 5.54C9.65 5.38 10.04 5.26 10.43 5.17C10.94 5.05 11.46 5 12 5C12.53 5 13.05 5.05 13.56 5.17C13.95 5.26 14.34 5.38 14.72 5.54C15.11 5.71 15.48 5.91 15.83 6.13C16.23 6.4 16.6 6.7 16.94 7.05C17.29 7.39 17.59 7.76 17.86 8.17C18.08 8.51 18.28 8.88 18.45 9.27C18.61 9.65 18.73 10.04 18.82 10.43C18.94 10.94 19 11.46 19 12C19 12.53 18.94 13.05 18.82 13.56C18.73 13.95 18.61 14.34 18.45 14.72C18.28 15.11 18.08 15.48 17.86 15.83C17.59 16.23 17.29 16.6 16.94 16.94C16.6 17.29 16.23 17.59 15.83 17.86C15.48 18.08 15.11 18.28 14.72 18.45C14.34 18.61 13.95 18.73 13.55 18.82ZM8.5 9.75C8.5 9.05 9.05 8.5 9.75 8.5C10.44 8.5 11 9.05 11 9.75C11 10.44 10.44 11 9.75 11C9.05 11 8.5 10.44 8.5 9.75ZM14.25 8.5C13.55 8.5 13 9.05 13 9.75C13 10.44 13.55 11 14.25 11C14.94 11 15.5 10.44 15.5 9.75C15.5 9.05 14.94 8.5 14.25 8.5ZM9.77 13.33C9.71 13.29 9.68 13.26 9.66 13.25C9.24 12.88 8.62 12.91 8.25 13.33C7.88 13.75 7.91 14.37 8.33 14.74C8.41 14.81 8.51 14.89 8.63 14.97C8.85 15.13 9.09 15.27 9.36 15.39C9.69 15.56 10.04 15.69 10.39 15.78C10.91 15.92 11.44 16 12 16C12.55 16 13.08 15.92 13.6 15.78C13.95 15.69 14.3 15.56 14.63 15.39C14.9 15.27 15.14 15.13 15.36 14.97C15.48 14.89 15.58 14.81 15.66 14.74C16.08 14.37 16.11 13.75 15.74 13.33C15.37 12.91 14.75 12.88 14.33 13.25C14.31 13.26 14.28 13.29 14.22 13.33C14.08 13.43 13.93 13.51 13.76 13.6C13.56 13.69 13.36 13.77 13.15 13.83C12.78 13.94 12.4 14 12 14C11.59 14 11.21 13.94 10.84 13.83C10.63 13.77 10.43 13.69 10.23 13.6C10.06 13.51 9.91 13.43 9.77 13.33Z" fill="currentColor" fill-opacity="1.000000" fill-rule="evenodd"/>
	</g>
</svg>