<svg xmlns="http://www.w3.org/2000/svg" xmlns:xlink="http://www.w3.org/1999/xlink" width="24.000000" height="24.000000" viewBox="0 0 24 24" fill="none">
	<path id="vector" d="M5 6L19 6C19.56 6 20 6.44 20 7C20 7.56 19.56 8 19 8L5 8C4.44 8 4 7.56 4 7C4 6.44 4.44 6 5 6ZM11 11L5 11C4.44 11 4 11.44 4 12C4 12.56 4.44 13 5 13L11 13C11.56 13 12 12.56 12 12C12 11.44 11.56 11 11 11ZM5 16L15 16C15.56 16 16 16.44 16 17C16 17.56 15.56 18 15 18L5 18C4.44 18 4 17.56 4 17C4 16.44 4.44 16 5 16Z" fill="currentColor" fill-opacity="1.000000" fill-rule="evenodd"/>
</svg>