<svg xmlns="http://www.w3.org/2000/svg" xmlns:xlink="http://www.w3.org/1999/xlink" width="24.000000" height="24.000000" viewBox="0 0 24 24" fill="none">
	<g>
		<path id="vector" d="M8.7 5.7L7.28 7.12L15 7.12C15.49 7.12 15.87 7.51 15.87 8C15.87 8.48 15.49 8.87 15 8.87L7.28 8.87L8.7 10.29C9.1 10.68 9.1 11.31 8.7 11.7C8.31 12.1 7.68 12.1 7.29 11.7L4.29 8.7C4.05 8.47 3.93 8.23 3.93 8C3.93 7.76 4.05 7.52 4.29 7.29L7.29 4.29C7.68 3.89 8.31 3.89 8.7 4.29C9.1 4.68 9.1 5.31 8.7 5.7ZM16.7 12.29L19.7 15.29C20.17 15.76 20.17 16.23 19.7 16.7L16.7 19.7C16.31 20.1 15.68 20.1 15.29 19.7C14.89 19.31 14.89 18.68 15.29 18.29L16.71 16.87L9 16.87C8.51 16.87 8.12 16.49 8.12 16C8.12 15.51 8.51 15.12 9 15.12L16.71 15.12L15.29 13.7C14.89 13.31 14.89 12.68 15.29 12.29C15.68 11.89 16.31 11.89 16.7 12.29Z" fill="currentColor" fill-opacity="1.000000" fill-rule="evenodd"/>
	</g>
</svg>