
<svg width="24.000000" height="24.000000" viewBox="0 0 24 24" fill="none" xmlns="http://www.w3.org/2000/svg" xmlns:xlink="http://www.w3.org/1999/xlink">
	<g>
		<path id="vector" d="M15.29 4.29L12.29 7.29C11.89 7.68 11.89 8.31 12.29 8.7C12.68 9.1 13.31 9.1 13.7 8.7L15.12 7.28L15.12 15C15.12 15.49 15.51 15.87 16 15.87C16.49 15.87 16.87 15.49 16.87 15L16.87 7.28L18.29 8.7C18.68 9.1 19.31 9.1 19.7 8.7C20.1 8.31 20.1 7.68 19.7 7.29L16.7 4.29C16.23 3.82 15.76 3.82 15.29 4.29ZM8 8.12C8.48 8.12 8.87 8.51 8.87 9L8.87 16.71L10.29 15.29C10.68 14.89 11.31 14.89 11.7 15.29C12.1 15.68 12.1 16.31 11.7 16.7L8.7 19.7C8.47 19.94 8.23 20.06 8 20.06C7.76 20.06 7.52 19.94 7.29 19.7L4.29 16.7C3.89 16.31 3.89 15.68 4.29 15.29C4.68 14.89 5.31 14.89 5.7 15.29L7.12 16.71L7.12 9C7.12 8.51 7.51 8.12 8 8.12Z" fill="currentColor" fill-opacity="1.000000" fill-rule="evenodd"/>
	</g>
</svg>
