<svg xmlns="http://www.w3.org/2000/svg" xmlns:xlink="http://www.w3.org/1999/xlink" width="24.000000" height="24.000000" viewBox="0 0 24 24" fill="none">
	<path id="vector" d="M5 6L11 6C11.56 6 12 6.44 12 7C12 7.56 11.56 8 11 8L5 8C4.44 8 4 7.56 4 7C4 6.44 4.44 6 5 6ZM15 11L5 11C4.44 11 4 11.44 4 12C4 12.56 4.44 13 5 13L15 13C15.56 13 16 12.56 16 12C16 11.44 15.56 11 15 11ZM5 16C4.44 16 4 16.44 4 17C4 17.56 4.44 18 5 18L19 18C19.56 18 20 17.56 20 17C20 16.44 19.56 16 19 16L5 16Z" fill="currentColor" fill-opacity="1.000000" fill-rule="evenodd"/>
</svg>