<svg xmlns="http://www.w3.org/2000/svg" xmlns:xlink="http://www.w3.org/1999/xlink" width="24.000000" height="24.000000" viewBox="0 0 24 24" fill="none">
	<path id="vector" d="M9 8.61L8.57 8.4C8.33 8.28 8.11 8.13 7.92 7.96C7.73 7.78 7.56 7.58 7.42 7.35C7.28 7.12 7.17 6.88 7.1 6.63C7.03 6.38 7 6.12 7 5.85C7 5.64 7.02 5.44 7.06 5.24C7.1 5.07 7.15 4.9 7.22 4.74C7.29 4.57 7.37 4.42 7.47 4.27C7.57 4.12 7.69 3.97 7.83 3.83C7.97 3.69 8.12 3.57 8.27 3.47C8.42 3.37 8.57 3.29 8.74 3.22C8.9 3.15 9.07 3.1 9.24 3.06C9.44 3.02 9.64 3 9.85 3L14.14 3C14.35 3 14.55 3.02 14.75 3.06C14.92 3.1 15.09 3.15 15.25 3.22C15.42 3.29 15.57 3.37 15.72 3.47C15.87 3.57 16.02 3.69 16.16 3.83C16.3 3.97 16.42 4.12 16.52 4.27C16.62 4.42 16.7 4.57 16.77 4.74C16.84 4.9 16.89 5.07 16.93 5.24C16.97 5.44 17 5.64 17 5.85C17 6.12 16.96 6.38 16.89 6.63C16.82 6.88 16.71 7.12 16.57 7.35C16.43 7.58 16.26 7.78 16.07 7.96C15.88 8.13 15.66 8.28 15.42 8.4L15 8.61L15 9.8L17.2 10.63C17.34 10.68 17.47 10.74 17.6 10.82C17.71 10.88 17.83 10.96 17.93 11.04C18.04 11.13 18.14 11.22 18.23 11.31C18.33 11.42 18.42 11.53 18.5 11.64C18.58 11.76 18.65 11.88 18.72 12.01C18.77 12.13 18.82 12.26 18.87 12.39C18.91 12.52 18.94 12.65 18.96 12.78C18.98 12.93 19 13.07 19 13.22C19 13.42 18.97 13.62 18.93 13.81C18.9 13.98 18.84 14.14 18.78 14.3C18.71 14.46 18.63 14.61 18.53 14.75C18.43 14.91 18.32 15.05 18.18 15.18C18.05 15.32 17.91 15.43 17.75 15.53C17.61 15.63 17.46 15.71 17.3 15.78C17.14 15.84 16.98 15.9 16.81 15.93C16.62 15.97 16.42 16 16.22 16L7.77 16C7.57 16 7.37 15.97 7.18 15.93C7.01 15.9 6.85 15.84 6.69 15.78C6.53 15.71 6.38 15.63 6.24 15.53C6.08 15.43 5.94 15.32 5.81 15.18C5.67 15.05 5.56 14.91 5.46 14.75C5.36 14.61 5.28 14.46 5.21 14.3C5.15 14.14 5.09 13.98 5.06 13.81C5.02 13.62 5 13.42 5 13.22C5 13.07 5.01 12.93 5.03 12.78C5.05 12.65 5.08 12.52 5.12 12.39C5.17 12.26 5.22 12.13 5.27 12.01C5.34 11.88 5.41 11.76 5.49 11.64C5.57 11.53 5.66 11.42 5.76 11.31C5.85 11.22 5.95 11.13 6.06 11.04C6.16 10.96 6.28 10.88 6.39 10.82C6.52 10.74 6.65 10.68 6.79 10.63L9 9.8L9 8.61ZM11 10.5L11 8C11 7.81 10.95 7.63 10.85 7.47C10.75 7.31 10.61 7.19 10.44 7.1L9.47 6.61C9.39 6.58 9.33 6.53 9.27 6.48C9.22 6.43 9.17 6.37 9.12 6.3C9.08 6.23 9.05 6.16 9.03 6.08C9.01 6.01 9 5.93 9 5.85C9 5.73 9.02 5.62 9.06 5.52C9.1 5.42 9.16 5.33 9.25 5.25C9.33 5.16 9.42 5.1 9.52 5.06C9.62 5.02 9.73 5 9.85 5L14.14 5C14.26 5 14.37 5.02 14.47 5.06C14.57 5.1 14.66 5.16 14.74 5.25C14.83 5.33 14.89 5.42 14.93 5.52C14.97 5.62 15 5.73 15 5.85C15 5.93 14.98 6.01 14.96 6.08C14.94 6.16 14.91 6.23 14.87 6.3C14.82 6.37 14.78 6.43 14.72 6.48C14.66 6.53 14.6 6.58 14.52 6.61L13.55 7.1C13.38 7.19 13.24 7.31 13.14 7.47C13.04 7.63 13 7.81 13 8L13 10.5C13 10.7 13.05 10.89 13.17 11.06C13.29 11.24 13.45 11.36 13.64 11.43L16.49 12.5C16.57 12.53 16.64 12.57 16.7 12.61C16.76 12.66 16.81 12.72 16.86 12.78C16.9 12.85 16.94 12.92 16.96 12.99C16.98 13.07 17 13.14 17 13.22C17 13.33 16.98 13.43 16.94 13.52C16.9 13.61 16.84 13.69 16.77 13.77C16.69 13.84 16.61 13.9 16.52 13.94C16.43 13.98 16.33 14 16.22 14L7.77 14C7.66 14 7.56 13.98 7.47 13.94C7.38 13.9 7.3 13.84 7.22 13.77C7.15 13.69 7.09 13.61 7.05 13.52C7.01 13.43 7 13.33 7 13.22C7 13.14 7.01 13.07 7.03 12.99C7.05 12.92 7.09 12.85 7.13 12.78C7.18 12.72 7.23 12.66 7.29 12.61C7.35 12.57 7.42 12.53 7.5 12.5L10.35 11.43C10.54 11.36 10.7 11.24 10.82 11.06C10.94 10.89 11 10.7 11 10.5ZM4 19C4 18.43 4.44 18 5 18L19 18C19.56 18 20 18.43 20 19C20 19.56 19.56 20 19 20L5 20C4.44 20 4 19.56 4 19Z" fill="currentColor" fill-opacity="1.000000" fill-rule="evenodd"/>
</svg>