<svg xmlns="http://www.w3.org/2000/svg" xmlns:xlink="http://www.w3.org/1999/xlink" width="24.000000" height="24.000000" viewBox="0 0 24 24" fill="none">
	<g clip-path="url(#clip526_1685)">
		<path id="vector" d="M11 3C11 2.44 11.44 2 12 2C12.56 2 13 2.44 13 3L13 5C13 5.56 12.56 6 12 6C11.44 6 11 5.56 11 5L11 3ZM4.51 5.92C4.31 5.72 4.21 5.47 4.21 5.21C4.21 4.96 4.31 4.71 4.51 4.51C4.9 4.11 5.53 4.11 5.92 4.51L7.34 5.93C7.54 6.13 7.64 6.38 7.64 6.63C7.64 6.89 7.54 7.14 7.34 7.34C6.95 7.74 6.32 7.74 5.93 7.34L4.51 5.92ZM18.07 4.51C18.46 4.11 19.09 4.11 19.48 4.51C19.68 4.71 19.78 4.96 19.78 5.21C19.78 5.47 19.68 5.72 19.48 5.92L18.06 7.34C17.67 7.74 17.04 7.74 16.65 7.34C16.45 7.14 16.35 6.89 16.35 6.63C16.35 6.38 16.45 6.13 16.65 5.93L18.07 4.51ZM12 17C11.63 17 11.27 16.96 10.92 16.88C10.62 16.81 10.33 16.72 10.05 16.6C9.76 16.48 9.5 16.34 9.24 16.17C8.96 15.99 8.7 15.77 8.46 15.53C8.22 15.29 8 15.03 7.82 14.75C7.65 14.49 7.51 14.23 7.39 13.94C7.27 13.66 7.18 13.37 7.11 13.07C7.03 12.72 7 12.36 7 12C7 11.63 7.03 11.27 7.11 10.92C7.18 10.62 7.27 10.33 7.39 10.05C7.51 9.76 7.65 9.5 7.82 9.24C8 8.96 8.22 8.7 8.46 8.46C8.7 8.22 8.96 8 9.24 7.82C9.5 7.65 9.76 7.51 10.05 7.39C10.33 7.27 10.62 7.18 10.92 7.11C11.27 7.03 11.63 7 12 7C12.36 7 12.72 7.03 13.07 7.11C13.37 7.18 13.66 7.27 13.94 7.39C14.23 7.51 14.49 7.65 14.75 7.82C15.03 8 15.29 8.22 15.53 8.46C15.77 8.7 15.99 8.96 16.17 9.24C16.34 9.5 16.48 9.76 16.6 10.05C16.72 10.33 16.81 10.62 16.88 10.92C16.96 11.27 17 11.63 17 12C17 12.36 16.96 12.72 16.88 13.07C16.81 13.37 16.72 13.66 16.6 13.94C16.48 14.23 16.34 14.49 16.17 14.75C15.99 15.03 15.77 15.29 15.53 15.53C15.29 15.77 15.03 15.99 14.75 16.17C14.49 16.34 14.23 16.48 13.94 16.6C13.66 16.72 13.37 16.81 13.07 16.88C12.72 16.96 12.36 17 12 17ZM12 15C12.23 15 12.45 14.97 12.68 14.92C12.84 14.88 13 14.83 13.16 14.76C13.33 14.69 13.48 14.61 13.63 14.51C13.8 14.4 13.97 14.27 14.12 14.12C14.27 13.97 14.4 13.8 14.51 13.63C14.61 13.48 14.69 13.33 14.76 13.16C14.83 13 14.88 12.84 14.92 12.68C14.97 12.45 15 12.23 15 12C15 11.76 14.97 11.54 14.92 11.31C14.88 11.15 14.83 10.99 14.76 10.83C14.69 10.66 14.61 10.51 14.51 10.36C14.4 10.19 14.27 10.02 14.12 9.87C13.97 9.72 13.8 9.59 13.63 9.48C13.48 9.38 13.33 9.3 13.16 9.23C13 9.16 12.84 9.11 12.68 9.07C12.45 9.02 12.23 9 12 9C11.76 9 11.54 9.02 11.31 9.07C11.15 9.11 10.99 9.16 10.83 9.23C10.66 9.3 10.51 9.38 10.36 9.48C10.19 9.59 10.02 9.72 9.87 9.87C9.72 10.02 9.59 10.19 9.48 10.36C9.38 10.51 9.3 10.66 9.23 10.83C9.16 10.99 9.11 11.15 9.07 11.31C9.02 11.54 9 11.76 9 12C9 12.23 9.02 12.45 9.07 12.68C9.11 12.84 9.16 13 9.23 13.16C9.3 13.33 9.38 13.48 9.48 13.63C9.59 13.8 9.72 13.97 9.87 14.12C10.02 14.27 10.19 14.4 10.36 14.51C10.51 14.61 10.66 14.69 10.83 14.76C10.99 14.83 11.15 14.88 11.31 14.92C11.54 14.97 11.76 15 12 15ZM3 13C2.44 13 2 12.56 2 12C2 11.44 2.44 11 3 11L5 11C5.56 11 6 11.44 6 12C6 12.56 5.56 13 5 13L3 13ZM19 13C18.44 13 18 12.56 18 12C18 11.44 18.44 11 19 11L21 11C21.56 11 22 11.44 22 12C22 12.56 21.56 13 21 13L19 13ZM5.93 16.65C6.32 16.25 6.95 16.25 7.34 16.65C7.54 16.85 7.64 17.1 7.64 17.36C7.64 17.61 7.54 17.86 7.34 18.06L5.92 19.48C5.53 19.88 4.9 19.88 4.51 19.48C4.31 19.28 4.21 19.03 4.21 18.78C4.21 18.52 4.31 18.27 4.51 18.07L5.93 16.65ZM16.65 18.06C16.45 17.86 16.35 17.61 16.35 17.36C16.35 17.1 16.45 16.85 16.65 16.65C17.04 16.25 17.67 16.25 18.06 16.65L19.48 18.07C19.68 18.27 19.78 18.52 19.78 18.78C19.78 19.03 19.68 19.28 19.48 19.48C19.09 19.88 18.46 19.88 18.07 19.48L16.65 18.06ZM11 19C11 18.44 11.44 18 12 18C12.56 18 13 18.44 13 19L13 21C13 21.56 12.56 22 12 22C11.44 22 11 21.56 11 21L11 19Z" fill="currentColor" fill-opacity="1.000000" fill-rule="evenodd"/>
	</g>
</svg>