<svg width="24.000000" height="24.000000" viewBox="0 0 24 24" fill="none" xmlns="http://www.w3.org/2000/svg" xmlns:xlink="http://www.w3.org/1999/xlink">
	<path id="vector" d="M7.41 9.04C7.28 9.01 7.14 9 7 9C7 8.61 7.04 8.24 7.12 7.87C7.18 7.59 7.27 7.32 7.39 7.05C7.5 6.77 7.64 6.51 7.81 6.26C7.99 5.97 8.21 5.71 8.46 5.46C8.71 5.21 8.97 4.99 9.26 4.81C9.51 4.64 9.77 4.5 10.05 4.39C10.32 4.27 10.59 4.18 10.87 4.12C11.24 4.04 11.61 4 12 4C12.38 4 12.75 4.04 13.12 4.12C13.4 4.18 13.67 4.27 13.94 4.39C14.22 4.5 14.48 4.64 14.73 4.81C15.02 4.99 15.28 5.21 15.53 5.46C15.78 5.71 16 5.97 16.18 6.26C16.35 6.51 16.49 6.77 16.6 7.05C16.72 7.32 16.81 7.59 16.87 7.87C16.95 8.24 17 8.61 17 9C16.85 9 16.72 9.01 16.58 9.04C16.46 9.06 16.33 9.1 16.22 9.15C16.1 9.2 15.99 9.26 15.89 9.33C15.78 9.4 15.68 9.49 15.58 9.58C15.49 9.68 15.4 9.78 15.33 9.89C15.26 9.99 15.2 10.1 15.15 10.22C15.1 10.33 15.06 10.45 15.04 10.58C15.01 10.71 15 10.85 15 11L15 15C15 15.14 15.01 15.28 15.04 15.41C15.06 15.54 15.1 15.66 15.15 15.77C15.2 15.89 15.26 16 15.33 16.1C15.4 16.21 15.49 16.31 15.58 16.41C15.68 16.5 15.78 16.59 15.89 16.66C15.99 16.73 16.1 16.79 16.22 16.84C16.33 16.89 16.45 16.93 16.58 16.95C16.66 16.97 16.74 16.98 16.83 16.99C16.81 17.05 16.78 17.1 16.76 17.16C16.69 17.33 16.61 17.48 16.51 17.63C16.4 17.8 16.27 17.97 16.12 18.12C15.97 18.27 15.8 18.4 15.63 18.51C15.48 18.61 15.33 18.69 15.16 18.76C15.01 18.83 14.84 18.88 14.68 18.92C14.61 18.81 14.5 18.68 14.41 18.58C14.31 18.49 14.21 18.4 14.1 18.33C14 18.26 13.89 18.2 13.77 18.15C13.66 18.1 13.54 18.07 13.41 18.04C13.28 18.01 13.14 18 13 18L11 18C10.85 18 10.71 18.01 10.58 18.04C10.45 18.06 10.33 18.1 10.22 18.15C10.1 18.2 9.99 18.26 9.89 18.33C9.78 18.4 9.68 18.49 9.58 18.58C9.49 18.68 9.4 18.78 9.33 18.89C9.26 18.99 9.2 19.1 9.15 19.22C9.1 19.33 9.07 19.45 9.04 19.58C9.01 19.71 9 19.85 9 20C9 20.14 9.01 20.28 9.04 20.41C9.06 20.54 9.1 20.66 9.15 20.77C9.2 20.89 9.26 21 9.33 21.1C9.4 21.21 9.49 21.31 9.58 21.41C9.68 21.5 9.78 21.59 9.89 21.66C9.99 21.73 10.1 21.79 10.22 21.84C10.33 21.89 10.45 21.93 10.58 21.95C10.71 21.98 10.85 22 11 22L13 22C13.14 22 13.28 21.98 13.41 21.95C13.54 21.93 13.66 21.89 13.77 21.84C13.89 21.79 14 21.73 14.1 21.66C14.21 21.59 14.31 21.5 14.41 21.41C14.5 21.31 14.59 21.21 14.66 21.1C14.7 21.05 14.73 20.99 14.76 20.94C14.86 20.92 14.97 20.9 15.07 20.88C15.37 20.81 15.66 20.72 15.94 20.6C16.23 20.48 16.49 20.34 16.75 20.17C17.03 19.99 17.29 19.77 17.53 19.53C17.77 19.29 17.99 19.03 18.17 18.75C18.34 18.49 18.48 18.23 18.6 17.94C18.72 17.66 18.81 17.37 18.88 17.07C18.9 17 18.91 16.92 18.92 16.85C19 16.82 19.08 16.79 19.16 16.76C19.34 16.69 19.5 16.6 19.65 16.5C19.82 16.39 19.97 16.26 20.12 16.12C20.26 15.97 20.39 15.82 20.5 15.65C20.6 15.5 20.69 15.34 20.76 15.16C20.83 14.99 20.89 14.81 20.93 14.63C20.97 14.43 21 14.21 21 14L21 12C21 11.78 20.97 11.56 20.93 11.36C20.89 11.18 20.83 11 20.76 10.83C20.69 10.65 20.6 10.49 20.5 10.34C20.39 10.17 20.26 10.02 20.12 9.87C19.97 9.73 19.82 9.6 19.65 9.49C19.5 9.39 19.33 9.3 19.16 9.23C19.11 9.21 19.05 9.19 19 9.17L19 9C19 8.48 18.94 7.97 18.83 7.48C18.74 7.07 18.61 6.66 18.44 6.27C18.28 5.87 18.08 5.5 17.84 5.14C17.58 4.75 17.28 4.39 16.94 4.05C16.6 3.71 16.24 3.41 15.85 3.15C15.49 2.91 15.12 2.71 14.72 2.55C14.33 2.38 13.92 2.25 13.51 2.16C13.02 2.05 12.51 2 12 2C11.48 2 10.97 2.05 10.48 2.16C10.07 2.25 9.66 2.38 9.27 2.55C8.87 2.71 8.5 2.91 8.14 3.15C7.75 3.41 7.39 3.71 7.05 4.05C6.71 4.39 6.41 4.75 6.15 5.14C5.91 5.5 5.71 5.87 5.55 6.27C5.38 6.66 5.25 7.07 5.16 7.48C5.05 7.97 5 8.48 5 9L5 9.17C4.94 9.19 4.88 9.21 4.83 9.23C4.66 9.3 4.49 9.39 4.34 9.49C4.17 9.6 4.02 9.73 3.87 9.87C3.73 10.02 3.6 10.17 3.49 10.34C3.39 10.49 3.3 10.65 3.23 10.83C3.16 11 3.1 11.18 3.06 11.36C3.02 11.56 3 11.78 3 12L3 14C3 14.21 3.02 14.43 3.06 14.63C3.1 14.81 3.16 14.99 3.23 15.16C3.3 15.34 3.39 15.5 3.49 15.65C3.6 15.82 3.73 15.97 3.87 16.12C4.02 16.26 4.17 16.39 4.34 16.5C4.49 16.6 4.65 16.69 4.83 16.76C5 16.83 5.18 16.89 5.36 16.93C5.56 16.97 5.78 17 6 17L7 17C7.14 17 7.28 16.98 7.41 16.95C7.54 16.93 7.66 16.89 7.77 16.84C7.89 16.79 8 16.73 8.1 16.66C8.21 16.59 8.31 16.5 8.41 16.41C8.5 16.31 8.59 16.21 8.66 16.1C8.73 16 8.79 15.89 8.84 15.77C8.89 15.66 8.93 15.54 8.95 15.41C8.98 15.28 9 15.14 9 15L8.99 11C8.99 10.85 8.98 10.71 8.95 10.58C8.93 10.45 8.89 10.33 8.84 10.22C8.79 10.1 8.73 9.99 8.66 9.89C8.59 9.78 8.5 9.68 8.41 9.58C8.31 9.49 8.21 9.4 8.1 9.33C8 9.26 7.89 9.2 7.77 9.15C7.66 9.1 7.54 9.06 7.41 9.04ZM6.99 11L7 15L6 15C5.91 15 5.83 14.99 5.75 14.97C5.7 14.95 5.65 14.94 5.61 14.92C5.55 14.89 5.5 14.87 5.46 14.84C5.4 14.8 5.34 14.75 5.29 14.7C5.24 14.65 5.19 14.59 5.15 14.53C5.12 14.49 5.1 14.44 5.07 14.38C5.05 14.34 5.04 14.29 5.02 14.24C5.01 14.16 5 14.08 5 14L5 12C5 11.91 5 11.83 5.02 11.75C5.04 11.7 5.05 11.65 5.07 11.61C5.1 11.55 5.12 11.5 5.15 11.46C5.19 11.4 5.24 11.34 5.29 11.29C5.34 11.24 5.4 11.19 5.46 11.15C5.5 11.12 5.55 11.1 5.61 11.07C5.65 11.05 5.7 11.04 5.75 11.02C5.83 11 5.91 11 6 11L6.99 11ZM18 11C18.08 11 18.16 11 18.24 11.02C18.29 11.04 18.34 11.05 18.38 11.07C18.44 11.1 18.49 11.12 18.53 11.15C18.59 11.19 18.65 11.24 18.7 11.29C18.75 11.34 18.8 11.4 18.84 11.46C18.87 11.5 18.89 11.55 18.92 11.61C18.94 11.65 18.95 11.7 18.97 11.75C18.99 11.83 19 11.91 19 12L19 14C19 14.08 18.99 14.16 18.97 14.24C18.95 14.29 18.94 14.34 18.92 14.38C18.89 14.44 18.87 14.49 18.84 14.53C18.8 14.59 18.75 14.65 18.7 14.7C18.65 14.75 18.59 14.8 18.53 14.84C18.49 14.87 18.44 14.89 18.38 14.92C18.34 14.94 18.29 14.95 18.24 14.97C18.16 14.99 18.08 15 18 15L17 15L17 11L18 11Z" fill="currentColor" fill-opacity="1.000000" fill-rule="evenodd"/>
</svg>
