<svg xmlns="http://www.w3.org/2000/svg" xmlns:xlink="http://www.w3.org/1999/xlink" width="24.000000" height="24.000000" viewBox="0 0 24 24" fill="none">
	<g>
		<path id="vector" d="M19.29 16.01L15.01 20.29C14.85 20.44 14.68 20.58 14.51 20.69C14.35 20.79 14.19 20.88 14.01 20.95C13.84 21.02 13.66 21.07 13.48 21.11C13.29 21.15 13.09 21.17 12.88 21.17C12.68 21.17 12.48 21.15 12.29 21.11C12.11 21.07 11.93 21.02 11.76 20.95C11.58 20.88 11.42 20.79 11.26 20.69C11.08 20.58 10.92 20.44 10.76 20.29L3.87 13.4C3.73 13.26 3.61 13.11 3.5 12.94C3.39 12.78 3.3 12.61 3.22 12.43C3.15 12.24 3.09 12.05 3.05 11.86C3.01 11.67 3 11.48 3 11.28L3 7C3 6.78 3.02 6.56 3.06 6.36C3.1 6.18 3.16 6 3.23 5.83C3.3 5.65 3.39 5.49 3.49 5.34C3.6 5.17 3.73 5.02 3.87 4.87C4.02 4.73 4.17 4.6 4.34 4.49C4.49 4.39 4.65 4.3 4.83 4.23C5 4.16 5.18 4.1 5.36 4.06C5.56 4.02 5.78 4 6 4L10.28 4C10.48 4 10.67 4.01 10.86 4.05C11.05 4.09 11.24 4.15 11.43 4.22C11.61 4.3 11.78 4.39 11.94 4.5C12.11 4.61 12.26 4.73 12.4 4.87L19.29 11.76C19.44 11.92 19.58 12.08 19.69 12.26C19.79 12.42 19.88 12.58 19.95 12.76C20.02 12.93 20.07 13.11 20.11 13.29C20.15 13.48 20.17 13.68 20.17 13.88C20.17 14.09 20.15 14.29 20.11 14.48C20.07 14.66 20.02 14.84 19.95 15.01C19.88 15.19 19.79 15.35 19.69 15.51C19.58 15.68 19.44 15.85 19.29 16.01ZM17.87 14.59C17.93 14.53 17.98 14.47 18.02 14.4C18.05 14.36 18.07 14.31 18.09 14.26C18.11 14.21 18.13 14.15 18.14 14.1C18.16 14.03 18.17 13.96 18.17 13.88C18.17 13.81 18.16 13.74 18.14 13.67C18.13 13.61 18.11 13.56 18.09 13.51C18.07 13.46 18.05 13.41 18.02 13.37C17.98 13.3 17.93 13.24 17.87 13.18L10.98 6.29C10.94 6.24 10.89 6.2 10.83 6.16C10.78 6.13 10.72 6.1 10.66 6.07C10.6 6.05 10.54 6.03 10.47 6.01C10.41 6 10.34 6 10.28 6L6 6C5.91 6 5.83 6 5.75 6.02C5.7 6.04 5.65 6.05 5.61 6.07C5.55 6.1 5.5 6.12 5.46 6.15C5.4 6.19 5.34 6.24 5.29 6.29C5.24 6.34 5.19 6.4 5.15 6.46C5.12 6.5 5.1 6.55 5.07 6.61C5.05 6.65 5.04 6.7 5.02 6.75C5 6.83 5 6.91 5 7L5 11.28C5 11.34 5 11.41 5.01 11.47C5.03 11.54 5.05 11.6 5.07 11.66C5.1 11.72 5.13 11.78 5.16 11.83C5.2 11.89 5.24 11.94 5.29 11.98L12.18 18.87C12.24 18.93 12.3 18.98 12.37 19.02C12.41 19.05 12.46 19.07 12.51 19.09C12.56 19.11 12.61 19.13 12.67 19.14C12.74 19.16 12.81 19.17 12.88 19.17C12.96 19.17 13.03 19.16 13.1 19.14C13.15 19.13 13.21 19.11 13.26 19.09C13.31 19.07 13.36 19.05 13.4 19.02C13.47 18.98 13.53 18.93 13.59 18.87L17.87 14.59ZM7.5 7C6.67 7 6 7.67 6 8.5C6 9.32 6.67 10 7.5 10C8.32 10 9 9.32 9 8.5C9 7.67 8.32 7 7.5 7Z" fill="currentColor" fill-opacity="1.000000" fill-rule="evenodd"/>
	</g>
</svg>