<svg width="28.799805" height="28.800003" viewBox="0 0 28.7998 28.8" fill="none" xmlns="http://www.w3.org/2000/svg" xmlns:xlink="http://www.w3.org/1999/xlink">

	<path id="vector" d="M25.2 10.4L25.2 18.39C25.2 18.72 25.15 19.03 25.07 19.33C24.99 19.64 24.87 19.93 24.7 20.21C24.54 20.49 24.34 20.74 24.12 20.96C23.9 21.18 23.64 21.37 23.36 21.53L16.16 25.58C15.89 25.73 15.6 25.85 15.31 25.93C15.01 26 14.71 26.04 14.39 26.04C14.08 26.04 13.78 26 13.48 25.93C13.19 25.85 12.9 25.73 12.63 25.58L5.43 21.53C5.15 21.37 4.89 21.18 4.67 20.96C4.45 20.74 4.25 20.49 4.09 20.21C3.92 19.93 3.8 19.64 3.72 19.33C3.64 19.03 3.6 18.72 3.6 18.39L3.6 10.4C3.6 10.07 3.64 9.76 3.72 9.46C3.8 9.15 3.92 8.86 4.09 8.58C4.25 8.3 4.45 8.05 4.67 7.83C4.89 7.61 5.15 7.42 5.43 7.26L12.63 3.21C12.9 3.06 13.19 2.94 13.48 2.86C13.78 2.79 14.08 2.75 14.39 2.75C14.71 2.75 15.01 2.79 15.31 2.86C15.6 2.94 15.89 3.06 16.16 3.21L23.36 7.26C23.64 7.42 23.9 7.61 24.12 7.83C24.34 8.05 24.54 8.3 24.7 8.58C24.87 8.86 24.99 9.15 25.07 9.46C25.15 9.76 25.2 10.07 25.2 10.4ZM22.8 10.4C22.8 10.29 22.78 10.19 22.75 10.08C22.73 9.98 22.69 9.89 22.63 9.79C22.58 9.7 22.51 9.62 22.44 9.54C22.36 9.47 22.28 9.41 22.18 9.35L14.98 5.3C14.89 5.25 14.8 5.21 14.7 5.19C14.6 5.16 14.5 5.15 14.39 5.15C14.29 5.15 14.19 5.16 14.09 5.19C13.99 5.21 13.9 5.25 13.81 5.3L6.61 9.35C6.51 9.41 6.43 9.47 6.35 9.54C6.28 9.62 6.21 9.7 6.16 9.79C6.1 9.89 6.06 9.98 6.04 10.08C6.01 10.19 6 10.29 6 10.4L6 18.39C6 18.5 6.01 18.6 6.04 18.71C6.06 18.81 6.1 18.9 6.16 19C6.21 19.09 6.28 19.17 6.35 19.25C6.43 19.32 6.51 19.38 6.61 19.44L13.81 23.49C13.9 23.54 13.99 23.58 14.09 23.6C14.19 23.63 14.29 23.64 14.39 23.64C14.5 23.64 14.6 23.63 14.7 23.6C14.8 23.58 14.89 23.54 14.98 23.49L22.18 19.44C22.28 19.38 22.36 19.32 22.44 19.25C22.51 19.17 22.58 19.09 22.63 19C22.69 18.9 22.73 18.81 22.75 18.71C22.78 18.6 22.8 18.5 22.8 18.39L22.8 10.4ZM19.2 10.8C18.52 10.8 18 11.32 18 12L18 16.79C18 17.47 18.52 18 19.2 18C19.87 18 20.39 17.47 20.39 16.79L20.39 12C20.39 11.32 19.87 10.8 19.2 10.8ZM14.39 12.6C13.72 12.6 13.2 13.12 13.2 13.8L13.2 16.79C13.2 17.47 13.72 18 14.39 18C15.07 18 15.6 17.47 15.6 16.79L15.6 13.8C15.6 13.12 15.07 12.6 14.39 12.6ZM10.8 16.79L10.8 15.6C10.8 14.92 10.27 14.4 9.6 14.4C8.92 14.4 8.39 14.92 8.39 15.6L8.39 16.79C8.39 17.47 8.92 18 9.6 18C10.27 18 10.8 17.47 10.8 16.79Z" fill="currentColor" fill-opacity="0.970000" fill-rule="evenodd"/>
</svg>
