<svg xmlns="http://www.w3.org/2000/svg" xmlns:xlink="http://www.w3.org/1999/xlink" width="24.000000" height="24.000000" viewBox="0 0 24 24" fill="none">
	<path id="vector" d="M20.89 7.88C20.82 7.63 20.72 7.38 20.58 7.15C20.45 6.92 20.29 6.71 20.1 6.52C19.91 6.34 19.7 6.18 19.47 6.05L13.47 2.67C13.24 2.55 13 2.45 12.76 2.39C12.51 2.32 12.26 2.29 12 2.29C11.73 2.29 11.48 2.32 11.23 2.39C10.99 2.45 10.75 2.55 10.52 2.67L4.52 6.05C4.29 6.18 4.08 6.34 3.89 6.52C3.7 6.71 3.54 6.92 3.41 7.15C3.27 7.38 3.17 7.63 3.1 7.88C3.03 8.13 3 8.39 3 8.66L3 15.33C3 15.6 3.03 15.86 3.1 16.11C3.17 16.36 3.27 16.61 3.41 16.84C3.54 17.07 3.7 17.28 3.89 17.47C4.08 17.65 4.29 17.81 4.52 17.94L10.52 21.32C10.75 21.44 10.99 21.54 11.23 21.6C11.48 21.67 11.73 21.7 12 21.7C12.26 21.7 12.51 21.67 12.76 21.6C13 21.54 13.24 21.44 13.47 21.32L19.47 17.94C19.7 17.81 19.91 17.65 20.1 17.47C20.29 17.28 20.45 17.07 20.58 16.84C20.72 16.61 20.82 16.36 20.89 16.11C20.96 15.86 21 15.6 21 15.33L21 8.66C21 8.39 20.96 8.13 20.89 7.88ZM18.96 8.4C18.98 8.49 19 8.57 19 8.66L19 15.33C19 15.42 18.98 15.5 18.96 15.59C18.94 15.67 18.9 15.75 18.86 15.83C18.81 15.91 18.76 15.98 18.7 16.04C18.63 16.1 18.56 16.15 18.49 16.2L12.49 19.57C12.41 19.61 12.33 19.65 12.25 19.67C12.17 19.69 12.08 19.7 12 19.7C11.91 19.7 11.82 19.69 11.74 19.67C11.66 19.65 11.58 19.61 11.5 19.57L5.5 16.2C5.43 16.15 5.36 16.1 5.29 16.04C5.23 15.98 5.18 15.91 5.13 15.83C5.09 15.75 5.05 15.67 5.03 15.59C5.01 15.5 5 15.42 5 15.33L5 8.66C5 8.57 5.01 8.49 5.03 8.4C5.05 8.32 5.09 8.24 5.13 8.16C5.18 8.08 5.23 8.01 5.29 7.95C5.36 7.89 5.43 7.84 5.5 7.79L11.5 4.42C11.58 4.38 11.66 4.34 11.74 4.32C11.82 4.3 11.91 4.29 12 4.29C12.08 4.29 12.17 4.3 12.25 4.32C12.33 4.34 12.41 4.38 12.49 4.42L18.49 7.79C18.56 7.84 18.63 7.89 18.7 7.95C18.76 8.01 18.81 8.08 18.86 8.16C18.9 8.24 18.94 8.32 18.96 8.4ZM12 10.85L7.98 8.62C7.49 8.35 6.89 8.52 6.62 9.01C6.35 9.5 6.52 10.1 7.01 10.37L11 12.58L11 17C11 17.55 11.44 18 12 18C12.56 18 13 17.55 13 17L13 12.58L16.98 10.37C17.47 10.1 17.64 9.5 17.37 9.01C17.1 8.52 16.5 8.35 16.01 8.62L12 10.85Z" fill="currentColor" fill-opacity="1.000000" fill-rule="evenodd"/>
</svg>