<svg xmlns="http://www.w3.org/2000/svg" xmlns:xlink="http://www.w3.org/1999/xlink" width="24.000000" height="24.000000" viewBox="0 0 24 24" fill="none">
	<path id="vector" d="M8.26 6L7 6C6.91 6 6.83 6 6.75 6.02C6.7 6.04 6.65 6.05 6.61 6.07C6.55 6.1 6.5 6.12 6.46 6.15C6.4 6.19 6.34 6.24 6.29 6.29C6.24 6.34 6.19 6.4 6.15 6.46C6.12 6.5 6.1 6.55 6.07 6.61C6.05 6.65 6.04 6.7 6.02 6.75C6 6.83 6 6.91 6 7L6 17C6 17.08 6 17.16 6.02 17.24C6.04 17.29 6.05 17.34 6.07 17.38C6.1 17.44 6.12 17.49 6.15 17.53C6.19 17.59 6.24 17.65 6.29 17.7C6.34 17.75 6.4 17.8 6.46 17.84C6.5 17.87 6.55 17.89 6.61 17.92C6.65 17.94 6.7 17.95 6.75 17.97C6.83 17.99 6.91 18 7 18L17 18C17.08 18 17.16 17.99 17.24 17.97C17.29 17.95 17.34 17.94 17.38 17.92C17.44 17.89 17.49 17.87 17.53 17.84C17.59 17.8 17.65 17.75 17.7 17.7C17.75 17.65 17.8 17.59 17.84 17.53C17.87 17.49 17.89 17.44 17.92 17.38C17.94 17.34 17.95 17.29 17.97 17.24C17.99 17.16 18 17.08 18 17L18 7C18 6.91 17.99 6.83 17.97 6.75C17.95 6.7 17.94 6.65 17.92 6.61C17.89 6.55 17.87 6.5 17.84 6.46C17.8 6.4 17.75 6.34 17.7 6.29C17.65 6.24 17.59 6.19 17.53 6.15C17.49 6.12 17.44 6.1 17.38 6.07C17.34 6.05 17.29 6.04 17.24 6.02C17.16 6 17.08 6 17 6L15.73 6C15.71 6.03 15.68 6.07 15.66 6.1C15.59 6.21 15.5 6.31 15.41 6.41C15.31 6.5 15.21 6.59 15.1 6.66C15 6.73 14.89 6.79 14.77 6.84C14.66 6.89 14.54 6.93 14.41 6.95C14.28 6.98 14.14 7 14 7L10 7C9.85 7 9.71 6.98 9.58 6.95C9.45 6.93 9.33 6.89 9.22 6.84C9.1 6.79 8.99 6.73 8.89 6.66C8.78 6.59 8.68 6.5 8.58 6.41C8.49 6.31 8.4 6.21 8.33 6.1C8.31 6.07 8.28 6.03 8.26 6ZM16 4L17 4C17.21 4 17.43 4.02 17.63 4.06C17.81 4.1 17.99 4.16 18.16 4.23C18.34 4.3 18.5 4.39 18.65 4.49C18.82 4.6 18.97 4.73 19.12 4.87C19.26 5.02 19.39 5.17 19.5 5.34C19.6 5.49 19.69 5.66 19.76 5.83C19.83 6 19.89 6.18 19.93 6.36C19.97 6.56 20 6.78 20 7L20 17C20 17.21 19.97 17.43 19.93 17.63C19.89 17.81 19.83 17.99 19.76 18.16C19.69 18.33 19.6 18.5 19.5 18.65C19.39 18.82 19.26 18.97 19.12 19.12C18.97 19.26 18.82 19.39 18.65 19.5C18.5 19.6 18.34 19.69 18.16 19.76C17.99 19.83 17.81 19.89 17.63 19.93C17.43 19.97 17.21 20 17 20L7 20C6.78 20 6.56 19.97 6.36 19.93C6.18 19.89 6 19.83 5.83 19.76C5.65 19.69 5.49 19.6 5.34 19.5C5.17 19.39 5.02 19.26 4.87 19.12C4.73 18.97 4.6 18.82 4.49 18.65C4.39 18.5 4.3 18.34 4.23 18.16C4.16 17.99 4.1 17.81 4.06 17.63C4.02 17.43 4 17.21 4 17L4 7C4 6.78 4.02 6.56 4.06 6.36C4.1 6.18 4.16 6 4.23 5.83C4.3 5.65 4.39 5.49 4.49 5.34C4.6 5.17 4.73 5.02 4.87 4.87C5.02 4.73 5.17 4.6 5.34 4.49C5.49 4.39 5.65 4.3 5.83 4.23C6 4.16 6.18 4.1 6.36 4.06C6.56 4.02 6.78 4 7 4L8 4C8 3.85 8.01 3.71 8.04 3.58C8.06 3.45 8.1 3.33 8.15 3.22C8.2 3.1 8.26 2.99 8.33 2.89C8.4 2.78 8.49 2.68 8.58 2.58C8.68 2.49 8.78 2.4 8.89 2.33C8.99 2.26 9.1 2.2 9.22 2.15C9.33 2.1 9.45 2.06 9.58 2.04C9.71 2.01 9.85 2 10 2L14 2C14.14 2 14.28 2.01 14.41 2.04C14.54 2.06 14.66 2.1 14.77 2.15C14.89 2.2 15 2.26 15.1 2.33C15.21 2.4 15.31 2.49 15.41 2.58C15.5 2.68 15.59 2.78 15.66 2.89C15.73 2.99 15.79 3.1 15.84 3.22C15.89 3.33 15.93 3.45 15.95 3.58C15.98 3.71 16 3.85 16 4ZM14 5L10 5L10 4L14 4L14 5ZM12 10.58L10.7 9.29C10.31 8.89 9.68 8.89 9.29 9.29C8.89 9.68 8.89 10.31 9.29 10.7L10.58 12L9.29 13.29C8.89 13.68 8.89 14.31 9.29 14.7C9.68 15.1 10.31 15.1 10.7 14.7L12 13.41L13.29 14.7C13.68 15.1 14.31 15.1 14.7 14.7C15.1 14.31 15.1 13.68 14.7 13.29L13.41 12L14.7 10.7C15.1 10.31 15.1 9.68 14.7 9.29C14.31 8.89 13.68 8.89 13.29 9.29L12 10.58Z" fill="currentColor" fill-opacity="1.000000" fill-rule="evenodd"/>
</svg>