<svg xmlns="http://www.w3.org/2000/svg" xmlns:xlink="http://www.w3.org/1999/xlink" width="24.000000" height="24.000000" viewBox="0 0 24 24" fill="none">
	<path id="vector" d="M17 4L16 4C16 3.85 15.98 3.71 15.95 3.58C15.93 3.45 15.89 3.33 15.84 3.22C15.79 3.1 15.73 2.99 15.66 2.89C15.59 2.78 15.5 2.68 15.41 2.58C15.31 2.49 15.21 2.4 15.1 2.33C15 2.26 14.89 2.2 14.77 2.15C14.66 2.1 14.54 2.06 14.41 2.04C14.28 2.01 14.14 2 14 2L10 2C9.85 2 9.71 2.01 9.58 2.04C9.45 2.06 9.33 2.1 9.22 2.15C9.1 2.2 8.99 2.26 8.89 2.33C8.78 2.4 8.68 2.49 8.58 2.58C8.49 2.68 8.4 2.78 8.33 2.89C8.26 2.99 8.2 3.1 8.15 3.22C8.1 3.33 8.07 3.45 8.04 3.58C8.01 3.71 8 3.85 8 4L7 4C6.78 4 6.56 4.02 6.36 4.06C6.18 4.1 6 4.16 5.83 4.23C5.65 4.3 5.49 4.39 5.34 4.49C5.17 4.6 5.02 4.73 4.87 4.87C4.73 5.02 4.6 5.17 4.49 5.34C4.39 5.49 4.3 5.65 4.23 5.83C4.16 6 4.1 6.18 4.06 6.36C4.02 6.56 4 6.78 4 7L4 17C4 17.21 4.02 17.43 4.06 17.63C4.1 17.81 4.16 17.99 4.23 18.16C4.3 18.34 4.39 18.5 4.49 18.65C4.6 18.82 4.73 18.97 4.87 19.12C5.02 19.26 5.17 19.39 5.34 19.5C5.49 19.6 5.65 19.69 5.83 19.76C6 19.83 6.18 19.89 6.36 19.93C6.56 19.97 6.78 20 7 20L17 20C17.21 20 17.43 19.97 17.63 19.93C17.81 19.89 17.99 19.83 18.16 19.76C18.34 19.69 18.5 19.6 18.65 19.5C18.82 19.39 18.97 19.26 19.12 19.12C19.26 18.97 19.39 18.82 19.5 18.65C19.6 18.5 19.69 18.33 19.76 18.16C19.83 17.99 19.89 17.81 19.93 17.63C19.97 17.43 20 17.21 20 17L20 7C20 6.78 19.97 6.56 19.93 6.36C19.89 6.18 19.83 6 19.76 5.83C19.69 5.66 19.6 5.49 19.5 5.34C19.39 5.17 19.26 5.02 19.12 4.87C18.97 4.73 18.82 4.6 18.65 4.49C18.5 4.39 18.34 4.3 18.16 4.23C17.99 4.16 17.81 4.1 17.63 4.06C17.43 4.02 17.21 4 17 4ZM10 5L14 5L14 4L10 4L10 5ZM7 6L8.26 6C8.28 6.03 8.31 6.07 8.33 6.1C8.4 6.21 8.49 6.31 8.58 6.41C8.68 6.5 8.78 6.59 8.89 6.66C8.99 6.73 9.1 6.79 9.22 6.84C9.33 6.89 9.45 6.93 9.58 6.95C9.71 6.98 9.85 7 10 7L14 7C14.14 7 14.28 6.98 14.41 6.95C14.54 6.93 14.66 6.89 14.77 6.84C14.89 6.79 15 6.73 15.1 6.66C15.21 6.59 15.31 6.5 15.41 6.41C15.5 6.31 15.59 6.21 15.66 6.1C15.68 6.07 15.71 6.03 15.73 6L17 6C17.08 6 17.16 6 17.24 6.02C17.29 6.04 17.34 6.05 17.38 6.07C17.44 6.1 17.49 6.12 17.53 6.15C17.59 6.19 17.65 6.24 17.7 6.29C17.75 6.34 17.8 6.4 17.84 6.46C17.87 6.5 17.89 6.55 17.92 6.61C17.94 6.65 17.95 6.7 17.97 6.75C17.99 6.83 18 6.91 18 7L18 17C18 17.08 17.99 17.16 17.97 17.24C17.95 17.29 17.94 17.34 17.92 17.38C17.89 17.44 17.87 17.49 17.84 17.53C17.8 17.59 17.75 17.65 17.7 17.7C17.65 17.75 17.59 17.8 17.53 17.84C17.49 17.87 17.44 17.89 17.38 17.92C17.34 17.94 17.29 17.95 17.24 17.97C17.16 17.99 17.08 18 17 18L7 18C6.91 18 6.83 17.99 6.75 17.97C6.7 17.95 6.65 17.94 6.61 17.92C6.55 17.89 6.5 17.87 6.46 17.84C6.4 17.8 6.34 17.75 6.29 17.7C6.24 17.65 6.19 17.59 6.15 17.53C6.12 17.49 6.1 17.44 6.07 17.38C6.05 17.34 6.04 17.29 6.02 17.24C6.01 17.16 6 17.08 6 17L6 7C6 6.91 6 6.83 6.02 6.75C6.04 6.7 6.05 6.65 6.07 6.61C6.1 6.55 6.12 6.5 6.15 6.46C6.19 6.4 6.24 6.34 6.29 6.29C6.34 6.24 6.4 6.19 6.46 6.15C6.5 6.12 6.55 6.1 6.61 6.07C6.65 6.05 6.7 6.04 6.75 6.02C6.83 6 6.91 6 7 6ZM15 9C14.44 9 14 9.43 14 10L14 14C14 14.56 14.44 15 15 15C15.56 15 16 14.56 16 14L16 10C16 9.43 15.56 9 15 9ZM9 10.5C9.56 10.5 10 10.93 10 11.5L10 14C10 14.56 9.56 15 9 15C8.43 15 8 14.56 8 14L8 11.5C8 10.93 8.43 10.5 9 10.5ZM13 13C13 12.43 12.56 12 12 12C11.44 12 11 12.43 11 13L11 14C11 14.56 11.44 15 12 15C12.56 15 13 14.56 13 14L13 13Z" fill="currentColor" fill-opacity="1.000000" fill-rule="evenodd"/>
</svg>