<svg width="24.000000" height="24.000000" viewBox="0 0 24 24" fill="none" xmlns="http://www.w3.org/2000/svg" xmlns:xlink="http://www.w3.org/1999/xlink">
	<path id="vector" d="M9 17.14L9 14.99L5.24 14.99C5.08 14.99 4.91 14.97 4.76 14.93C4.62 14.9 4.49 14.85 4.36 14.79C4.23 14.72 4.11 14.65 4 14.56C3.89 14.47 3.78 14.36 3.68 14.24C3.58 14.12 3.5 14 3.44 13.86C3.38 13.74 3.33 13.6 3.3 13.47C3.26 13.33 3.24 13.19 3.24 13.04C3.24 12.88 3.25 12.72 3.29 12.56L4.84 5.56C4.87 5.44 4.91 5.33 4.95 5.22C4.99 5.12 5.05 5.02 5.1 4.93C5.16 4.83 5.23 4.75 5.3 4.67C5.37 4.58 5.46 4.5 5.55 4.43C5.64 4.36 5.73 4.3 5.83 4.24C5.92 4.19 6.02 4.15 6.13 4.11C6.23 4.07 6.33 4.04 6.44 4.02C6.56 4 6.68 3.99 6.8 3.99L17 3.99C17.21 3.99 17.43 4.01 17.63 4.06C17.81 4.1 17.99 4.16 18.16 4.23C18.34 4.3 18.5 4.39 18.65 4.49C18.82 4.6 18.97 4.73 19.12 4.87C19.26 5.01 19.39 5.17 19.5 5.34C19.6 5.49 19.69 5.65 19.76 5.82C19.83 6 19.89 6.17 19.93 6.35C19.97 6.56 20 6.77 20 6.99L20 10.99C20 11.21 19.97 11.42 19.93 11.63C19.89 11.81 19.83 11.99 19.76 12.16C19.69 12.33 19.6 12.49 19.5 12.65C19.39 12.81 19.26 12.97 19.12 13.11C18.97 13.26 18.82 13.38 18.65 13.49C18.5 13.6 18.34 13.68 18.16 13.76C17.99 13.83 17.81 13.89 17.63 13.92C17.43 13.97 17.21 13.99 17 13.99L15.65 13.99L12.91 20.39C12.85 20.51 12.75 20.67 12.65 20.75C12.56 20.83 12.44 20.9 12.31 20.94C12.18 20.98 12.05 21 11.92 20.99C11.8 20.98 11.67 20.95 11.55 20.89L11.21 20.72C11.03 20.63 10.86 20.53 10.71 20.42C10.56 20.32 10.42 20.21 10.29 20.08C10.16 19.96 10.03 19.83 9.92 19.7C9.8 19.55 9.69 19.4 9.59 19.24C9.49 19.08 9.41 18.92 9.33 18.75C9.26 18.58 9.2 18.41 9.15 18.24C9.1 18.07 9.06 17.89 9.04 17.72C9.01 17.53 9 17.33 9 17.14ZM16 11.99L17 11.99C17.08 11.99 17.16 11.98 17.24 11.96C17.29 11.95 17.34 11.93 17.38 11.91C17.44 11.89 17.49 11.87 17.53 11.84C17.59 11.8 17.65 11.75 17.7 11.7C17.75 11.65 17.8 11.59 17.84 11.53C17.87 11.48 17.89 11.43 17.92 11.38C17.94 11.33 17.95 11.28 17.97 11.23C17.99 11.15 18 11.07 18 10.99L18 6.99C18 6.91 17.99 6.83 17.97 6.75C17.95 6.7 17.94 6.65 17.92 6.6C17.89 6.55 17.87 6.5 17.84 6.45C17.8 6.39 17.75 6.34 17.7 6.28C17.65 6.23 17.59 6.19 17.53 6.15C17.49 6.12 17.44 6.09 17.38 6.07C17.34 6.05 17.29 6.03 17.24 6.02C17.16 6 17.08 5.99 17 5.99L16 5.99L16 11.99ZM11 17.14C11 17.33 11.02 17.51 11.07 17.68C11.12 17.86 11.19 18.03 11.29 18.19C11.37 18.31 11.45 18.42 11.54 18.51L14 12.79L14 5.99L6.8 5.99L5.24 12.99L10 12.99C10.13 12.99 10.26 13.02 10.38 13.07C10.5 13.11 10.6 13.19 10.7 13.28C10.8 13.38 10.87 13.49 10.92 13.61C10.97 13.73 11 13.85 11 13.99L11 17.14Z" fill="currentColor" fill-opacity="1.000000" fill-rule="evenodd"/>
</svg>
