<svg width="24.000000" height="24.000000" viewBox="0 0 24 24" fill="none" xmlns="http://www.w3.org/2000/svg" xmlns:xlink="http://www.w3.org/1999/xlink">
	<path id="vector" d="M15 6.85L15 9L18.75 9C18.91 9 19.08 9.01 19.23 9.05C19.37 9.09 19.5 9.14 19.63 9.2C19.76 9.26 19.88 9.34 19.99 9.42C20.1 9.52 20.21 9.62 20.31 9.74C20.41 9.86 20.49 9.99 20.55 10.13C20.61 10.25 20.66 10.38 20.69 10.52C20.73 10.66 20.75 10.8 20.75 10.94C20.75 11.1 20.74 11.27 20.7 11.43L19.15 18.43C19.12 18.55 19.08 18.66 19.04 18.77C19 18.87 18.94 18.97 18.89 19.06C18.83 19.15 18.76 19.24 18.69 19.32C18.62 19.41 18.53 19.48 18.44 19.56C18.35 19.63 18.26 19.69 18.16 19.75C18.07 19.8 17.97 19.84 17.86 19.88C17.76 19.92 17.66 19.94 17.55 19.96C17.43 19.98 17.31 20 17.19 20L7 20C6.78 20 6.56 19.97 6.36 19.93C6.18 19.89 6 19.83 5.83 19.76C5.65 19.69 5.49 19.6 5.34 19.5C5.17 19.39 5.02 19.26 4.87 19.12C4.73 18.97 4.6 18.82 4.49 18.65C4.39 18.5 4.3 18.34 4.23 18.16C4.16 17.99 4.1 17.81 4.06 17.63C4.02 17.43 4 17.21 4 17L4 13C4 12.78 4.02 12.56 4.06 12.36C4.1 12.18 4.16 12 4.23 11.83C4.3 11.65 4.39 11.49 4.49 11.34C4.6 11.17 4.73 11.02 4.87 10.87C5.02 10.73 5.17 10.6 5.34 10.49C5.49 10.39 5.65 10.3 5.83 10.23C6 10.16 6.18 10.1 6.36 10.06C6.56 10.02 6.78 10 7 10L8.34 10L11.08 3.6C11.14 3.48 11.24 3.32 11.34 3.24C11.43 3.15 11.55 3.09 11.68 3.05C11.81 3 11.94 2.99 12.07 2.99C12.19 3 12.32 3.04 12.44 3.1L12.78 3.27C12.96 3.36 13.13 3.46 13.28 3.57C13.43 3.67 13.57 3.78 13.7 3.9C13.83 4.02 13.96 4.15 14.07 4.29C14.19 4.43 14.3 4.59 14.4 4.75C14.5 4.91 14.58 5.07 14.66 5.24C14.73 5.41 14.79 5.57 14.84 5.75C14.89 5.92 14.93 6.09 14.95 6.27C14.98 6.46 15 6.65 15 6.85ZM8 12L7 12C6.91 12 6.83 12 6.75 12.02C6.7 12.04 6.65 12.05 6.61 12.07C6.55 12.1 6.5 12.12 6.46 12.15C6.4 12.19 6.34 12.24 6.29 12.29C6.24 12.34 6.19 12.4 6.15 12.46C6.12 12.5 6.1 12.55 6.07 12.61C6.05 12.65 6.04 12.7 6.02 12.75C6 12.83 6 12.91 6 13L6 17C6 17.08 6 17.16 6.02 17.24C6.04 17.29 6.05 17.34 6.07 17.38C6.1 17.44 6.12 17.49 6.15 17.53C6.19 17.59 6.24 17.65 6.29 17.7C6.34 17.75 6.4 17.8 6.46 17.84C6.5 17.87 6.55 17.89 6.61 17.92C6.65 17.94 6.7 17.95 6.75 17.97C6.83 17.99 6.91 18 7 18L8 18L8 12ZM13 6.85C13 6.66 12.97 6.48 12.92 6.3C12.87 6.13 12.8 5.96 12.7 5.8C12.62 5.68 12.54 5.57 12.45 5.47L10 11.2L10 18L17.19 18L18.75 11L14 11C13.86 11 13.73 10.97 13.61 10.92C13.49 10.87 13.39 10.8 13.29 10.7C13.19 10.6 13.12 10.5 13.07 10.38C13.02 10.26 13 10.13 13 10L13 6.85Z" fill="currentColor" fill-opacity="1.000000" fill-rule="evenodd"/>
</svg>
