<svg xmlns="http://www.w3.org/2000/svg" xmlns:xlink="http://www.w3.org/1999/xlink" width="24.000000" height="24.000000" viewBox="0 0 24 24" fill="none">
	<path id="vector" d="M10 4L14 4C14.56 4 15 4.43 15 5C15 5.56 14.56 6 14 6L10 6C9.43 6 9 5.56 9 5C9 4.43 9.43 4 10 4ZM12 6C8.13 6 5 9.13 5 13C5 16.86 8.13 20 12 20C15.86 20 19 16.86 19 13C19 9.13 15.86 6 12 6ZM12 8C9.23 8 7 10.23 7 13C7 15.76 9.23 18 12 18C14.76 18 17 15.76 17 13C17 10.23 14.76 8 12 8ZM13 11C13 10.44 12.55 10 12 10C11.44 10 11 10.44 11 11L11 13C11 13.55 11.44 14 12 14C12.55 14 13 13.55 13 13L13 11Z" fill="currentColor" fill-opacity="1.000000" fill-rule="evenodd"/>
</svg>