<svg width="24.000000" height="24.000000" viewBox="0 0 24 24" fill="none" xmlns="http://www.w3.org/2000/svg" xmlns:xlink="http://www.w3.org/1999/xlink">
	<desc>
			Created with Pixso.
	</desc>
	<defs/>
	<path id="vector" d="M9 6L9 5C9 4.72 9.09 4.48 9.29 4.29C9.48 4.09 9.72 4 10 4L14 4C14.27 4 14.51 4.09 14.7 4.29C14.9 4.48 15 4.72 15 5L15 6L18 6C18.56 6 19 6.44 19 7C19 7.56 18.56 8 18 8L6 8C5.44 8 5 7.56 5 7C5 6.44 5.44 6 6 6L9 6ZM18 17L18 11C18 10.72 17.9 10.48 17.7 10.29C17.51 10.09 17.27 10 17 10L7 10C6.72 10 6.48 10.09 6.29 10.29C6.09 10.48 6 10.72 6 11L6 16.99C6 17.21 6.02 17.43 6.06 17.63C6.1 17.81 6.16 17.99 6.23 18.16C6.3 18.34 6.39 18.5 6.49 18.65C6.6 18.82 6.73 18.97 6.87 19.12C7.02 19.26 7.17 19.39 7.34 19.5C7.49 19.6 7.65 19.69 7.83 19.76C8 19.83 8.18 19.89 8.36 19.93C8.56 19.97 8.78 19.99 8.99 19.99L14.99 20C15.21 20 15.43 19.97 15.63 19.93C15.81 19.89 15.99 19.83 16.16 19.76C16.34 19.69 16.5 19.6 16.65 19.5C16.82 19.39 16.97 19.26 17.12 19.12C17.26 18.97 17.39 18.82 17.5 18.65C17.6 18.5 17.69 18.34 17.76 18.16C17.83 17.99 17.89 17.81 17.93 17.63C17.97 17.43 18 17.21 18 17ZM16 12L16 17C16 17.08 15.99 17.16 15.97 17.24C15.95 17.29 15.94 17.34 15.92 17.38C15.89 17.44 15.87 17.49 15.84 17.53C15.8 17.59 15.75 17.65 15.7 17.7C15.65 17.75 15.59 17.8 15.53 17.84C15.49 17.87 15.44 17.89 15.38 17.92C15.34 17.94 15.29 17.95 15.24 17.97C15.16 17.99 15.08 18 15 18L9 17.99C8.91 17.99 8.83 17.99 8.75 17.97C8.7 17.95 8.65 17.94 8.61 17.92C8.55 17.89 8.5 17.87 8.46 17.84C8.4 17.8 8.34 17.75 8.29 17.7C8.24 17.65 8.19 17.59 8.15 17.53C8.12 17.49 8.1 17.44 8.07 17.38C8.05 17.34 8.04 17.29 8.02 17.24C8 17.16 8 17.08 8 16.99L8 12L16 12Z" fill="currentColor" fill-opacity="1.000000" fill-rule="evenodd"/>
</svg>
