<svg xmlns="http://www.w3.org/2000/svg" xmlns:xlink="http://www.w3.org/1999/xlink" width="24.000000" height="24.000000" viewBox="0 0 24 24" fill="none">
	<g>
		<path id="vector" d="M8.92 19.38C8.97 19.26 9 19.13 9 19C9 18.94 9 18.89 9 18.84L9 15C9 14.44 8.56 14 8 14C7.44 13.99 7 14.43 7 14.99L7 16.89C6.79 16.68 6.6 16.46 6.42 16.23C6.25 16.01 6.1 15.78 5.96 15.54C5.79 15.26 5.64 14.96 5.52 14.66C5.41 14.4 5.32 14.14 5.25 13.87C5.19 13.65 5.14 13.44 5.1 13.22C5.03 12.82 5 12.41 5 12C5 11.46 5.05 10.94 5.17 10.43C5.26 10.04 5.38 9.65 5.54 9.27C5.71 8.88 5.91 8.51 6.13 8.16C6.4 7.76 6.7 7.39 7.05 7.05C7.39 6.7 7.76 6.4 8.17 6.13C8.51 5.91 8.88 5.71 9.27 5.54C9.65 5.38 10.04 5.26 10.43 5.17C10.94 5.05 11.46 5 12 5C12.56 5 13 4.56 13 4C13 3.44 12.56 3 12 3C11.33 3 10.67 3.07 10.04 3.21C9.51 3.32 9 3.49 8.49 3.7C7.98 3.92 7.5 4.17 7.05 4.47C6.54 4.81 6.07 5.19 5.63 5.63C5.19 6.07 4.81 6.54 4.47 7.05C4.17 7.5 3.92 7.98 3.7 8.49C3.49 9 3.32 9.51 3.21 10.04C3.07 10.67 3 11.33 3 12C3 12.5 3.04 13 3.12 13.49C3.17 13.8 3.24 14.1 3.32 14.4C3.42 14.75 3.54 15.1 3.68 15.44C3.84 15.82 4.02 16.2 4.24 16.56C4.42 16.87 4.62 17.17 4.84 17.46C4.98 17.64 5.13 17.82 5.29 17.99L3.99 18C3.43 18 2.99 18.44 3 19C3 19.56 3.44 20 4 20L8 19.99C8.13 19.99 8.26 19.97 8.38 19.92C8.5 19.87 8.6 19.8 8.7 19.7C8.8 19.6 8.87 19.5 8.92 19.38ZM14.99 5.15L14.99 8.99C14.99 9.55 15.43 9.99 15.99 10C16.55 10 16.99 9.56 16.99 9L16.99 7.1C17.2 7.31 17.39 7.53 17.57 7.76C17.74 7.98 17.89 8.21 18.03 8.45C18.2 8.73 18.35 9.03 18.47 9.33C18.58 9.59 18.67 9.85 18.74 10.12C18.8 10.34 18.85 10.55 18.89 10.77C18.96 11.17 19 11.58 19 12C19 12.53 18.94 13.05 18.82 13.56C18.73 13.95 18.61 14.34 18.45 14.72C18.28 15.11 18.08 15.48 17.86 15.83C17.59 16.23 17.29 16.6 16.94 16.94C16.6 17.29 16.23 17.59 15.83 17.86C15.48 18.08 15.11 18.28 14.72 18.45C14.34 18.61 13.95 18.73 13.56 18.82C13.05 18.94 12.53 19 12 19C11.44 19 11 19.44 11 20C11 20.56 11.44 21 12 21C12.66 21 13.32 20.92 13.95 20.78C14.48 20.67 14.99 20.5 15.5 20.29C16.01 20.07 16.49 19.82 16.94 19.52C17.45 19.18 17.92 18.8 18.36 18.36C18.8 17.92 19.18 17.45 19.52 16.94C19.82 16.49 20.07 16.01 20.29 15.5C20.5 14.99 20.67 14.48 20.78 13.95C20.92 13.32 21 12.66 21 12C21 11.49 20.95 10.99 20.87 10.5C20.82 10.19 20.75 9.89 20.67 9.59C20.57 9.24 20.45 8.89 20.31 8.55C20.15 8.17 19.97 7.79 19.75 7.43C19.57 7.12 19.37 6.82 19.15 6.53C19.01 6.35 18.86 6.17 18.7 6L20 6C20.56 5.99 21 5.55 21 4.99C20.99 4.43 20.55 3.99 19.99 4L15.99 4C15.86 4 15.73 4.02 15.61 4.07C15.49 4.12 15.39 4.19 15.29 4.29C15.19 4.39 15.12 4.49 15.07 4.61C15.02 4.73 14.99 4.86 14.99 4.99C14.99 5.05 14.99 5.1 14.99 5.15Z" fill="currentColor" fill-opacity="1.000000" fill-rule="evenodd"/>
	</g>
</svg>