<svg width="32.000000" height="32.000000" viewBox="0 0 32 32" fill="none" xmlns="http://www.w3.org/2000/svg" xmlns:xlink="http://www.w3.org/1999/xlink">
	<rect id="upload" width="32.000000" height="32.000000" fill="currentColor" fill-opacity="0"/>
	<path id="Vector" d="M7.18 12.15C8.28 8.22 11.88 5.33 16.16 5.33C21.31 5.33 25.5 9.51 25.5 14.66L25.5 14.71C28.45 15.08 30.74 17.61 30.74 20.66C30.74 23.97 28.05 26.66 24.74 26.66L21.33 26.66C20.59 26.66 20 26.06 20 25.33C20 24.59 20.59 24 21.33 24L24.74 24C26.58 24 28.08 22.5 28.08 20.66C28.08 18.83 26.58 17.33 24.74 17.33L24.16 17.33C23.43 17.33 22.83 16.73 22.83 16L22.83 14.66C22.83 10.98 19.84 8 16.16 8C12.86 8 10.11 10.41 9.59 13.58C9.49 14.19 8.97 14.66 8.35 14.69C5.87 14.82 3.92 16.84 3.92 19.33C3.92 21.91 6 24 8.58 24L10.66 24C11.4 24 12 24.59 12 25.33C12 26.06 11.4 26.66 10.66 26.66L8.58 26.66C4.53 26.66 1.25 23.38 1.25 19.33C1.25 15.75 3.81 12.8 7.18 12.15ZM16.94 14.83C16.42 14.31 15.57 14.31 15.05 14.83L12.16 17.72C11.64 18.24 11.64 19.08 12.16 19.6C12.68 20.13 13.53 20.13 14.05 19.6L14.66 18.99L14.66 25.33C14.66 26.06 15.26 26.66 16 26.66C16.73 26.66 17.33 26.06 17.33 25.33L17.33 18.99L17.94 19.6C18.46 20.13 19.31 20.13 19.83 19.6C20.35 19.08 20.35 18.24 19.83 17.72L16.94 14.83Z" fill="currentColor" fill-opacity="1.000000" fill-rule="evenodd"/>
</svg>
