<svg xmlns="http://www.w3.org/2000/svg" xmlns:xlink="http://www.w3.org/1999/xlink" width="24.000000" height="24.000000" viewBox="0 0 24 24" fill="none">
	<g>
		<path id="vector" d="M7.92 13.88C7.63 13.81 7.34 13.72 7.05 13.6C6.77 13.48 6.5 13.34 6.25 13.17C5.97 12.99 5.71 12.77 5.46 12.53C5.22 12.29 5.01 12.03 4.82 11.75C4.66 11.49 4.51 11.23 4.39 10.94C4.27 10.66 4.18 10.37 4.12 10.07C4.04 9.72 4 9.36 4 9C4 8.63 4.04 8.27 4.12 7.92C4.18 7.62 4.27 7.33 4.39 7.05C4.51 6.76 4.66 6.5 4.82 6.24C5.01 5.96 5.22 5.7 5.46 5.46C5.71 5.22 5.97 5 6.25 4.82C6.5 4.65 6.77 4.51 7.05 4.39C7.34 4.27 7.63 4.18 7.92 4.11C8.27 4.03 8.63 4 9 4C9.37 4 9.73 4.03 10.08 4.11C10.37 4.18 10.66 4.27 10.95 4.39C11.23 4.51 11.5 4.65 11.75 4.82C12.03 5 12.29 5.22 12.54 5.46C12.78 5.7 12.99 5.96 13.17 6.24C13.34 6.5 13.49 6.76 13.61 7.05C13.73 7.33 13.82 7.62 13.88 7.92C13.96 8.27 14 8.63 14 9C14 9.36 13.96 9.72 13.88 10.07C13.82 10.37 13.73 10.66 13.61 10.94C13.49 11.23 13.34 11.49 13.17 11.75C12.99 12.03 12.78 12.29 12.54 12.53C12.29 12.77 12.03 12.99 11.75 13.17C11.5 13.34 11.23 13.48 10.95 13.6C10.66 13.72 10.37 13.81 10.08 13.88C9.73 13.96 9.37 14 9 14C8.63 14 8.27 13.96 7.92 13.88ZM9.68 11.92C9.85 11.88 10.01 11.83 10.17 11.76C10.33 11.69 10.49 11.61 10.64 11.51C10.81 11.4 10.97 11.27 11.12 11.12C11.27 10.97 11.4 10.8 11.52 10.63C11.61 10.48 11.69 10.33 11.76 10.16C11.83 10 11.88 9.84 11.92 9.68C11.97 9.45 12 9.23 12 9C12 8.76 11.97 8.54 11.92 8.31C11.88 8.15 11.83 7.99 11.76 7.83C11.69 7.66 11.61 7.51 11.52 7.36C11.4 7.19 11.27 7.02 11.12 6.87C10.97 6.72 10.81 6.59 10.64 6.48C10.49 6.38 10.33 6.3 10.17 6.23C10.01 6.16 9.85 6.11 9.68 6.07C9.46 6.02 9.23 6 9 6C8.77 6 8.54 6.02 8.32 6.07C8.15 6.11 7.99 6.16 7.83 6.23C7.67 6.3 7.51 6.38 7.36 6.48C7.19 6.59 7.03 6.72 6.88 6.87C6.73 7.02 6.6 7.19 6.48 7.36C6.39 7.51 6.3 7.66 6.23 7.83C6.17 7.99 6.11 8.15 6.08 8.31C6.03 8.54 6 8.76 6 9C6 9.23 6.03 9.45 6.08 9.68C6.11 9.84 6.17 10 6.23 10.16C6.3 10.33 6.39 10.48 6.48 10.63C6.6 10.8 6.73 10.97 6.88 11.12C7.03 11.27 7.19 11.4 7.36 11.51C7.51 11.61 7.67 11.69 7.83 11.76C7.99 11.83 8.15 11.88 8.32 11.92C8.54 11.97 8.77 12 9 12C9.23 12 9.46 11.97 9.68 11.92ZM20 9C20 8.43 19.56 8 19 8C18.44 8 18 8.43 18 9L18 11L16 11C15.44 11 15 11.43 15 12C15 12.56 15.44 13 16 13L18 13L18 15C18 15.56 18.44 16 19 16C19.56 16 20 15.56 20 15L20 13L22 13C22.56 13 23 12.56 23 12C23 11.43 22.56 11 22 11L20 11L20 9ZM3.39 16.59C2.63 17.06 1.92 17.63 1.28 18.3C0.89 18.7 0.9 19.32 1.3 19.71C1.71 20.1 2.33 20.09 2.72 19.69C3.27 19.12 3.87 18.64 4.52 18.25C4.89 18.03 5.27 17.83 5.66 17.67C6.2 17.44 6.75 17.27 7.31 17.16C7.86 17.05 8.42 17 9 17C9.57 17 10.14 17.05 10.69 17.16C11.25 17.27 11.8 17.44 12.34 17.67C12.73 17.83 13.11 18.03 13.48 18.25C14.13 18.64 14.73 19.12 15.28 19.69C15.67 20.09 16.29 20.1 16.69 19.71C17.1 19.32 17.11 18.7 16.72 18.3C16.07 17.63 15.37 17.06 14.61 16.59C14.13 16.3 13.63 16.04 13.11 15.82C12.45 15.55 11.78 15.34 11.09 15.2C10.4 15.06 9.71 15 9 15C8.29 15 7.59 15.06 6.91 15.2C6.22 15.34 5.55 15.55 4.89 15.82C4.37 16.04 3.87 16.3 3.39 16.59Z" fill="currentColor" fill-opacity="1.000000" fill-rule="evenodd"/>
	</g>
</svg>