<svg width="24.000000" height="24.000000" viewBox="0 0 24 24" fill="none" xmlns="http://www.w3.org/2000/svg" xmlns:xlink="http://www.w3.org/1999/xlink">
	<defs>
		<clipPath id="clip239_1714">
			<rect id="interface / users" width="24.000000" height="24.000000" fill="white" fill-opacity="0"/>
		</clipPath>
	</defs>
	<g clip-path="url(#clip239_1714)">
		<path id="vector" d="M9 13C8.7 13 8.42 12.96 8.14 12.9C7.9 12.85 7.67 12.78 7.44 12.68C7.21 12.58 6.99 12.47 6.79 12.33C6.57 12.19 6.36 12.02 6.17 11.82C5.97 11.63 5.8 11.42 5.66 11.2C5.52 11 5.41 10.78 5.31 10.55C5.21 10.32 5.14 10.09 5.09 9.85C5.03 9.57 5 9.29 5 9C5 8.7 5.03 8.42 5.09 8.14C5.14 7.9 5.21 7.67 5.31 7.44C5.41 7.21 5.52 6.99 5.66 6.79C5.8 6.57 5.97 6.36 6.17 6.17C6.36 5.97 6.57 5.8 6.79 5.66C6.99 5.52 7.21 5.41 7.44 5.31C7.67 5.21 7.9 5.14 8.14 5.09C8.42 5.03 8.7 5 9 5C9.29 5 9.57 5.03 9.85 5.09C10.09 5.14 10.32 5.21 10.55 5.31C10.78 5.41 11 5.52 11.2 5.66C11.42 5.8 11.63 5.97 11.82 6.17C12.02 6.36 12.19 6.57 12.33 6.79C12.47 6.99 12.58 7.21 12.68 7.44C12.78 7.67 12.85 7.9 12.9 8.14C12.96 8.42 13 8.7 13 9C13 9.29 12.96 9.57 12.9 9.85C12.85 10.09 12.78 10.32 12.68 10.55C12.58 10.78 12.47 11 12.33 11.2C12.19 11.42 12.02 11.63 11.82 11.82C11.63 12.02 11.42 12.19 11.2 12.33C11 12.47 10.78 12.58 10.55 12.68C10.32 12.78 10.09 12.85 9.85 12.9C9.57 12.96 9.29 13 9 13ZM15 5C15.29 5 15.57 5.03 15.85 5.09C16.09 5.14 16.32 5.21 16.55 5.31C16.78 5.41 17 5.52 17.2 5.66C17.42 5.8 17.63 5.97 17.82 6.17C18.02 6.36 18.19 6.57 18.33 6.79C18.47 6.99 18.58 7.21 18.68 7.44C18.78 7.67 18.85 7.9 18.9 8.14C18.96 8.42 19 8.7 19 9C19 9.29 18.96 9.57 18.9 9.85C18.85 10.09 18.78 10.32 18.68 10.55C18.58 10.78 18.47 11 18.33 11.2C18.19 11.42 18.02 11.63 17.82 11.82C17.63 12.02 17.42 12.19 17.2 12.33C17 12.47 16.78 12.58 16.55 12.68C16.32 12.78 16.09 12.85 15.85 12.9C15.57 12.96 15.29 13 15 13C14.44 13 14 12.56 14 12C14 11.44 14.44 11 15 11C15.15 11 15.31 10.98 15.46 10.94C15.56 10.92 15.67 10.88 15.77 10.84C15.88 10.79 15.98 10.74 16.08 10.67C16.2 10.6 16.31 10.51 16.41 10.41C16.51 10.31 16.6 10.2 16.67 10.08C16.74 9.98 16.79 9.88 16.84 9.77C16.88 9.67 16.92 9.56 16.94 9.46C16.98 9.31 17 9.15 17 9C17 8.84 16.98 8.68 16.94 8.53C16.92 8.43 16.88 8.32 16.84 8.22C16.79 8.11 16.74 8.01 16.67 7.91C16.6 7.79 16.51 7.68 16.41 7.58C16.31 7.48 16.2 7.39 16.08 7.32C15.98 7.25 15.88 7.2 15.77 7.15C15.67 7.11 15.56 7.07 15.46 7.05C15.31 7.01 15.15 7 15 7C14.44 7 14 6.56 14 6C14 5.44 14.44 5 15 5ZM9.46 10.94C9.56 10.92 9.67 10.88 9.77 10.84C9.88 10.79 9.98 10.74 10.08 10.67C10.2 10.6 10.31 10.51 10.41 10.41C10.51 10.31 10.6 10.2 10.67 10.08C10.74 9.98 10.79 9.88 10.84 9.77C10.88 9.67 10.92 9.56 10.94 9.46C10.98 9.31 11 9.15 11 9C11 8.84 10.98 8.68 10.94 8.53C10.92 8.43 10.88 8.32 10.84 8.22C10.79 8.11 10.74 8.01 10.67 7.91C10.6 7.79 10.51 7.68 10.41 7.58C10.31 7.48 10.2 7.39 10.08 7.32C9.98 7.25 9.88 7.2 9.77 7.15C9.67 7.11 9.56 7.07 9.46 7.05C9.31 7.01 9.15 7 9 7C8.84 7 8.68 7.01 8.53 7.05C8.43 7.07 8.32 7.11 8.22 7.15C8.11 7.2 8.01 7.25 7.91 7.32C7.79 7.39 7.68 7.48 7.58 7.58C7.48 7.68 7.39 7.79 7.32 7.91C7.25 8.01 7.2 8.11 7.15 8.22C7.11 8.32 7.07 8.43 7.05 8.53C7.01 8.68 7 8.84 7 9C7 9.15 7.01 9.31 7.05 9.46C7.07 9.56 7.11 9.67 7.15 9.77C7.2 9.88 7.25 9.98 7.32 10.08C7.39 10.2 7.48 10.31 7.58 10.41C7.68 10.51 7.79 10.6 7.91 10.67C8.01 10.74 8.11 10.79 8.22 10.84C8.32 10.88 8.43 10.92 8.53 10.94C8.68 10.98 8.84 11 9 11C9.15 11 9.31 10.98 9.46 10.94ZM4.49 16.33C4.95 16.02 5.44 15.77 5.97 15.56C6.4 15.4 6.83 15.27 7.27 15.17C7.83 15.05 8.41 15 9 15C9.58 15 10.16 15.05 10.72 15.17C11.16 15.27 11.59 15.4 12.02 15.56C12.55 15.77 13.04 16.02 13.5 16.33C13.92 16.6 14.32 16.92 14.69 17.28C15.09 17.66 15.1 18.29 14.71 18.69C14.33 19.09 13.7 19.1 13.3 18.71C13.03 18.45 12.73 18.21 12.42 18.01C12.07 17.78 11.69 17.58 11.29 17.43C10.98 17.31 10.67 17.21 10.35 17.14C9.91 17.04 9.46 17 9 17C8.53 17 8.08 17.04 7.64 17.14C7.32 17.21 7.01 17.31 6.7 17.43C6.3 17.58 5.92 17.78 5.57 18.01C5.26 18.21 4.96 18.45 4.69 18.71C4.29 19.1 3.66 19.09 3.28 18.69C2.89 18.29 2.9 17.66 3.3 17.28C3.67 16.92 4.07 16.6 4.49 16.33ZM16 15C16.34 15 16.69 15.03 17.03 15.09C17.55 15.18 18.06 15.35 18.56 15.6C18.67 15.65 18.77 15.7 18.87 15.76C19.58 16.15 20.21 16.69 20.77 17.36C21.12 17.79 21.06 18.41 20.63 18.77C20.2 19.12 19.58 19.06 19.22 18.63C18.77 18.09 18.26 17.68 17.68 17.39C17.32 17.22 16.95 17.1 16.58 17.04C16.38 17.01 16.19 17 16 17C15.44 17 15 16.56 15 16C15 15.44 15.44 15 16 15Z" fill="currentColor" fill-opacity="1.000000" fill-rule="evenodd"/>
	</g>
</svg>
