<svg xmlns="http://www.w3.org/2000/svg" xmlns:xlink="http://www.w3.org/1999/xlink" width="24.000000" height="24.000000" viewBox="0 0 24 24" fill="none">
	<g clip-path="url(#clip239_1713)">
		<path id="vector" d="M12 14C11.63 14 11.27 13.96 10.92 13.88C10.62 13.81 10.33 13.72 10.05 13.6C9.76 13.48 9.5 13.34 9.24 13.17C8.96 12.99 8.7 12.77 8.46 12.53C8.22 12.29 8 12.03 7.82 11.75C7.65 11.49 7.51 11.23 7.39 10.94C7.27 10.66 7.18 10.37 7.11 10.07C7.03 9.72 7 9.36 7 9C7 8.63 7.03 8.27 7.11 7.92C7.18 7.62 7.27 7.33 7.39 7.05C7.51 6.76 7.65 6.5 7.82 6.24C8 5.96 8.22 5.7 8.46 5.46C8.7 5.22 8.96 5 9.24 4.82C9.5 4.65 9.76 4.51 10.05 4.39C10.33 4.27 10.62 4.18 10.92 4.11C11.27 4.03 11.63 4 12 4C12.36 4 12.72 4.03 13.07 4.11C13.37 4.18 13.66 4.27 13.94 4.39C14.23 4.51 14.49 4.65 14.75 4.82C15.03 5 15.29 5.22 15.53 5.46C15.77 5.7 15.99 5.96 16.17 6.24C16.34 6.5 16.48 6.76 16.6 7.05C16.72 7.33 16.81 7.62 16.88 7.92C16.96 8.27 17 8.63 17 9C17 9.36 16.96 9.72 16.88 10.07C16.81 10.37 16.72 10.66 16.6 10.94C16.48 11.23 16.34 11.49 16.17 11.75C15.99 12.03 15.77 12.29 15.53 12.53C15.29 12.77 15.03 12.99 14.75 13.17C14.49 13.34 14.23 13.48 13.94 13.6C13.66 13.72 13.37 13.81 13.07 13.88C12.72 13.96 12.36 14 12 14ZM12.68 11.92C12.84 11.88 13 11.83 13.16 11.76C13.33 11.69 13.48 11.61 13.63 11.51C13.8 11.4 13.97 11.27 14.12 11.12C14.27 10.97 14.4 10.8 14.51 10.63C14.61 10.48 14.69 10.33 14.76 10.16C14.83 10 14.88 9.84 14.92 9.68C14.97 9.45 15 9.23 15 9C15 8.76 14.97 8.54 14.92 8.31C14.88 8.15 14.83 7.99 14.76 7.83C14.69 7.66 14.61 7.51 14.51 7.36C14.4 7.19 14.27 7.02 14.12 6.87C13.97 6.72 13.8 6.59 13.63 6.48C13.48 6.38 13.33 6.3 13.16 6.23C13 6.16 12.84 6.11 12.68 6.07C12.45 6.02 12.23 6 12 6C11.76 6 11.54 6.02 11.31 6.07C11.15 6.11 10.99 6.16 10.83 6.23C10.66 6.3 10.51 6.38 10.36 6.48C10.19 6.59 10.02 6.72 9.87 6.87C9.72 7.02 9.59 7.19 9.48 7.36C9.38 7.51 9.3 7.66 9.23 7.83C9.16 7.99 9.11 8.15 9.07 8.31C9.02 8.54 9 8.76 9 9C9 9.23 9.02 9.45 9.07 9.68C9.11 9.84 9.16 10 9.23 10.16C9.3 10.33 9.38 10.48 9.48 10.63C9.59 10.8 9.72 10.97 9.87 11.12C10.02 11.27 10.19 11.4 10.36 11.51C10.51 11.61 10.66 11.69 10.83 11.76C10.99 11.83 11.15 11.88 11.31 11.92C11.54 11.97 11.76 12 12 12C12.23 12 12.45 11.97 12.68 11.92ZM6.39 16.59C5.62 17.06 4.92 17.63 4.28 18.3C3.89 18.7 3.9 19.32 4.3 19.71C4.7 20.1 5.32 20.09 5.71 19.69C6.26 19.12 6.86 18.64 7.52 18.25C7.88 18.03 8.26 17.83 8.66 17.67C9.19 17.44 9.74 17.27 10.3 17.16C10.86 17.05 11.42 17 12 17C12.57 17 13.13 17.05 13.69 17.16C14.25 17.27 14.8 17.44 15.33 17.67C15.73 17.83 16.11 18.03 16.47 18.25C17.13 18.64 17.73 19.12 18.28 19.69C18.67 20.09 19.29 20.1 19.69 19.71C20.09 19.32 20.1 18.7 19.71 18.3C19.07 17.63 18.37 17.06 17.6 16.59C17.13 16.3 16.63 16.04 16.11 15.82C15.45 15.55 14.77 15.34 14.08 15.2C13.4 15.06 12.7 15 12 15C11.29 15 10.59 15.06 9.91 15.2C9.22 15.34 8.54 15.55 7.88 15.82C7.36 16.04 6.86 16.3 6.39 16.59Z" fill="currentColor" fill-opacity="1.000000" fill-rule="evenodd"/>
	</g>
</svg>