<svg width="24.000000" height="24.000000" viewBox="0 0 24 24" fill="none" xmlns="http://www.w3.org/2000/svg" xmlns:xlink="http://www.w3.org/1999/xlink">
	<defs>
		<clipPath id="clip1671_1592">
			<rect id="user-swap" width="24.000000" height="24.000000" fill="white" fill-opacity="0"/>
		</clipPath>
	</defs>
	<rect id="user-swap" width="24.000000" height="24.000000" fill="#FFFFFF" fill-opacity="0"/>
	<g clip-path="url(#clip1671_1592)">
		<path id="Union" d="M6.84192 9.77838C7.02246 10.0487 7.2301 10.3011 7.46448 10.5355C7.69885 10.77 7.95129 10.9775 8.22156 11.1581C8.49194 11.3387 8.78027 11.4926 9.08655 11.6194C9.39282 11.7463 9.70544 11.8414 10.0244 11.9048C10.3433 11.9683 10.6685 12 11 12C11.3315 12 11.6567 11.9683 11.9756 11.9048C12.2946 11.8414 12.6072 11.7463 12.9135 11.6194C13.2197 11.4926 13.5081 11.3388 13.7783 11.1581C14.0487 10.9775 14.3011 10.77 14.5355 10.5355C14.77 10.3011 14.9775 10.0487 15.1582 9.77832C15.3387 9.508 15.4926 9.21967 15.6194 8.91339C15.7462 8.60712 15.8414 8.29456 15.9049 7.97565C15.9683 7.65674 16 7.33154 16 7C16 6.66846 15.9683 6.34326 15.9049 6.02435C15.8414 5.70544 15.7462 5.39288 15.6194 5.08661C15.4926 4.78033 15.3387 4.492 15.1582 4.22168C14.9775 3.95129 14.77 3.69891 14.5355 3.46448C14.3011 3.23004 14.0487 3.02252 13.7784 2.84192C13.5081 2.66125 13.2197 2.50745 12.9135 2.38062C12.6072 2.25372 12.2946 2.15857 11.9756 2.09515C11.6567 2.03174 11.3315 2 11 2C10.6685 2 10.3433 2.03174 10.0244 2.09515C9.70544 2.15857 9.39282 2.25372 9.08655 2.38062C8.78027 2.50745 8.49194 2.66125 8.22168 2.84186C7.95129 3.02252 7.69885 3.23004 7.46448 3.46448C7.2301 3.69891 7.02246 3.95129 6.84192 4.22162C6.66125 4.49194 6.50745 4.78027 6.38062 5.08661C6.25378 5.39288 6.15857 5.70544 6.09509 6.02435C6.03174 6.34326 6 6.66846 6 7C6 7.33154 6.03174 7.65674 6.09509 7.97565C6.15857 8.29456 6.25378 8.60712 6.38062 8.91339C6.50745 9.21973 6.66125 9.508 6.84192 9.77838ZM9.33301 9.49487C9.17078 9.38647 9.01929 9.26196 8.87866 9.12134C8.73804 8.98065 8.61353 8.82922 8.50513 8.66705C8.39673 8.50482 8.30444 8.33185 8.22839 8.14807C8.15222 7.96429 8.09509 7.77673 8.05713 7.58539C8.01904 7.39404 8 7.19891 8 7C8 6.80109 8.01904 6.60596 8.05713 6.41461C8.09509 6.22327 8.15222 6.03571 8.22839 5.85193C8.30444 5.66815 8.39673 5.49518 8.50513 5.33301C8.61353 5.17078 8.73804 5.01935 8.87866 4.87866C9.01929 4.73804 9.17078 4.61353 9.33301 4.50513C9.49524 4.39673 9.66821 4.3045 9.85193 4.22833C10.0358 4.15222 10.2233 4.09515 10.4147 4.05707C10.606 4.01904 10.8011 4 11 4C11.1989 4 11.394 4.01904 11.5853 4.05707C11.7767 4.09515 11.9642 4.15222 12.1481 4.22833C12.3318 4.3045 12.5048 4.39673 12.667 4.50513C12.8292 4.61353 12.9807 4.73804 13.1213 4.87866C13.262 5.01935 13.3865 5.17078 13.4949 5.33301C13.6033 5.49518 13.6956 5.66815 13.7716 5.85193C13.8478 6.03571 13.9049 6.22327 13.9429 6.41461C13.981 6.60596 14 6.80109 14 7C14 7.19891 13.981 7.39404 13.9429 7.58539C13.9049 7.77673 13.8478 7.96429 13.7716 8.14807C13.6956 8.33179 13.6033 8.50482 13.4949 8.66699C13.3865 8.82922 13.262 8.98065 13.1213 9.12134C12.9807 9.26196 12.8292 9.38647 12.667 9.49487C12.5048 9.60327 12.3318 9.6955 12.1481 9.77167C11.9642 9.84778 11.7767 9.90485 11.5854 9.94293C11.394 9.98096 11.199 10 11 10C10.8011 10 10.606 9.98096 10.4147 9.94293C10.2233 9.90485 10.0358 9.84778 9.85193 9.77167C9.66821 9.6955 9.49524 9.60327 9.33301 9.49487ZM4 19L4 21C4 21.56 4.43994 22 5 22C5.56006 22 6 21.56 6 21L6 19C6 18.8011 6.01904 18.606 6.05713 18.4146C6.09521 18.2233 6.15222 18.0357 6.22839 17.8519C6.30444 17.6682 6.39673 17.4952 6.50513 17.3329C6.61353 17.1708 6.73804 17.0193 6.87866 16.8787C7.01929 16.738 7.17078 16.6135 7.33301 16.5051C7.49512 16.3967 7.66821 16.3045 7.85193 16.2283C8.03577 16.1522 8.22327 16.0952 8.41467 16.0571C8.60596 16.019 8.80115 16 9 16L13 16C13.5601 16 14 15.56 14 15C14 14.44 13.5601 14 13 14L9 14C8.66846 14 8.34326 14.0317 8.02441 14.0952C7.70544 14.1586 7.39282 14.2537 7.08655 14.3806C6.78027 14.5074 6.49194 14.6613 6.22168 14.8419C5.95129 15.0225 5.69885 15.23 5.46448 15.4645C5.2301 15.6989 5.02246 15.9513 4.84192 16.2216C4.66125 16.492 4.50745 16.7803 4.38062 17.0866C4.25378 17.3929 4.15857 17.7054 4.09509 18.0244C4.03174 18.3433 4 18.6685 4 19ZM15.9757 21.4611C15.9919 21.4218 16.0001 21.3793 16.0001 21.3334C16.0015 21.3165 16.0015 21.2996 16.0001 21.2828L16.0002 20C16.0002 19.8134 15.8536 19.6667 15.6669 19.6667C15.4802 19.6666 15.3336 19.8133 15.3336 20L15.3335 20.6332C15.2648 20.5631 15.2009 20.4893 15.142 20.4117C15.0864 20.3387 15.0352 20.2625 14.9883 20.1829C14.9319 20.0873 14.8828 19.9887 14.8411 19.8871C14.8058 19.8014 14.7758 19.7136 14.7509 19.6237C14.7312 19.5527 14.7151 19.4813 14.7023 19.4091C14.6786 19.2748 14.6666 19.1385 14.6666 19C14.6666 18.8223 14.6859 18.6489 14.7244 18.48C14.7545 18.3479 14.7963 18.2186 14.8499 18.0919C14.9048 17.9622 14.9701 17.8393 15.046 17.7233C15.1334 17.5898 15.2347 17.4654 15.3501 17.3501C15.4653 17.2348 15.5898 17.1334 15.7234 17.046C15.8394 16.9702 15.9622 16.9048 16.0919 16.8499C16.2185 16.7963 16.3479 16.7545 16.48 16.7244C16.6489 16.6859 16.8223 16.6667 17 16.6667C17.1866 16.6667 17.3334 16.52 17.3334 16.3333C17.3334 16.1467 17.1866 16 17 16C16.7772 16 16.5597 16.0236 16.3474 16.0707C16.1721 16.1097 16.0004 16.1647 15.8322 16.2359C15.6625 16.3076 15.5021 16.3933 15.3508 16.493C15.182 16.6042 15.0247 16.7327 14.8787 16.8787C14.7328 17.0246 14.6041 17.182 14.4929 17.3508C14.3933 17.5021 14.3076 17.6625 14.2358 17.8322C14.1648 18.0004 14.1097 18.1721 14.0708 18.3474C14.0236 18.5597 14 18.7772 14 19C14 19.1686 14.0138 19.335 14.0413 19.499C14.0583 19.6006 14.0807 19.7014 14.1083 19.8013C14.141 19.9196 14.1807 20.035 14.2273 20.1475C14.2804 20.2759 14.3427 20.4006 14.4139 20.5215C14.4755 20.6257 14.5426 20.7256 14.6156 20.821L14.6157 20.8211C14.6626 20.8826 14.712 20.9421 14.7638 20.9999L14.3333 21C14.1466 21 14 21.1467 14 21.3334C14 21.52 14.1467 21.6667 14.3334 21.6667L15.6669 21.6665C15.7129 21.6665 15.7555 21.6583 15.7948 21.6421C15.8341 21.6258 15.87 21.6014 15.9025 21.5688C15.9351 21.5363 15.9595 21.5003 15.9757 21.4611ZM17.9999 16.7172L17.9998 18C17.9998 18.1866 18.1464 18.3333 18.3331 18.3333C18.5198 18.3334 18.6664 18.1867 18.6664 18L18.6665 17.3668C18.7352 17.4369 18.7991 17.5107 18.858 17.5883C18.9136 17.6613 18.9648 17.7375 19.0117 17.8171C19.0681 17.9127 19.1172 18.0113 19.1589 18.1129C19.1942 18.1986 19.2242 18.2864 19.2491 18.3763C19.2688 18.4473 19.2849 18.5187 19.2977 18.5909C19.3214 18.7252 19.3334 18.8615 19.3334 19C19.3334 19.1777 19.3141 19.3511 19.2756 19.52C19.2455 19.6521 19.2037 19.7814 19.1501 19.9081C19.0952 20.0378 19.0299 20.1607 18.954 20.2767C18.8666 20.4102 18.7653 20.5346 18.6499 20.6499C18.5347 20.7652 18.4102 20.8666 18.2766 20.954C18.1606 21.0298 18.0378 21.0952 17.9081 21.1501C17.7815 21.2037 17.6521 21.2455 17.52 21.2756C17.3511 21.3141 17.1777 21.3333 17 21.3333C16.8134 21.3333 16.6666 21.48 16.6666 21.6667C16.6666 21.8533 16.8134 22 17 22C17.2228 22 17.4403 21.9764 17.6526 21.9293C17.8279 21.8903 17.9996 21.8353 18.1678 21.7641C18.3375 21.6924 18.4979 21.6067 18.6492 21.507C18.818 21.3958 18.9753 21.2673 19.1213 21.1213C19.2672 20.9754 19.3959 20.818 19.5071 20.6492C19.6067 20.4979 19.6924 20.3375 19.7642 20.1678C19.8352 19.9996 19.8903 19.8279 19.9292 19.6526C19.9764 19.4403 20 19.2228 20 19C20 18.8314 19.9862 18.665 19.9587 18.501C19.9417 18.3994 19.9193 18.2986 19.8917 18.1987C19.859 18.0804 19.8193 17.965 19.7727 17.8525C19.7196 17.7241 19.6573 17.5995 19.5861 17.4785C19.5245 17.3743 19.4574 17.2744 19.3844 17.179C19.3374 17.1175 19.288 17.0579 19.2362 17.0001L19.6667 17C19.8534 17 20 16.8533 20 16.6666C20 16.48 19.8533 16.3333 19.6666 16.3333L18.3331 16.3335C18.2871 16.3335 18.2445 16.3417 18.2052 16.3579L18.2052 16.358C18.1659 16.3742 18.13 16.3986 18.0975 16.4312C18.0649 16.4637 18.0405 16.4996 18.0243 16.5389L18.0243 16.5389C18.0081 16.5781 17.9999 16.6207 17.9999 16.6666C17.9985 16.6835 17.9985 16.7004 17.9999 16.7172Z" clip-rule="evenodd" fill="currentColor" fill-opacity="1.000000" fill-rule="evenodd"/>
	</g>
</svg>
