<svg xmlns="http://www.w3.org/2000/svg" xmlns:xlink="http://www.w3.org/1999/xlink" width="24.000000" height="24.000000" viewBox="0 0 24 24" fill="none">
	<path id="vector" d="M9 3C9.14 3 9.28 3.01 9.41 3.04C9.54 3.06 9.66 3.1 9.77 3.15C9.89 3.2 10 3.26 10.1 3.33C10.21 3.4 10.31 3.49 10.41 3.58C10.5 3.68 10.59 3.78 10.66 3.89C10.73 3.99 10.79 4.1 10.84 4.22C10.89 4.33 10.93 4.45 10.95 4.58C10.98 4.71 11 4.85 11 5L11 9C11 9.14 10.98 9.28 10.95 9.41C10.93 9.54 10.89 9.66 10.84 9.77C10.79 9.89 10.73 10 10.66 10.1C10.59 10.21 10.5 10.31 10.41 10.41C10.31 10.5 10.21 10.59 10.1 10.66C10 10.73 9.89 10.79 9.77 10.84C9.66 10.89 9.54 10.93 9.41 10.95C9.28 10.98 9.14 11 9 11L5 11C4.85 11 4.71 10.98 4.58 10.95C4.45 10.93 4.33 10.89 4.22 10.84C4.1 10.79 3.99 10.73 3.89 10.66C3.78 10.59 3.68 10.5 3.58 10.41C3.49 10.31 3.4 10.21 3.33 10.1C3.26 10 3.2 9.89 3.15 9.77C3.1 9.66 3.06 9.54 3.04 9.41C3.01 9.28 3 9.14 3 9L3 5C3 4.85 3.01 4.71 3.04 4.58C3.06 4.45 3.1 4.33 3.15 4.22C3.2 4.1 3.26 3.99 3.33 3.89C3.4 3.78 3.49 3.68 3.58 3.58C3.68 3.49 3.78 3.4 3.89 3.33C3.99 3.26 4.1 3.2 4.22 3.15C4.33 3.1 4.45 3.06 4.58 3.04C4.71 3.01 4.85 3 5 3L9 3ZM19.41 3.04C19.28 3.01 19.14 3 19 3L15 3C14.85 3 14.71 3.01 14.58 3.04C14.45 3.06 14.33 3.1 14.22 3.15C14.1 3.2 13.99 3.26 13.89 3.33C13.78 3.4 13.68 3.49 13.58 3.58C13.49 3.68 13.4 3.78 13.33 3.89C13.26 3.99 13.2 4.1 13.15 4.22C13.1 4.33 13.06 4.45 13.04 4.58C13.01 4.71 13 4.85 13 5L13 9C13 9.14 13.01 9.28 13.04 9.41C13.06 9.54 13.1 9.66 13.15 9.77C13.2 9.89 13.26 10 13.33 10.1C13.4 10.21 13.49 10.31 13.58 10.41C13.68 10.5 13.78 10.59 13.89 10.66C13.99 10.73 14.1 10.79 14.22 10.84C14.33 10.89 14.45 10.93 14.58 10.95C14.71 10.98 14.85 11 15 11L19 11C19.14 11 19.28 10.98 19.41 10.95C19.54 10.93 19.66 10.89 19.77 10.84C19.89 10.79 20 10.73 20.1 10.66C20.21 10.59 20.31 10.5 20.41 10.41C20.5 10.31 20.59 10.21 20.66 10.1C20.73 10 20.79 9.89 20.84 9.77C20.89 9.66 20.93 9.54 20.95 9.41C20.98 9.28 21 9.14 21 9L21 5C21 4.85 20.98 4.71 20.95 4.58C20.93 4.45 20.89 4.33 20.84 4.22C20.79 4.1 20.73 3.99 20.66 3.89C20.59 3.78 20.5 3.68 20.41 3.58C20.31 3.49 20.21 3.4 20.1 3.33C20 3.26 19.89 3.2 19.77 3.15C19.66 3.1 19.54 3.06 19.41 3.04ZM9 5L5 5L5 9L9 9L9 5ZM15 5L19 5L19 9L15 9L15 5ZM9 13C9.14 13 9.28 13.01 9.41 13.04C9.54 13.06 9.66 13.1 9.77 13.15C9.89 13.2 10 13.26 10.1 13.33C10.21 13.4 10.31 13.49 10.41 13.58C10.5 13.68 10.59 13.78 10.66 13.89C10.73 13.99 10.79 14.1 10.84 14.22C10.89 14.33 10.93 14.45 10.95 14.58C10.98 14.71 11 14.85 11 15L11 19C11 19.14 10.98 19.28 10.95 19.41C10.93 19.54 10.89 19.66 10.84 19.77C10.79 19.89 10.73 20 10.66 20.1C10.59 20.21 10.5 20.31 10.41 20.41C10.31 20.5 10.21 20.59 10.1 20.66C10 20.73 9.89 20.79 9.77 20.84C9.66 20.89 9.54 20.93 9.41 20.95C9.28 20.98 9.14 21 9 21L5 21C4.85 21 4.71 20.98 4.58 20.95C4.45 20.93 4.33 20.89 4.22 20.84C4.1 20.79 3.99 20.73 3.89 20.66C3.78 20.59 3.68 20.5 3.58 20.41C3.49 20.31 3.4 20.21 3.33 20.1C3.26 20 3.2 19.89 3.15 19.77C3.1 19.66 3.06 19.54 3.04 19.41C3.01 19.28 3 19.14 3 19L3 15C3 14.85 3.01 14.71 3.04 14.58C3.06 14.45 3.1 14.33 3.15 14.22C3.2 14.1 3.26 13.99 3.33 13.89C3.4 13.78 3.49 13.68 3.58 13.58C3.68 13.49 3.78 13.4 3.89 13.33C3.99 13.26 4.1 13.2 4.22 13.15C4.33 13.1 4.45 13.06 4.58 13.04C4.71 13.01 4.85 13 5 13L9 13ZM19.41 13.04C19.28 13.01 19.14 13 19 13L15 13C14.85 13 14.71 13.01 14.58 13.04C14.45 13.06 14.33 13.1 14.22 13.15C14.1 13.2 13.99 13.26 13.89 13.33C13.78 13.4 13.68 13.49 13.58 13.58C13.49 13.68 13.4 13.78 13.33 13.89C13.26 13.99 13.2 14.1 13.15 14.22C13.1 14.33 13.06 14.45 13.04 14.58C13.01 14.71 13 14.85 13 15L13 19C13 19.14 13.01 19.28 13.04 19.41C13.06 19.54 13.1 19.66 13.15 19.77C13.2 19.89 13.26 20 13.33 20.1C13.4 20.21 13.49 20.31 13.58 20.41C13.68 20.5 13.78 20.59 13.89 20.66C13.99 20.73 14.1 20.79 14.22 20.84C14.33 20.89 14.45 20.93 14.58 20.95C14.71 20.98 14.85 21 15 21L19 21C19.14 21 19.28 20.98 19.41 20.95C19.54 20.93 19.66 20.89 19.77 20.84C19.89 20.79 20 20.73 20.1 20.66C20.21 20.59 20.31 20.5 20.41 20.41C20.5 20.31 20.59 20.21 20.66 20.1C20.73 20 20.79 19.89 20.84 19.77C20.89 19.66 20.93 19.54 20.95 19.41C20.98 19.28 21 19.14 21 19L21 15C21 14.85 20.98 14.71 20.95 14.58C20.93 14.45 20.89 14.33 20.84 14.22C20.79 14.1 20.73 13.99 20.66 13.89C20.59 13.78 20.5 13.68 20.41 13.58C20.31 13.49 20.21 13.4 20.1 13.33C20 13.26 19.89 13.2 19.77 13.15C19.66 13.1 19.54 13.06 19.41 13.04ZM9 15L5 15L5 19L9 19L9 15ZM15 15L19 15L19 19L15 19L15 15Z" fill="currentColor" fill-opacity="1.000000" fill-rule="evenodd"/>
</svg>