<svg xmlns="http://www.w3.org/2000/svg" xmlns:xlink="http://www.w3.org/1999/xlink" width="24.000000" height="24.000000" viewBox="0 0 24 24" fill="none">
	<path id="vector" d="M18 4C18.14 4 18.28 4.01 18.41 4.04C18.54 4.06 18.66 4.1 18.77 4.15C18.89 4.2 19 4.26 19.1 4.33C19.21 4.4 19.31 4.49 19.41 4.58C19.5 4.68 19.59 4.78 19.66 4.89C19.73 4.99 19.79 5.1 19.84 5.22C19.89 5.33 19.93 5.45 19.95 5.58C19.98 5.71 20 5.85 20 6L20 9C20 9.14 19.98 9.28 19.95 9.41C19.93 9.54 19.89 9.66 19.84 9.77C19.79 9.89 19.73 10 19.66 10.1C19.59 10.21 19.5 10.31 19.41 10.41C19.31 10.5 19.21 10.59 19.1 10.66C19 10.73 18.89 10.79 18.77 10.84C18.66 10.89 18.54 10.93 18.41 10.95C18.28 10.98 18.14 11 18 11L6 11C5.85 11 5.71 10.98 5.58 10.95C5.45 10.93 5.33 10.89 5.22 10.84C5.1 10.79 4.99 10.73 4.89 10.66C4.78 10.59 4.68 10.5 4.58 10.41C4.49 10.31 4.4 10.21 4.33 10.1C4.26 10 4.2 9.89 4.15 9.77C4.1 9.66 4.06 9.54 4.04 9.41C4.01 9.28 4 9.14 4 9L4 6C4 5.85 4.01 5.71 4.04 5.58C4.06 5.45 4.1 5.33 4.15 5.22C4.2 5.1 4.26 4.99 4.33 4.89C4.4 4.78 4.49 4.68 4.58 4.58C4.68 4.49 4.78 4.4 4.89 4.33C4.99 4.26 5.1 4.2 5.22 4.15C5.33 4.1 5.45 4.06 5.58 4.04C5.71 4.01 5.85 4 6 4L18 4ZM18 6L6 6L6 9L18 9L18 6ZM18.41 13.04C18.28 13.01 18.14 13 18 13L6 13C5.85 13 5.71 13.01 5.58 13.04C5.45 13.06 5.33 13.1 5.22 13.15C5.1 13.2 4.99 13.26 4.89 13.33C4.78 13.4 4.68 13.49 4.58 13.58C4.49 13.68 4.4 13.78 4.33 13.89C4.26 13.99 4.2 14.1 4.15 14.22C4.1 14.33 4.06 14.45 4.04 14.58C4.01 14.71 4 14.85 4 15L4 18C4 18.14 4.01 18.28 4.04 18.41C4.06 18.54 4.1 18.66 4.15 18.77C4.2 18.89 4.26 19 4.33 19.1C4.4 19.21 4.49 19.31 4.58 19.41C4.68 19.5 4.78 19.59 4.89 19.66C4.99 19.73 5.1 19.79 5.22 19.84C5.33 19.89 5.45 19.93 5.58 19.95C5.71 19.98 5.85 20 6 20L18 20C18.14 20 18.28 19.98 18.41 19.95C18.54 19.93 18.66 19.89 18.77 19.84C18.89 19.79 19 19.73 19.1 19.66C19.21 19.59 19.31 19.5 19.41 19.41C19.5 19.31 19.59 19.21 19.66 19.1C19.73 19 19.79 18.89 19.84 18.77C19.89 18.66 19.93 18.54 19.95 18.41C19.98 18.28 20 18.14 20 18L20 15C20 14.85 19.98 14.71 19.95 14.58C19.93 14.45 19.89 14.33 19.84 14.22C19.79 14.1 19.73 13.99 19.66 13.89C19.59 13.78 19.5 13.68 19.41 13.58C19.31 13.49 19.21 13.4 19.1 13.33C19 13.26 18.89 13.2 18.77 13.15C18.66 13.1 18.54 13.06 18.41 13.04ZM6 15L18 15L18 18L6 18L6 15Z" fill="currentColor" fill-opacity="1.000000" fill-rule="evenodd"/>
</svg>