<svg xmlns="http://www.w3.org/2000/svg" xmlns:xlink="http://www.w3.org/1999/xlink" width="24.000000" height="24.000000" viewBox="0 0 24 24" fill="none">
	<path id="vector" d="M20 17L20 19C20 19.14 19.98 19.28 19.95 19.41C19.93 19.54 19.89 19.66 19.84 19.77C19.79 19.89 19.73 20 19.66 20.1C19.59 20.21 19.5 20.31 19.41 20.41C19.31 20.5 19.21 20.59 19.1 20.66C19 20.73 18.89 20.79 18.77 20.84C18.66 20.89 18.54 20.92 18.41 20.95C18.28 20.98 18.14 21 18 21L7 21C6.78 21 6.56 20.97 6.36 20.93C6.18 20.89 6 20.83 5.83 20.76C5.65 20.69 5.49 20.6 5.34 20.5C5.17 20.39 5.02 20.26 4.87 20.12C4.73 19.97 4.6 19.82 4.49 19.65C4.39 19.5 4.3 19.34 4.23 19.16C4.16 18.99 4.1 18.81 4.06 18.63C4.02 18.43 4 18.21 4 18L4 6C4 5.78 4.02 5.56 4.06 5.36C4.1 5.18 4.16 5 4.23 4.83C4.3 4.65 4.39 4.49 4.49 4.34C4.6 4.17 4.73 4.02 4.87 3.87C5.02 3.73 5.17 3.6 5.34 3.49C5.49 3.39 5.65 3.3 5.83 3.23C6 3.16 6.18 3.1 6.36 3.06C6.56 3.02 6.78 3 7 3L16 3C16.14 3 16.28 3.01 16.41 3.04C16.54 3.06 16.66 3.1 16.77 3.15C16.89 3.2 17 3.26 17.1 3.33C17.21 3.4 17.31 3.49 17.41 3.58C17.5 3.68 17.59 3.78 17.66 3.89C17.73 3.99 17.79 4.1 17.84 4.22C17.89 4.33 17.93 4.45 17.95 4.58C17.98 4.71 18 4.85 18 5L18 7C18.14 7 18.28 7.01 18.41 7.04C18.54 7.06 18.66 7.1 18.77 7.15C18.89 7.2 19 7.26 19.1 7.33C19.21 7.4 19.31 7.49 19.41 7.58C19.5 7.68 19.59 7.78 19.66 7.89C19.73 7.99 19.79 8.1 19.84 8.22C19.89 8.33 19.93 8.45 19.95 8.58C19.98 8.71 20 8.85 20 9L20 11L21 11C21.27 11 21.51 11.09 21.7 11.29C21.9 11.48 22 11.72 22 12L22 16C22 16.27 21.9 16.51 21.7 16.7C21.51 16.9 21.27 17 21 17L20 17ZM18 17L18 19L7 19C6.91 19 6.83 18.99 6.75 18.97C6.7 18.95 6.65 18.94 6.61 18.92C6.55 18.89 6.5 18.87 6.46 18.84C6.4 18.8 6.34 18.75 6.29 18.7C6.24 18.65 6.19 18.59 6.15 18.53C6.12 18.49 6.1 18.44 6.07 18.38C6.05 18.34 6.04 18.29 6.02 18.24C6 18.16 6 18.08 6 18L6 8.82C6.11 8.87 6.23 8.9 6.36 8.93C6.56 8.97 6.78 9 7 9L18 9L18 11L17 11C16.8 11 16.6 11.01 16.41 11.05C16.22 11.09 16.03 11.15 15.85 11.22C15.66 11.3 15.49 11.39 15.33 11.5C15.17 11.61 15.01 11.73 14.87 11.87C14.73 12.01 14.61 12.17 14.5 12.33C14.39 12.49 14.3 12.66 14.22 12.85C14.15 13.03 14.09 13.22 14.05 13.41C14.01 13.6 14 13.8 14 14C14 14.2 14.02 14.41 14.06 14.61C14.1 14.8 14.16 14.98 14.23 15.16C14.3 15.33 14.39 15.49 14.49 15.64C14.6 15.81 14.73 15.97 14.88 16.11C15.02 16.26 15.18 16.39 15.35 16.5C15.5 16.6 15.66 16.69 15.83 16.76C16.01 16.83 16.19 16.89 16.38 16.93C16.58 16.97 16.79 17 17 17L18 17ZM19 13L17 13C16.93 13 16.86 13 16.8 13.01C16.74 13.03 16.67 13.05 16.61 13.07C16.55 13.1 16.49 13.13 16.44 13.16C16.39 13.2 16.33 13.24 16.29 13.29C16.24 13.33 16.2 13.39 16.16 13.44C16.13 13.49 16.1 13.55 16.07 13.61C16.05 13.67 16.03 13.74 16.01 13.8C16 13.86 16 13.93 16 14C16 14.07 16 14.14 16.02 14.21C16.03 14.27 16.05 14.33 16.07 14.38C16.09 14.43 16.12 14.48 16.15 14.52C16.19 14.59 16.23 14.65 16.29 14.7C16.34 14.76 16.4 14.8 16.47 14.84C16.51 14.87 16.56 14.9 16.61 14.92C16.67 14.94 16.72 14.96 16.78 14.97C16.85 14.99 16.92 15 17 15L20 15L20 13L19 13ZM6.02 6.24C6 6.16 6 6.08 6 6C6 5.91 6 5.83 6.02 5.75C6.04 5.7 6.05 5.65 6.07 5.61C6.1 5.55 6.12 5.5 6.15 5.46C6.19 5.4 6.24 5.34 6.29 5.29C6.34 5.24 6.4 5.19 6.46 5.15C6.5 5.12 6.55 5.1 6.61 5.07C6.65 5.05 6.7 5.04 6.75 5.02C6.83 5 6.91 5 7 5L16 5L16 7L7 7C6.91 7 6.83 6.99 6.75 6.97C6.7 6.95 6.65 6.94 6.61 6.92C6.55 6.89 6.5 6.87 6.46 6.84C6.4 6.8 6.34 6.75 6.29 6.7C6.24 6.65 6.19 6.59 6.15 6.53C6.12 6.49 6.1 6.44 6.07 6.38C6.05 6.34 6.04 6.29 6.02 6.24Z" fill="currentColor" fill-opacity="1.000000" fill-rule="evenodd"/>
</svg>