<svg xmlns="http://www.w3.org/2000/svg" xmlns:xlink="http://www.w3.org/1999/xlink" width="24.000000" height="24.000000" viewBox="0 0 24 24" fill="none">
	<g>
		<path d="M9.41 4.42L2.91 15.47C2.75 15.75 2.63 16.03 2.56 16.32C2.51 16.55 2.49 16.78 2.49 17.03C2.49 17.26 2.52 17.5 2.58 17.72C2.64 17.99 2.75 18.24 2.89 18.48C3.03 18.73 3.19 18.95 3.39 19.14C3.55 19.3 3.74 19.44 3.94 19.57C4.15 19.69 4.37 19.79 4.59 19.86C4.88 19.95 5.18 19.99 5.49 19.99L18.5 19.99C18.81 19.99 19.11 19.95 19.4 19.86C19.62 19.79 19.84 19.69 20.05 19.57C20.25 19.44 20.44 19.3 20.6 19.14C20.8 18.95 20.96 18.73 21.1 18.48C21.24 18.24 21.35 17.99 21.41 17.72C21.47 17.5 21.5 17.26 21.5 17.03C21.5 16.78 21.48 16.55 21.43 16.32C21.36 16.03 21.24 15.75 21.08 15.47L14.58 4.42C14.42 4.15 14.24 3.92 14.02 3.72C13.85 3.56 13.65 3.43 13.44 3.31C13.24 3.2 13.02 3.11 12.8 3.05C12.54 2.98 12.27 2.94 12 2.94C11.72 2.94 11.45 2.98 11.19 3.05C10.97 3.11 10.75 3.2 10.55 3.31C10.34 3.43 10.14 3.56 9.97 3.72C9.75 3.92 9.57 4.15 9.41 4.42ZM4.5 16.83C4.52 16.71 4.56 16.6 4.63 16.49L11.13 5.43C11.2 5.32 11.28 5.23 11.37 5.16C11.41 5.12 11.46 5.09 11.51 5.06C11.57 5.03 11.63 5.01 11.69 4.99C11.79 4.95 11.89 4.94 12 4.94C12.1 4.94 12.2 4.95 12.3 4.99C12.36 5.01 12.42 5.03 12.48 5.06C12.53 5.09 12.58 5.12 12.62 5.16C12.71 5.23 12.79 5.32 12.86 5.43L19.36 16.49C19.43 16.6 19.47 16.71 19.49 16.83C19.5 16.89 19.5 16.95 19.5 17C19.5 17.07 19.49 17.13 19.48 17.2C19.46 17.3 19.42 17.4 19.37 17.49C19.31 17.59 19.25 17.67 19.17 17.74C19.12 17.78 19.07 17.82 19.01 17.86C18.96 17.89 18.91 17.91 18.86 17.93C18.75 17.97 18.63 17.99 18.5 17.99L5.49 17.99C5.36 17.99 5.24 17.97 5.13 17.93C5.08 17.91 5.03 17.89 4.98 17.86C4.92 17.82 4.87 17.78 4.82 17.74C4.74 17.67 4.68 17.59 4.62 17.49C4.57 17.4 4.53 17.3 4.51 17.2C4.5 17.13 4.49 17.07 4.49 17C4.49 16.95 4.49 16.89 4.5 16.83ZM13 11.99L13 7.99C13 7.43 12.56 6.99 12 6.99C11.44 6.99 11 7.43 11 7.99L11 11.99C11 12.55 11.44 12.99 12 12.99C12.56 12.99 13 12.55 13 11.99ZM13.25 15.24C13.25 14.55 12.7 13.99 12 13.99C11.3 13.99 10.75 14.55 10.75 15.24C10.75 15.95 11.3 16.49 12 16.49C12.7 16.49 13.25 15.95 13.25 15.24Z" fill="currentColor" fill-opacity="1.000000" fill-rule="evenodd"/>
	</g>
</svg>