<svg xmlns="http://www.w3.org/2000/svg" xmlns:xlink="http://www.w3.org/1999/xlink" width="24.000000" height="24.000000" viewBox="0 0 24 24" fill="none">
	<path id="vector" d="M10.04 20.78C10.67 20.92 11.33 21 12 21C12.66 21 13.32 20.92 13.95 20.78C14.48 20.67 14.99 20.5 15.5 20.29C16.01 20.07 16.49 19.82 16.94 19.52C17.45 19.18 17.92 18.8 18.36 18.36C18.8 17.92 19.18 17.45 19.52 16.94C19.82 16.49 20.07 16.01 20.29 15.5C20.5 14.99 20.67 14.48 20.78 13.95C20.92 13.32 21 12.66 21 12C21 11.33 20.92 10.67 20.78 10.04C20.67 9.51 20.5 9 20.29 8.49C20.07 7.98 19.82 7.5 19.52 7.05C19.18 6.54 18.8 6.07 18.36 5.63C17.92 5.19 17.45 4.81 16.94 4.47C16.49 4.17 16.01 3.92 15.5 3.7C14.99 3.49 14.48 3.32 13.95 3.21C13.32 3.07 12.66 3 12 3C11.33 3 10.67 3.07 10.04 3.21C9.51 3.32 9 3.49 8.49 3.7C7.98 3.92 7.5 4.17 7.05 4.47C6.54 4.81 6.07 5.19 5.63 5.63C5.19 6.07 4.81 6.54 4.47 7.05C4.18 7.5 3.92 7.98 3.7 8.49C3.49 9 3.32 9.51 3.21 10.04C3.07 10.67 3 11.33 3 12C3 12.66 3.07 13.32 3.21 13.95C3.32 14.48 3.49 14.99 3.7 15.5C3.92 16.01 4.17 16.49 4.47 16.94C4.81 17.45 5.19 17.92 5.63 18.36C6.07 18.8 6.54 19.18 7.05 19.52C7.5 19.82 7.98 20.07 8.49 20.29C9 20.5 9.51 20.67 10.04 20.78ZM5.06 13L8.02 13C8.05 13.78 8.13 14.53 8.24 15.27C8.41 16.29 8.64 17.2 8.94 18C8.98 18.13 9.03 18.25 9.08 18.36C8.76 18.22 8.46 18.05 8.17 17.86C7.76 17.59 7.39 17.29 7.05 16.94C6.7 16.6 6.4 16.23 6.13 15.83C5.91 15.48 5.71 15.11 5.54 14.72C5.38 14.34 5.26 13.95 5.17 13.56C5.13 13.37 5.09 13.18 5.06 13ZM8.02 11L5.06 11C5.09 10.81 5.13 10.62 5.17 10.44C5.26 10.04 5.38 9.65 5.54 9.27C5.71 8.88 5.91 8.51 6.13 8.17C6.4 7.76 6.7 7.39 7.05 7.05C7.39 6.7 7.76 6.4 8.16 6.13C8.46 5.94 8.76 5.77 9.08 5.63C9.03 5.74 8.98 5.86 8.94 5.99C8.64 6.79 8.41 7.7 8.24 8.72C8.13 9.46 8.05 10.21 8.02 11ZM10.02 11C10.05 10.32 10.12 9.67 10.22 9.04C10.36 8.15 10.56 7.36 10.81 6.69C11.04 6.07 11.3 5.6 11.58 5.29C11.68 5.17 11.78 5.09 11.87 5.04C11.92 5.01 11.96 5 12 5C12.03 5 12.07 5.01 12.12 5.04C12.21 5.09 12.31 5.17 12.41 5.29C12.69 5.6 12.95 6.07 13.18 6.69C13.43 7.36 13.63 8.15 13.77 9.04C13.87 9.67 13.94 10.32 13.97 11L10.02 11ZM10.02 13L13.97 13C13.94 13.67 13.87 14.32 13.77 14.95C13.63 15.84 13.43 16.63 13.18 17.3C12.95 17.92 12.69 18.39 12.41 18.7C12.31 18.82 12.21 18.9 12.12 18.95C12.07 18.98 12.03 18.99 12 19C11.96 19 11.92 18.98 11.87 18.95C11.78 18.9 11.68 18.82 11.58 18.7C11.3 18.39 11.04 17.92 10.81 17.3C10.56 16.63 10.36 15.84 10.22 14.95C10.12 14.32 10.05 13.67 10.02 13ZM15.97 13C15.94 13.78 15.86 14.53 15.75 15.27C15.58 16.29 15.35 17.2 15.05 18C15.01 18.13 14.96 18.25 14.91 18.36C15.23 18.22 15.53 18.05 15.83 17.86C16.23 17.59 16.6 17.29 16.94 16.94C17.29 16.6 17.59 16.23 17.86 15.83C18.08 15.48 18.28 15.11 18.45 14.72C18.61 14.34 18.73 13.95 18.82 13.56C18.86 13.37 18.9 13.18 18.93 13L15.97 13ZM18.93 11L15.97 11C15.94 10.21 15.86 9.46 15.75 8.72C15.58 7.7 15.35 6.79 15.05 5.99C15.01 5.86 14.96 5.74 14.91 5.63C15.23 5.77 15.53 5.94 15.83 6.13C16.23 6.4 16.6 6.7 16.94 7.05C17.29 7.39 17.59 7.76 17.86 8.17C18.08 8.51 18.28 8.88 18.45 9.27C18.61 9.65 18.73 10.04 18.82 10.43C18.86 10.62 18.9 10.81 18.93 11Z" fill="currentColor" fill-opacity="1.000000" fill-rule="evenodd"/>
</svg>