<svg width="20.000000" height="20.000000" viewBox="0 0 20 20" fill="none" xmlns="http://www.w3.org/2000/svg" xmlns:xlink="http://www.w3.org/1999/xlink">
	<path id="vector" d="M7.5 14.68L13.75 14.68C14.06 14.68 14.29 14.6 14.45 14.45C14.6 14.29 14.68 14.06 14.68 13.75L14.68 7.5C14.68 6.97 14.27 6.56 13.75 6.56C13.22 6.56 12.81 6.97 12.81 7.5L12.81 11.48L6.91 5.58C6.54 5.21 5.95 5.21 5.58 5.58C5.21 5.95 5.21 6.54 5.58 6.91L11.48 12.81L7.5 12.81C6.97 12.81 6.56 13.22 6.56 13.75C6.56 14.27 6.97 14.68 7.5 14.68Z" fill="#11AD81" fill-opacity="1.000000" fill-rule="evenodd"/>
</svg>
