<svg width="20.000000" height="20.000000" viewBox="0 0 20 20" fill="none" xmlns="http://www.w3.org/2000/svg" xmlns:xlink="http://www.w3.org/1999/xlink">
	<path id="vector" d="M7.5 5.31L13.75 5.31C14.06 5.31 14.29 5.39 14.45 5.54C14.6 5.7 14.68 5.93 14.68 6.25L14.68 12.5C14.68 13.02 14.27 13.43 13.75 13.43C13.22 13.43 12.81 13.02 12.81 12.5L12.81 8.51L6.91 14.41C6.54 14.78 5.95 14.78 5.58 14.41C5.21 14.04 5.21 13.45 5.58 13.08L11.48 7.18L7.5 7.18C6.97 7.18 6.56 6.77 6.56 6.25C6.56 5.72 6.97 5.31 7.5 5.31Z" fill="#F04438" fill-opacity="1.000000" fill-rule="evenodd"/>
</svg>
