<svg width="24.000000" height="24.000000" viewBox="0 0 24 24" fill="none" xmlns="http://www.w3.org/2000/svg" xmlns:xlink="http://www.w3.org/1999/xlink">
	<defs>
		<linearGradient x1="12.000000" y1="2.000000" x2="12.000000" y2="22.000000" id="paint_linear_5364_50144_0" gradientUnits="userSpaceOnUse">
			<stop stop-color="#32D583"/>
			<stop offset="1.000000" stop-color="#32D5A7"/>
		</linearGradient>
		<radialGradient gradientTransform="translate(18 6) rotate(-90) scale(13 13)" cx="0.000000" cy="0.000000" r="1.000000" id="paint_radial_5364_50144_1" gradientUnits="userSpaceOnUse">
			<stop stop-color="#A6F4C5"/>
			<stop offset="1.000000" stop-color="#A6F4C5" stop-opacity="0.000000"/>
		</radialGradient>
		<radialGradient gradientTransform="translate(6 18) rotate(90) scale(12 12)" cx="0.000000" cy="0.000000" r="1.000000" id="paint_radial_5364_50144_2" gradientUnits="userSpaceOnUse">
			<stop offset="0.088053" stop-color="#1570EF"/>
			<stop offset="1.000000" stop-color="#1570EF" stop-opacity="0.000000"/>
		</radialGradient>
		<radialGradient gradientTransform="translate(6.00002 6) rotate(-90) scale(14.5 14.5)" cx="0.000000" cy="0.000000" r="1.000000" id="paint_radial_5364_50144_3" gradientUnits="userSpaceOnUse">
			<stop offset="0.144885" stop-color="#FEF0C7"/>
			<stop offset="1.000000" stop-color="#FEF0C7" stop-opacity="0.000000"/>
		</radialGradient>
	</defs>
	<path id="Union" d="M3.13 9.11C2.44 10.01 2 10.92 2 12C2 13.07 2.44 13.98 3.13 14.88C3.79 15.75 4.77 16.72 5.96 17.92L6.07 18.03C7.27 19.22 8.24 20.2 9.11 20.86C10.01 21.55 10.92 22 12 22C13.07 22 13.98 21.55 14.88 20.86C15.41 20.45 15.98 19.94 16.62 19.32L20 20L19.32 16.62C19.94 15.98 20.45 15.41 20.86 14.88C21.55 13.98 22 13.07 22 12C22 10.92 21.55 10.01 20.86 9.11C20.2 8.24 19.22 7.27 18.03 6.07L17.92 5.96C16.72 4.77 15.75 3.79 14.88 3.13C13.98 2.44 13.07 2 12 2C10.92 2 10.01 2.44 9.11 3.13C8.24 3.79 7.27 4.77 6.07 5.96L5.96 6.07C4.77 7.27 3.79 8.24 3.13 9.11Z" fill="url(#paint_linear_5364_50144_0)" fill-opacity="1.000000" fill-rule="evenodd"/>
	<path id="Union" d="M3.13 9.11C2.44 10.01 2 10.92 2 12C2 13.07 2.44 13.98 3.13 14.88C3.79 15.75 4.77 16.72 5.96 17.92L6.07 18.03C7.27 19.22 8.24 20.2 9.11 20.86C10.01 21.55 10.92 22 12 22C13.07 22 13.98 21.55 14.88 20.86C15.41 20.45 15.98 19.94 16.62 19.32L20 20L19.32 16.62C19.94 15.98 20.45 15.41 20.86 14.88C21.55 13.98 22 13.07 22 12C22 10.92 21.55 10.01 20.86 9.11C20.2 8.24 19.22 7.27 18.03 6.07L17.92 5.96C16.72 4.77 15.75 3.79 14.88 3.13C13.98 2.44 13.07 2 12 2C10.92 2 10.01 2.44 9.11 3.13C8.24 3.79 7.27 4.77 6.07 5.96L5.96 6.07C4.77 7.27 3.79 8.24 3.13 9.11Z" fill="url(#paint_radial_5364_50144_1)" fill-opacity="1.000000" fill-rule="evenodd"/>
	<path id="Union" d="M3.13 9.11C2.44 10.01 2 10.92 2 12C2 13.07 2.44 13.98 3.13 14.88C3.79 15.75 4.77 16.72 5.96 17.92L6.07 18.03C7.27 19.22 8.24 20.2 9.11 20.86C10.01 21.55 10.92 22 12 22C13.07 22 13.98 21.55 14.88 20.86C15.41 20.45 15.98 19.94 16.62 19.32L20 20L19.32 16.62C19.94 15.98 20.45 15.41 20.86 14.88C21.55 13.98 22 13.07 22 12C22 10.92 21.55 10.01 20.86 9.11C20.2 8.24 19.22 7.27 18.03 6.07L17.92 5.96C16.72 4.77 15.75 3.79 14.88 3.13C13.98 2.44 13.07 2 12 2C10.92 2 10.01 2.44 9.11 3.13C8.24 3.79 7.27 4.77 6.07 5.96L5.96 6.07C4.77 7.27 3.79 8.24 3.13 9.11Z" fill="url(#paint_radial_5364_50144_2)" fill-opacity="1.000000" fill-rule="evenodd"/>
	<path id="Union" d="M3.13 9.11C2.44 10.01 2 10.92 2 12C2 13.07 2.44 13.98 3.13 14.88C3.79 15.75 4.77 16.72 5.96 17.92L6.07 18.03C7.27 19.22 8.24 20.2 9.11 20.86C10.01 21.55 10.92 22 12 22C13.07 22 13.98 21.55 14.88 20.86C15.41 20.45 15.98 19.94 16.62 19.32L20 20L19.32 16.62C19.94 15.98 20.45 15.41 20.86 14.88C21.55 13.98 22 13.07 22 12C22 10.92 21.55 10.01 20.86 9.11C20.2 8.24 19.22 7.27 18.03 6.07L17.92 5.96C16.72 4.77 15.75 3.79 14.88 3.13C13.98 2.44 13.07 2 12 2C10.92 2 10.01 2.44 9.11 3.13C8.24 3.79 7.27 4.77 6.07 5.96L5.96 6.07C4.77 7.27 3.79 8.24 3.13 9.11Z" fill="url(#paint_radial_5364_50144_3)" fill-opacity="1.000000" fill-rule="evenodd"/>
	<path id="Vector" d="M12.55 17.73C14.38 15.49 15.87 12.99 16.94 10.3C17.12 9.84 16.83 9.34 16.36 9.28C14.93 9.09 13.48 9 12 9C10.51 9 9.06 9.09 7.63 9.28C7.16 9.34 6.87 9.84 7.05 10.3C8.12 12.99 9.61 15.49 11.44 17.73C11.73 18.08 12.26 18.08 12.55 17.73Z" fill="#092037" fill-opacity="0.130000" fill-rule="nonzero"/>
	<path id="Vector" d="M12.55 16.76C14.38 14.77 15.87 12.54 16.94 10.16C17.12 9.75 16.83 9.3 16.36 9.24C14.93 9.08 13.48 9 12 9C10.51 9 9.06 9.08 7.63 9.24C7.16 9.3 6.87 9.75 7.05 10.16C8.12 12.54 9.61 14.77 11.44 16.76C11.73 17.07 12.26 17.07 12.55 16.76Z" fill="#FFFFFF" fill-opacity="1.000000" fill-rule="nonzero"/>
</svg>
