<svg width="24.000000" height="24.000000" viewBox="0 0 24 24" fill="none" xmlns="http://www.w3.org/2000/svg" xmlns:xlink="http://www.w3.org/1999/xlink">
	<path id="vector" d="M12 21C7.02 21 3 16.97 3 12C3 7.02 7.02 3 12 3C16.97 3 21 7.02 21 12C21 16.97 16.97 21 12 21Z" fill="#9E77ED" fill-opacity="1.000000" fill-rule="evenodd"/>
	<path id="vector" d="M8.77 8.13C8.69 8.33 8.62 8.54 8.57 8.75C8.52 8.99 8.5 9.24 8.5 9.5C8.5 10.06 8.93 10.5 9.5 10.5C10.06 10.5 10.5 10.06 10.5 9.5C10.5 9.37 10.51 9.26 10.54 9.14C10.55 9.07 10.58 8.99 10.61 8.91C10.65 8.83 10.69 8.75 10.73 8.68C10.79 8.59 10.86 8.51 10.93 8.43C11.01 8.36 11.09 8.29 11.18 8.23C11.25 8.19 11.33 8.15 11.41 8.11C11.49 8.08 11.57 8.05 11.64 8.04C11.76 8.01 11.87 8 12 8C12.12 8 12.23 8.01 12.35 8.04C12.42 8.05 12.5 8.08 12.58 8.11C12.66 8.15 12.74 8.19 12.81 8.23C12.9 8.29 12.98 8.36 13.06 8.43C13.13 8.51 13.2 8.59 13.26 8.68C13.3 8.75 13.34 8.83 13.38 8.91C13.41 8.99 13.44 9.07 13.45 9.14C13.48 9.26 13.5 9.37 13.5 9.5C13.5 9.62 13.48 9.73 13.45 9.85C13.44 9.92 13.41 10 13.38 10.08C13.34 10.16 13.3 10.24 13.26 10.31C13.2 10.4 13.13 10.48 13.06 10.56C12.98 10.63 12.9 10.7 12.81 10.76C12.74 10.8 12.66 10.84 12.58 10.88C12.5 10.91 12.42 10.94 12.35 10.95C12.23 10.98 12.12 11 12 11C11.86 11 11.73 11.02 11.61 11.07C11.49 11.12 11.39 11.19 11.29 11.29C11.19 11.39 11.12 11.49 11.07 11.61C11.02 11.73 11 11.86 11 12L11 13C11 13.56 11.43 14 12 14C12.56 14 13 13.56 13 13L13 12.85C13.12 12.81 13.24 12.77 13.36 12.72C13.56 12.63 13.75 12.53 13.93 12.42C14.12 12.29 14.3 12.14 14.47 11.97C14.64 11.8 14.79 11.62 14.92 11.43C15.03 11.25 15.13 11.06 15.22 10.86C15.3 10.66 15.37 10.45 15.42 10.24C15.47 10 15.5 9.75 15.5 9.5C15.5 9.24 15.47 8.99 15.42 8.75C15.37 8.54 15.3 8.33 15.22 8.13C15.13 7.93 15.03 7.74 14.92 7.56C14.79 7.37 14.64 7.19 14.47 7.02C14.3 6.85 14.12 6.7 13.93 6.57C13.75 6.46 13.56 6.36 13.36 6.27C13.16 6.19 12.95 6.12 12.74 6.07C12.5 6.02 12.25 6 12 6C11.74 6 11.49 6.02 11.25 6.07C11.04 6.12 10.83 6.19 10.63 6.27C10.43 6.36 10.24 6.46 10.06 6.57C9.87 6.7 9.69 6.85 9.52 7.02C9.35 7.19 9.2 7.37 9.07 7.56C8.96 7.74 8.86 7.93 8.77 8.13ZM11.99 17.5C11.29 17.5 10.75 16.95 10.75 16.25C10.75 15.55 11.29 15 11.99 15C12.69 15 13.25 15.55 13.25 16.25C13.25 16.95 12.69 17.5 11.99 17.5Z" fill="#FFFFFF" fill-opacity="1.000000" fill-rule="evenodd"/>
</svg>
