<svg width="24.000000" height="24.000000" viewBox="0 0 24 24" fill="none" xmlns="http://www.w3.org/2000/svg" xmlns:xlink="http://www.w3.org/1999/xlink">
	<path id="vector" d="M12 21C7.02 21 3 16.97 3 12C3 7.02 7.02 3 12 3C16.97 3 21 7.02 21 12C21 16.97 16.97 21 12 21Z" fill="#F04438" fill-opacity="1.000000" fill-rule="evenodd"/>
	<path id="vector" d="M9.21 7.79C8.81 7.4 8.19 7.4 7.79 7.79C7.4 8.19 7.4 8.81 7.79 9.21L10.69 12.1L7.79 14.99C7.4 15.39 7.4 16.01 7.79 16.41C8.19 16.8 8.81 16.8 9.21 16.41L12.1 13.51L14.99 16.41C15.39 16.8 16.01 16.8 16.41 16.41C16.8 16.01 16.8 15.39 16.41 14.99L13.51 12.1L16.41 9.21C16.8 8.81 16.8 8.19 16.41 7.79C16.01 7.4 15.39 7.4 14.99 7.79L12.1 10.69L9.21 7.79Z" fill="#FFFFFF" fill-opacity="1.000000" fill-rule="evenodd"/>
</svg>
