<svg width="24.000000" height="24.000000" viewBox="0 0 24 24" fill="none" xmlns="http://www.w3.org/2000/svg" xmlns:xlink="http://www.w3.org/1999/xlink">
	<path id="vector" d="M12 21C7.02 21 3 16.97 3 12C3 7.02 7.02 3 12 3C16.97 3 21 7.02 21 12C21 16.97 16.97 21 12 21Z" fill="#2E90FA" fill-opacity="1.000000" fill-rule="evenodd"/>
	<path id="vector" d="M11.75 6.5C12.45 6.5 13 7.04 13 7.75C13 8.45 12.45 9 11.75 9C11.05 9 10.5 8.45 10.5 7.75C10.5 7.04 11.05 6.5 11.75 6.5ZM11 10L12 10C12.13 10 12.26 10.02 12.38 10.07C12.5 10.12 12.6 10.19 12.7 10.29C12.8 10.39 12.87 10.49 12.92 10.61C12.97 10.73 13 10.86 13 11L13 15C13.56 15 14 15.44 14 16C14 16.56 13.56 17 13 17L11 17C10.43 17 10 16.56 10 16C10 15.44 10.43 15 11 15L11 12C10.43 12 10 11.56 10 11C10 10.44 10.43 10 11 10Z" fill="#FFFFFF" fill-opacity="1.000000" fill-rule="evenodd"/>
</svg>
