<svg width="24.000000" height="24.000000" viewBox="0 0 24 24" fill="none" xmlns="http://www.w3.org/2000/svg" xmlns:xlink="http://www.w3.org/1999/xlink">
	<path id="vector" d="M12 21C7.02 21 3 16.97 3 12C3 7.02 7.02 3 12 3C16.97 3 21 7.02 21 12C21 16.97 16.97 21 12 21Z" fill="#11AD81" fill-opacity="1.000000" fill-rule="evenodd"/>
	<path id="vector" d="M16.7 10.7L11.7 15.7C11.23 16.17 10.76 16.17 10.29 15.7L7.29 12.7C6.89 12.31 6.89 11.68 7.29 11.29C7.68 10.89 8.31 10.89 8.7 11.29L11 13.58L15.29 9.29C15.68 8.89 16.31 8.89 16.7 9.29C17.1 9.68 17.1 10.31 16.7 10.7Z" fill="#FFFFFF" fill-opacity="1.000000" fill-rule="evenodd"/>
</svg>
