<svg width="24.000000" height="24.000000" viewBox="0 0 24 24" fill="none" xmlns="http://www.w3.org/2000/svg" xmlns:xlink="http://www.w3.org/1999/xlink">
	<path id="vector" d="M12 21C7.02 21 3 16.97 3 12C3 7.02 7.02 3 12 3C16.97 3 21 7.02 21 12C21 16.97 16.97 21 12 21Z" fill="#F79009" fill-opacity="1.000000" fill-rule="evenodd"/>
	<path id="vector" d="M13 8C13 7.44 12.56 7 12 7C11.43 7 11 7.44 11 8L11 11.5C11 12.06 11.43 12.5 12 12.5C12.56 12.5 13 12.06 13 11.5L13 8ZM11.99 16.5C11.29 16.5 10.75 15.95 10.75 15.25C10.75 14.55 11.29 14 11.99 14C12.69 14 13.25 14.55 13.25 15.25C13.25 15.95 12.69 16.5 11.99 16.5Z" fill="#FFFFFF" fill-opacity="1.000000" fill-rule="evenodd"/>
</svg>
