<svg width="24.000000" height="24.000000" viewBox="0 0 24 24" fill="none" xmlns="http://www.w3.org/2000/svg" xmlns:xlink="http://www.w3.org/1999/xlink">
	<path id="Vector" d="M7 16L7 18C7 18.56 7.43 19 8 19C8.56 19 9 18.56 9 18L9 16L13 16C13.56 16 14 15.56 14 15C14 14.43 13.56 14 13 14L9 14L9 13.04L12.97 13.04C13.27 13.04 13.56 13.01 13.84 12.95C14.08 12.89 14.31 12.82 14.54 12.72C14.77 12.62 14.99 12.51 15.19 12.37C15.41 12.23 15.62 12.05 15.82 11.86C16.01 11.67 16.18 11.46 16.33 11.23C16.47 11.03 16.58 10.81 16.68 10.58C16.78 10.35 16.85 10.12 16.9 9.88C16.96 9.6 17 9.31 17 9.02C17 8.72 16.96 8.43 16.9 8.15C16.85 7.91 16.78 7.68 16.68 7.45C16.58 7.22 16.47 7 16.33 6.8C16.18 6.58 16.01 6.37 15.82 6.17C15.62 5.98 15.41 5.81 15.19 5.66C14.99 5.52 14.77 5.41 14.54 5.31C14.31 5.21 14.08 5.14 13.84 5.09C13.56 5.03 13.27 5 12.97 5L8 5C7.72 5 7.48 5.09 7.29 5.29C7.09 5.48 7 5.72 7 6L7 11.04L6 11.04C5.43 11.04 5 11.48 5 12.04C5 12.6 5.43 13.04 6 13.04L7 13.04L7 14L6 14C5.43 14 5 14.43 5 15C5 15.56 5.43 16 6 16L7 16ZM9 11.04L12.97 11.04C13.13 11.04 13.29 11.02 13.44 10.98C13.55 10.96 13.66 10.92 13.76 10.88C13.87 10.83 13.97 10.78 14.07 10.71C14.19 10.64 14.3 10.55 14.4 10.45C14.51 10.34 14.59 10.23 14.67 10.11C14.74 10.02 14.79 9.91 14.84 9.8C14.88 9.7 14.92 9.59 14.94 9.48C14.98 9.33 15 9.18 15 9.02C15 8.86 14.98 8.7 14.94 8.55C14.92 8.44 14.88 8.33 14.84 8.23C14.79 8.12 14.74 8.02 14.67 7.92C14.59 7.8 14.51 7.69 14.4 7.59C14.3 7.48 14.19 7.4 14.07 7.32C13.97 7.26 13.87 7.2 13.76 7.15C13.66 7.11 13.55 7.07 13.44 7.05C13.29 7.01 13.13 7 12.97 7L9 7L9 11.04Z" fill="currentColor" fill-opacity="1.000000" fill-rule="evenodd"/>
</svg>
