<svg xmlns="http://www.w3.org/2000/svg" xmlns:xlink="http://www.w3.org/1999/xlink" width="24.000000" height="24.000000" viewBox="0 0 24 24" fill="none">
	<path id="vector" d="M13.41 12L16.7 8.7C17.1 8.31 17.1 7.68 16.7 7.29C16.31 6.89 15.68 6.89 15.29 7.29L11.29 11.29C11.19 11.39 11.12 11.49 11.07 11.61C11.02 11.73 11 11.86 11 12C11 12.13 11.02 12.26 11.07 12.38C11.12 12.5 11.19 12.6 11.29 12.7L15.29 16.7C15.68 17.1 16.31 17.1 16.7 16.7C17.1 16.31 17.1 15.68 16.7 15.29L13.41 12ZM10.7 8.7L7.41 12L10.7 15.29C11.1 15.68 11.1 16.31 10.7 16.7C10.31 17.1 9.68 17.1 9.29 16.7L5.29 12.7C5.09 12.51 5 12.27 5 12C5 11.72 5.09 11.48 5.29 11.29L9.29 7.29C9.68 6.89 10.31 6.89 10.7 7.29C11.1 7.68 11.1 8.31 10.7 8.7Z" fill="currentColor" fill-opacity="1.000000" fill-rule="evenodd"/>
</svg>