<svg xmlns="http://www.w3.org/2000/svg" xmlns:xlink="http://www.w3.org/1999/xlink" width="24.000000" height="24.000000" viewBox="0 0 24 24" fill="none">
	<path id="vector" d="M7.29 7.7C6.89 7.31 6.89 6.68 7.29 6.29C7.68 5.89 8.31 5.89 8.7 6.29L12 9.58L15.29 6.29C15.68 5.89 16.31 5.89 16.7 6.29C17.1 6.68 17.1 7.31 16.7 7.7L12.7 11.7C12.51 11.9 12.27 12 12 12C11.72 12 11.48 11.9 11.29 11.7L7.29 7.7ZM7.29 12.29C7.68 11.89 8.31 11.89 8.7 12.29L12 15.58L15.29 12.29C15.68 11.89 16.31 11.89 16.7 12.29C17.1 12.68 17.1 13.31 16.7 13.7L12.7 17.7C12.6 17.8 12.5 17.87 12.38 17.92C12.26 17.97 12.13 18 12 18C11.86 18 11.73 17.97 11.61 17.92C11.49 17.87 11.39 17.8 11.29 17.7L7.29 13.7C6.89 13.31 6.89 12.68 7.29 12.29Z" fill="currentColor" fill-opacity="1.000000" fill-rule="evenodd"/>
</svg>