<svg width="24.000000" height="24.000000" viewBox="0 0 24 24" fill="none" xmlns="http://www.w3.org/2000/svg" xmlns:xlink="http://www.w3.org/1999/xlink">
	<path id="vector" d="M13 16.58L13 5C13 4.44 12.55 4 12 4C11.43 4 11 4.44 11 5L11 16.58L6.7 12.29C6.31 11.89 5.68 11.89 5.29 12.29C4.89 12.68 4.89 13.31 5.29 13.7L11.29 19.7C11.48 19.9 11.72 20 12 20C12.27 20 12.51 19.9 12.7 19.7L18.7 13.7C19.1 13.31 19.1 12.68 18.7 12.29C18.31 11.89 17.68 11.89 17.29 12.29L13 16.58Z" fill="currentColor" fill-opacity="1.000000" fill-rule="evenodd"/>
</svg>
