<svg xmlns="http://www.w3.org/2000/svg" xmlns:xlink="http://www.w3.org/1999/xlink" width="24.000000" height="24.000000" viewBox="0 0 24 24" fill="none">
	<path id="vector" d="M7.29 7.29C7.68 6.89 8.31 6.89 8.7 7.29L12.7 11.29C12.8 11.39 12.87 11.49 12.92 11.61C12.97 11.73 13 11.86 13 12C13 12.13 12.97 12.26 12.92 12.38C12.87 12.5 12.8 12.6 12.7 12.7L8.7 16.7C8.31 17.1 7.68 17.1 7.29 16.7C6.89 16.31 6.89 15.68 7.29 15.29L10.58 12L7.29 8.7C6.89 8.31 6.89 7.68 7.29 7.29ZM13.29 7.29C12.89 7.68 12.89 8.31 13.29 8.7L16.58 12L13.29 15.29C12.89 15.68 12.89 16.31 13.29 16.7C13.68 17.1 14.31 17.1 14.7 16.7L18.7 12.7C18.9 12.51 19 12.27 19 12C19 11.72 18.9 11.48 18.7 11.29L14.7 7.29C14.31 6.89 13.68 6.89 13.29 7.29Z" fill="currentColor" fill-opacity="1.000000" fill-rule="evenodd"/>
</svg>