<svg width="24.000000" height="24.000000" viewBox="0 0 24 24" fill="none" xmlns="http://www.w3.org/2000/svg" xmlns:xlink="http://www.w3.org/1999/xlink">
	<path id="vector" d="M13.7 5.29L19.7 11.29C19.9 11.48 20 11.72 20 12C20 12.27 19.9 12.51 19.7 12.7L13.7 18.7C13.31 19.1 12.68 19.1 12.29 18.7C11.89 18.31 11.89 17.68 12.29 17.29L16.58 13L5 13C4.43 13 4 12.56 4 12C4 11.44 4.43 11 5 11L16.58 11L12.29 6.7C11.89 6.31 11.89 5.68 12.29 5.29C12.68 4.89 13.31 4.89 13.7 5.29Z" fill="currentColor" fill-opacity="1.000000" fill-rule="evenodd"/>
</svg>
