<svg width="24.000000" height="24.000000" viewBox="0 0 24 24" fill="none" xmlns="http://www.w3.org/2000/svg" xmlns:xlink="http://www.w3.org/1999/xlink">
	<path id="vector" d="M11.22 4.35L5.29 10.29C4.89 10.68 4.89 11.31 5.29 11.7C5.68 12.1 6.31 12.1 6.7 11.7L11 7.41L11 19C11 19.55 11.44 20 12 20C12.56 20 13 19.55 13 19L13 7.41L17.29 11.7C17.68 12.1 18.31 12.1 18.7 11.7C19.1 11.31 19.1 10.68 18.7 10.29L12.77 4.35C12.68 4.25 12.57 4.16 12.44 4.1C12.31 4.03 12.16 4 12 4C11.83 4 11.68 4.03 11.55 4.1C11.42 4.16 11.31 4.25 11.22 4.35Z" fill="currentColor" fill-opacity="1.000000" fill-rule="evenodd"/>
</svg>
