<svg xmlns="http://www.w3.org/2000/svg" xmlns:xlink="http://www.w3.org/1999/xlink" width="24.000000" height="24.000000" viewBox="0 0 24 24" fill="none">
	<path id="vector" d="M12 8.41L15.29 11.7C15.68 12.1 16.31 12.1 16.7 11.7C17.1 11.31 17.1 10.68 16.7 10.29L12.7 6.29C12.51 6.09 12.27 6 12 6C11.72 6 11.48 6.09 11.29 6.29L7.29 10.29C6.89 10.68 6.89 11.31 7.29 11.7C7.68 12.1 8.31 12.1 8.7 11.7L12 8.41ZM15.29 17.7L12 14.41L8.7 17.7C8.31 18.1 7.68 18.1 7.29 17.7C6.89 17.31 6.89 16.68 7.29 16.29L11.29 12.29C11.39 12.19 11.49 12.12 11.61 12.07C11.73 12.02 11.86 12 12 12C12.13 12 12.26 12.02 12.38 12.07C12.5 12.12 12.6 12.19 12.7 12.29L16.7 16.29C17.1 16.68 17.1 17.31 16.7 17.7C16.31 18.1 15.68 18.1 15.29 17.7Z" fill="currentColor" fill-opacity="1.000000" fill-rule="evenodd"/>
</svg>