<svg width="24.000000" height="24.000000" viewBox="0 0 24 24" fill="none" xmlns="http://www.w3.org/2000/svg" xmlns:xlink="http://www.w3.org/1999/xlink">
	<path id="vector" d="M11.29 6.29L7.29 10.29C6.89 10.68 6.89 11.31 7.29 11.7C7.68 12.1 8.31 12.1 8.7 11.7L11 9.41L11 17C11 17.56 11.43 18 12 18C12.55 18 13 17.56 13 17L13 9.41L15.29 11.7C15.68 12.1 16.31 12.1 16.7 11.7C17.1 11.31 17.1 10.68 16.7 10.29L12.7 6.29C12.51 6.09 12.27 6 12 6C11.72 6 11.48 6.09 11.29 6.29Z" fill="currentColor" fill-opacity="1.000000" fill-rule="evenodd"/>
</svg>
