<svg width="24.000000" height="24.000000" viewBox="0 0 24 24" fill="none" xmlns="http://www.w3.org/2000/svg" xmlns:xlink="http://www.w3.org/1999/xlink">
	<path id="vector" d="M12.29 7.29C11.89 7.68 11.89 8.31 12.29 8.7L14.58 11L7 11C6.43 11 6 11.44 6 12C6 12.56 6.43 13 7 13L14.58 13L12.29 15.29C11.89 15.68 11.89 16.31 12.29 16.7C12.68 17.1 13.31 17.1 13.7 16.7L17.7 12.7C17.9 12.51 18 12.27 18 12C18 11.72 17.9 11.48 17.7 11.29L13.7 7.29C13.31 6.89 12.68 6.89 12.29 7.29Z" fill="currentColor" fill-opacity="1.000000" fill-rule="evenodd"/>
</svg>
