<svg width="24.000000" height="24.000000" viewBox="0 0 24 24" fill="none" xmlns="http://www.w3.org/2000/svg" xmlns:xlink="http://www.w3.org/1999/xlink">
	<path id="vector" d="M13 14.58L13 7C13 6.44 12.55 6 12 6C11.43 6 11 6.44 11 7L11 14.58L8.7 12.29C8.31 11.89 7.68 11.89 7.29 12.29C6.89 12.68 6.89 13.31 7.29 13.7L11.29 17.7C11.48 17.9 11.72 18 12 18C12.27 18 12.51 17.9 12.7 17.7L16.7 13.7C17.1 13.31 17.1 12.68 16.7 12.29C16.31 11.89 15.68 11.89 15.29 12.29L13 14.58Z" fill="currentColor" fill-opacity="1.000000" fill-rule="evenodd"/>
</svg>
