<svg width="24.000000" height="24.000000" viewBox="0 0 24 24" fill="none" xmlns="http://www.w3.org/2000/svg" xmlns:xlink="http://www.w3.org/1999/xlink">
	<path id="vector" d="M11.7 6.7L7.41 11L19 11C19.56 11 20 11.44 20 12C20 12.56 19.56 13 19 13L7.41 13L11.7 17.29C12.1 17.68 12.1 18.31 11.7 18.7C11.31 19.1 10.68 19.1 10.29 18.7L4.29 12.7C4.09 12.51 4 12.27 4 12C4 11.72 4.09 11.48 4.29 11.29L10.29 5.29C10.68 4.89 11.31 4.89 11.7 5.29C12.1 5.68 12.1 6.31 11.7 6.7Z" fill="currentColor" fill-opacity="1.000000" fill-rule="evenodd"/>
</svg>
