<svg width="24.000000" height="24.000000" viewBox="0 0 24 24" fill="none" xmlns="http://www.w3.org/2000/svg" xmlns:xlink="http://www.w3.org/1999/xlink">
	<path id="vector" d="M11.7 8.7L9.41 11L17 11C17.56 11 18 11.44 18 12C18 12.56 17.56 13 17 13L9.41 13L11.7 15.29C12.1 15.68 12.1 16.31 11.7 16.7C11.31 17.1 10.68 17.1 10.29 16.7L6.29 12.7C6.09 12.51 6 12.27 6 12C6 11.72 6.09 11.48 6.29 11.29L10.29 7.29C10.68 6.89 11.31 6.89 11.7 7.29C12.1 7.68 12.1 8.31 11.7 8.7Z" fill="currentColor" fill-opacity="1.000000" fill-rule="evenodd"/>
</svg>
