<svg width="138.000000" height="120.000008" viewBox="0 0 138 120" fill="none" xmlns="http://www.w3.org/2000/svg" xmlns:xlink="http://www.w3.org/1999/xlink">
	<defs>
		<filter id="filter_186_61146_dd" x="33.000000" y="0.000000" width="105.000000" height="105.000000" filterUnits="userSpaceOnUse" color-interpolation-filters="sRGB">
			<feFlood flood-opacity="0" result="BackgroundImageFix"/>
			<feBlend mode="normal" in="SourceGraphic" in2="BackgroundImageFix" result="shape"/>
			<feGaussianBlur stdDeviation="7.5" result="effect_layerBlur_1"/>
		</filter>
		<filter id="filter_186_61147_dd" x="0.000000" y="15.000000" width="105.000000" height="105.000000" filterUnits="userSpaceOnUse" color-interpolation-filters="sRGB">
			<feFlood flood-opacity="0" result="BackgroundImageFix"/>
			<feBlend mode="normal" in="SourceGraphic" in2="BackgroundImageFix" result="shape"/>
			<feGaussianBlur stdDeviation="7.5" result="effect_layerBlur_1"/>
		</filter>
	</defs>
	<rect id="1" width="120.000000" height="120.000000" transform="translate(9.000000 0.000000)" fill="#FFFFFF" fill-opacity="1.000000"/>
	<g opacity="0.300000" filter="url(#filter_186_61146_dd)">
		<circle id="Oval 33" cx="85.500000" cy="52.500000" r="30.000000" fill="currentColor" fill-opacity="1.000000"/>
	</g>
	<g opacity="0.300000" filter="url(#filter_186_61147_dd)">
		<circle id="Oval 34" cx="52.500000" cy="67.500000" r="30.000000" fill="currentColor" fill-opacity="1.000000"/>
	</g>
	<path id="path" d="M91.05 44.69C91.17 44.44 91.31 44.19 91.45 43.97C91.91 43.27 92.43 42.66 93.02 42.16C93.6 41.65 94.22 41.2 94.86 40.81C95.51 40.43 96.11 40.05 96.67 39.67C97.23 39.3 97.72 38.91 98.12 38.49C98.52 38.07 98.77 37.58 98.88 37.01C99.05 36.12 98.81 35.35 98.18 34.71C97.55 34.07 96.65 33.64 95.49 33.42C94.3 33.2 93.16 33.28 92.09 33.66C91.39 33.91 90.74 34.28 90.16 34.75C89.61 35.21 88.83 35.21 88.27 34.76L84.62 31.81C84.26 31.53 84.07 31.13 84.06 30.67C84.05 30.21 84.23 29.81 84.57 29.51C85.89 28.37 87.45 27.51 89.27 26.92C91.69 26.12 94.55 26.03 97.82 26.65C100.11 27.08 102.08 27.78 103.73 28.75C105.39 29.72 106.6 30.93 107.38 32.37C108.16 33.81 108.37 35.43 108.03 37.25C107.82 38.41 107.45 39.39 106.93 40.19C106.41 40.98 105.81 41.66 105.14 42.21C104.47 42.76 103.77 43.25 103.04 43.69C102.31 44.12 101.62 44.54 100.98 44.94C100.33 45.34 99.78 45.78 99.32 46.25C99.11 46.47 98.93 46.71 98.79 46.98C98.48 47.56 97.84 47.87 97.19 47.74L92.14 46.8C91.67 46.71 91.3 46.43 91.08 46.01C90.86 45.58 90.85 45.13 91.05 44.69ZM92.26 59.02C90.8 58.75 89.68 58.06 88.9 56.96C88.12 55.86 87.85 54.67 88.09 53.39C88.34 52.08 89.02 51.07 90.14 50.37C91.25 49.67 92.54 49.46 94 49.73C95.52 50.02 96.66 50.69 97.44 51.74C98.21 52.8 98.47 53.98 98.23 55.29C97.99 56.57 97.31 57.58 96.2 58.33C95.09 59.08 93.78 59.31 92.26 59.02Z" fill="#FFFFFF" fill-opacity="1.000000" fill-rule="evenodd"/>
	<g opacity="0.800000">
		<path id="Vector 340" d="M70.07 67.06C69.62 66.97 69.08 67 68.47 67.14C67.97 67.27 67.41 67.47 66.8 67.75C65.64 68.29 63.66 69.49 60.87 71.35C58.68 72.8 57.08 73.82 56.07 74.38C55.25 74.84 54.49 75.2 53.77 75.48C53.06 75.76 52.4 75.96 51.78 76.06C51.38 75.86 50.95 75.63 50.47 75.37C49.53 74.87 48.44 74.26 47.21 73.56C46.08 71.11 44.63 69.57 42.86 68.93C42.66 68.86 42.46 68.8 42.25 68.75C41.79 68.65 41.31 68.6 40.82 68.6C40.42 68.6 40.05 68.65 39.71 68.73C39.57 68.77 39.43 68.82 39.3 68.87C36.12 66.92 33.95 65.48 32.79 64.56C30.54 62.78 29.18 60.95 28.71 59.08C28.23 57.21 28.55 54.96 29.67 52.33C30.45 50.5 32.38 47 35.45 41.81C38.77 36.24 41.11 32.64 42.44 31.07C44.04 29.18 45.7 28.02 47.42 27.58C47.98 27.44 48.57 27.37 49.2 27.37C50.67 27.37 52.33 27.76 54.19 28.55C56.03 29.33 59.54 31.27 64.72 34.35C69.92 37.44 73.29 39.6 74.85 40.84C77.1 42.61 78.46 44.44 78.93 46.31C79.41 48.17 79.09 50.41 77.98 53.02C77.21 54.84 75.3 58.31 72.25 63.45L72.16 63.6C71.41 64.85 70.72 66.01 70.07 67.06ZM88.5 48.98C88.79 48.06 89.27 47.64 89.77 47.65C90.46 47.65 91.19 48.44 91.54 49.77C91.05 49.9 90.58 50.1 90.14 50.37C89.02 51.07 88.34 52.08 88.09 53.39C87.85 54.67 88.12 55.86 88.9 56.96C89.68 58.06 90.8 58.75 92.26 59.02C93.78 59.31 95.09 59.08 96.2 58.33C97.31 57.58 97.99 56.57 98.23 55.29C98.38 54.5 98.34 53.76 98.12 53.07C98.48 53 98.83 52.94 99.18 52.9C100.02 52.8 100.83 52.77 101.6 52.8C107.15 52.98 110.44 56.09 105.49 56.43C105.43 56.43 105.37 56.43 105.32 56.42C105.06 56.41 104.78 56.4 104.4 56.39C104.37 56.39 104.35 56.39 104.32 56.39L104.04 56.4C109.77 56.96 112.41 60.37 108.34 60.73C107.66 60.79 107.15 60.81 106.49 60.88C106.45 60.89 106.4 60.89 106.36 60.9C109.27 62.06 110 64.24 107.82 64.75C107.53 64.81 107.19 64.85 106.8 64.85C106.58 64.85 106.34 64.84 106.08 64.82C104.76 64.7 103.43 64.8 102.1 65.05C99.17 65.6 96.24 66.85 93.41 68.06C90.47 69.32 87.65 70.53 85.08 70.83C85 70.84 84.93 70.85 84.86 70.86C84.81 70.86 84.77 70.87 84.73 70.87C84.34 70.9 83.96 70.91 83.59 70.9C78.04 70.66 74.99 64.96 80.67 59.74C83.26 57.36 87.04 53.52 88.5 48.98ZM59.12 78.91C59.08 78.93 59.05 78.95 59.01 78.97C58.7 79.13 58.4 79.29 58.09 79.44C57.72 79.63 57.57 80.08 57.76 80.45C57.86 80.64 58.01 80.77 58.2 80.83C58.38 80.89 58.58 80.88 58.77 80.78C59.15 80.59 59.53 80.39 59.91 80.18C60.28 79.99 60.64 79.79 61 79.58C61.04 79.57 61.07 79.55 61.11 79.54C61.68 79.31 62.14 79.29 62.52 79.47C62.9 79.66 63.26 80.09 63.56 80.73C64.16 82.01 63.73 83.15 62.3 84.16C62.22 84.21 62.16 84.27 62.11 84.34C61.97 84.55 61.91 84.74 61.94 84.91C61.97 85.09 62.09 85.24 62.3 85.39C63.16 85.99 63.61 86.62 63.67 87.29C63.7 87.63 63.62 87.98 63.43 88.35C62.95 89.27 62.07 90.05 60.78 90.68C60.6 90.77 60.4 90.86 60.2 90.94C55.65 92.84 51.77 93.24 48.57 92.12C48.2 91.99 47.85 91.85 47.52 91.68C46.83 91.33 46.22 90.89 45.7 90.37C44.24 88.88 43.47 86.7 43.4 83.83C43.4 83.77 43.4 83.68 43.39 83.56C43.33 80.81 43.12 78.84 42.77 77.65C42.28 75.99 41.12 73.88 39.3 71.33C39.19 71.19 39.15 71.05 39.17 70.91C39.18 70.81 39.23 70.72 39.31 70.62C39.55 70.37 39.89 70.2 40.34 70.14C40.49 70.11 40.66 70.1 40.83 70.1C40.86 70.1 40.89 70.1 40.91 70.1C41.25 70.1 41.58 70.14 41.89 70.22C41.96 70.24 42.03 70.25 42.1 70.28C43.64 70.73 44.92 72.09 45.92 74.35C46.47 75.58 47.21 76.46 48.15 77.01C48.25 77.06 48.35 77.12 48.45 77.17C49.18 77.52 50.03 77.68 50.98 77.65C51.18 77.64 51.39 77.62 51.61 77.6C52.9 77.45 54.36 76.95 55.99 76.12C56.26 75.99 56.53 75.84 56.8 75.69C57.85 75.11 59.48 74.07 61.71 72.59C65.73 69.92 68.34 68.57 69.54 68.54C69.64 68.54 69.72 68.55 69.8 68.56C69.95 68.59 70.07 68.65 70.15 68.74C70.96 69.86 69.58 71.84 65.91 74.58C64.12 75.92 62.25 77.14 60.32 78.24C60.28 78.26 60.25 78.28 60.21 78.3C60.15 78.32 60.09 78.36 60.05 78.4C59.74 78.57 59.43 78.74 59.12 78.91Z" fill="#FFFFFF" fill-opacity="1.000000" fill-rule="evenodd"/>
	</g>
	<path id="Vector 339" d="M34.4 43.6C31.93 47.81 30.36 50.72 29.67 52.33C28.55 54.96 28.23 57.21 28.71 59.08C29.18 60.95 30.54 62.78 32.79 64.56C33.95 65.48 36.12 66.92 39.3 68.87C39.74 68.69 40.24 68.61 40.82 68.6C41.54 68.59 42.22 68.7 42.86 68.93C44.63 69.57 46.08 71.11 47.21 73.56C49.07 74.62 50.6 75.46 51.78 76.06C53.01 75.85 54.44 75.29 56.07 74.38C56.66 74.05 57.44 73.58 58.42 72.95C53.56 72.46 46.38 70.42 37.55 63.17C32.42 58.96 33.43 52.89 34.18 48.44C34.53 46.36 34.81 44.63 34.4 43.6ZM81.71 66.27C81.77 66.97 89.87 65.05 89.88 64.62C89.91 62.21 81.49 63.86 81.71 66.27ZM61.06 90.54C59.62 89.92 57.9 89.87 56 89.82C54.23 89.77 52.31 89.72 50.33 89.2C46.88 88.28 46.52 84.95 43.38 83.1C43.39 83.26 43.39 83.41 43.4 83.56C43.4 83.68 43.4 83.77 43.4 83.83C43.47 86.7 44.24 88.88 45.71 90.37C46.47 91.14 47.42 91.72 48.57 92.12C51.77 93.24 55.65 92.84 60.2 90.94C60.51 90.81 60.79 90.68 61.06 90.54ZM68.49 96.69C53.28 96.69 40.94 97.71 40.94 98.96C40.94 100.21 53.28 101.23 68.49 101.23C83.71 101.23 96.05 100.21 96.05 98.96C96.05 97.71 83.71 96.69 68.49 96.69Z" fill="#052658" fill-opacity="0.060000" fill-rule="evenodd"/>
	<path id="Vector 337" d="M62.76 42.53C62.54 44.52 62.08 46.8 61.37 49.37C60.72 51.74 60.08 53.74 59.46 55.38C59.1 55.43 58.74 55.46 58.38 55.46C54.4 55.46 51.17 52.24 51.17 48.25C51.17 44.27 54.4 41.05 58.38 41.05C59.98 41.05 61.51 41.58 62.76 42.53Z" fill="#DFE2E6" fill-opacity="1.000000" fill-rule="evenodd"/>
	<path id="Vector 338" d="M62.08 46.54C61.88 47.44 61.64 48.39 61.37 49.37C61.16 50.15 60.95 50.88 60.74 51.58C60.07 52.05 59.26 52.33 58.38 52.33C56.13 52.33 54.31 50.5 54.31 48.25C54.31 46 56.13 44.18 58.38 44.18C60.02 44.18 61.43 45.15 62.08 46.54Z" fill="#093E2F" fill-opacity="1.000000" fill-rule="evenodd"/>
	<path id="circle" d="M53.35 50.73C53.35 49.58 54.29 48.65 55.44 48.65C56.59 48.65 57.53 49.58 57.53 50.73C57.53 51.89 56.59 52.82 55.44 52.82C54.29 52.82 53.35 51.89 53.35 50.73Z" fill="#FFFFFF" fill-opacity="1.000000" fill-rule="evenodd"/>
	<path id="Vector 335" d="M65.49 33.06C60.25 29.95 56.67 27.98 54.77 27.17C51.82 25.92 49.25 25.57 47.05 26.13C45.03 26.64 43.11 27.97 41.3 30.1C39.91 31.74 37.54 35.38 34.18 41.02C31.07 46.26 29.1 49.85 28.29 51.74C27.04 54.69 26.7 57.25 27.25 59.45C27.81 61.65 29.35 63.74 31.85 65.73C33 66.64 35.05 68.01 38.02 69.84C37.78 70.16 37.65 70.48 37.62 70.82C37.59 71.27 37.74 71.73 38.08 72.21C39.8 74.62 40.89 76.57 41.33 78.08C41.65 79.14 41.83 80.98 41.9 83.6C41.9 83.72 41.9 83.81 41.9 83.87C42.02 88.93 44.08 92.15 48.07 93.54C51.63 94.78 55.87 94.37 60.78 92.32C62.72 91.52 64.04 90.42 64.76 89.04C65.58 87.46 65.3 86.04 63.93 84.77C64.7 84.07 65.16 83.32 65.31 82.51C65.44 81.75 65.32 80.95 64.92 80.1C64.5 79.19 63.96 78.55 63.31 78.19C64.51 77.44 65.67 76.63 66.81 75.78C70.6 72.95 72.27 70.63 71.83 68.82C71.76 68.5 71.56 68.13 71.35 67.84C71.99 66.8 72.67 65.67 73.41 64.43L73.54 64.22C76.62 59.02 78.56 55.49 79.36 53.61C80.6 50.68 80.94 48.12 80.39 45.94C79.83 43.74 78.29 41.65 75.78 39.66C74.17 38.38 70.74 36.18 65.49 33.06ZM70.07 67.06C70.72 66.01 71.41 64.85 72.16 63.6L72.25 63.45C75.3 58.31 77.21 54.84 77.98 53.02C79.09 50.41 79.41 48.17 78.93 46.31C78.46 44.44 77.1 42.61 74.85 40.84C73.29 39.6 69.92 37.44 64.72 34.35C59.54 31.27 56.03 29.33 54.19 28.55C51.55 27.43 49.29 27.11 47.42 27.58C45.7 28.02 44.04 29.18 42.44 31.07C41.11 32.64 38.77 36.24 35.45 41.81C32.38 47 30.45 50.5 29.67 52.33C28.55 54.96 28.23 57.21 28.71 59.08C29.18 60.95 30.54 62.78 32.79 64.56C33.95 65.48 36.12 66.92 39.3 68.87C39.74 68.69 40.24 68.61 40.82 68.6C41.54 68.59 42.22 68.7 42.86 68.93C44.63 69.57 46.08 71.11 47.21 73.56C49.07 74.62 50.6 75.46 51.78 76.06C53.01 75.85 54.44 75.29 56.07 74.38C57.08 73.82 58.68 72.8 60.87 71.35C63.66 69.49 65.64 68.29 66.8 67.75C68.14 67.13 69.24 66.9 70.07 67.06ZM52.4 30.49C52.09 30.56 51.78 30.66 51.47 30.77C50.68 31.05 50.29 31.9 50.58 32.69C50.86 33.48 51.71 33.87 52.5 33.59C52.6 33.55 52.7 33.52 52.8 33.49C53.4 33.31 54.03 33.23 54.69 33.27C55.47 33.3 56.3 33.48 57.18 33.81C57.97 34.1 58.82 33.7 59.11 32.92C59.4 32.13 59.01 31.28 58.22 30.99C56.14 30.23 54.2 30.06 52.4 30.49ZM36.2 47.76C36.6 46.12 40.85 43.68 48.95 40.42C56.89 37.23 61.54 35.92 62.91 36.48C63 36.52 63.09 36.57 63.17 36.62C65.04 37.75 64.92 42.14 62.82 49.77C60.66 57.61 58.42 61.8 56.09 62.34C53.13 63.03 48.94 61.38 43.52 57.4C38.06 53.38 35.62 50.17 36.2 47.76ZM44.26 38.46C44.15 38.76 44.03 39.06 43.89 39.35C43.09 41.01 41.74 42.42 39.84 43.56C39.11 43.99 38.21 43.76 37.78 43.04C37.35 42.32 37.58 41.41 38.3 40.98C39.11 40.5 39.77 39.97 40.29 39.39C40.73 38.89 41.07 38.35 41.31 37.77C41.34 37.69 41.39 37.56 41.42 37.48C41.69 36.69 42.53 36.28 43.33 36.55C44.12 36.83 44.53 37.66 44.26 38.46ZM49.51 41.81C41.89 44.88 37.94 46.97 37.66 48.11C37.24 49.88 39.49 52.57 44.41 56.19C49.46 59.9 53.24 61.46 55.75 60.88C57.5 60.47 59.37 56.64 61.37 49.37C62.22 46.3 62.71 43.64 62.86 41.41C63 39.25 62.83 38.07 62.34 37.87C61.35 37.46 57.07 38.78 49.51 41.81ZM108.73 61.44C109.7 62.26 110.04 63.13 109.76 64.05C109.4 65.25 108.15 65.76 106.01 65.57C103.33 65.33 99.22 66.39 93.7 68.75C89.62 70.5 86.65 71.45 84.8 71.62C82.5 71.82 80.68 71.41 79.32 70.37C78.52 69.77 77.88 68.95 77.4 67.91C77.01 67.06 76.81 66.21 76.81 65.35C76.8 63.3 77.92 61.25 80.16 59.19C84.2 55.48 86.74 52 87.78 48.75C88.08 47.83 88.51 47.26 89.09 47.02C89.33 46.92 89.58 46.88 89.87 46.9C90.03 46.91 90.19 46.94 90.35 46.99C90.99 47.19 91.51 47.74 91.93 48.63C91.97 48.72 92.01 48.82 92.05 48.91C91.68 48.96 91.32 49.04 90.97 49.16C90.84 49.2 90.71 49.25 90.58 49.3C90.32 48.73 90.02 48.41 89.76 48.4C89.57 48.4 89.38 48.67 89.21 49.21C89.07 49.66 88.9 50.11 88.7 50.57C88.04 51.25 87.61 52.08 87.39 53.07C85.96 55.4 83.88 57.81 81.17 60.3C79.2 62.11 78.25 63.88 78.34 65.59C78.37 66.16 78.51 66.73 78.77 67.29C79.1 68.01 79.55 68.6 80.1 69.05C81.2 69.94 82.72 70.29 84.66 70.12C86.36 69.97 89.18 69.06 93.11 67.37C98.86 64.91 103.21 63.81 106.15 64.07C107.47 64.19 108.2 64.04 108.33 63.62C108.45 63.2 108.05 62.71 107.13 62.12C106.93 61.99 106.71 61.87 106.49 61.76C106.42 61.72 106.34 61.68 106.26 61.64C106.11 61.62 105.97 61.56 105.86 61.47C102.8 60.2 98.83 60.68 93.96 62.92C93.58 63.09 93.14 62.93 92.97 62.55C92.79 62.17 92.95 61.73 93.34 61.56C98.66 59.11 103.06 58.63 106.54 60.12C106.82 60.1 107.15 60.07 107.55 60.04C107.86 60.01 108.1 59.99 108.27 59.98C108.6 59.95 108.87 59.9 109.1 59.83C109.27 59.78 109.4 59.71 109.49 59.64C109.53 59.61 109.54 59.53 109.55 59.52C109.52 59.44 109.47 59.34 109.39 59.24C109.28 59.1 109.13 58.96 108.95 58.81C108.53 58.47 107.97 58.17 107.29 57.9C106.52 57.6 105.66 57.38 104.73 57.24C103.68 57.09 102.59 57.04 101.45 57.11C100.32 57.17 99.17 57.35 98.02 57.64C98.1 57.52 98.18 57.41 98.26 57.29C98.52 56.87 98.71 56.41 98.85 55.92C99.69 55.76 100.53 55.66 101.37 55.61C102.32 55.55 103.25 55.57 104.16 55.66C104.21 55.65 104.27 55.64 104.32 55.64C104.61 55.64 104.96 55.65 105.36 55.67C105.64 55.69 105.85 55.7 106 55.7C106.24 55.7 106.5 55.68 106.79 55.66C107.08 55.63 107.37 55.55 107.55 55.49C107.47 55.38 107.35 55.27 107.19 55.14C107.01 55 106.79 54.86 106.53 54.72C105.94 54.4 105.24 54.14 104.44 53.94C103.53 53.71 102.58 53.58 101.58 53.55C101.44 53.54 101.3 53.54 101.16 53.54C100.45 53.53 99.74 53.58 99.02 53.68C99 53.5 98.97 53.32 98.93 53.15C98.85 52.84 98.74 52.53 98.6 52.23C99.6 52.08 100.64 52.01 101.63 52.05C102.73 52.08 103.79 52.23 104.81 52.48C105.73 52.72 106.54 53.02 107.24 53.39C107.94 53.77 108.45 54.18 108.76 54.61C108.96 54.89 109.08 55.17 109.1 55.46C109.11 55.57 109.1 55.69 109.08 55.8C109.07 55.86 109.06 55.91 109.04 55.96C108.99 56.13 108.91 56.27 108.79 56.41C108.69 56.54 108.55 56.65 108.39 56.75C108.97 57.01 109.47 57.31 109.88 57.64C110.48 58.11 110.84 58.6 110.99 59.11C111.05 59.34 111.07 59.56 111.04 59.77C111.03 59.86 111.01 59.95 110.98 60.04C110.88 60.34 110.7 60.6 110.42 60.82C110.03 61.13 109.47 61.34 108.73 61.44ZM63.38 58.02C63.03 57.79 62.57 57.9 62.35 58.25C62.12 58.61 62.22 59.06 62.58 59.29C62.92 59.5 63.22 59.73 63.5 59.97C62.85 60.29 62.24 60.65 61.65 61.06C59.19 62.75 57.22 65.15 55.73 68.25C55.55 68.63 55.7 69.07 56.08 69.25C56.46 69.43 56.9 69.28 57.08 68.9C58.49 65.96 60.36 63.72 62.68 62.17C63.27 61.79 63.88 61.44 64.52 61.14C64.63 61.31 64.73 61.49 64.82 61.67C64.95 61.94 65.06 62.22 65.15 62.51C65.26 62.91 65.67 63.14 66.08 63.02C66.48 62.9 66.7 62.5 66.59 62.09C66.45 61.63 66.27 61.19 66.05 60.77C65.46 59.69 64.57 58.77 63.38 58.02ZM58.09 79.44C58.4 79.29 58.7 79.13 59.01 78.97C59.05 78.95 59.08 78.93 59.12 78.91C59.43 78.74 59.74 78.57 60.05 78.4C60.09 78.36 60.15 78.32 60.21 78.3C60.25 78.28 60.28 78.26 60.32 78.24C62.25 77.14 64.12 75.92 65.91 74.58C69.58 71.84 70.96 69.86 70.15 68.74C69.47 68.02 66.66 69.3 61.71 72.59C59.48 74.07 57.85 75.11 56.8 75.69C54.56 76.94 52.62 77.59 50.98 77.65C49.89 77.68 48.95 77.47 48.15 77.01C47.21 76.46 46.47 75.58 45.92 74.35C44.92 72.09 43.64 70.73 42.1 70.28C41.7 70.15 41.27 70.1 40.83 70.1C40.13 70.11 39.63 70.28 39.31 70.62C39.23 70.72 39.18 70.81 39.17 70.91C39.15 71.05 39.2 71.19 39.3 71.33C41.12 73.88 42.28 75.99 42.77 77.65C43.12 78.84 43.33 80.81 43.4 83.56C43.4 83.68 43.4 83.77 43.4 83.83C43.47 86.7 44.24 88.88 45.71 90.37C46.47 91.14 47.42 91.72 48.57 92.12C51.77 93.24 55.65 92.84 60.2 90.94C61.8 90.27 62.88 89.41 63.43 88.35C63.62 87.98 63.7 87.63 63.67 87.29C63.61 86.62 63.16 85.99 62.3 85.39C62.09 85.24 61.97 85.09 61.94 84.91C61.91 84.74 61.97 84.55 62.11 84.34C62.16 84.27 62.22 84.21 62.3 84.16C63.73 83.15 64.16 82.01 63.56 80.73C63.26 80.09 62.9 79.66 62.52 79.47C62.12 79.28 61.61 79.32 61 79.58C60.64 79.79 60.28 79.99 59.91 80.18C59.53 80.39 59.15 80.59 58.77 80.78C58.39 80.97 57.95 80.83 57.76 80.45C57.57 80.08 57.72 79.63 58.09 79.44Z" fill="#2F363D" fill-opacity="1.000000" fill-rule="evenodd"/>
	<g opacity="0.400000">
		<path id="Vector 336" d="M107.21 33.94C107.48 34.91 107.51 35.97 107.3 37.11C107.1 38.18 106.76 39.07 106.3 39.78C105.83 40.51 105.28 41.12 104.66 41.63C104.02 42.15 103.35 42.62 102.65 43.04C101.93 43.47 101.24 43.89 100.58 44.3C99.88 44.74 99.28 45.21 98.78 45.72C98.52 46 98.3 46.29 98.13 46.62C97.95 46.95 97.69 47.07 97.33 47.01L92.28 46.06C92.04 46.02 91.86 45.88 91.75 45.67C91.64 45.45 91.63 45.23 91.73 45.01C91.82 44.82 91.91 44.65 92.02 44.47L96.25 45.26C96.9 45.39 97.53 45.08 97.85 44.5C97.99 44.23 98.17 43.99 98.38 43.77C98.84 43.3 99.39 42.86 100.04 42.46C100.68 42.06 101.37 41.64 102.1 41.21C102.82 40.77 103.53 40.28 104.2 39.73C104.87 39.18 105.47 38.5 105.99 37.71C106.51 36.91 106.88 35.93 107.09 34.77C107.15 34.49 107.19 34.21 107.21 33.94ZM97.96 33.57C97.32 33.15 96.54 32.85 95.62 32.68C94.7 32.51 93.8 32.5 92.93 32.66C92.56 32.73 92.2 32.83 91.84 32.96C91.45 33.09 91.09 33.26 90.73 33.46C90.37 33.66 90.02 33.9 89.69 34.17C89.53 34.3 89.37 34.36 89.22 34.37C89.06 34.37 88.9 34.3 88.74 34.18L85.09 31.23C85 31.16 84.93 31.07 84.88 30.98C84.83 30.88 84.81 30.78 84.81 30.66C84.8 30.54 84.82 30.44 84.87 30.34L87.33 32.28C87.89 32.73 88.67 32.73 89.22 32.27C89.8 31.8 90.45 31.43 91.15 31.18C92.22 30.8 93.35 30.72 94.54 30.94C95.71 31.16 96.6 31.59 97.24 32.23C97.63 32.63 97.87 33.07 97.96 33.57ZM89.51 56.53C89.72 56.81 89.95 57.06 90.2 57.28C90.79 57.79 91.52 58.12 92.4 58.28C93.71 58.53 94.84 58.34 95.78 57.7C96.72 57.08 97.29 56.22 97.49 55.15C97.6 54.56 97.59 54.01 97.46 53.48C97.41 53.29 97.34 53.11 97.26 52.93C97 54.15 96.34 55.12 95.26 55.85C94.15 56.59 92.84 56.83 91.32 56.54C90.41 56.37 89.64 56.04 88.99 55.55C89.12 55.88 89.29 56.21 89.51 56.53Z" fill="currentColor" fill-opacity="1.000000" fill-rule="evenodd"/>
	</g>
	<path id="path (Border)" d="M92.53 41.59C91.89 42.14 91.32 42.79 90.82 43.56C90.65 43.82 90.5 44.1 90.37 44.38C90.06 45.04 90.08 45.7 90.41 46.35C90.58 46.68 90.8 46.94 91.06 47.14C91.33 47.33 91.64 47.47 92 47.53L97.05 48.48C97.59 48.58 98.06 48.54 98.46 48.34C98.86 48.15 99.19 47.81 99.45 47.33C99.56 47.13 99.69 46.94 99.86 46.77C100.27 46.35 100.78 45.95 101.37 45.58C102.02 45.17 102.7 44.76 103.42 44.33C104.19 43.87 104.92 43.36 105.62 42.79C106.35 42.19 107 41.46 107.56 40.6C108.13 39.72 108.53 38.65 108.77 37.39C109.14 35.4 108.9 33.61 108.04 32.01C108.02 31.97 107.99 31.93 107.97 31.89C107.13 30.38 105.84 29.12 104.11 28.1C102.39 27.09 100.34 26.36 97.96 25.91C94.56 25.27 91.58 25.37 89.03 26.2C87.12 26.82 85.47 27.74 84.08 28.95C83.82 29.18 83.62 29.44 83.49 29.73C83.36 30.02 83.3 30.34 83.31 30.69C83.32 31.39 83.6 31.96 84.15 32.4L87.8 35.34C88.28 35.73 88.75 35.92 89.22 35.91C89.7 35.91 90.17 35.72 90.64 35.33C90.9 35.12 91.18 34.93 91.47 34.76C91.75 34.61 92.04 34.48 92.34 34.37C92.58 34.28 92.82 34.21 93.07 34.16C93.8 34.01 94.56 34.01 95.35 34.16C96.36 34.35 97.12 34.71 97.65 35.24C97.87 35.46 98.02 35.71 98.1 35.98C98.19 36.26 98.2 36.55 98.14 36.88C98.11 37.07 98.05 37.26 97.96 37.43C97.86 37.62 97.74 37.8 97.58 37.97C97.21 38.35 96.77 38.71 96.26 39.05C95.72 39.4 95.12 39.78 94.48 40.17C93.8 40.58 93.15 41.05 92.53 41.59ZM92.08 44.37C92.5 43.73 92.98 43.18 93.51 42.72C94.06 42.24 94.64 41.82 95.25 41.46C95.92 41.05 96.53 40.67 97.09 40.3C97.69 39.9 98.22 39.47 98.66 39.01C99.16 38.48 99.48 37.86 99.62 37.15C99.83 36 99.53 35.01 98.71 34.18C97.97 33.43 96.94 32.93 95.62 32.68C94.7 32.51 93.8 32.5 92.93 32.66C92.56 32.73 92.2 32.83 91.84 32.96C91.45 33.09 91.09 33.26 90.73 33.46C90.37 33.66 90.02 33.9 89.69 34.17C89.53 34.3 89.37 34.36 89.22 34.36C89.06 34.37 88.9 34.3 88.74 34.18L85.09 31.23C85 31.16 84.93 31.07 84.88 30.98C84.83 30.88 84.81 30.78 84.81 30.66C84.8 30.43 84.89 30.23 85.07 30.08C86.3 29 87.78 28.19 89.5 27.63C91.8 26.87 94.53 26.79 97.68 27.38C99.89 27.8 101.78 28.47 103.35 29.4C104.89 30.3 106.01 31.41 106.72 32.72C106.86 33 106.99 33.28 107.09 33.56C107.47 34.64 107.54 35.82 107.3 37.11C107.1 38.18 106.76 39.07 106.3 39.78C105.83 40.51 105.28 41.12 104.66 41.63C104.02 42.15 103.35 42.62 102.65 43.04C101.93 43.47 101.24 43.89 100.58 44.3C99.88 44.74 99.28 45.21 98.78 45.72C98.52 46 98.3 46.29 98.13 46.62C97.95 46.95 97.69 47.07 97.33 47.01L92.28 46.06C92.04 46.02 91.86 45.88 91.75 45.67C91.64 45.45 91.63 45.23 91.73 45.01C91.83 44.79 91.95 44.58 92.08 44.37ZM87.34 55.19C87.48 55.96 87.79 56.69 88.29 57.39C88.61 57.84 88.97 58.22 89.38 58.55C90.13 59.15 91.05 59.56 92.12 59.76C93.84 60.08 95.34 59.81 96.62 58.95C97.31 58.49 97.86 57.93 98.26 57.29C98.6 56.73 98.84 56.11 98.97 55.43C99.12 54.63 99.1 53.87 98.92 53.15C98.76 52.5 98.47 51.88 98.04 51.3C97.83 51.01 97.59 50.74 97.33 50.5C96.5 49.74 95.44 49.24 94.14 49C92.99 48.78 91.94 48.84 90.97 49.16C90.54 49.3 90.13 49.49 89.74 49.74C88.44 50.55 87.64 51.72 87.36 53.25C87.23 53.92 87.22 54.57 87.34 55.19ZM90.2 57.28C89.95 57.06 89.72 56.81 89.51 56.53C89.14 56 88.91 55.45 88.81 54.87C88.74 54.44 88.74 53.99 88.83 53.53C88.94 52.96 89.14 52.46 89.44 52.02C89.72 51.63 90.09 51.29 90.53 51.01C91.49 50.41 92.6 50.23 93.86 50.47C95.19 50.72 96.18 51.29 96.83 52.19C97.13 52.59 97.34 53.03 97.46 53.48C97.59 54.01 97.6 54.56 97.49 55.15C97.29 56.22 96.72 57.08 95.78 57.7C94.84 58.34 93.71 58.53 92.4 58.28C91.52 58.12 90.79 57.79 90.2 57.28Z" fill="currentColor" fill-opacity="1.000000" fill-rule="evenodd"/>
</svg>
